<svg xmlns="http://www.w3.org/2000/svg" viewBox="0 0 1440 510">
  <defs>
    <style>
      .cls-1 {
        isolation: isolate;
      }

      .cls-2 {
        fill: #f8faf7;
      }

      .cls-3 {
        opacity: 0.68;
      }

      .cls-4 {
        fill: #d1d3d4;
      }

      .cls-5 {
        fill: #ff953f;
      }

      .cls-6 {
        fill: #f7a489;
      }

      .cls-7 {
        fill: #f8dfd7;
        mix-blend-mode: multiply;
      }

      .cls-8 {
        fill: #262626;
      }

      .cls-9 {
        fill: #181f36;
      }

      .cls-10 {
        fill: #fff;
        opacity: 0.44;
      }

      .cls-11 {
        fill: #939598;
      }

      .cls-12 {
        fill: #c2c0ff;
      }

      .cls-13 {
        fill: #8886da;
      }

      .cls-14 {
        fill: none;
        stroke: #d1d3d4;
        stroke-miterlimit: 10;
        stroke-width: 2px;
        stroke-dasharray: 8;
      }
    </style>
  </defs>
  <g class="cls-1">
    <g id="Layer_1" data-name="Layer 1">
      <rect class="cls-2" width="1440" height="510"/>
      <g>
        <g class="cls-3">
          <path class="cls-4" d="M1087.8,267.6l10.2,8.9a59.1,59.1,0,0,0-25.6,16.1,52.8,52.8,0,0,0,.7,69.5h-26.6a75,75,0,0,1-3.7-62.3,18.9,18.9,0,0,1,1-3.6c10.8-23.8,30.8-40,56.6-43.3Z"/>
          <path class="cls-4" d="M1188,327a75,75,0,0,0-68.8-74.8v-7L1098.4,266l20.8,21.7V274.3a53.1,53.1,0,0,1-6.4,105.9H995.3v22h117.5A75.2,75.2,0,0,0,1188,327Z"/>
          <path class="cls-4" d="M1238.8,392,1218,370.4v9.8h-38.8a75.3,75.3,0,0,1-33.4,22H1218v10.7Z"/>
          <path class="cls-4" d="M1087.8,267.6l10.2,8.9a59.1,59.1,0,0,0-25.6,16.1,52.8,52.8,0,0,0,.7,69.5h-26.6a75,75,0,0,1-3.7-62.3,18.9,18.9,0,0,1,1-3.6c10.8-23.8,30.8-40,56.6-43.3Z"/>
          <path class="cls-4" d="M1188,327a75,75,0,0,0-68.8-74.8v-7L1098.4,266l20.8,21.7V274.3a53.1,53.1,0,0,1-6.4,105.9H995.3v22h117.5A75.2,75.2,0,0,0,1188,327Z"/>
          <path class="cls-4" d="M1238.8,392,1218,370.4v9.8h-38.8a75.3,75.3,0,0,1-33.4,22H1218v10.7Z"/>
        </g>
        <g>
          <path class="cls-5" d="M1090.1,348.1c-6,13.1-17.5,47.9-17.5,47.9h23.6Z"/>
          <g>
            <path class="cls-5" d="M1123.7,396l-29.7.7c.1-.5.2-3.3.2-3.5-.3-2-3.2-16.2-5.3-25.1-1.6-6.9,1.2-20,1.2-20h25.1l17.5,5.6-10.5,36.6C1122.1,390.8,1123.1,394,1123.7,396Z"/>
            <path class="cls-6" d="M1116.3,332.3c-.4,2.1-.8,13.4-1,15.8l3.1,1.1s-10,11.1-12,13c0,0-4.1-10.2-3.9-14.1h1.5s1-13,1-13.1S1116.3,332.3,1116.3,332.3Z"/>
            <path class="cls-7" d="M1113.7,337.2c-1.2,5.2-9.4,6.2-9.4,6.2l.4-4.8Z"/>
            <circle class="cls-8" cx="1121.7" cy="310.1" r="10" transform="translate(54.5 774.2) rotate(-39)"/>
            <path class="cls-6" d="M1096.7,319.3c-.5,6.4,3.9,21.6,3.9,21.6s4.3,1.1,11.3-2.2,3.7-16.4,3.7-16.4-3.8-8.8-10.9-9.4A7.4,7.4,0,0,0,1096.7,319.3Z"/>
            <ellipse class="cls-5" cx="1113.7" cy="309.9" rx="4.3" ry="5.6" transform="translate(526.5 1305.7) rotate(-75)"/>
            <path class="cls-8" d="M1114.4,330.5l-3.5-8.7s-8.3-4.8-8.5-4.8-5.7,2.8-5.7,2.8a12,12,0,0,1,2.2-6.6c1.3-1.7,5.4-4.9,14-3.2,1,.2,4.7,2.1,7.1,6.2,1.4,2.3,3.7,12.8-.9,15.8C1118.6,332.4,1114.4,330.5,1114.4,330.5Z"/>
            <path class="cls-6" d="M1114.2,329.9c-.4-3.8.8-6.4,3.7-5.3s1.3,8.4-1.3,9.7S1114.2,329.9,1114.2,329.9Z"/>
          </g>
          <path class="cls-6" d="M1085.6,397.5s2.9,3.9,3.6,4.3,16.7.7,17.5.8a30.4,30.4,0,0,1,4.3,1.2l7-4.2-4.6-2.4Z"/>
          <path class="cls-5" d="M1141.9,393.6l-9.2-39.9-8.4,24.5,4.9,16.6-20.9,2.7c-1.7.3-4.3,5.9-2.4,6.5s15.8,1.7,25.1,2.5a11.9,11.9,0,0,0,5-1.1A10.3,10.3,0,0,0,1141.9,393.6Z"/>
          <g>
            <path class="cls-9" d="M1061,395.7h61.5a1,1,0,0,1,1,1v.8a0,0,0,0,1,0,0H1061a0,0,0,0,1,0,0v-1.9A0,0,0,0,1,1061,395.7Z"/>
            <path class="cls-9" d="M1112.3,395.7H1061l-6.7-30.7a1.8,1.8,0,0,1,1.7-2.2h46.9a2.6,2.6,0,0,1,2.6,2.1Z"/>
            <circle class="cls-10" cx="1081.4" cy="379.4" r="1.8"/>
          </g>
        </g>
        <g>
          <g>
            <path class="cls-11" d="M1084.5,180.1l-.5-1.5h-2.3l-.5,1.5h-1.5l2.3-6.5h1.7l2.3,6.5Zm-.8-2.7c-.4-1.4-.7-2.1-.7-2.3a1.1,1.1,0,0,1-.1-.5l-.9,2.8Z"/>
            <path class="cls-11" d="M1090.9,175.2v.7l-.7.2a1.4,1.4,0,0,1,.2.7,1.4,1.4,0,0,1-.6,1.2,2.3,2.3,0,0,1-1.5.5h-.4a.5.5,0,0,0-.3.4c0,.2.3.3.8.3h.8a2.3,2.3,0,0,1,1.3.3,1.8,1.8,0,0,1,.4,1,1.7,1.7,0,0,1-.7,1.4,4.1,4.1,0,0,1-2.1.5,3.4,3.4,0,0,1-1.6-.4,1.2,1.2,0,0,1-.5-1,.9.9,0,0,1,.3-.7,1.2,1.2,0,0,1,.8-.5c-.2,0-.3-.1-.4-.3s-.1-.2-.1-.4a.9.9,0,0,1,.1-.5l.5-.3a.9.9,0,0,1-.6-.6,1.1,1.1,0,0,1-.2-.8,1.4,1.4,0,0,1,.5-1.3,2.1,2.1,0,0,1,1.5-.4h2.5Zm-3.8,5.6c0,.2.1.3.3.4a1.5,1.5,0,0,0,.8.2l1.1-.2a.5.5,0,0,0,.4-.6c0-.1-.1-.3-.2-.3h-2.1A.5.5,0,0,0,1087.1,180.8Zm.5-4a.8.8,0,0,0,.2.6.6.6,0,0,0,.6.3.5.5,0,0,0,.5-.3.8.8,0,0,0,.2-.6c0-.6-.2-.9-.7-.9S1087.6,176.2,1087.6,176.8Z"/>
            <path class="cls-11" d="M1091.7,173.9c0-.4.2-.6.7-.6s.7.2.7.6a.7.7,0,0,1-.1.5l-.6.2C1091.9,174.6,1091.7,174.4,1091.7,173.9Zm1.4,6.2h-1.4v-4.9h1.4Z"/>
            <path class="cls-11" d="M1095.8,180.1h-1.3v-6.8h1.3Z"/>
            <path class="cls-11" d="M1099.5,180.2a2.4,2.4,0,0,1-2.6-2.5,2.4,2.4,0,0,1,.7-1.9,1.9,1.9,0,0,1,1.7-.7,2.1,2.1,0,0,1,2.2,2.2v.7h-3.2a1.1,1.1,0,0,0,1.2,1.2h.9l.8-.3v1c-.2.2-.5.2-.8.3Zm-.2-4.2a.9.9,0,0,0-.7.3c-.2.2-.2.5-.3.8h1.9a1.1,1.1,0,0,0-.3-.8A.6.6,0,0,0,1099.3,176Z"/>
            <path class="cls-11" d="M1107.6,180.2a1.8,1.8,0,0,1-1.4-.6h0v2.7h-1.3v-7.1h1.1l.2.6h0a1.8,1.8,0,0,1,2.8,0,3,3,0,0,1,.5,1.8,5.2,5.2,0,0,1-.2,1.4,2.2,2.2,0,0,1-.7.9A1.7,1.7,0,0,1,1107.6,180.2Zm-.4-4a.8.8,0,0,0-.7.3,1.3,1.3,0,0,0-.3,1h0a2.1,2.1,0,0,0,.3,1.2.8.8,0,0,0,.7.3q.9,0,.9-1.5a3.1,3.1,0,0,0-.2-1.1A.9.9,0,0,0,1107.2,176.2Z"/>
            <path class="cls-11" d="M1113.3,175.1h.5v1.3h-.4a1.5,1.5,0,0,0-1,.4,1.3,1.3,0,0,0-.4.9v2.5h-1.3v-4.9h1l.2.8h.1a1.3,1.3,0,0,1,.6-.7Z"/>
            <path class="cls-11" d="M1114.6,173.9c0-.4.3-.6.7-.6s.8.2.8.6a.8.8,0,0,1-.2.5l-.6.2A.6.6,0,0,1,1114.6,173.9Zm1.4,6.2h-1.3v-4.9h1.3Z"/>
            <path class="cls-11" d="M1122,180.1h-1.4v-2.9a1.1,1.1,0,0,0-.2-.8l-.6-.2a1.1,1.1,0,0,0-.8.3,2.4,2.4,0,0,0-.2,1.3v2.3h-1.4v-4.9h1l.2.6h.1l.6-.5.9-.2a1.4,1.4,0,0,1,1.3.5,1.7,1.7,0,0,1,.5,1.3Z"/>
            <path class="cls-11" d="M1125.3,180.2c-1.5,0-2.3-.9-2.3-2.5a2.2,2.2,0,0,1,.7-1.9,2.1,2.1,0,0,1,1.8-.7,4,4,0,0,1,1.5.3l-.4,1.1-.6-.2h-.5c-.7,0-1.1.5-1.1,1.5s.4,1.4,1.1,1.4h.7l.6-.3v1.1a.9.9,0,0,1-.6.3Z"/>
            <path class="cls-11" d="M1127.9,173.9c0-.4.3-.6.7-.6s.8.2.8.6a.8.8,0,0,1-.2.5.8.8,0,0,1-.6.2A.6.6,0,0,1,1127.9,173.9Zm1.4,6.2H1128v-4.9h1.3Z"/>
            <path class="cls-11" d="M1133.4,180.2a1.5,1.5,0,0,1-1.3-.6h-.1a3.5,3.5,0,0,0,.1.7v2h-1.4v-7.1h1.1l.2.6h.1a1.4,1.4,0,0,1,1.3-.7,1.5,1.5,0,0,1,1.4.7,3,3,0,0,1,.5,1.8,5.2,5.2,0,0,1-.2,1.4,2.2,2.2,0,0,1-.7.9A1.7,1.7,0,0,1,1133.4,180.2Zm-.4-4a.8.8,0,0,0-.7.3c-.2.2-.2.5-.2,1h0a2.2,2.2,0,0,0,.2,1.2.8.8,0,0,0,.7.3q.9,0,.9-1.5a1.8,1.8,0,0,0-.2-1.1A.8.8,0,0,0,1133,176.2Z"/>
            <path class="cls-11" d="M1137.7,180.1h-1.3v-6.8h1.3Z"/>
            <path class="cls-11" d="M1141.4,180.2a2.5,2.5,0,0,1-1.9-.7,2.4,2.4,0,0,1-.6-1.8,2.7,2.7,0,0,1,.6-1.9,2.1,2.1,0,0,1,1.7-.7,2.1,2.1,0,0,1,2.2,2.2v.7h-3.2a1,1,0,0,0,.4.9,1.1,1.1,0,0,0,.8.3h.9l.8-.3v1c-.2.2-.5.2-.7.3Zm-.2-4.2a.9.9,0,0,0-.7.3l-.3.8h1.9a1.9,1.9,0,0,0-.2-.8A.9.9,0,0,0,1141.2,176Z"/>
            <path class="cls-11" d="M1147.9,178.6a1.7,1.7,0,0,1-.5,1.2,2.5,2.5,0,0,1-1.6.4h-.9l-.7-.2v-1.1l.8.3h.8c.5,0,.8-.1.8-.4s-.1-.2-.1-.3l-.4-.2-.6-.3a2.9,2.9,0,0,1-.8-.4l-.4-.5a1.3,1.3,0,0,1-.1-.6,1.2,1.2,0,0,1,.5-1.1,2.6,2.6,0,0,1,1.4-.3,3.3,3.3,0,0,1,1.7.4l-.4.9-.6-.2h-.7q-.6,0-.6.3l.2.3.8.4.9.4.4.5A1.3,1.3,0,0,1,1147.9,178.6Z"/>
          </g>
          <g>
            <g>
              <g>
                <g>
                  <line class="cls-12" x1="1113.5" y1="100.2" x2="1113.5" y2="108.5"/>
                  <rect class="cls-12" x="1113.1" y="100.2" width="0.8" height="8.38"/>
                </g>
                <circle class="cls-12" cx="1113.5" cy="100.2" r="3"/>
                <circle class="cls-2" cx="1113.5" cy="100.2" r="1.4"/>
              </g>
              <g>
                <g>
                  <line class="cls-12" x1="1096" y1="106.2" x2="1100.9" y2="112.9"/>
                  <rect class="cls-12" x="1098" y="105.4" width="0.8" height="8.38" transform="translate(145.7 667) rotate(-36)"/>
                </g>
                <circle class="cls-12" cx="1096" cy="106.2" r="3"/>
                <circle class="cls-2" cx="1096" cy="106.2" r="1.4"/>
              </g>
              <g>
                <g>
                  <line class="cls-12" x1="1085.4" y1="121.3" x2="1093.3" y2="123.9"/>
                  <rect class="cls-12" x="1088.9" y="118.4" width="0.8" height="8.38" transform="translate(636.6 1121) rotate(-72)"/>
                </g>
                <circle class="cls-12" cx="1085.4" cy="121.3" r="3"/>
                <circle class="cls-2" cx="1085.4" cy="121.3" r="1.4"/>
              </g>
              <g>
                <g>
                  <line class="cls-12" x1="1085.7" y1="139.8" x2="1093.6" y2="137.2"/>
                  <rect class="cls-12" x="1085.5" y="138.1" width="8.4" height="0.84" transform="translate(10.6 344) rotate(-18)"/>
                </g>
                <circle class="cls-12" cx="1085.7" cy="139.8" r="3"/>
                <circle class="cls-2" cx="1085.7" cy="139.8" r="1.4"/>
              </g>
              <g>
                <g>
                  <line class="cls-12" x1="1096.8" y1="154.6" x2="1101.7" y2="147.8"/>
                  <rect class="cls-12" x="1095.1" y="150.8" width="8.4" height="0.84" transform="translate(331.2 952) rotate(-54)"/>
                </g>
                <circle class="cls-12" cx="1096.8" cy="154.6" r="3"/>
                <circle class="cls-2" cx="1096.8" cy="154.6" r="1.4"/>
              </g>
              <g>
                <g>
                  <line class="cls-12" x1="1114.5" y1="160" x2="1114.5" y2="151.6"/>
                  <rect class="cls-12" x="1114.1" y="151.6" width="0.8" height="8.38"/>
                </g>
                <circle class="cls-12" cx="1114.5" cy="160" r="3"/>
                <circle class="cls-2" cx="1114.5" cy="160" r="1.4"/>
              </g>
              <g>
                <g>
                  <line class="cls-12" x1="1132" y1="154" x2="1127.1" y2="147.2"/>
                  <rect class="cls-12" x="1129.1" y="146.4" width="0.8" height="8.38" transform="translate(127.5 693.2) rotate(-36)"/>
                </g>
                <circle class="cls-12" cx="1132" cy="154" r="3"/>
                <circle class="cls-2" cx="1132" cy="154" r="1.4"/>
              </g>
              <g>
                <g>
                  <line class="cls-12" x1="1142.6" y1="138.8" x2="1134.7" y2="136.3"/>
                  <rect class="cls-12" x="1138.2" y="133.4" width="0.8" height="8.38" transform="translate(656.5 1178.2) rotate(-72)"/>
                </g>
                <circle class="cls-12" cx="1142.6" cy="138.8" r="3"/>
                <circle class="cls-2" cx="1142.6" cy="138.8" r="1.4"/>
              </g>
              <g>
                <g>
                  <line class="cls-12" x1="1142.3" y1="120.3" x2="1134.3" y2="122.9"/>
                  <rect class="cls-12" x="1134.1" y="121.2" width="8.4" height="0.84" transform="translate(18.2 358.3) rotate(-18)"/>
                </g>
                <circle class="cls-12" cx="1142.3" cy="120.3" r="3"/>
                <circle class="cls-2" cx="1142.3" cy="120.3" r="1.4"/>
              </g>
              <g>
                <g>
                  <line class="cls-12" x1="1131.2" y1="105.6" x2="1126.3" y2="112.3"/>
                  <rect class="cls-12" x="1124.5" y="108.5" width="8.4" height="0.84" transform="translate(377.5 958.4) rotate(-54)"/>
                </g>
                <circle class="cls-12" cx="1131.2" cy="105.6" r="3"/>
                <circle class="cls-2" cx="1131.2" cy="105.6" r="1.4"/>
              </g>
            </g>
            <g>
              <circle class="cls-12" cx="1114" cy="130.1" r="17.2"/>
              <path class="cls-13" d="M1114,151.9a21.8,21.8,0,1,1,21.8-21.8A21.9,21.9,0,0,1,1114,151.9Zm0-41.2a19.4,19.4,0,1,0,19.4,19.4A19.4,19.4,0,0,0,1114,110.7Z"/>
              <g>
                <path class="cls-2" d="M1114.5,137.3v-1.1a6.9,6.9,0,1,0-6.9-6.9,7.1,7.1,0,0,0,.3,2.1l-1,.4a6.9,6.9,0,0,1-.4-2.5,8,8,0,0,1,16,0A8,8,0,0,1,1114.5,137.3Z"/>
                <rect class="cls-2" x="1102" y="136.2" width="22.8" height="1.06"/>
                <polygon class="cls-2" points="1124.2 138.8 1124.2 134.4 1126.4 136.6 1124.2 138.8"/>
              </g>
              <circle class="cls-2" cx="1114.5" cy="129.3" r="2.4"/>
            </g>
          </g>
        </g>
        <circle class="cls-4" cx="1114.1" cy="198.4" r="5.2"/>
        <circle class="cls-4" cx="1210.3" cy="230.7" r="5.2"/>
        <circle class="cls-4" cx="1257" cy="327.9" r="5.2"/>
        <circle class="cls-4" cx="1023.1" cy="235.9" r="5.2"/>
        <line class="cls-14" x1="1114.1" y1="198.4" x2="1114.1" y2="233"/>
        <line class="cls-14" x1="1023.1" y1="235.6" x2="1047.4" y2="259.9"/>
        <line class="cls-14" x1="1257.4" y1="327.9" x2="1207.2" y2="327.9"/>
        <line class="cls-14" x1="1210.3" y1="231.1" x2="1180.3" y2="261.2"/>
        <g>
          <g>
            <path class="cls-11" d="M1228.9,227.1a1.5,1.5,0,0,1-.6,1.3,2.6,2.6,0,0,1-1.8.5,4.8,4.8,0,0,1-1.8-.3v-1.3l1.1.4h1.5a.7.7,0,0,0,.3-.6v-.3l-.4-.3-.8-.4-.9-.5-.4-.6a1.2,1.2,0,0,1-.2-.8,1.8,1.8,0,0,1,.6-1.4,2.3,2.3,0,0,1,1.6-.5l.9.2,1,.3-.5,1.1-.8-.3h-.7a.7.7,0,0,0-.6.2.5.5,0,0,0-.2.4c0,.1,0,.3.1.3s.1.2.3.3l.8.5a3.2,3.2,0,0,1,1.3.8A2,2,0,0,1,1228.9,227.1Z"/>
            <path class="cls-11" d="M1232,227.9l.9-.2v1a2.7,2.7,0,0,1-1.3.2,1.2,1.2,0,0,1-1.1-.4c-.3-.2-.4-.6-.4-1.2V225h-.6v-.6l.7-.5.4-1h.8v1h1.4V225h-1.4v2.3c0,.2.1.4.2.4Z"/>
            <path class="cls-11" d="M1237,228.9l-.3-.7h0a1.9,1.9,0,0,1-.7.6h-.9a1.4,1.4,0,0,1-1.6-1.5,1.4,1.4,0,0,1,.6-1.2,4.6,4.6,0,0,1,1.6-.4h.9v-.2a.7.7,0,0,0-.8-.8,5.1,5.1,0,0,0-1.4.4l-.4-.9a4.1,4.1,0,0,1,1.9-.5,2.5,2.5,0,0,1,1.5.5,1.7,1.7,0,0,1,.5,1.3v3.3Zm-.4-2.3h-.5l-.9.2a.6.6,0,0,0-.3.6c0,.4.2.6.7.6a1,1,0,0,0,1-1Z"/>
            <path class="cls-11" d="M1240.6,226.2l.6-.8,1.3-1.5h1.6l-2,2.2,2.1,2.8h-1.6l-1.4-2-.6.4v1.6h-1.3V222h1.3v4.2Z"/>
            <path class="cls-11" d="M1247.1,228.9a2.9,2.9,0,0,1-1.9-.6,2.7,2.7,0,0,1-.6-1.9,2.9,2.9,0,0,1,.6-1.9,2.4,2.4,0,0,1,1.7-.6,2.5,2.5,0,0,1,1.6.5,2.4,2.4,0,0,1,.6,1.7v.6h-3.2a1.3,1.3,0,0,0,.4.9,1.2,1.2,0,0,0,.9.3h.8l.8-.3v1l-.7.3Zm-.2-4.1a.9.9,0,0,0-.7.3,1.4,1.4,0,0,0-.2.7h1.8a.8.8,0,0,0-.2-.7A.9.9,0,0,0,1246.9,224.8Z"/>
            <path class="cls-11" d="M1254.7,228.9h-1.3V226c0-.7-.3-1.1-.8-1.1a.9.9,0,0,0-.8.4,2.1,2.1,0,0,0-.3,1.2v2.4h-1.3V222h1.3v2.6h0a1.6,1.6,0,0,1,1.5-.7,1.8,1.8,0,0,1,1.3.4,2,2,0,0,1,.4,1.4Z"/>
            <path class="cls-11" d="M1260.6,226.4a2.5,2.5,0,0,1-.7,1.9,2.4,2.4,0,0,1-1.7.6,2.8,2.8,0,0,1-1.3-.3,2.4,2.4,0,0,1-.8-.9,2.5,2.5,0,0,1-.3-1.3,2.9,2.9,0,0,1,.6-1.9,2.6,2.6,0,0,1,1.8-.6,2.8,2.8,0,0,1,1.3.3l.8.8A3.2,3.2,0,0,1,1260.6,226.4Zm-3.4,0a3.1,3.1,0,0,0,.2,1.1,1,1,0,0,0,1.6,0,3.1,3.1,0,0,0,0-2.2,1.2,1.2,0,0,0-.8-.4,1,1,0,0,0-.8.4A2.7,2.7,0,0,0,1257.2,226.4Z"/>
            <path class="cls-11" d="M1263,228.9h-1.3V222h1.3Z"/>
            <path class="cls-11" d="M1266,228.9a1.8,1.8,0,0,1-1.4-.6,3.9,3.9,0,0,1,0-3.8,1.8,1.8,0,0,1,1.4-.6,1.5,1.5,0,0,1,1.4.7h.1a3.8,3.8,0,0,1-.1-1V222h1.3v6.9h-1l-.3-.7h0A1.5,1.5,0,0,1,1266,228.9Zm.5-1a.9.9,0,0,0,.7-.3,1.5,1.5,0,0,0,.3-1v-.2a1.6,1.6,0,0,0-.3-1.1.9.9,0,0,0-.8-.4,1,1,0,0,0-.7.4,3.1,3.1,0,0,0-.2,1.1,2.7,2.7,0,0,0,.2,1.1A.8.8,0,0,0,1266.5,227.9Z"/>
            <path class="cls-11" d="M1272.3,228.9a2.6,2.6,0,0,1-1.8-.6,2.4,2.4,0,0,1-.7-1.9,2.9,2.9,0,0,1,.6-1.9,2.5,2.5,0,0,1,1.7-.6,2.9,2.9,0,0,1,1.7.5,2.3,2.3,0,0,1,.5,1.7v.6h-3.1a1.1,1.1,0,0,0,1.2,1.2h.8l.9-.3v1l-.8.3Zm-.1-4.1a.8.8,0,0,0-.7.3.9.9,0,0,0-.3.7h1.9a.9.9,0,0,0-.3-.7A.7.7,0,0,0,1272.2,224.8Z"/>
            <path class="cls-11" d="M1278.2,223.9h.4v1.3h-.4a1.1,1.1,0,0,0-1.3,1.3v2.5h-1.4v-5h1.1l.2.9h0l.6-.7A1.5,1.5,0,0,1,1278.2,223.9Z"/>
            <path class="cls-11" d="M1226.4,239.7a2.4,2.4,0,0,1-1.8-.6,2.4,2.4,0,0,1-.7-1.9,2.9,2.9,0,0,1,.6-1.9,2.2,2.2,0,0,1,3.9,1.6v.6h-3.1a1.1,1.1,0,0,0,1.2,1.2h.8l.8-.3v1l-.7.3Zm-.2-4.1a.6.6,0,0,0-.6.3.9.9,0,0,0-.3.7h1.9a1,1,0,0,0-1-1Z"/>
            <path class="cls-11" d="M1234,239.7h-1.3v-2.9a1.5,1.5,0,0,0-.2-.8.6.6,0,0,0-.6-.3,1,1,0,0,0-.8.4,2.2,2.2,0,0,0-.2,1.2v2.4h-1.4v-5h1l.2.7h.1c.1-.3.3-.4.6-.6h.9a1.7,1.7,0,0,1,1.3.4,2,2,0,0,1,.4,1.4Z"/>
            <path class="cls-11" d="M1239.7,234.7v.7l-.8.2a1.1,1.1,0,0,1,.2.8,1.3,1.3,0,0,1-.5,1.2,2.4,2.4,0,0,1-1.5.4h-.5a.5.5,0,0,0-.2.4c0,.1.3.2.8.2h.8a2.1,2.1,0,0,1,1.2.4,1.2,1.2,0,0,1,.4,1,1.4,1.4,0,0,1-.7,1.3,3,3,0,0,1-2,.5,3.5,3.5,0,0,1-1.6-.3,1.2,1.2,0,0,1-.6-1,1.1,1.1,0,0,1,.3-.8l.8-.4-.3-.3-.2-.4a.8.8,0,0,1,.2-.5l.5-.4a1.2,1.2,0,0,1-.7-.5,2,2,0,0,1-.2-.9,1.7,1.7,0,0,1,.5-1.2,2.4,2.4,0,0,1,1.5-.4h2.6Zm-3.8,5.7a.5.5,0,0,0,.3.4h.7c.5,0,.9,0,1.1-.2s.5-.3.5-.5-.1-.3-.3-.4h-1.4a.8.8,0,0,0-.6.2A.5.5,0,0,0,1235.9,240.4Zm.5-4a1.4,1.4,0,0,0,.2.6l.5.2a.8.8,0,0,0,.6-.2,1.4,1.4,0,0,0,.2-.6c0-.6-.3-.9-.8-.9S1236.4,235.8,1236.4,236.4Z"/>
            <path class="cls-11" d="M1243.6,239.7l-.2-.7h-.1a1.3,1.3,0,0,1-.7.6h-.9a1.4,1.4,0,0,1-1.1-.4,1.2,1.2,0,0,1-.4-1.1,1.7,1.7,0,0,1,.5-1.2,5.3,5.3,0,0,1,1.7-.4h.8v-.2c0-.5-.2-.8-.7-.8a4.3,4.3,0,0,0-1.4.4l-.5-.9a4.1,4.1,0,0,1,1.9-.5,2.1,2.1,0,0,1,1.5.5,1.5,1.5,0,0,1,.6,1.3v3.3Zm-.4-2.3h-.5l-.9.2a.8.8,0,0,0-.2.6.5.5,0,0,0,.6.6,1.1,1.1,0,0,0,.8-.3,1.4,1.4,0,0,0,.2-.7Z"/>
            <path class="cls-11" d="M1250.2,234.7v.7l-.7.2a1.9,1.9,0,0,1,.2.8,1.4,1.4,0,0,1-.6,1.2,2.4,2.4,0,0,1-1.5.4h-.5a.5.5,0,0,0-.2.4c0,.1.3.2.8.2h.8a1.9,1.9,0,0,1,1.2.4,1.2,1.2,0,0,1,.5,1,1.4,1.4,0,0,1-.8,1.3,2.8,2.8,0,0,1-2,.5,3.5,3.5,0,0,1-1.6-.3,1.4,1.4,0,0,1-.5-1,1,1,0,0,1,1.1-1.2l-.4-.3-.2-.4a.8.8,0,0,1,.2-.5l.5-.4c-.3-.1-.5-.2-.6-.5a1.2,1.2,0,0,1-.3-.9,1.4,1.4,0,0,1,.6-1.2,2.1,2.1,0,0,1,1.5-.4h2.5Zm-3.8,5.7a.5.5,0,0,0,.3.4h.7a2.2,2.2,0,0,0,1.2-.2.7.7,0,0,0,.4-.5c0-.2-.1-.3-.3-.4h-1.4l-.6.2A.5.5,0,0,0,1246.4,240.4Zm.5-4a1.4,1.4,0,0,0,.2.6l.6.2.5-.2a1.4,1.4,0,0,0,.2-.6c0-.6-.3-.9-.7-.9S1246.9,235.8,1246.9,236.4Z"/>
            <path class="cls-11" d="M1253.3,239.7a2.7,2.7,0,0,1-1.9-.6,2.7,2.7,0,0,1-.7-1.9,2.5,2.5,0,0,1,.7-1.9,2.2,2.2,0,0,1,1.7-.6,2.5,2.5,0,0,1,1.6.5,2.4,2.4,0,0,1,.6,1.7v.6h-3.2a1.1,1.1,0,0,0,1.2,1.2h.9l.8-.3v1l-.8.3Zm-.2-4.1a1,1,0,0,0-1,1h1.9a.9.9,0,0,0-.3-.7A.6.6,0,0,0,1253.1,235.6Z"/>
            <path class="cls-11" d="M1260.7,239.7h-1.3v-2.9a1.5,1.5,0,0,0-.2-.8.5.5,0,0,0-.5-.3,1,1,0,0,0-.8.4,3.7,3.7,0,0,0-.2,1.2v2.4h-1.4v-5h1.1l.2.7h0a1.7,1.7,0,0,1,.6-.6h.9c.7,0,1.2.2,1.4.7h.2c.1-.3.3-.4.6-.6h.8a1.7,1.7,0,0,1,1.3.4,1.8,1.8,0,0,1,.4,1.4v3.2h-1.3v-2.9a1.5,1.5,0,0,0-.2-.8.6.6,0,0,0-.6-.3.8.8,0,0,0-.7.4,1.6,1.6,0,0,0-.3,1.1Z"/>
            <path class="cls-11" d="M1267.4,239.7a2.4,2.4,0,0,1-1.8-.6,2.4,2.4,0,0,1-.7-1.9,2.9,2.9,0,0,1,.6-1.9,2.4,2.4,0,0,1,1.7-.6,2.5,2.5,0,0,1,1.6.5,2.4,2.4,0,0,1,.6,1.7v.6h-3.2a1.9,1.9,0,0,0,.4.9,1.2,1.2,0,0,0,.9.3h.8l.8-.3v1l-.7.3Zm-.2-4.1a.6.6,0,0,0-.6.3.9.9,0,0,0-.3.7h1.9a1,1,0,0,0-1-1Z"/>
            <path class="cls-11" d="M1275,239.7h-1.3v-2.9a1.5,1.5,0,0,0-.2-.8.6.6,0,0,0-.6-.3,1,1,0,0,0-.8.4,2.1,2.1,0,0,0-.3,1.2v2.4h-1.3v-5h1l.2.7h.1c.1-.3.3-.4.6-.6h.9a1.7,1.7,0,0,1,1.3.4,2,2,0,0,1,.4,1.4Z"/>
            <path class="cls-11" d="M1278.5,238.7l.8-.2v1a2.2,2.2,0,0,1-1.2.2,1.6,1.6,0,0,1-1.2-.4,1.7,1.7,0,0,1-.3-1.2v-2.3h-.7v-.6l.8-.5.3-1h.9v1h1.4v1.1h-1.4v2.3c0,.2.1.4.2.4Z"/>
          </g>
          <g>
            <path class="cls-13" d="M1246.9,176.5a4.4,4.4,0,0,1,8.8,0,4.4,4.4,0,0,1-8.8,0Z"/>
            <path class="cls-13" d="M1261.3,191.8v.6h-20v-.6a9.9,9.9,0,0,1,6.9-9.5h.4a7.2,7.2,0,0,0,5.4,0h.4A10,10,0,0,1,1261.3,191.8Z"/>
            <path class="cls-12" d="M1272.5,179a4.9,4.9,0,0,0-2,.5l-5.4-9.4a4.9,4.9,0,0,0,2.2-4.1,5.1,5.1,0,0,0-10.2-.6h-11a5.1,5.1,0,0,0-10.2.6,5.2,5.2,0,0,0,2.1,4.1l-5.4,9.4a4.9,4.9,0,0,0-2-.5,5.1,5.1,0,0,0-5.1,5.1,5.1,5.1,0,0,0,5.1,5.1,4.5,4.5,0,0,0,2-.4l5.4,9.4a5.2,5.2,0,0,0-2.1,4.1,5.1,5.1,0,0,0,5.1,5.1,5.2,5.2,0,0,0,5.1-4.5h11a5.2,5.2,0,0,0,5.1,4.5,5.1,5.1,0,0,0,5.1-5.1,4.9,4.9,0,0,0-2.2-4.1l5.4-9.4a5.1,5.1,0,0,0,2,.4,5,5,0,0,0,5.1-5.1A5.1,5.1,0,0,0,1272.5,179Zm-8.4,18.6h0a5.3,5.3,0,0,0-6.2,1.9,5.8,5.8,0,0,0-.8,2.2h-11a6.5,6.5,0,0,0-.8-2.2,5.2,5.2,0,0,0-6.2-1.9h-.1l-5.4-9.4a4.7,4.7,0,0,0,1.7-2.2,4.9,4.9,0,0,0-1.7-5.9h0l5.4-9.4h.1a5.7,5.7,0,0,0,2.6.3c2.5-.3,3.9-2,4.4-4.4h11l.2.9c1,2.5,2.9,3.8,5.5,3.5a3.1,3.1,0,0,0,1.3-.3h0l5.4,9.4h0a4.8,4.8,0,0,0-1.7,2.2,5,5,0,0,0,1.2,5.5l.5.4h0Z"/>
            <g>
              <path class="cls-13" d="M1251.3,172.1a4.4,4.4,0,0,0-4.4,4.4,4.4,4.4,0,0,0,8.8,0A4.4,4.4,0,0,0,1251.3,172.1Zm0,7.5a3.2,3.2,0,1,1,0-6.3,3.2,3.2,0,1,1,0,6.3Z"/>
              <path class="cls-13" d="M1254.4,182.3h-.4a7.2,7.2,0,0,1-5.4,0h-.4a9.9,9.9,0,0,0-6.9,9.5v.6h20v-.6A10,10,0,0,0,1254.4,182.3Zm-11.9,8.9a8.7,8.7,0,0,1,5.8-7.7,8.5,8.5,0,0,0,5.9,0,8.7,8.7,0,0,1,5.9,7.7Z"/>
              <path class="cls-12" d="M1272.5,179a4.9,4.9,0,0,0-2,.5l-5.4-9.4a4.9,4.9,0,0,0,2.2-4.1,5.1,5.1,0,0,0-10.2-.6h-11a5.1,5.1,0,0,0-10.2.6,5.2,5.2,0,0,0,2.1,4.1l-5.4,9.4a4.9,4.9,0,0,0-2-.5,5.1,5.1,0,0,0-5.1,5.1,5.1,5.1,0,0,0,5.1,5.1,4.5,4.5,0,0,0,2-.4l5.4,9.4a5.2,5.2,0,0,0-2.1,4.1,5.1,5.1,0,0,0,5.1,5.1,5.2,5.2,0,0,0,5.1-4.5h11a5.2,5.2,0,0,0,5.1,4.5,5.1,5.1,0,0,0,5.1-5.1,4.9,4.9,0,0,0-2.2-4.1l5.4-9.4a5.1,5.1,0,0,0,2,.4,5,5,0,0,0,5.1-5.1A5.1,5.1,0,0,0,1272.5,179Zm-10.3-16.9a3.9,3.9,0,0,1,3.9,3.9,4,4,0,0,1-3.9,3.9,3.9,3.9,0,0,1-3.9-3.9A3.8,3.8,0,0,1,1262.2,162.1Zm-25.1,3.9a3.9,3.9,0,0,1,3.9-3.9,3.8,3.8,0,0,1,3.9,3.9,3.9,3.9,0,0,1-3.9,3.9,4.5,4.5,0,0,1-1.9-.5A4,4,0,0,1,1237.1,166Zm-6.5,22a3.8,3.8,0,0,1-3.9-3.9,3.9,3.9,0,0,1,3.9-3.9,4,4,0,0,1,3.9,3.9,1.3,1.3,0,0,1-.1.6A3.8,3.8,0,0,1,1230.6,188Zm10.4,18.2a3.9,3.9,0,0,1-3.9-3.9,4,4,0,0,1,2-3.4,3.9,3.9,0,0,1,5.8,3.4A3.8,3.8,0,0,1,1241,206.2Zm25.1-3.9a3.9,3.9,0,0,1-3.9,3.9,3.8,3.8,0,0,1-3.9-3.9,3.9,3.9,0,0,1,3.9-3.9,3.7,3.7,0,0,1,1.8.5A3.9,3.9,0,0,1,1266.1,202.3Zm-2-4.7h0a5.3,5.3,0,0,0-6.2,1.9,5.8,5.8,0,0,0-.8,2.2h-11a6.5,6.5,0,0,0-.8-2.2,5.2,5.2,0,0,0-6.2-1.9h-.1l-5.4-9.4a4.7,4.7,0,0,0,1.7-2.2,4.9,4.9,0,0,0-1.7-5.9h0l5.4-9.4h.1a5.7,5.7,0,0,0,2.6.3c2.5-.3,3.9-2,4.4-4.4h11l.2.9c1,2.5,2.9,3.8,5.5,3.5a3.1,3.1,0,0,0,1.3-.3h0l5.4,9.4h0a4.8,4.8,0,0,0-1.7,2.2,5,5,0,0,0,1.2,5.5l.5.4h0Zm8.4-9.6a4,4,0,0,1-3.9-3.9,4.3,4.3,0,0,0,.1-.5,3.9,3.9,0,0,1,7.7.5A3.8,3.8,0,0,1,1272.5,188Z"/>
            </g>
          </g>
        </g>
        <g>
          <g>
            <path class="cls-11" d="M1291.4,365.1h-1.5l-1.7-2.7-.6.4v2.3h-1.4v-6.5h1.4v3l.5-.8,1.8-2.2h1.5l-2.3,2.9Z"/>
            <path class="cls-11" d="M1295.2,365.1l-.2-.7h-.1a1.3,1.3,0,0,1-.7.6l-.9.2a1.8,1.8,0,0,1-1.1-.4,1.6,1.6,0,0,1-.4-1.2,1.7,1.7,0,0,1,.5-1.2,5.3,5.3,0,0,1,1.7-.4h.8v-.2c0-.5-.2-.8-.7-.8a4.3,4.3,0,0,0-1.4.4l-.5-.9a4.1,4.1,0,0,1,1.9-.4,2.1,2.1,0,0,1,1.5.4,1.5,1.5,0,0,1,.6,1.3v3.3Zm-.4-2.3h-.5l-.9.2c-.2.2-.2.3-.2.6a.5.5,0,0,0,.6.6.8.8,0,0,0,.7-.3.9.9,0,0,0,.3-.7Z"/>
            <path class="cls-11" d="M1302.1,365.1h-1.4v-2.9c0-.4,0-.6-.2-.8a.6.6,0,0,0-.6-.3,1.2,1.2,0,0,0-.8.4,3.9,3.9,0,0,0-.2,1.3v2.3h-1.4v-4.9h1.1v.6h.1a3.4,3.4,0,0,1,.6-.6h.9a1.7,1.7,0,0,1,1.3.4,2,2,0,0,1,.5,1.4Z"/>
            <path class="cls-11" d="M1306.2,360.1a1.5,1.5,0,0,1,1.3.6,3.9,3.9,0,0,1,0,3.8,1.7,1.7,0,0,1-1.3.7,1.7,1.7,0,0,1-1.4-.7h-.1l-.2.6h-1v-6.9h1.3v1.6a4.6,4.6,0,0,1-.1,1h.1A1.5,1.5,0,0,1,1306.2,360.1Zm-.4,1a1,1,0,0,0-.8.3,2.7,2.7,0,0,0-.2,1.1h0a2.7,2.7,0,0,0,.2,1.1.8.8,0,0,0,.8.4.8.8,0,0,0,.6-.4,1.8,1.8,0,0,0,.3-1.1,1.6,1.6,0,0,0-.3-1.1A.8.8,0,0,0,1305.8,361.1Z"/>
            <path class="cls-11" d="M1312.3,365.1l-.3-.7h0l-.7.6-1,.2a2.1,2.1,0,0,1-1.1-.4,2.1,2.1,0,0,1-.4-1.2,1.4,1.4,0,0,1,.6-1.2,4.6,4.6,0,0,1,1.6-.4h.9v-.2a.7.7,0,0,0-.8-.8,5.1,5.1,0,0,0-1.4.4l-.4-.9a3.8,3.8,0,0,1,1.9-.4,2.4,2.4,0,0,1,1.5.4,1.7,1.7,0,0,1,.5,1.3v3.3Zm-.4-2.3h-.5l-.9.2a.7.7,0,0,0-.3.6.5.5,0,0,0,.6.6,1,1,0,0,0,.8-.3.9.9,0,0,0,.3-.7Z"/>
            <path class="cls-11" d="M1319.1,365.1h-1.3v-2.9a1.5,1.5,0,0,0-.2-.8.6.6,0,0,0-.6-.3.9.9,0,0,0-.8.4,2.3,2.3,0,0,0-.3,1.3v2.3h-1.3v-4.9h1l.2.6h.1c.1-.3.3-.4.6-.6h.9a1.8,1.8,0,0,1,1.3.4,2,2,0,0,1,.4,1.4Z"/>
          </g>
          <g>
            <polygon class="cls-12" points="1330 342.2 1322.2 335.5 1322.2 339.4 1275.2 339.4 1275.2 345.1 1322.2 345.1 1322.2 349 1330 342.2"/>
            <rect class="cls-13" x="1279.7" y="297.7" width="7.6" height="7.55" rx="0.5"/>
            <rect class="cls-13" x="1279.7" y="307.9" width="7.6" height="7.55" rx="0.5"/>
            <rect class="cls-12" x="1279.7" y="318.1" width="7.6" height="7.55" rx="0.5"/>
            <rect class="cls-13" x="1279.7" y="328.2" width="7.6" height="7.55" rx="0.5"/>
            <rect class="cls-12" x="1289.9" y="297.7" width="7.6" height="7.55" rx="0.5"/>
            <rect class="cls-12" x="1289.9" y="307.9" width="7.6" height="7.55" rx="0.5"/>
            <rect class="cls-13" x="1289.9" y="318.1" width="7.6" height="7.55" rx="0.5"/>
            <rect class="cls-13" x="1300" y="297.7" width="7.6" height="7.55" rx="0.5"/>
            <rect class="cls-12" x="1310.1" y="297.7" width="7.6" height="7.55" rx="0.5"/>
            <rect class="cls-13" x="1300" y="307.9" width="7.6" height="7.55" rx="0.5"/>
          </g>
        </g>
        <g>
          <g>
            <path class="cls-11" d="M954.7,220.8h1.4l-2.2,6.4h-1.5l-2.1-6.4h1.3l1.3,3.8a3.1,3.1,0,0,0,.2.8,3.5,3.5,0,0,0,.1.6,5.8,5.8,0,0,1,.3-1.4Z"/>
            <path class="cls-11" d="M959.9,227.2l-.2-.7h-.1a1.7,1.7,0,0,1-.6.6l-1,.2a1.8,1.8,0,0,1-1.1-.4,1.6,1.6,0,0,1-.4-1.2,1.3,1.3,0,0,1,.5-1.1,2.9,2.9,0,0,1,1.7-.4h.8v-.2c0-.5-.2-.7-.7-.7l-1.4.3-.4-.9a3.4,3.4,0,0,1,1.8-.4,2.5,2.5,0,0,1,1.6.4,1.7,1.7,0,0,1,.5,1.3v3.3Zm-.4-2.3H959l-.8.2a.9.9,0,0,0-.3.6.5.5,0,0,0,.6.6,1.1,1.1,0,0,0,.8-.3c.2-.1.2-.4.2-.7Z"/>
            <path class="cls-11" d="M963.6,227.2h-1.3v-6.8h1.3Z"/>
            <path class="cls-11" d="M968.5,227.2l-.2-.6h-.1a1,1,0,0,1-.6.5l-.9.2a1.7,1.7,0,0,1-1.3-.5,1.7,1.7,0,0,1-.4-1.3v-3.2h1.3v2.8a1.3,1.3,0,0,0,.2.8.6.6,0,0,0,.6.3c.4,0,.7-.1.8-.4a1.7,1.7,0,0,0,.3-1.2v-2.3h1.3v4.9Z"/>
            <path class="cls-11" d="M973.1,227.3a2.3,2.3,0,0,1-1.8-.7,2.1,2.1,0,0,1-.7-1.8,2.5,2.5,0,0,1,.6-1.9,2.2,2.2,0,0,1,1.7-.7,2.4,2.4,0,0,1,1.7.6,2.1,2.1,0,0,1,.5,1.6v.7H972a1.6,1.6,0,0,0,.3.9,1.2,1.2,0,0,0,.9.3h.8l.9-.3v1l-.8.3Zm-.1-4.2a.8.8,0,0,0-.7.3,1,1,0,0,0-.3.8h1.9a1,1,0,0,0-.3-.8A.7.7,0,0,0,973,223.1Z"/>
            <path class="cls-11" d="M980.1,227.3a1.5,1.5,0,0,1-1.3-.7,2.7,2.7,0,0,1-.5-1.9,2.4,2.4,0,0,1,.5-1.8,1.7,1.7,0,0,1,2.8,0h0c0-.4-.1-.7-.1-1v-1.5h1.4v6.8h-1.1l-.2-.6h-.1A1.6,1.6,0,0,1,980.1,227.3Zm.5-1.1a1.1,1.1,0,0,0,.8-.3,2.2,2.2,0,0,0,.2-1h0a2.9,2.9,0,0,0-.2-1.2,1.1,1.1,0,0,0-.8-.3.7.7,0,0,0-.7.4,1.6,1.6,0,0,0-.3,1.1,1.5,1.5,0,0,0,.3,1A.8.8,0,0,0,980.6,226.2Z"/>
            <path class="cls-11" d="M987,222.2h.5v1.3H987a1.1,1.1,0,0,0-1,.4,1,1,0,0,0-.4.9v2.5h-1.3v-4.9h1l.2.8h0a2.3,2.3,0,0,1,.7-.7Z"/>
            <path class="cls-11" d="M988.3,221c0-.4.2-.6.7-.6s.8.2.8.6a.8.8,0,0,1-.2.5l-.6.2A.6.6,0,0,1,988.3,221Zm1.4,6.2h-1.3v-4.9h1.3Z"/>
            <path class="cls-11" d="M992.3,227.2l-1.9-4.9h1.4l1,2.8a3.4,3.4,0,0,1,.1,1h.1a4.4,4.4,0,0,1,.2-1l.9-2.8h1.4l-1.9,4.9Z"/>
            <path class="cls-11" d="M998.4,227.3a2.3,2.3,0,0,1-1.8-.7,2.1,2.1,0,0,1-.7-1.8,2.5,2.5,0,0,1,.6-1.9,2.2,2.2,0,0,1,1.7-.7,2.4,2.4,0,0,1,1.7.6,2.1,2.1,0,0,1,.6,1.6v.7h-3.2a1.6,1.6,0,0,0,.3.9,1.2,1.2,0,0,0,.9.3h.8l.9-.3v1l-.8.3Zm-.1-4.2a.9.9,0,0,0-.7.3,1,1,0,0,0-.3.8h1.9a1,1,0,0,0-.3-.8A.7.7,0,0,0,998.3,223.1Z"/>
            <path class="cls-11" d="M1006.1,227.2h-1.4v-2.9a1.1,1.1,0,0,0-.2-.8c-.1-.2-.3-.2-.6-.2a1.1,1.1,0,0,0-.8.3,3.9,3.9,0,0,0-.2,1.3v2.3h-1.4v-4.9h1.1v.6h.1l.6-.5a1.5,1.5,0,0,1,.9-.2,1.7,1.7,0,0,1,1.3.4,2.2,2.2,0,0,1,.5,1.4Z"/>
            <path class="cls-11" d="M962.7,238.1a1.6,1.6,0,0,1-1.4-.7,3.3,3.3,0,0,1-.5-1.9,3,3,0,0,1,.5-1.8,1.6,1.6,0,0,1,1.4-.7,1.5,1.5,0,0,1,1.4.7h.1a3.8,3.8,0,0,1-.1-1v-1.5h1.3V238h-1l-.3-.6h0A1.7,1.7,0,0,1,962.7,238.1Zm.5-1.1a.8.8,0,0,0,.7-.3,1.3,1.3,0,0,0,.3-1v-.2a1.6,1.6,0,0,0-.3-1.1c-.1-.2-.4-.3-.8-.3a.8.8,0,0,0-.7.4,2.7,2.7,0,0,0-.2,1.1,2.5,2.5,0,0,0,.2,1A.9.9,0,0,0,963.2,237Z"/>
            <path class="cls-11" d="M969.1,238.1a2.4,2.4,0,0,1-1.9-.7,2.5,2.5,0,0,1-.7-1.8,2.2,2.2,0,0,1,.7-1.9,1.9,1.9,0,0,1,1.7-.7,2.1,2.1,0,0,1,2.2,2.2v.7h-3.2a1.6,1.6,0,0,0,.3.9,1.2,1.2,0,0,0,.9.3h.9l.8-.3v1l-.8.3Zm-.2-4.2a.9.9,0,0,0-.7.3,1,1,0,0,0-.3.8h1.9a1,1,0,0,0-.3-.8A.6.6,0,0,0,968.9,233.9Z"/>
            <path class="cls-11" d="M973.5,238h-1.3v-6.8h1.3Z"/>
            <path class="cls-11" d="M974.8,231.8c0-.4.3-.6.8-.6s.7.2.7.6a.8.8,0,0,1-.2.5l-.5.2A.7.7,0,0,1,974.8,231.8Zm1.4,6.2h-1.3v-4.9h1.3Z"/>
            <path class="cls-11" d="M978.8,238l-1.9-4.9h1.4l1,2.8a3.6,3.6,0,0,1,.2,1h0a4.4,4.4,0,0,1,.2-1l1-2.8h1.4l-1.9,4.9Z"/>
            <path class="cls-11" d="M985,238.1a2.5,2.5,0,0,1-1.9-.7,2.4,2.4,0,0,1-.6-1.8,2.5,2.5,0,0,1,.6-1.9,2.1,2.1,0,0,1,1.7-.7,2.1,2.1,0,0,1,2.2,2.2v.7h-3.2a1.8,1.8,0,0,0,.4.9,1.1,1.1,0,0,0,.8.3h.9l.8-.3v1l-.7.3Zm-.2-4.2a.9.9,0,0,0-.7.3,1.5,1.5,0,0,0-.2.8h1.8a1.5,1.5,0,0,0-.2-.8A.9.9,0,0,0,984.8,233.9Z"/>
            <path class="cls-11" d="M990.8,233h.5v1.3h-.4a1.2,1.2,0,0,0-1,.4,1,1,0,0,0-.4.9V238h-1.3v-4.9h1l.2.8h.1a1.3,1.3,0,0,1,.6-.7Z"/>
            <path class="cls-11" d="M991.5,233.1h1.4l1,2.7c0,.3.1.6.1.9h0c.1-.3.1-.6.2-.9l.9-2.7h1.5l-2.1,5.5a3.6,3.6,0,0,1-.8,1.2,2.8,2.8,0,0,1-1.2.4h-.7V239h.5l.6-.2a1.6,1.6,0,0,0,.4-.7V238Z"/>
          </g>
          <g>
            <g>
              <path class="cls-12" d="M968.1,201.3,961,186.9a2.8,2.8,0,0,0-3.7-1.2l-1.9.9a1.4,1.4,0,0,0-.6,1.9l8.4,16.8a1.2,1.2,0,0,0,1.8.6l1.9-.9A2.7,2.7,0,0,0,968.1,201.3Z"/>
              <path class="cls-12" d="M1001.3,181.4a2.8,2.8,0,0,0-3.7.4l-7.7,9.4a3.6,3.6,0,0,1-2.1.9h-6.5a1.4,1.4,0,1,1,0-2.8h5.6a2.8,2.8,0,0,0,2.8-2.8,2.7,2.7,0,0,0-2.8-2.8h-7.3c-.7,0-1.1-.5-1.6-1a10.1,10.1,0,0,0-8.7-2.1,9.8,9.8,0,0,0-4.3,2.2h-.1l-2,1.8,8,16h16a8.2,8.2,0,0,0,6.7-3.4l8.3-11.8A2.8,2.8,0,0,0,1001.3,181.4Z"/>
            </g>
            <g id="diamond">
              <polygon class="cls-13" points="977.8 163.3 978 163.6 978.2 163.4 981.4 159.7 981.8 159.3 981.2 159.3 975.6 159.3 975.2 159.3 975.4 159.7 977.8 163.3"/>
              <polygon class="cls-13" points="976.6 163.9 977 163.9 976.8 163.6 974.5 160 974.3 159.7 974 160 971.6 163.5 971.3 163.9 971.8 163.9 976.6 163.9"/>
              <polygon class="cls-13" points="979 163.9 979.6 163.9 986.1 163.9 986.7 163.9 986.3 163.5 983 159.8 982.9 159.5 982.7 159.8 979.4 163.5 979 163.9"/>
              <polygon class="cls-13" points="987.5 163.4 987.7 163.6 987.9 163.3 990.3 159.7 990.5 159.3 990.1 159.3 984.5 159.3 983.9 159.3 984.3 159.7 987.5 163.4"/>
              <polygon class="cls-13" points="988.7 163.9 989.1 163.9 993.9 163.9 994.4 163.9 994.1 163.5 991.7 160 991.4 159.7 991.2 160 988.9 163.6 988.7 163.9"/>
              <polygon class="cls-13" points="987.1 164.9 986.7 164.9 979 164.9 978.6 164.9 978.8 165.3 982.6 176.5 982.9 177.2 983.1 176.5 987 165.3 987.1 164.9"/>
              <polygon class="cls-13" points="977.6 164.9 971.5 164.9 981.6 176.5 977.6 164.9"/>
              <polygon class="cls-13" points="988.1 164.9 994.2 164.9 984.1 176.5 988.1 164.9"/>
            </g>
            <path class="cls-12" d="M981.8,155.3a.5.5,0,0,1-.5-.5V148a.5.5,0,0,1,.5-.5.6.6,0,0,1,.5.5v6.8A.5.5,0,0,1,981.8,155.3Z"/>
            <g>
              <line class="cls-13" x1="963.3" y1="156.7" x2="969.2" y2="160"/>
              <path class="cls-12" d="M969.6,160.3a.6.6,0,0,1-.7.2l-5.9-3.4a.5.5,0,0,1-.1-.7.5.5,0,0,1,.6-.2l5.9,3.4C969.7,159.7,969.7,160.1,969.6,160.3Z"/>
            </g>
            <g>
              <line class="cls-13" x1="965.5" y1="175" x2="971.4" y2="171.6"/>
              <path class="cls-12" d="M971.8,171.3c.1.3.1.6-.2.7l-5.9,3.4a.5.5,0,0,1-.6-.2.5.5,0,0,1,.1-.7l5.9-3.4A.6.6,0,0,1,971.8,171.3Z"/>
            </g>
            <g>
              <line class="cls-13" x1="998.6" y1="176.2" x2="992.7" y2="172.8"/>
              <path class="cls-12" d="M992.3,172.6c.1-.3.4-.4.6-.2l5.9,3.4a.6.6,0,0,1,.2.7.5.5,0,0,1-.7.1l-5.9-3.4A.4.4,0,0,1,992.3,172.6Z"/>
            </g>
            <g>
              <line class="cls-13" x1="1001.5" y1="155.8" x2="995.6" y2="159.2"/>
              <path class="cls-12" d="M995.2,159.4c-.2-.2-.1-.5.2-.6l5.8-3.4a.4.4,0,0,1,.7.2c.2.2.1.5-.2.6l-5.8,3.4A.4.4,0,0,1,995.2,159.4Z"/>
            </g>
          </g>
        </g>
      </g>
    </g>
  </g>
</svg>
