<?xml version="1.0" encoding="UTF-8"?><svg id="a" xmlns="http://www.w3.org/2000/svg" xmlns:xlink="http://www.w3.org/1999/xlink" viewBox="0 0 1441 511"><defs><style>.j{fill:url(#e);}.k{fill:url(#d);}.l{fill:url(#g);}.m{fill:url(#f);}.n{fill:url(#i);}.o{fill:url(#h);}.p{fill:url(#c);}.q{fill:url(#b);}.r{fill:#f8faf7;}.s{fill:#000e2d;}.t{fill:#eaeaea;}.u{fill:#f0856b;}.v{fill:#ff953f;}.w{fill:#848484;}.x{fill:#c2c0ff;}.y{fill:#d8d8d8;}.a`{fill:#d1d3d4;}.aa{fill:#161616;}.ab{fill:#070707;}.ac{fill:#8886da;}.ad{fill:#282444;}.ae{fill:none;stroke:#d1d3d4;stroke-dasharray:0 8;stroke-miterlimit:10;stroke-width:2px;}.af{fill:#939598;font-family:OpenSans-Semibold, Open Sans;font-size:8.4px;font-weight:700;}</style><linearGradient id="b" x1="1014.4" y1="323.8" x2="1049.1" y2="323.8" gradientTransform="matrix(1, 0, 0, 1, 0, 0)" gradientUnits="userSpaceOnUse"><stop offset="0" stop-color="#ffb288"/><stop offset=".7" stop-color="#feb088"/><stop offset=".9" stop-color="#fba98b"/><stop offset="1" stop-color="#f9a48e"/></linearGradient><linearGradient id="c" x1="1014.4" x2="1049.1" xlink:href="#b"/><linearGradient id="d" x1="1031.2" y1="344.1" x2="1032.2" y2="364.5" gradientTransform="matrix(1, 0, 0, 1, 0, 0)" gradientUnits="userSpaceOnUse"><stop offset="0" stop-color="#f29a72"/><stop offset="1" stop-color="#e8594d"/></linearGradient><linearGradient id="e" x1="1014" y1="301.6" x2="1047.8" y2="332.7" xlink:href="#b"/><linearGradient id="f" x1="1234.9" y1="3201" x2="1254.9" y2="3235.2" gradientTransform="translate(-2247.5 -618.8) rotate(-51.5)" xlink:href="#b"/><linearGradient id="g" x1="-1371.6" y1="-1301.6" x2="-1401.1" y2="-1269.2" gradientTransform="translate(856.4 2293.5) rotate(52.2)" xlink:href="#b"/><linearGradient id="h" x1="280.6" y1="4808.9" x2="291.2" y2="4808.9" gradientTransform="translate(-3729 265.2) rotate(-84.5)" xlink:href="#b"/><linearGradient id="i" x1="-708.7" y1="-1082" x2="-698.1" y2="-1082" gradientTransform="translate(-227.3 19) rotate(-103.6) scale(1 -1)" xlink:href="#b"/></defs><rect class="r" x="0" y="0" width="1440" height="510"/><g><ellipse class="w" cx="1114" cy="297.7" rx="1" ry="1.5" transform="translate(-36.7 223.1) rotate(-11.3)"/><text class="af" transform="translate(1017.5 126.3)"><tspan x="0" y="0">Cloud Computing</tspan></text><circle class="ac" cx="1254.5" cy="116.8" r="3.4"/><path class="ae" d="M1095.4,86.6h67.8c11,0,19.9,8.9,19.9,19.9v53.2c0,9.3,7.5,16.8,16.8,16.8h109.8c11.2,0,20.4,9.1,20.4,20.4v54"/><rect class="r" x="1212.8" y="85.1" width="87.2" height="123.2"/><text class="af" transform="translate(1212.9 216.6)"><tspan x="0" y="0">Cloud Infrastructures</tspan></text><g><path class="a`" d="M1148.2,408.6l1.8-2.5c-.9-1.8-1.6-3.6-2.3-5.4l-3-.5c-4.2-.6-7.2-4.2-7.2-8.4v-11.6c0-4.2,3-7.7,7.2-8.4l3-.5c.6-1.9,1.4-3.7,2.3-5.4l-1.8-2.5c-2.5-3.4-2.1-8,.9-11l8.2-8.2c3-3,7.6-3.3,11-.9l2.5,1.8c1.8-.9,3.6-1.6,5.4-2.3l.5-3c.6-4.2,4.2-7.2,8.4-7.2h11.6c.2,0,.4,0,.5,0v-99.3c0-8.2-6.7-14.9-14.9-14.9h-25.4v13.4c0,1.9-1.5,3.4-3.4,3.4h-75.8c-1.9,0-3.4-1.5-3.4-3.4v-13.4h-25c-8.2,0-14.9,6.7-14.9,14.9v175.7c0,8.2,6.7,14.9,14.9,14.9h66.3c0,0,.1,0,.2,0,0,0,.1,0,.2,0h37.5l-4.5-4.5c-3-3-3.3-7.6-.9-11Zm-40.9-146.3h41.7c1.9,0,3.4,1.5,3.4,3.4s-1.5,3.4-3.4,3.4h-41.7c-1.9,0-3.4-1.5-3.4-3.4s1.5-3.4,3.4-3.4Zm0,18.3h53.8c1.9,0,3.4,1.5,3.4,3.4s-1.5,3.4-3.4,3.4h-53.8c-1.9,0-3.4-1.5-3.4-3.4s1.5-3.4,3.4-3.4Zm0,25.1h41.7c1.9,0,3.4,1.5,3.4,3.4s-1.5,3.4-3.4,3.4h-41.7c-1.9,0-3.4-1.5-3.4-3.4s1.5-3.4,3.4-3.4Zm0,18.3h53.8c1.9,0,3.4,1.5,3.4,3.4s-1.5,3.4-3.4,3.4h-53.8c-1.9,0-3.4-1.5-3.4-3.4s1.5-3.4,3.4-3.4Zm-15.6,32.8l-13.7,13.7c-.6,.6-1.5,1-2.4,1s-1.8-.4-2.4-1l-6.4-6.4c-1.3-1.3-1.3-3.5,0-4.8,1.3-1.3,3.5-1.3,4.8,0l4,4,11.3-11.3c1.3-1.3,3.5-1.3,4.8,0,1.3,1.3,1.3,3.5,0,4.8Zm0-43.3l-13.7,13.7c-.6,.6-1.5,1-2.4,1s-1.8-.4-2.4-1l-6.4-6.4c-1.3-1.3-1.3-3.5,0-4.8,1.3-1.3,3.5-1.3,4.8,0l4,4,11.3-11.3c1.3-1.3,3.5-1.3,4.8,0,1.3,1.3,1.3,3.5,0,4.8Zm0-43.3l-13.7,13.7c-.6,.6-1.5,1-2.4,1s-1.8-.4-2.4-1l-6.4-6.4c-1.3-1.3-1.3-3.5,0-4.8,1.3-1.3,3.5-1.3,4.8,0l4,4,11.3-11.3c1.3-1.3,3.5-1.3,4.8,0,1.3,1.3,1.3,3.5,0,4.8Zm36.4,104h-20.8c-1.9,0-3.4-1.5-3.4-3.4s1.5-3.4,3.4-3.4h20.8c1.9,0,3.4,1.5,3.4,3.4s-1.5,3.4-3.4,3.4Zm6.1-18.3h-26.9c-1.9,0-3.4-1.5-3.4-3.4s1.5-3.4,3.4-3.4h26.9c1.9,0,3.4,1.5,3.4,3.4s-1.5,3.4-3.4,3.4Z"/><path class="a`" d="M1235.9,378.6l-5.1-.8c-1.3-.2-2.4-1.1-2.7-2.4-.8-2.8-1.9-5.5-3.3-8-.6-1.2-.6-2.6,.2-3.6l3-4.2c.5-.7,.4-1.6-.2-2.2l-8.2-8.2c-.6-.6-1.5-.7-2.2-.2l-4.2,3c-1.1,.8-2.5,.9-3.6,.2-2.5-1.4-5.3-2.5-8-3.3-1.3-.4-2.2-1.4-2.4-2.7l-.8-5.1c0-.3-.2-.6-.4-.8,0,0,0,0,0,0-.3-.4-.8-.6-1.3-.6h-11.6c-.8,0-1.6,.6-1.7,1.4l-.8,5.1c-.2,1.3-1.1,2.4-2.4,2.7-2.8,.8-5.5,1.9-8,3.3-1.2,.6-2.6,.6-3.6-.2l-4.2-3c-.7-.5-1.6-.4-2.2,.2l-8.2,8.2c-.6,.6-.7,1.5-.2,2.2l3,4.2c.8,1.1,.9,2.5,.2,3.6-1.4,2.5-2.5,5.3-3.3,8-.4,1.3-1.4,2.2-2.7,2.4l-5.1,.8c-.8,.1-1.4,.8-1.4,1.7v11.6c0,.8,.6,1.6,1.4,1.7l5.1,.8c1.3,.2,2.4,1.1,2.7,2.4,.8,2.8,1.9,5.5,3.3,8,.6,1.2,.6,2.6-.2,3.6l-3,4.2c-.5,.7-.4,1.6,.2,2.2l8.2,8.2c.6,.6,1.5,.7,2.2,.2l4.2-3c.6-.4,1.3-.7,2-.7s1.1,.1,1.6,.4c2.5,1.4,5.3,2.5,8,3.3,1.3,.4,2.2,1.4,2.4,2.7l.8,5.1c.1,.8,.8,1.4,1.7,1.4h11.6c.8,0,1.6-.6,1.7-1.4l.8-5.1c.2-1.3,1.1-2.4,2.4-2.7,2.8-.8,5.5-1.9,8-3.3,1.2-.6,2.6-.6,3.6,.2l4.2,3c.7,.5,1.6,.4,2.2-.2l8.2-8.2c.6-.6,.7-1.5,.2-2.2l-3-4.2c-.8-1.1-.9-2.5-.2-3.6,1.4-2.5,2.5-5.3,3.3-8,.4-1.3,1.4-2.2,2.7-2.4l5.1-.8c.8-.1,1.4-.8,1.4-1.7v-11.6c0-.8-.6-1.6-1.4-1.7Zm-45.1,33.1c-14.1,0-25.6-11.5-25.6-25.6s11.5-25.6,25.6-25.6,25.6,11.5,25.6,25.6-11.5,25.6-25.6,25.6Z"/><path class="a`" d="M1150.2,215c0-5.1-4.2-9.3-9.3-9.3h-13.2c-1.3,0-2.5-.8-3.1-2-.6-1.2-.4-2.6,.5-3.6,1.9-2.2,2.9-5,2.9-7.9,0-6.8-5.5-12.3-12.3-12.3s-12.3,5.5-12.3,12.3,1,5.7,2.9,7.9c.8,1,1,2.4,.5,3.6-.6,1.2-1.8,2-3.1,2h-13.2c-5.1,0-9.3,4.2-9.3,9.3v13.5h69.1v-13.5Z"/></g><g><g><path class="ad" d="M1035.1,290.3c4.6,.7,22.2-5.6,23.8,16.7,1.7,22.3-1.4,14.3,11.3,18.2,12.7,3.9,3.9,13.8,4.7,25.6,.8,11.8,27.9-7.5,29,12,1.1,19.5-28.2,47.4-61.5,18.2-33.3-29.2-21.5-30.6-25.3-38-3.9-7.4-27-6.4-10.8-27.5,5.9-7.7,6.3-28.4,28.8-25.3Z"/><g><g><g><path class="q" d="M1017.9,321.8c1.1,2.6,.5,6.7-1.4,7.5-1.9,.8-4.3-2-5.4-4.6-1.1-2.6-.5-5.4,1.4-6.2s4.3,.7,5.4,3.3Z"/><path class="p" d="M1047.4,321.8c-1.1,2.6-.5,6.7,1.4,7.5,1.9,.8,4.3-2,5.4-4.6,1.1-2.6,.5-5.4-1.4-6.2-1.9-.8-4.3,.7-5.4,3.3Z"/></g><g><path class="u" d="M1015,323.4c0-.4-.2-.8-.4-1.2-.2-.4-.6-.7-1.1-.9-.1,0-.3,0-.4,0-.1,0-.3,0-.4,0-.2,0-.4,.2-.6,.4-.2,.2-.3,.5-.3,.7,0,.2,0,.5,.2,.6,0-.4,.2-.7,.5-.9,.1,0,.3-.1,.4-.2,.1,0,.2,0,.4,0,.2,0,.5,.3,.8,.5,.3,.2,.6,.5,.9,.8Z"/><path class="u" d="M1050.2,323.4c0-.4,.2-.8,.4-1.2,.2-.4,.6-.7,1.1-.9,.1,0,.3,0,.4,0,.1,0,.3,0,.4,0,.2,0,.4,.2,.6,.4,.2,.2,.3,.5,.3,.7,0,.2,0,.5-.2,.6,0-.4-.2-.7-.5-.9-.1,0-.3-.1-.4-.2-.1,0-.2,0-.4,0-.2,0-.5,.3-.8,.5-.3,.2-.6,.5-.9,.8Z"/></g></g><path class="k" d="M1064.6,372.7c0,.1,0,.2-.2,.2h-63.5c-.1,0-.2,0-.2-.2,.2-1.3,.4-10.9,6-15.1,1.1-.8,2.3-1.4,3.6-1.8l13.9-4.3c.2,0,.3-.1,.4-.2,.7-.4,1.2-1.2,1.3-2.1,.3-1.8,.4-5.1,.4-7.8,3.4,1.4,6.3,2,6.3,2,0,0,2.9-.6,6.3-2h0c0,2.7,.1,6.1,.4,7.8,0,.5,.3,1,.6,1.4,.3,.4,.7,.7,1.2,.8l13.8,4.3c1.5,.5,2.9,1.2,4.1,2.1,5.2,4.2,5.3,13.5,5.5,14.7Z"/><path class="j" d="M1032.6,296c-18.7-.7-19,17.1-18.7,23,.2,4.3,1.9,10.5,2.8,13.5,.5,1.8,1.5,3.4,2.8,4.7,4.9,4.7,13.1,6.3,13.1,6.3,0,0,8.2-1.6,13.1-6.3,1.3-1.3,2.3-2.9,2.8-4.7,.9-3.1,2.6-9.3,2.8-13.5,.3-5.9,0-23.7-18.7-23Z"/><path class="ad" d="M1058.1,306.8l-4.7,10.7-4.6,1.1,1.8-1.3s-5-.1-4.6-8.1c.4-6.7-2.5-8.1-3.2-7.1-.6-.7-7-7.5-10.3-3.7-3.4,4-.1,21-13.9,22.2-13.8,1.2-5.3-10.6-5.3-10.6l5.9-13.9,10.8-4,16.4,1.7,11.7,13.1Z"/><path class="ad" d="M1049.5,317c-.8-.2-1.5-.6-2-1.2-.6-.6-1-1.3-1.3-2-.3-.7-.5-1.5-.6-2.3-.1-.8-.1-1.6,0-2.4,0-1.5,0-3-.2-4.4-.1-.7-.3-1.4-.7-2-.2-.3-.4-.6-.7-.7-.3-.2-.7-.2-1,0h0c.1-.2,.3-.3,.5-.4,.1,0,.2,0,.3,0,.1,0,.2,0,.3,0,.1,0,.2,0,.3,.1,0,0,.2,0,.3,.2l.3,.2,.2,.2c.6,.6,.9,1.4,1.2,2.1,.5,1.5,.6,3.1,.5,4.7,0,.7,0,1.5,0,2.2,0,.7,.1,1.4,.3,2.1,.2,.7,.5,1.4,.9,2,.4,.6,.9,1.1,1.6,1.5Z"/><path class="ad" d="M1031.6,300.2c-.3,1.4-.4,2.8-.6,4.2-.2,1.4-.3,2.8-.6,4.2-.2,1.4-.6,2.8-1,4.2-.5,1.4-1.1,2.7-2,3.9-.9,1.2-2,2.2-3.3,2.9-1.3,.7-2.7,1.2-4.2,1.3-1.4,.2-2.9,.2-4.3,0-.7-.1-1.4-.3-2.1-.5-.7-.3-1.3-.7-1.8-1.2,.5,.4,1.2,.7,1.9,.9,.7,.2,1.3,.2,2,.2,.7,0,1.4,0,2.1,0,.3,0,.7,0,1-.1,.3,0,.7-.1,1-.2,2.7-.5,5.1-1.9,6.6-4.1,.4-.5,.7-1.1,1.1-1.7,.3-.6,.6-1.2,.8-1.9,.5-1.3,.9-2.6,1.2-3.9,.3-1.3,.6-2.7,.9-4.1,.3-1.4,.6-2.8,1.2-4.1Z"/><path class="v" d="M1065.4,419.3h0c-5,0-9.3-3.7-10-8.7l-3-22.1-1.8,39.1h-36.3l-1.8-39.1-3,22.5c-.6,4.8-4.7,8.3-9.5,8.3h0c-5.7,0-10.2-5-9.5-10.7l5.1-41.5c.7-6.9,6.7-12.1,13.8-12.1h47.1c7.1,0,13.1,5.2,13.8,12.1l5,41c.7,6-3.9,11.3-10,11.3Z"/></g></g><path class="m" d="M1062.5,419.1l-45.2-6.3c-2.3-.3-3.9-2.4-3.5-4.7,.3-2.1,2.1-3.6,4.1-3.6l45.6-.2c4.1,0,7.5,3.3,7.5,7.4,0,4.1-3.3,7.5-7.4,7.5-.3,0-.7,0-1.1,0Z"/><path class="l" d="M1052.2,414.5l-3.4-9.9c0-.2-.2-.4-.4-.6l.7-.4c.7-.4,.9-1.3,.5-2-.4-.7-1.3-.9-2-.5l-9.2,5.4-37.5-1.8c-.5,0-1.1,0-1.7,.1-4.1,.7-6.8,4.6-6.1,8.7,.7,4.1,4.6,6.8,8.7,6.1l38.4-6.8,1.1,3.3c0,.2,.1,.3,.2,.4,.4,.5,1,.7,1.6,.5,.4-.1,.6-.4,.8-.7l.3,.9c0,.2,.1,.3,.2,.4,.4,.5,1,.7,1.6,.5,.5-.2,.8-.6,.9-1.1,.4,.3,.9,.4,1.4,.3,.8-.3,1.2-1.1,.9-1.8,0,.2,.1,.3,.2,.4,.4,.5,1,.7,1.6,.5,.8-.3,1.2-1.1,.9-1.8Zm-6.2-9.1h0s0,0,0,.1c0,0,0,0,0-.1Z"/><g><path class="y" d="M1063.7,434.2h-59.7c-1.2,0-2.2-1-2.2-2.2v-1.1c0-.6,.5-1.1,1.1-1.1h61.9c.6,0,1.1,.5,1.1,1.1v1.1c0,1.2-1,2.2-2.2,2.2Z"/><path class="t" d="M1060.4,388.9h-53.1c-2.4,0-4.4,2-4.4,4.4v37.6h61.8v-37.6c0-2.4-2-4.4-4.4-4.4Z"/><path class="y" d="M1063.9,394.1c-.1-1.5-1.3-2.6-2.6-2.8-.3,0-.6,0-1,0h-1.1l-2.2,.2-4.3,.2h-4.3c-1.4,.2-2.9,.2-4.3,.2h-4.3c-2.9,.1-5.8,.1-8.7,.1-2.9,0-5.8,0-8.7,0-2.9,0-5.8,0-8.7-.2-1.4,0-2.9,0-4.3-.1h-1.9c0,0-.2,0-.2,0-.3,0-.6,0-.9,.2-.3,.1-.5,.3-.8,.4-.5,.4-.8,.9-1,1.5,0,.2,0,.3,0,.5,0,.2,0,.4,0,.5v1.1c-.1,1.4-.2,2.9-.3,4.3h-.1c-.1-1.4-.2-2.9-.3-4.3v-1.1c0-.2,0-.3,0-.6,0-.2,0-.4,0-.6,.1-.8,.5-1.6,1.1-2.1,.6-.6,1.4-.9,2.3-1,.1,0,.2,0,.3,0h1.9c1.4-.1,2.9-.1,4.3-.2,2.9,0,5.8-.1,8.7-.2,2.9,0,5.8,0,8.7,0,2.9,0,5.8,0,8.7,0h4.3c1.4,0,2.9,.1,4.3,.2h4.3l4.3,.3h2.2l1.1,.2h.6c0,0,.2,0,.3,0,0,0,.2,0,.3,0,.8,.2,1.4,.7,1.9,1.3,.4,.6,.7,1.4,.6,2.1Z"/><circle class="y" cx="1033.9" cy="409.4" r="4.8"/></g><g><polygon class="o" points="1095 442.8 1094.3 449.9 1074.8 450 1075.8 439.5 1095 442.8"/><path d="M1033.3,427.5c18.4,1.8,35,4.7,47.3,8.1l-1.9,19.1c-12.7,1-29.6,.7-48-1.1-38.6-3.7-69.8-7.4-68.6-19.8,1.2-12.5,32.5-10,71.1-6.3Z"/><rect x="1063.6" y="441.4" width="25.4" height="6.8" transform="translate(529.5 1473) rotate(-84.5)"/><path class="s" d="M1099.3,451.1c-3.6,.6-6.9,.6-9.6,.1l-1.8-10.2c2.4-1.4,5.6-2.5,9.1-3.2,8.2-1.4,15.3,.4,15.9,4,.6,3.7-5.4,7.8-13.6,9.2Z"/></g><g><polygon class="n" points="979.3 447.4 981 454.3 1000.3 451.6 997.9 441.4 979.3 447.4"/><path class="aa" d="M1038.3,423.5c-18,4.3-34,9.6-45.7,14.7l4.5,18.6c12.7-.8,29.4-3.5,47.4-7.8,37.7-9.1,68.1-17,65.1-29.2-2.9-12.2-33.6-5.4-71.3,3.7Z"/><rect class="ab" x="985.5" y="443.3" width="25.4" height="6.8" transform="translate(798.3 1521.9) rotate(-103.6)"/><path class="s" d="M976.4,456.3c3.6,0,6.9-.7,9.5-1.7v-10.4c-2.7-.9-6.1-1.5-9.7-1.4-8.3,.1-14.9,3.2-14.9,6.9,0,3.7,6.8,6.6,15.1,6.5Z"/></g></g><g><polygon class="ac" points="1054.4 88.8 1054.4 83.5 1051.2 83.5 1051.2 88.8 1028.8 88.8 1028.8 95.9 1032 95.9 1032 91.9 1051.2 91.9 1051.2 95.9 1054.4 95.9 1054.4 91.9 1073.6 91.9 1073.6 95.9 1076.8 95.9 1076.8 88.8 1054.4 88.8"/><path class="x" d="M1073.9,60.9c-.6-5.8-5.4-10.2-11.3-10.2s-8.9,3-10.6,7.2c-1.3-.7-2.9-1.1-4.5-1.1-4.1,0-7.7,2.6-9,6.3-.8-.2-1.7-.3-2.5-.3-5.3,0-9.6,4.3-9.6,9.6s4.3,9.6,9.6,9.6h32.1c6.3,0,11.4-5.1,11.4-11.4s-2.2-7.7-5.5-9.7Zm-5.9,18h-32.1c-3.6,0-6.5-2.9-6.5-6.5s2.9-6.5,6.5-6.5,1.2,0,1.7,.2l2.8,.8,1-2.7c.9-2.5,3.4-4.3,6.1-4.3s2.1,.2,3,.7l3.1,1.6,1.3-3.2c.6-1.5,1.6-2.8,3-3.8,1.4-1,3-1.5,4.7-1.5s4,.8,5.6,2.2c1.5,1.4,2.5,3.3,2.7,5.3l.2,1.5,1.3,.8c2.5,1.5,4,4.2,4,7.1,0,4.6-3.7,8.3-8.3,8.3Z"/><rect class="ac" x="1047.7" y="97.3" width="10.2" height="10.2" rx="2.3" ry="2.3"/><rect class="ac" x="1025.3" y="97.3" width="10.2" height="10.2" rx="2.3" ry="2.3"/><rect class="ac" x="1070.1" y="97.3" width="10.2" height="10.2" rx="2.3" ry="2.3"/></g><g><g><path class="ac" d="M1269.7,199.9s0,0,0,0l-1.8-2.5c0,0-.2-.1-.3-.1h-15.6c-.1,0-.2,0-.3,.1l-1.5,2.4c0,.1-.3,.4,.7,.7h18.1c.7-.2,.8-.5,.7-.6Zm-1.7-1.7h-.9v-.2h.8v.2Zm0-.2h0Zm-13.4-.2v.2h-1v-.2h1Zm-.3,0h0Zm-.4,.2h.9v.2h-1v-.2Zm.9,0v-.2h1v.2h-1Zm2-.2v.2h-.9v-.2h.9Zm-.3,0h0Zm-.2,0h0Zm-1.3,.2h.9v.2h-1v-.2Zm.2,.2h.9v.2h-1v-.2Zm.9,0v-.2h.9v.2h-.9Zm.9-.2h0Zm3.7-.2h0Zm1.3,0v.2h-.8v-.2h.8Zm-1,0v.2h-.9v-.2h.9Zm-.5,0h0Zm-.5,0v.2h-.9v-.2h.9Zm-1.3,0h0Zm.3,0h0Zm-.5,0h0Zm-1.2,.2h.9v.2h-.9v-.2Zm.2,.2h.9v.2h-.9v-.2Zm.9,0v-.2h.9v.2h-.9Zm.2,0h.9v.2h-.9v-.2Zm.8,0v-.2h.9v.2h-.9Zm.2,0h.9v.2h-.9v-.2Zm.8,0v-.2h.9v.2h-.9Zm.3,0h.9v.2h-.9v-.2Zm.8,0v-.2h.9v.2h-.9Zm.7-.4h.9v.2h-.8v-.2Zm.4,.4v.2h-.9v-.2h.9Zm0,0v-.2h.8v.2h-.8Zm2.3-.4h0Zm1.3,0v.2h-.8v-.2h.8Zm-1,0v.2h-.8v-.2h.8Zm-1.3,0h0Zm.3,0v.2h-.8v-.2h.8Zm-.4,.4v.2h-.9v-.2h.9Zm0,0v-.2h.8v.2h-.8Zm1.1,0v.2h-.8v-.2h.8Zm0,0v-.2h.8v.2h-.8Zm1.7,0v.2h-1.4v-.2h1.4Zm-.7,0v-.2h1.6v.2h-1.6Zm2.5-.4h0Zm-.2-.3h0Zm-.7,.5h-.9v-.2h.8v.2Zm-1.3-.2h0Zm1.2-.3h0Zm-.9,0h0Zm-.9,0h0Zm-.9,0h0Zm-.7,.3h0Zm-.2-.3h0Zm-.9,0h0Zm0,.1h0Zm-.9-.1h0Zm-1.6,0h0Zm-.9,0h0Zm-.9,0h0Zm-.9,0h0Zm-.9,0h0Zm-.9,0h0Zm-.9,0h0Zm-.9,0h0Zm0,.1h.9v.2h-.9v-.2Zm-.8-.1h0Zm-.1,.2h0Zm-.1,.2h1.4v.2h-1.5v-.2Zm0,.2h1.6v.2h-1.7v-.2Zm.6,.6h-.9v-.2h1v.2Zm1,0h-.9v-.2h1v.2Zm0-.2h-1.9v-.2h2v.2Zm1,.2h-.9v-.2h1v.2Zm0-.2h-.9v-.2h1v.2Zm1,.2h-.9v-.2h1v.2Zm.1-.4h.9v.2h-.9v-.2Zm5.8,1.3c0,0,0,.2-.2,.2h-3.7c-.1,0-.2-.1-.2-.2v-.4c.1,0,.2-.2,.3-.2h3.6c0,0,.1,0,.1,.1v.5Zm-5.8-.9v-.2h5.8v.2h-5.8Zm6,0v-.2h.9v.2h-.9Zm1.1,0v-.2h.9v.2h-.9Zm1.1,0v-.2h.8v.2h-.8Zm1.1,0v-.2h.8v.2h-.8Zm.9-.4h.9v.2h-.8v-.2Zm.1,.4v-.2h.8v.2h-.8Zm.8-.4h.9v.2h-.8v-.2Zm.1,.4v-.2h.8v.2h-.8Z"/><path class="ac" d="M1267.5,187h-15.2c-.2,0-.4,.2-.4,.4v9.5c0,.2,.2,.4,.4,.4h15.2c.2,0,.4-.2,.4-.4v-9.5c0-.2-.2-.4-.4-.4Zm-7.6,.3c0,0,.2,0,.2,.2s0,.2-.2,.2-.2,0-.2-.2,0-.2,.2-.2Zm7.4,9h-14.8v-8.3h14.8v8.3Z"/></g><polygon class="ac" points="1261.5 176.6 1261.5 171.3 1258.4 171.3 1258.4 176.6 1236.1 176.6 1236.1 183.7 1239.2 183.7 1239.2 179.7 1258.4 179.7 1258.4 183.7 1261.5 183.7 1261.5 179.7 1280.7 179.7 1280.7 183.7 1283.8 183.7 1283.8 176.6 1261.5 176.6"/><path class="x" d="M1280.9,148.8c-.6-5.7-5.4-10.2-11.3-10.2s-8.9,3-10.6,7.2c-1.3-.7-2.8-1.1-4.4-1.1-4.1,0-7.7,2.6-9,6.3-.8-.2-1.7-.3-2.5-.3-5.3,0-9.6,4.3-9.6,9.6s4.3,9.6,9.6,9.6h31.9c6.3,0,11.3-5.1,11.3-11.3s-2.2-7.7-5.5-9.7Zm-5.9,17.9h-31.9c-3.6,0-6.5-2.9-6.5-6.5s2.9-6.5,6.5-6.5,1.2,0,1.7,.2l2.7,.7,1-2.7c.9-2.5,3.4-4.2,6.1-4.2s2.1,.2,3,.7l3.1,1.6,1.3-3.2c.6-1.5,1.6-2.8,3-3.8,1.4-1,3-1.5,4.7-1.5s4,.8,5.5,2.1c1.5,1.4,2.5,3.2,2.7,5.3l.2,1.5,1.3,.8c2.5,1.5,4,4.1,4,7,0,4.5-3.7,8.2-8.2,8.2Z"/><path class="ac" d="M1244.9,187h-14.6c-.9,0-1.6,.7-1.6,1.6v7.9c0,.9,.7,1.6,1.6,1.6h5.5v1.7h-1.2c-.3,0-.5,.2-.5,.5s.2,.5,.5,.5h6.1c.3,0,.5-.2,.5-.5s-.2-.5-.5-.5h-1.1v-1.7h5.4c.9,0,1.6-.7,1.6-1.6v-7.9c0-.9-.7-1.6-1.6-1.6Zm.4,9.4c0,.2-.2,.4-.4,.4h-14.6c-.2,0-.4-.2-.4-.4v-7.9c0-.2,.2-.4,.4-.4h14.6c.2,0,.4,.2,.4,.4v7.9Z"/><path class="ac" d="M1286.4,186.5h-8.4c-.4,0-.7,.3-.7,.7v12.5c0,.4,.3,.7,.7,.7h8.4c.4,0,.7-.3,.7-.7v-12.5c0-.4-.3-.7-.7-.7Zm-8,.3c.1,0,.2,0,.2,.2s0,.2-.2,.2-.2,0-.2-.2,0-.2,.2-.2Zm2.3,13c0,0-.2,0-.2-.2s0-.2,.2-.2,.2,0,.2,.2,0,.2-.2,.2Zm1.9-.1c0,0,0,.2-.2,.2h-.6c0,0-.2,0-.2-.2h0c0-.2,0-.2,.2-.2h.6c0,0,.2,0,.2,.2h0Zm1,.2c0,0-.2,0-.2-.2s0-.2,.2-.2,.2,0,.2,.2,0,.2-.2,.2Zm2.8-.7h-8.6v-11.4h8.6v11.4Z"/></g><text class="af" transform="translate(1290.7 337.3)"><tspan x="0" y="0">Cloud Technologies</tspan></text><g><path class="x" d="M1357.1,278.7c-.5-4.8-4.5-8.5-9.4-8.5s-7.4,2.5-8.8,6c-1.1-.6-2.4-.9-3.7-.9-3.4,0-6.3,2.2-7.5,5.2-.7-.2-1.4-.3-2.1-.3-4.4,0-8,3.6-8,8s3.6,8,8,8h26.5c5.2,0,9.4-4.2,9.4-9.4s-1.8-6.4-4.5-8Zm-4.9,14.9h-26.5c-3,0-5.4-2.4-5.4-5.4s2.4-5.4,5.4-5.4,1,0,1.4,.2l2.3,.6,.8-2.2c.8-2.1,2.8-3.5,5.1-3.5s1.7,.2,2.5,.6l2.5,1.3,1-2.7c.5-1.3,1.4-2.3,2.5-3.1,1.1-.8,2.5-1.2,3.9-1.2s3.3,.6,4.6,1.8c1.3,1.1,2,2.7,2.2,4.4v1.3l1.2,.7c2.1,1.3,3.3,3.4,3.3,5.8,0,3.8-3.1,6.8-6.8,6.8Z"/><path class="ac" d="M1344.6,297.6h-2c0,.5,0,1,.1,1.4h-6.8c0-.5,0-1,0-1.4h-1.9c0,.5,0,1,0,1.4h-11.3v-2c-.7-.2-1.3-.6-1.9-.9v2.9h-11.3c0-3.2,.6-6.3,1.5-9.1h5.6c-.1-.6-.2-1.1-.2-1.7s0-.2,0-.2h-4.8c.4-1.1,.9-2.1,1.5-3,2.1-3.5,4.8-5.6,7.6-5.9v1.3c.6-.4,1.3-.7,1.9-.9v-.3c.2,0,.4,0,.6,.1,.8-.2,1.6-.3,2.5-.3s.8,0,1.3,0c.2-.4,.5-.8,.7-1.2-1.6-.4-3.3-.7-5.1-.8-.3,0-.6,0-1,0s-.6,0-1,0c-7.9,.3-14.8,4.7-18.7,11-.4,.6-.7,1.3-1.1,1.9-1.4,2.8-2.2,5.9-2.3,9.1,0,.3,0,.6,0,1s0,.6,0,1c.1,3.3,1,6.4,2.3,9.1,.3,.7,.7,1.3,1.1,1.9,3.7,6,10,10.2,17.3,10.9,.5,0,.9,0,1.4,.1,.3,0,.6,0,1,0s.6,0,1,0c.5,0,.9,0,1.4-.1,7.3-.7,13.6-4.9,17.3-10.9,.4-.6,.7-1.3,1.1-1.9,1.4-2.8,2.2-5.9,2.3-9.1,0-.3,0-.6,0-1s0-.6,0-1c0-.5,0-1-.1-1.4Zm-30.2-17.4c-1.1,1-2.1,2.3-3,3.8-.7,1.2-1.4,2.6-1.9,4h-5.2c2.5-3.5,6-6.3,10.1-7.8Zm-11.3,9.7h5.7c-.9,2.8-1.3,5.9-1.4,9.1h-6.8c.1-3.3,1.1-6.4,2.6-9.1Zm-2.6,11.1h6.8c0,3.2,.5,6.3,1.4,9.1h-5.6c-1.5-2.7-2.4-5.8-2.6-9.1Zm3.8,11.1h5.1c.6,1.5,1.2,3,2,4.2,.8,1.3,1.6,2.4,2.6,3.4-3.9-1.5-7.3-4.2-9.7-7.6Zm16.4,9.1c-.3,0-.7,0-1,0-2.5-.7-4.7-2.7-6.6-5.7-.6-1-1.1-2.1-1.6-3.2h9.2v9.1Zm0-11h-9.9c-.9-2.8-1.4-5.9-1.5-9.1h11.4v9.1Zm1.9-9.1h11.4c0,3.2-.6,6.3-1.5,9.1h-9.9v-9.1Zm1,20.1c-.3,0-.7,0-1,0v-9.1h9.2c-.5,1.2-1,2.2-1.6,3.2-1.8,3.1-4.1,5-6.6,5.7Zm5.7-1.3c.9-.9,1.8-2.1,2.6-3.4,.8-1.3,1.5-2.7,2-4.2h5.1c-2.4,3.4-5.7,6.1-9.7,7.6Zm10.9-9.6h-5.6c.8-2.8,1.3-5.9,1.4-9.1h6.8c-.1,3.3-1.1,6.4-2.6,9.1Z"/></g></g></svg>