<?xml version="1.0" encoding="utf-8"?>
<!-- Generator: Adobe Illustrator 25.0.0, SVG Export Plug-In . SVG Version: 6.00 Build 0)  -->
<svg version="1.1" id="Layer_1" xmlns="http://www.w3.org/2000/svg" xmlns:xlink="http://www.w3.org/1999/xlink" x="0px" y="0px"
	 viewBox="0 0 1440 510" style="enable-background:new 0 0 1440 510;" xml:space="preserve">
<style type="text/css">
	.st0{fill:#F8FAF7;}
	.st1{opacity:0.68;}
	.st2{fill:#D1D3D4;}
	.st3{clip-path:url(#SVGID_2_);}
	.st4{fill:#F7B58E;}
	.st5{fill:#212B53;}
	.st6{fill:#FF953F;}
	.st7{fill:#ABB6B7;}
	.st8{fill:url(#SVGID_3_);}
	.st9{fill:#181F36;}
	.st10{clip-path:url(#SVGID_5_);}
	.st11{fill:#FFFFFF;}
	.st12{fill:none;stroke:#D1D3D4;stroke-width:2.21;stroke-miterlimit:10;stroke-dasharray:8.82;}
	.st13{fill:#C2C0FF;}
	.st14{fill:#8886DA;}
	.st15{fill:#939598;}
	.st16{fill:#E2D9D3;}
</style>
<g id="Layer_1-2">
	<rect class="st0" width="1440" height="510"/>
	<g>
		<g>
			<g class="st1">
				<path class="st2" d="M1136.6,181.1l10.2,8.9c-9.8,3.1-18.6,8.6-25.6,16.1c-17.2,20.1-16.9,49.8,0.7,69.5h-26.6
					c-10.3-19.2-11.6-42-3.7-62.3c0.2-1.2,0.5-2.4,1-3.6c10.8-23.8,30.8-40,56.6-43.3L1136.6,181.1z"/>
				<path class="st2" d="M1236.8,240.5c0-39-29.9-71.5-68.8-74.8v-7l-20.8,20.8l20.8,21.7v-13.4c29.2,3.1,50.3,29.2,47.2,58.4
					c-2.9,27.3-26.2,47.9-53.6,47.5h-117.5v22h117.5C1203.1,315.7,1236.8,282,1236.8,240.5C1236.8,240.5,1236.8,240.5,1236.8,240.5z
					"/>
				<path class="st2" d="M1287.6,305.5l-20.8-21.6v9.8H1228c-8.9,10.2-20.5,17.8-33.4,22h72.2v10.7L1287.6,305.5z"/>
				<path class="st2" d="M1136.6,181.1l10.2,8.9c-9.8,3.1-18.6,8.6-25.6,16.1c-17.2,20.1-16.9,49.8,0.7,69.5h-26.6
					c-10.3-19.2-11.6-42-3.7-62.3c0.2-1.2,0.5-2.4,1-3.6c10.8-23.8,30.8-40,56.6-43.3L1136.6,181.1z"/>
				<path class="st2" d="M1236.8,240.5c0-39-29.9-71.5-68.8-74.8v-7l-20.8,20.8l20.8,21.7v-13.4c29.2,3.1,50.3,29.2,47.2,58.4
					c-2.9,27.3-26.2,47.9-53.6,47.5h-117.5v22h117.5C1203.1,315.7,1236.8,282,1236.8,240.5C1236.8,240.5,1236.8,240.5,1236.8,240.5z
					"/>
				<path class="st2" d="M1287.6,305.5l-20.8-21.6v9.8H1228c-8.9,10.2-20.5,17.8-33.4,22h72.2v10.7L1287.6,305.5z"/>
			</g>
			<g>
				<defs>
					<path id="SVGID_1_" d="M1215.4,240.9c0-13.1-4.8-25.7-13.5-35.4l6.8-31l-44.9-5.2v18.2h-1.9c-29.5-0.1-53.6,23.8-53.6,53.4
						s23.8,53.6,53.4,53.6c18.1,0,35.1-9.1,45-24.3c6.3-1.1,8.8-7,8.8-10.5c-0.2-2.2-0.7-4.3-1.5-6.3
						C1214.9,249.3,1215.4,245.1,1215.4,240.9z"/>
				</defs>
				<clipPath id="SVGID_2_">
					<use xlink:href="#SVGID_1_"  style="overflow:visible;"/>
				</clipPath>
				<g class="st3">
					<g>
						<path class="st4" d="M1161.9,265.2h-10l-11.3,0.3l11.1-6.8c0.9-0.6,2-0.8,3.1-0.5l3.4,1.1l10.2-0.8L1161.9,265.2z"/>
						<g>
							<path class="st4" d="M1190.9,198L1190.9,198v15.7c-0.6,0.7-1.2,1.3-1.9,1.8l-1.5-0.3h-1.9c-2.1,0-4.1,0.1-6.2,0.4
								c-0.4-0.5-0.6-1-0.6-1.6v-10.2l7-1.8l1.2-0.9L1190.9,198z"/>
							<path class="st4" d="M1178.2,206.8c-1.2,0-2.4-0.3-3.5-0.9c-4.2-6.7,0.6-24.7,0.6-24.7l15.2,2.7l0.5,12.1
								c0.1,3.2-1.3,6.3-3.8,8.3l0,0C1184.5,206,1181.4,206.9,1178.2,206.8z"/>
							<path class="st5" d="M1183.4,184.2c-3.4,0.6-7,0.6-10.4,0c-5.3-0.9-1.9-6.8-1.9-6.8s3.9,1.8,10.9,0.8c4.7-0.7,6-1.6,9,0
								s3.1,9.6,3.1,9.6l-2.2,15.7h-0.9c0,0-0.2-9.3-0.2-12.5c-0.9-1.4-1.8-1.4-2.6-1.1c-0.8,0.4-1.2,1.3-1.2,2.2v16.3
								c0,0-10.4,4.4-13.1,3.6s-0.8-12.9-0.8-12.9c1.9-0.7,4.1-0.2,5.4,1.4c2.3,2.6,5.1-0.1,5.1-0.1L1183.4,184.2z"/>
							<path class="st4" d="M1189.5,189.5c-1.3,0.1-2.4,1.2-2.5,2.5c-0.2,1.5,0.6,2.7,1.8,2.8s2.2-1,2.5-2.5
								c0.3-1.2-0.5-2.5-1.7-2.8C1189.6,189.5,1189.5,189.5,1189.5,189.5z"/>
						</g>
						<path class="st6" d="M1207.4,229.8l-2.9,65.6h-37.1c0,0,0.7-30,1.5-50.2c0.2-8.6,2.2-17,5.8-24.8c3.9-4.3,4.1-7.3,4.1-7.3l0,0
							c2.6-0.2,6.3,0,11.4,0h0.7C1203.8,213.7,1207.4,229.8,1207.4,229.8z"/>
						<path class="st6" d="M1207.4,229.8l6.3,25.7c1.4,5.6-2.1,11.3-7.7,12.7c-0.8,0.2-1.7,0.3-2.5,0.3l-41.6-3.3v-8l34.5-2.1
							l-6.3-21L1207.4,229.8z"/>
						<polygon class="st0" points="1161.8,257.6 1161.9,256.9 1196,254.8 1189.8,234.2 1190.4,234 1196.9,255.4 						"/>
						<path class="st4" d="M1190.9,211.9v1.2l0,0l-3.4,2.1c-1.6,1-3.3,1.9-5,2.7c-2.9,1.4-5.8,2.5-7.8,2.5c3.9-4.3,4.1-7.3,4.1-7.3
							l0,0v-0.6C1182.7,211.3,1186.9,211.1,1190.9,211.9z"/>
						<polygon class="st0" points="1205.8,268.9 1161.9,265.6 1162,265.3 1165.4,265.2 1205.8,268.3 						"/>
						<path class="st7" d="M1182.5,217.9c-2.9,1.4-5.8,2.5-7.8,2.5l4.5-3.8C1179.2,216.6,1181.7,217.1,1182.5,217.9z"/>
						
							<linearGradient id="SVGID_3_" gradientUnits="userSpaceOnUse" x1="1179.1801" y1="294.05" x2="1190.8801" y2="294.05" gradientTransform="matrix(1 0 0 -1 0 512)">
							<stop  offset="0" style="stop-color:#DFEFEA"/>
							<stop  offset="1" style="stop-color:#BFE3EE"/>
						</linearGradient>
						<polygon class="st8" points="1179.2,216.6 1183.8,222.8 1190.9,213.1 						"/>
						<g>
							<g>
								<g>
									<path class="st9" d="M1114.7,243.4h35.4l11.6,24h-35.4L1114.7,243.4z"/>
									<path class="st9" d="M1126.3,265.2h45.4v2.1h-45.4V265.2z"/>
								</g>
								<g>
									<defs>
										<polygon id="SVGID_4_" points="1136.6,256.3 1136.6,252.7 1139.8,254.4 1139.8,258.1 										"/>
									</defs>
									<clipPath id="SVGID_5_">
										<use xlink:href="#SVGID_4_"  style="overflow:visible;"/>
									</clipPath>
									<g class="st10">
										<path class="st11" d="M1138.2,253.6c-0.3-0.4-0.8-0.5-1.2-0.3c-0.4,0.2-0.5,0.7-0.4,1.1c0.1,1.1,0.7,2.1,1.6,2.8
											c0.4,0.3,1.1,0.2,1.4-0.2c0.2-0.2,0.2-0.5,0.2-0.7C1139.7,255.2,1139.1,254.2,1138.2,253.6"/>
									</g>
								</g>
							</g>
							<rect x="1116.2" y="267.3" class="st7" width="66" height="1.7"/>
							<g>
								<rect x="1116.2" y="269" class="st7" width="0.7" height="30.5"/>
								<rect x="1124.1" y="269" class="st7" width="0.7" height="30.5"/>
							</g>
							<g>
								<rect x="1173.5" y="269" class="st7" width="0.7" height="30.5"/>
								<rect x="1181.5" y="269" class="st7" width="0.7" height="30.5"/>
							</g>
						</g>
					</g>
				</g>
			</g>
			<rect x="1116.2" y="267.7" class="st7" width="0.7" height="26"/>
			<rect x="1124.2" y="267.7" class="st7" width="0.7" height="26"/>
		</g>
		
			<rect x="1008.4" y="100.7" transform="matrix(0.7071 -0.7071 0.7071 0.7071 160.5182 896.1062)" class="st12" width="307.1" height="307.1"/>
		<rect x="1112.2" y="29.3" class="st0" width="108.8" height="108.8"/>
		<rect x="940.6" y="201.3" class="st0" width="90.8" height="111.7"/>
		<rect x="1114.7" y="374.7" class="st0" width="94.4" height="109.7"/>
		<rect x="1310.2" y="210.4" class="st0" width="76.5" height="98"/>
		<g>
			<g>
				<g>
					<path class="st13" d="M1142.9,70.4h28.7c1.5-1.4,3.5-2.3,5.6-2.3h8.5v-2.4c0-3.5-2.9-6.4-6.4-6.4l0,0h-36.1
						c-3.5,0-6.4,2.9-6.4,6.4c0,0,0,0,0,0v48c0.1,3.5,2.9,6.3,6.4,6.3h36.1c2.6,0,4.9-1.5,5.9-3.9h-20.7c-3.4,0-6.4-2.2-7.6-5.4
						H1143c-0.7,0-1.3-0.6-1.3-1.3c0-0.7,0.6-1.3,1.3-1.3c0,0,0,0,0,0h13.3v-5H1143c-0.7,0-1.3-0.6-1.3-1.3c0,0,0,0,0,0
						c0-0.7,0.5-1.2,1.2-1.2c0,0,0.1,0,0.1,0h13.3v-5h-13.4c-0.7,0-1.3-0.6-1.3-1.3c0-0.7,0.6-1.3,1.3-1.3h13.4v-4.9h-13.4
						c-0.7,0-1.3-0.6-1.3-1.3c0-0.7,0.6-1.3,1.3-1.3h13.4v-0.4c0-1.6,0.5-3.2,1.3-4.6h-14.7c-0.7,0-1.3-0.6-1.3-1.3
						c0-0.7,0.6-1.3,1.3-1.3h17.1c1.3-0.8,2.9-1.3,4.5-1.3h4.4v-1c0.1-0.9,0.4-1.8,0.8-2.6h-26.9c-0.7,0-1.3-0.6-1.3-1.3
						C1141.5,71,1142.1,70.4,1142.9,70.4L1142.9,70.4z"/>
					<path class="st14" d="M1196.9,80.1h-7.6l-0.5-4.1c-0.2-2.4-2.2-4.3-4.6-4.4h-7c-2.4,0.1-4.4,2-4.7,4.4l-0.4,4.1h-7.6
						c-2.7,0.1-4.8,2.2-4.7,4.9c0,0,0,0.1,0,0.1v12.8c1.3,1.1,3,1.7,4.7,1.7h3.7v-7.1c-0.1-0.8,0.6-1.5,1.4-1.6c0,0,0,0,0,0
						c0.8,0.1,1.5,0.8,1.5,1.6v7.1h19.2v-7.1c0-0.8,0.7-1.5,1.5-1.6c0.8,0.1,1.5,0.8,1.4,1.6c0,0,0,0,0,0v7.1h3.7
						c1.7,0,3.3-0.6,4.6-1.7V85.1C1201.6,82.5,1199.6,80.2,1196.9,80.1C1196.9,80.1,1196.9,80.1,1196.9,80.1z M1175.3,75.1
						c0-0.4,0.3-0.7,0.7-0.7h9.4c0.4,0,0.7,0.3,0.7,0.7l0.6,5h-12L1175.3,75.1z"/>
					<path class="st13" d="M1196.9,102.8h-3.7v3.4c0.1,0.8-0.6,1.5-1.4,1.6c0,0,0,0,0,0c-0.8-0.1-1.5-0.8-1.5-1.6v-3.4h-19.2v3.4
						c0,0.8-0.7,1.5-1.5,1.6c-0.8-0.1-1.5-0.8-1.4-1.6c0,0,0,0,0,0v-3.4h-3.7c-1.6,0-3.2-0.4-4.7-1.1v5.8c-0.1,2.6,1.9,4.9,4.6,5
						c0,0,0.1,0,0.1,0h32.4c2.6-0.1,4.7-2.3,4.6-5c0,0,0,0,0,0v-5.8C1200.1,102.4,1198.5,102.8,1196.9,102.8z"/>
				</g>
				<g>
					<path class="st15" d="M1139,127h1.8c0.6-0.1,1.3,0.1,1.8,0.4c0.3,0.3,0.5,0.7,0.5,1.1c0,0.3-0.1,0.6-0.3,0.9
						c-0.1,0.2-0.4,0.4-0.7,0.4l0,0c0.3,0,0.7,0.2,0.9,0.4c0.2,0.3,0.3,0.6,0.3,1c0,0.5-0.2,1-0.6,1.3c-0.4,0.3-1,0.5-1.5,0.4h-2.2
						V127z M1140,129.5h0.9l0.9-0.2c0.2-0.2,0.3-0.4,0.3-0.7c0-0.2-0.1-0.5-0.3-0.6c-0.3-0.1-0.7-0.2-1-0.2h-0.8V129.5z M1140,130.3
						v1.9h1l0.9-0.2c0.3-0.2,0.4-0.5,0.4-0.8c0-0.3-0.2-0.6-0.4-0.7l-0.9-0.2H1140z"/>
					<path class="st15" d="M1147.7,133l-0.2-0.6l0,0l-0.6,0.5l-0.9,0.2c-0.4,0-0.9-0.1-1.2-0.4c-0.3-0.4-0.5-0.8-0.4-1.3v-2.9h1v2.8
						c0,0.3,0.1,0.6,0.2,0.8l0.7,0.2c0.3,0,0.7-0.1,0.9-0.3c0.2-0.4,0.3-0.9,0.2-1.3v-2.2h1v4.5H1147.7z"/>
					<path class="st15" d="M1152.9,131.7c0,0.4-0.2,0.8-0.5,1c-0.4,0.3-0.9,0.4-1.4,0.4c-0.5,0-1-0.1-1.5-0.3V132
						c0.5,0.2,1,0.3,1.5,0.4c0.6,0,0.9-0.2,0.9-0.6c0-0.1,0-0.2-0.1-0.3l-0.3-0.2l-0.6-0.3c-0.4-0.1-0.8-0.3-1.1-0.6
						c-0.2-0.2-0.3-0.5-0.3-0.8c0-0.4,0.2-0.7,0.5-0.9c0.4-0.2,0.8-0.3,1.3-0.3l1.5,0.3l-0.3,0.7l-1.3-0.3c-0.5,0-0.7,0.2-0.7,0.5
						s0,0.2,0.2,0.3c0.2,0.2,0.5,0.3,0.8,0.4l0.9,0.4c0.1,0.2,0.3,0.3,0.3,0.5C1152.8,131.3,1152.9,131.5,1152.9,131.7z"/>
					<path class="st15" d="M1153.8,127.3c0-0.2,0.1-0.4,0.2-0.4c0.1-0.1,0.2-0.2,0.4-0.2l0.4,0.2c0.1,0,0.1,0.2,0.1,0.4
						c0,0.1,0,0.2-0.1,0.3l-0.4,0.2c-0.2,0-0.3-0.1-0.4-0.2C1153.9,127.5,1153.8,127.4,1153.8,127.3z M1154.9,133h-1v-4.5h1V133z"/>
					<path class="st15" d="M1160.3,133h-1v-2.8c0-0.3-0.1-0.6-0.2-0.8l-0.7-0.2c-0.3,0-0.7,0.1-0.9,0.3c-0.2,0.4-0.3,0.8-0.3,1.2
						v2.3h-0.9v-4.5h0.7l0.2,0.6l0,0c0.1-0.3,0.3-0.4,0.6-0.5c0.2-0.2,0.5-0.2,0.8-0.2c1.1,0,1.7,0.5,1.7,1.6L1160.3,133z"/>
					<path class="st15" d="M1163.6,133.1c-1.2,0.1-2.2-0.7-2.3-1.9c0-0.1,0-0.3,0-0.4c-0.1-0.7,0.2-1.3,0.6-1.8
						c0.4-0.4,0.9-0.6,1.5-0.6c1-0.1,1.9,0.6,2,1.6c0,0.1,0,0.3,0,0.4v0.6h-3.1c0.1,0.4,0.2,0.7,0.4,1c0.2,0.2,0.6,0.3,0.9,0.3h0.8
						l0.7-0.3v0.8l-0.7,0.2L1163.6,133.1z M1163.4,129.1c-0.3,0-0.5,0.1-0.7,0.3c-0.2,0.2-0.3,0.6-0.3,0.9h2c0-0.3-0.1-0.6-0.2-0.9
						C1164,129.2,1163.7,129.1,1163.4,129.1z"/>
					<path class="st15" d="M1169.5,131.7c0,0.5-0.1,0.8-0.5,1c-0.4,0.3-0.8,0.5-1.3,0.4c-0.5,0-1-0.1-1.5-0.3V132
						c0.5,0.2,1,0.4,1.5,0.4c0.6,0,0.9-0.2,0.9-0.6c0-0.1-0.1-0.2-0.1-0.3l-0.3-0.2l-0.7-0.3c-0.4-0.1-0.7-0.3-1-0.6
						c-0.2-0.2-0.3-0.5-0.3-0.8c0-0.4,0.2-0.7,0.5-0.9c0.4-0.2,0.8-0.3,1.2-0.3c0.5,0,1.1,0.1,1.6,0.3l-0.4,0.7
						c-0.4-0.2-0.8-0.3-1.2-0.3c-0.5,0-0.8,0.2-0.8,0.5l0.2,0.3l0.9,0.4l0.8,0.4l0.4,0.5C1169.5,131.3,1169.5,131.5,1169.5,131.7z"
						/>
					<path class="st15" d="M1173.6,131.7c0.1,0.4-0.1,0.8-0.4,1c-0.4,0.3-0.9,0.4-1.4,0.4c-0.5,0-1-0.1-1.5-0.3V132
						c0.5,0.2,1,0.4,1.5,0.4c0.6,0,0.9-0.2,0.9-0.6c0-0.1,0-0.2-0.1-0.3l-0.3-0.2l-0.7-0.3c-0.4-0.1-0.7-0.3-1-0.6
						c-0.2-0.2-0.3-0.5-0.3-0.8c0-0.4,0.2-0.7,0.5-0.9c0.4-0.2,0.8-0.3,1.2-0.3c0.5,0,1.1,0.1,1.6,0.3l-0.3,0.7l-1.3-0.3
						c-0.5,0-0.8,0.2-0.8,0.5l0.2,0.3l0.9,0.4l0.8,0.4l0.4,0.5C1173.6,131.3,1173.6,131.5,1173.6,131.7z"/>
					<path class="st15" d="M1178.7,133.1c-0.6,0-1.2-0.2-1.6-0.6c-0.3-0.5-0.5-1.1-0.5-1.7c-0.1-0.7,0.2-1.3,0.6-1.8
						c0.4-0.4,1-0.6,1.6-0.6l1.3,0.2l-0.3,0.8l-1-0.2c-0.8,0-1.2,0.5-1.2,1.6c0,0.4,0.1,0.8,0.3,1.1c0.2,0.3,0.6,0.4,0.9,0.4
						c0.4,0,0.8-0.1,1.2-0.3v0.8l-0.6,0.2L1178.7,133.1z"/>
					<path class="st15" d="M1183.9,133l-0.2-0.6l0,0c-0.2,0.2-0.4,0.4-0.7,0.5l-0.8,0.2c-0.4,0-0.8-0.1-1.1-0.4
						c-0.3-0.3-0.4-0.6-0.4-1c0-0.4,0.2-0.9,0.6-1.1c0.5-0.2,1-0.3,1.5-0.3h0.8V130c0-0.3,0-0.5-0.2-0.7l-0.6-0.2h-0.7l-0.6,0.3
						l-0.3-0.7c0.2-0.2,0.5-0.3,0.8-0.3h0.8c0.5,0,1,0.1,1.4,0.4c0.3,0.3,0.4,0.7,0.4,1.1v3.1H1183.9z M1182.5,132.4
						c0.3,0,0.6-0.1,0.8-0.3c0.2-0.2,0.3-0.6,0.3-0.9v-0.4h-0.6l-1,0.2c-0.2,0.1-0.3,0.4-0.3,0.6c0,0.2,0.1,0.4,0.2,0.5
						L1182.5,132.4z"/>
					<path class="st15" d="M1189,131.7c0,0.4-0.2,0.8-0.5,1c-0.4,0.3-0.9,0.4-1.4,0.4c-0.5,0-1-0.1-1.4-0.3V132
						c0.5,0.2,1,0.4,1.5,0.4c0.6,0,0.9-0.2,0.9-0.6c0-0.1-0.1-0.2-0.1-0.3l-0.4-0.2l-0.6-0.3l-1.1-0.6c-0.1-0.2-0.2-0.5-0.2-0.8
						c0-0.3,0.1-0.7,0.4-0.9c0.4-0.2,0.8-0.3,1.3-0.3c0.5,0,1,0.1,1.5,0.3l-0.3,0.7l-1.2-0.3c-0.5,0-0.8,0.2-0.8,0.5l0.2,0.3
						c0.3,0.2,0.6,0.3,0.9,0.4l0.8,0.4l0.4,0.5C1189,131.3,1189,131.5,1189,131.7z"/>
					<path class="st15" d="M1192,133.1c-0.6,0-1.2-0.2-1.6-0.6c-0.4-0.5-0.6-1.1-0.6-1.7c0-0.6,0.1-1.3,0.5-1.8
						c0.4-0.4,1-0.6,1.6-0.6c0.5,0,1,0.2,1.4,0.5c0.3,0.4,0.5,1,0.5,1.5v0.6h-3c-0.1,0.6,0.3,1.2,0.9,1.3c0.1,0,0.3,0,0.4,0h0.7
						l0.8-0.3v0.8l-0.7,0.2L1192,133.1z M1191.9,129.1c-0.3,0-0.6,0.1-0.8,0.3c-0.2,0.2-0.3,0.6-0.3,0.9h2.1c0-0.3-0.1-0.7-0.3-0.9
						C1192.4,129.2,1192.2,129.1,1191.9,129.1z"/>
				</g>
			</g>
			<g>
				<g>
					<path class="st15" d="M1135.5,455.1c-0.5,0-1,0.2-1.3,0.6c-0.7,1-0.7,2.4,0,3.4c0.3,0.3,0.8,0.5,1.3,0.5h0.8l0.7-0.2v0.9
						c-0.5,0.2-1.1,0.3-1.6,0.3c-0.8,0-1.5-0.2-2-0.8c-0.5-0.7-0.8-1.5-0.7-2.3c0-0.6,0.1-1.2,0.3-1.7c0.3-0.4,0.6-0.8,1-1.1
						c0.5-0.2,1-0.3,1.5-0.3c0.6,0,1.2,0.1,1.7,0.4l-0.3,0.8l-0.7-0.3L1135.5,455.1z"/>
					<path class="st15" d="M1142.2,460.4h-1v-2.8c0-0.4,0-0.6-0.2-0.8s-0.3-0.3-0.7-0.3c-0.3,0-0.6,0.1-0.8,0.4
						c-0.2,0.3-0.4,0.8-0.3,1.2v2.3h-1V454h1v1.6c0,0.3,0,0.5-0.1,0.8h0.1c0.1-0.2,0.3-0.4,0.5-0.5l0.9-0.2c1.1,0,1.6,0.6,1.6,1.7
						V460.4z"/>
					<path class="st15" d="M1145.5,460.5c-0.6,0-1.2-0.2-1.6-0.7c-0.4-0.5-0.7-1.1-0.6-1.7c0-0.6,0.2-1.2,0.5-1.7
						c0.4-0.4,1-0.7,1.6-0.7c0.5,0,1,0.2,1.4,0.6c0.3,0.4,0.5,1,0.5,1.5v0.5h-3c0,0.4,0.1,0.7,0.3,1c0.3,0.3,0.6,0.4,1,0.4h0.7
						l0.8-0.2v0.8l-0.7,0.2L1145.5,460.5z M1145.4,456.5c-0.3,0-0.6,0.1-0.8,0.3c-0.2,0.2-0.3,0.5-0.3,0.8h2.1
						c0-0.3-0.1-0.6-0.3-0.8C1145.9,456.6,1145.7,456.5,1145.4,456.5z"/>
					<path class="st15" d="M1150.3,460.5c-0.6,0-1.2-0.2-1.6-0.6c-0.4-0.5-0.7-1.1-0.6-1.8c0-0.6,0.2-1.2,0.6-1.7
						c0.4-0.5,1-0.7,1.6-0.7c0.5,0,0.9,0.1,1.3,0.3l-0.3,0.8l-1-0.3c-0.8,0-1.2,0.6-1.2,1.6c0,0.4,0.1,0.8,0.3,1.2
						c0.2,0.2,0.6,0.4,0.9,0.4c0.4,0,0.8-0.2,1.2-0.4v0.9l-0.5,0.2L1150.3,460.5z"/>
					<path class="st15" d="M1153.5,458l0.6-0.7l1.3-1.5h1.2l-1.9,2l2,2.6h-1.2l-1.4-2l-0.5,0.4v1.6h-1V454h1L1153.5,458L1153.5,458z
						"/>
					<path class="st15" d="M1159.7,460.5c-0.5,0-1-0.2-1.3-0.7h-0.1c0.1,0.2,0.1,0.5,0.1,0.7v1.9h-1v-6.6h0.8
						c0.1,0.2,0.1,0.4,0.1,0.6h0.1c0.3-0.4,0.8-0.7,1.3-0.7c0.6,0,1.1,0.2,1.4,0.7c0.3,0.5,0.5,1.1,0.4,1.7c0,0.6-0.1,1.2-0.4,1.7
						C1160.8,460.3,1160.3,460.5,1159.7,460.5z M1159.5,456.5c-0.3,0-0.7,0.1-0.9,0.4c-0.1,0.3-0.2,0.7-0.2,1v0.2
						c0,0.4,0.1,0.8,0.2,1.2c0.2,0.2,0.6,0.4,0.9,0.4c0.3,0,0.6-0.2,0.8-0.4c0.4-0.8,0.4-1.6,0-2.4
						C1160.1,456.7,1159.8,456.5,1159.5,456.5z"/>
					<path class="st15" d="M1166.7,458.1c0,0.6-0.2,1.2-0.6,1.7c-0.4,0.5-1,0.8-1.6,0.7c-0.4,0-0.8-0.1-1.1-0.3
						c-0.3-0.2-0.6-0.5-0.7-0.9c-0.2-0.4-0.3-0.8-0.3-1.2c0-0.6,0.2-1.2,0.6-1.7c0.4-0.5,1-0.8,1.6-0.7c0.6,0,1.1,0.3,1.5,0.7
						C1166.5,456.9,1166.7,457.5,1166.7,458.1z M1163.4,458.1c0,1,0.4,1.6,1.2,1.6s1.1-0.6,1.1-1.6s-0.4-1.6-1.1-1.6
						c-0.3,0-0.7,0.1-0.9,0.4C1163.5,457.3,1163.4,457.7,1163.4,458.1L1163.4,458.1z"/>
					<path class="st15" d="M1167.8,454.6c0-0.2,0-0.3,0.1-0.4h0.8c0.2,0.2,0.3,0.5,0.1,0.7c0,0-0.1,0.1-0.1,0.1h-0.8
						C1167.8,454.9,1167.8,454.8,1167.8,454.6z M1168.8,460.4h-1v-4.6h1V460.4z"/>
					<path class="st15" d="M1174.2,460.4h-1v-2.8c0-0.3-0.1-0.6-0.2-0.8c-0.2-0.2-0.4-0.3-0.7-0.3c-0.3,0-0.7,0.2-0.9,0.4
						c-0.2,0.3-0.4,0.8-0.3,1.2v2.3h-0.9v-4.6h0.7l0.2,0.6l0,0c0.2-0.2,0.3-0.4,0.6-0.5l0.8-0.2c0.8-0.1,1.6,0.4,1.7,1.3
						c0,0.1,0,0.3,0,0.4L1174.2,460.4z"/>
					<path class="st15" d="M1177.2,459.7h0.7v0.7h-0.9c-0.9,0-1.4-0.5-1.4-1.5v-2.4h-0.6V456l0.7-0.3l0.3-1h0.6v1h1.3v0.8h-1.3v2.5
						c0,0.2,0,0.4,0.2,0.5L1177.2,459.7z"/>
					<path class="st15" d="M1183.3,455.7h0.5v0.9h-0.4c-0.3,0-0.7,0.2-0.9,0.4c-0.3,0.3-0.4,0.6-0.4,1v2.4h-1v-4.6h0.8v0.8h0.1
						c0.1-0.3,0.3-0.5,0.6-0.6C1182.8,455.8,1183,455.7,1183.3,455.7z"/>
					<path class="st15" d="M1186.7,460.5c-0.6,0-1.3-0.2-1.7-0.7c-0.4-0.5-0.7-1.1-0.6-1.7c0-0.6,0.2-1.2,0.6-1.7
						c0.4-0.5,0.9-0.7,1.5-0.7c0.5,0,1.1,0.2,1.4,0.6c0.4,0.4,0.5,1,0.5,1.5v0.5h-3c-0.1,0.4,0.1,0.8,0.4,1c0.2,0.3,0.6,0.4,0.9,0.4
						h0.8l0.7-0.2v0.8l-0.7,0.2L1186.7,460.5z M1186.5,456.5c-0.3,0-0.6,0.1-0.8,0.3c-0.2,0.2-0.3,0.5-0.3,0.8h2.1
						c0-0.3-0.1-0.6-0.3-0.8C1187,456.6,1186.8,456.5,1186.5,456.5z"/>
					<path class="st15" d="M1191.8,460.5c-0.5,0-1-0.3-1.3-0.7h-0.1c0.1,0.2,0.1,0.5,0.1,0.7v1.9h-1v-6.6h0.8l0.2,0.6l0,0
						c0.3-0.4,0.8-0.7,1.4-0.7c0.5,0,1,0.3,1.3,0.7c0.4,0.5,0.5,1.1,0.5,1.7c0,0.6-0.2,1.2-0.5,1.7
						C1192.9,460.3,1192.4,460.5,1191.8,460.5z M1191.6,456.5c-0.4,0-0.7,0.1-0.8,0.4c-0.2,0.3-0.3,0.6-0.3,1v0.2
						c0,0.4,0.1,0.8,0.3,1.2c0.2,0.3,0.5,0.4,0.8,0.4c0.3,0,0.6-0.1,0.8-0.4c0.4-0.8,0.4-1.6,0-2.4
						C1192.2,456.6,1191.9,456.5,1191.6,456.5L1191.6,456.5z"/>
					<path class="st15" d="M1198.8,458.1c0,0.6-0.2,1.2-0.5,1.7c-0.4,0.5-1,0.7-1.6,0.7c-0.4,0-0.8-0.1-1.2-0.3
						c-0.3-0.2-0.5-0.5-0.7-0.9c-0.2-0.4-0.3-0.8-0.3-1.2c0-0.6,0.2-1.2,0.6-1.7c0.4-0.5,1-0.7,1.6-0.7c0.6,0,1.2,0.3,1.6,0.7
						C1198.6,456.9,1198.8,457.5,1198.8,458.1z M1195.5,458.1c0,1,0.4,1.6,1.2,1.6s1.1-0.6,1.1-1.6s-0.4-1.6-1.1-1.6
						c-0.3,0-0.7,0.2-0.9,0.4C1195.6,457.3,1195.5,457.7,1195.5,458.1z"/>
					<path class="st15" d="M1202.3,455.7h0.4v0.9h-0.4c-0.3,0-0.7,0.2-0.9,0.4c-0.3,0.3-0.4,0.6-0.4,1v2.4h-1v-4.6h0.8v0.8h0.1
						c0.1-0.3,0.3-0.5,0.6-0.6C1201.7,455.8,1202,455.7,1202.3,455.7z"/>
					<path class="st15" d="M1205.3,459.7h0.7v0.7h-1c-0.9,0-1.3-0.5-1.3-1.5v-2.4h-0.7V456l0.7-0.3l0.3-1h0.6v1h1.3v0.8h-1.3v2.5
						c0,0.2,0.1,0.4,0.2,0.5L1205.3,459.7z"/>
				</g>
				<g>
					<g>
						<path class="st13" d="M1145.7,416.2L1145.7,416.2z M1153.4,414.5c-0.4-0.4-1.1-0.4-1.5,0l-0.7,0.6l-2.8,2.6l-1.4-1.3h-1.3
							c0,0.1,0,0.1-0.1,0.1l-0.2,0.2l-0.2,0.3v0.2l0,0v0.2l0,0c0.1,0.1,0.1,0.1,0.1,0.2l0.2,0.2l2.9,2.7l4.1-3.9l0.8-0.8
							C1153.6,415.4,1153.7,414.9,1153.4,414.5L1153.4,414.5z M1153.4,428c-0.4-0.4-1.1-0.4-1.5,0l-0.7,0.6l-2.8,2.7l-1.4-1.4
							c-0.5-0.4-1.2-0.3-1.6,0.1v0.2c-0.1,0.1-0.1,0.2-0.1,0.3l0,0c0,0.1-0.1,0.1-0.1,0.2s0.1,0.3,0.1,0.4l0.3,0.4l2.9,2.7l1.9-1.9
							l2.2-2l0,0l0.8-0.8C1153.8,429.1,1153.8,428.4,1153.4,428L1153.4,428z M1153.4,401c-0.3-0.4-1-0.5-1.4-0.2
							c0,0-0.1,0.1-0.1,0.1l-0.7,0.7l-1.5,1.3l-1.3,1.3l-1.4-1.3c-0.5-0.4-1.1-0.4-1.6,0c-0.1,0.1-0.1,0.3-0.2,0.4v0.2
							c-0.1,0.3,0,0.7,0.3,0.9l2.9,2.7l4.1-3.8l0,0l0.8-0.8C1153.7,402.1,1153.8,401.4,1153.4,401L1153.4,401z"/>
						<path class="st13" d="M1185.4,424.9v-30.4c0-2.7-2.2-4.9-4.9-4.9l0,0h-4.6v5.3h-27.6v-5.3h-4.6c-2.7,0-4.9,2.2-5,4.9v47.8
							c0,2.8,2.2,5,5,5h36.8c1.1,0,2.1-0.4,2.9-1c-2.9-2.5-4.5-6.2-4.5-10C1178.9,431.6,1181.4,427.3,1185.4,424.9z M1156.7,402
							h14.7c0.6,0,1.1,0.5,1.1,1.1s-0.5,1.1-1.1,1.1h-14.7c-0.6,0-1.1-0.5-1.1-1.1S1156.1,402,1156.7,402z M1156.7,406.1h19.4
							c0.6,0,1.1,0.5,1.1,1.1s-0.5,1.1-1.1,1.1h-19.4c-0.6,0-1.1-0.5-1.1-1.1S1156.1,406.1,1156.7,406.1z M1156.7,415.6h14.7
							c0.5-0.1,1,0.3,1.1,0.9c0,0,0,0.1,0,0.1c0,0.6-0.5,1.1-1.1,1.1h-14.7c-0.6,0-1.1-0.5-1.1-1.1c0-0.6,0.4-1,1-1
							C1156.6,415.6,1156.7,415.6,1156.7,415.6z M1153.3,429.5l-0.8,0.8v0.2c0.2,0.5,0.2,1,0.2,1.5c0,2.4-1.9,4.3-4.3,4.3l0,0
							c-2.4-0.1-4.3-2-4.3-4.4c0-2.4,1.9-4.3,4.3-4.3l0,0c0.9,0,1.8,0.3,2.6,0.9h0.1l0.7-0.6c0.4-0.4,1.1-0.4,1.4,0
							c0.4,0.4,0.4,1.1,0,1.5L1153.3,429.5z M1153.3,416l-0.8,0.8v0.2c0.2,0.4,0.2,0.9,0.2,1.4c0,2.4-1.9,4.3-4.3,4.3
							c-2.4,0-4.3-1.9-4.3-4.3s1.9-4.3,4.3-4.3c0.9,0,1.9,0.3,2.6,0.9h0.1l0.7-0.6c0.4-0.4,1.1-0.4,1.4,0c0.4,0.4,0.4,1.1,0,1.5
							L1153.3,416z M1153.3,402.5l-0.8,0.8h0.1c0.2,0.5,0.2,1,0.2,1.5c0,2.4-1.9,4.3-4.3,4.3c-2.4,0-4.3-1.9-4.3-4.3
							c0-0.3,0-0.6,0.1-0.9c0.5-2.3,2.7-3.8,5.1-3.4c0.6,0.1,1.2,0.4,1.7,0.8h0.1l-1.5,1.4l1.5-1.3l0.7-0.7c0.4-0.4,1-0.4,1.4,0
							c0,0,0.1,0.1,0.1,0.1c0.4,0.4,0.5,1.1,0.1,1.6C1153.4,402.4,1153.4,402.5,1153.3,402.5L1153.3,402.5z M1171.4,435.3h-14.7
							c-0.5,0.1-1-0.3-1.1-0.9c0,0,0-0.1,0-0.1c0-0.6,0.5-1.1,1.1-1.1h14.7c0.6,0,1.1,0.5,1.1,1.1c0,0.6-0.4,1-1,1
							C1171.5,435.3,1171.4,435.3,1171.4,435.3L1171.4,435.3z M1171.4,431.2h-14.7c-0.6,0-1-0.4-1.1-1c0-0.6,0.5-1.1,1.1-1.1h14.7
							c0.6,0,1.1,0.5,1.1,1.1C1172.4,430.8,1172,431.2,1171.4,431.2L1171.4,431.2z M1178.9,421.8h-22.2c-0.6,0-1.1-0.5-1.1-1.1
							c0.1-0.6,0.5-1,1.1-1h22.2c0.6,0,1,0.4,1.1,1C1180,421.3,1179.5,421.8,1178.9,421.8L1178.9,421.8z"/>
						<path class="st14" d="M1173.8,387.4v5.4h-23.4v-5.4h8.4c0.5-1.8,2.3-2.9,4.1-2.5c1.2,0.3,2.2,1.3,2.5,2.5H1173.8z"/>
						<g>
							<g>
								<path class="st16" d="M1152.5,403.3L1152.5,403.3l-4.1,3.8l0,0l-2.9-2.7l0,0c-0.3-0.2-0.4-0.6-0.3-0.9v-0.2
									c0.1-0.1,0.1-0.3,0.2-0.4c0.5-0.4,1.1-0.4,1.6,0l1.4,1.3l1.3-1.3l1.5-1.3L1152.5,403.3z"/>
								<path class="st14" d="M1153.3,402.5l-0.8,0.8l-4.1,3.8l0,0l-2.9-2.7l0,0c-0.3-0.2-0.4-0.6-0.3-0.9v-0.2
									c0.1-0.1,0.1-0.3,0.2-0.4c0.5-0.4,1.1-0.4,1.6,0l1.4,1.3l1.3-1.3l1.5-1.3l0.7-0.7c0.4-0.4,1-0.4,1.4,0c0,0,0.1,0.1,0.1,0.1
									C1153.8,401.4,1153.7,402.1,1153.3,402.5z"/>
							</g>
							<g>
								<path class="st16" d="M1152.5,416.8l-4.1,3.9l-2.9-2.7c-0.4-0.4-0.5-1.1-0.1-1.5c0.4-0.5,1.1-0.5,1.5-0.1c0,0,0,0,0.1,0
									l1.4,1.3l2.8-2.6L1152.5,416.8z"/>
								<path class="st14" d="M1153.3,416l-0.8,0.8l-4.1,3.9l0,0l-2.9-2.7c-0.2-0.2-0.3-0.4-0.3-0.6l0,0c0-0.1-0.1-0.2,0-0.3l0,0
									v-0.2l0,0l0.2-0.3l0.2-0.2h1.4l1.4,1.3l2.8-2.6l0.7-0.6c0.4-0.4,1.1-0.4,1.4,0C1153.7,415,1153.7,415.6,1153.3,416
									L1153.3,416z"/>
							</g>
							<g>
								<path class="st16" d="M1152.5,430.3l-4.1,3.9l-2.9-2.7c-0.4-0.4-0.5-1.1-0.1-1.5c0.4-0.4,1.1-0.4,1.6-0.1l1.4,1.4l2.8-2.7
									L1152.5,430.3z"/>
								<path class="st14" d="M1153.3,429.5l-0.8,0.8l-2.2,2l-1.9,1.9l-2.9-2.7l0,0l-0.3-0.4c0-0.1-0.1-0.2-0.1-0.4s0.1-0.1,0.1-0.2
									l0,0c0-0.1,0-0.2,0.1-0.3V430c0.4-0.4,1.1-0.5,1.6-0.1l1.4,1.4l2.8-2.7l0.7-0.6c0.4-0.4,1.1-0.4,1.4,0
									c0.4,0.4,0.4,1.1,0,1.5l0,0L1153.3,429.5z"/>
							</g>
						</g>
					</g>
					<path class="st13" d="M1192.1,425.4c-6.1,0-11,4.9-11,11s4.9,11,11,11c6.1,0,11-4.9,11-11c0,0,0-0.1,0-0.1
						c0-6-4.9-10.9-10.9-10.9C1192.2,425.4,1192.1,425.4,1192.1,425.4z M1197.4,439.2h-6.2v-9.1c0-0.6,0.5-1.1,1.1-1.1
						c0.6,0,1.1,0.5,1.1,1.1v6.9h4c0.6,0,1.1,0.5,1.1,1.1S1198,439.2,1197.4,439.2L1197.4,439.2z"/>
					<rect x="1189.4" y="420.5" class="st14" width="5.5" height="3"/>
				</g>
			</g>
		</g>
		<g>
			<g>
				<path class="st15" d="M951.9,289.2v-6h1v6H951.9z"/>
				<path class="st15" d="M958.4,289.2h-1v-2.8c0-0.3-0.1-0.6-0.2-0.8c-0.1-0.2-0.4-0.2-0.7-0.2c-0.3,0-0.7,0.1-0.9,0.3
					c-0.2,0.4-0.3,0.8-0.3,1.2v2.3h-0.9v-4.5h0.7l0.2,0.5l0,0c0.1-0.2,0.3-0.3,0.6-0.5h0.8c1.1,0,1.7,0.5,1.7,1.6L958.4,289.2z"/>
				<path class="st15" d="M959.7,283.4c0-0.1,0-0.3,0.1-0.4h0.8c0.1,0.1,0.2,0.3,0.2,0.4c0,0.2-0.1,0.3-0.2,0.4l-0.4,0.2
					c-0.2,0-0.3-0.1-0.4-0.2C959.7,283.7,959.7,283.6,959.7,283.4z M960.7,289.2h-1v-4.5h1V289.2z"/>
				<path class="st15" d="M963.8,288.5h0.7v0.7h-1c-0.9,0-1.3-0.5-1.3-1.5v-2.4h-0.7V285l0.7-0.4l0.3-1h0.6v1.1h1.3v0.7h-1.3v2.4
					c0,0.2,0.1,0.4,0.2,0.5C963.4,288.5,963.6,288.5,963.8,288.5z"/>
				<path class="st15" d="M965.3,283.4l0.2-0.4h0.8c0.1,0.1,0.1,0.3,0.1,0.4c0,0.2,0,0.3-0.1,0.4c-0.1,0.1-0.2,0.2-0.4,0.2l-0.4-0.2
					C965.4,283.7,965.3,283.6,965.3,283.4z M966.4,289.2h-1v-4.5h1V289.2z"/>
				<path class="st15" d="M970.6,289.2l-0.2-0.6l0,0l-0.7,0.5l-0.9,0.2c-0.4,0-0.7-0.1-1-0.4c-0.3-0.3-0.4-0.6-0.4-1
					c0-0.4,0.2-0.8,0.5-1.1l1.6-0.4h0.8v-0.2c0-0.3,0-0.5-0.2-0.7l-0.6-0.2h-0.7l-0.6,0.3l-0.3-0.7c0.2-0.2,0.5-0.3,0.8-0.3h0.8
					c0.5,0,0.9,0.1,1.3,0.3c0.3,0.3,0.5,0.7,0.5,1.2v3.1L970.6,289.2z M969.2,288.5c0.3,0,0.6,0,0.8-0.2c0.2-0.2,0.3-0.6,0.3-0.9
					V287h-0.6l-1,0.2c-0.2,0.1-0.3,0.4-0.3,0.6c0,0.2,0.1,0.4,0.2,0.5L969.2,288.5z"/>
				<path class="st15" d="M974.3,288.5h0.7v0.7h-0.9c-0.9,0-1.4-0.5-1.4-1.5v-2.4h-0.6V285l0.7-0.4l0.3-1h0.6v1.1h1.3v0.7h-1.3v2.4
					c0,0.2,0.1,0.4,0.2,0.5C974,288.5,974.1,288.5,974.3,288.5z"/>
				<path class="st15" d="M975.9,283.4c0-0.1,0-0.3,0.1-0.4h0.8l0.2,0.4c0,0.3-0.3,0.6-0.6,0.6l-0.4-0.2
					C975.9,283.7,975.9,283.6,975.9,283.4z M976.9,289.2H976v-4.5h0.9V289.2z"/>
				<path class="st15" d="M982.3,289.2h-1v-2.8c0-0.3,0-0.6-0.2-0.8c-0.1-0.2-0.3-0.2-0.6-0.2s-0.8,0.1-0.9,0.3
					c-0.2,0.4-0.3,0.8-0.3,1.2v2.3h-1v-4.5h0.8v0.5l0,0l0.6-0.5h0.9c0.8-0.1,1.5,0.4,1.6,1.2c0,0.1,0,0.3,0,0.4L982.3,289.2z"/>
				<path class="st15" d="M987.5,284.7v0.5h-0.8c0.1,0.1,0.2,0.2,0.2,0.4c0.1,0.1,0.1,0.3,0.1,0.4c0,0.4-0.2,0.8-0.5,1.1
					c-0.4,0.3-0.9,0.4-1.4,0.4h-0.3c-0.2,0-0.4,0.3-0.4,0.5l0.2,0.2h1.3c0.4,0,0.8,0.1,1.2,0.3c0.2,0.2,0.4,0.6,0.4,0.9
					c0,0.5-0.3,0.9-0.7,1.2c-0.5,0.3-1.2,0.5-1.8,0.4c-0.5,0-1-0.1-1.4-0.3c-0.3-0.2-0.5-0.5-0.5-0.9c0-0.3,0-0.5,0.2-0.7
					c0.2-0.2,0.5-0.4,0.8-0.4c-0.2-0.1-0.3-0.2-0.3-0.3c-0.1-0.1-0.2-0.3-0.2-0.4c0-0.2,0.1-0.3,0.2-0.4c0.1-0.1,0.2-0.3,0.4-0.4
					c-0.2-0.1-0.5-0.3-0.6-0.5c-0.1-0.2-0.2-0.5-0.2-0.8c0-0.4,0.2-0.8,0.5-1.1c0.4-0.3,0.8-0.5,1.3-0.4h2.3V284.7z M983.9,289.9
					c0,0.2,0.1,0.4,0.3,0.5l0.8,0.2c0.4,0,0.8-0.1,1.2-0.3c0.2-0.1,0.4-0.3,0.4-0.6c0-0.2-0.1-0.3-0.2-0.4h-1.6l-0.6,0.2
					C984,289.6,983.9,289.7,983.9,289.9L983.9,289.9z M984.3,286.1c0,0.3,0.1,0.5,0.3,0.7c0.2,0.1,0.4,0.2,0.6,0.2
					c0.6,0,0.8-0.3,0.8-0.9c0-0.3,0-0.5-0.2-0.7l-0.6-0.2c-0.2,0-0.4,0.1-0.6,0.2C984.4,285.6,984.3,285.8,984.3,286.1L984.3,286.1z
					"/>
				<path class="st15" d="M993.4,289.2l-0.2-0.6l0,0l-0.7,0.5l-0.9,0.2c-0.8,0-1.4-0.6-1.4-1.4c0,0,0,0,0,0c0-0.4,0.2-0.8,0.5-1.1
					l1.6-0.4h0.8v-0.2c0.1-0.4-0.1-0.8-0.5-0.9c-0.1,0-0.2,0-0.3,0h-0.7l-0.6,0.3l-0.3-0.7c0.2-0.2,0.5-0.3,0.8-0.3h0.8
					c0.5,0,0.9,0.1,1.3,0.3c0.3,0.3,0.5,0.7,0.5,1.2v3.1H993.4z M991.9,288.5c0.4,0,0.7,0,0.9-0.2c0.2-0.2,0.3-0.6,0.3-0.9V287h-0.6
					l-1,0.2c-0.2,0.1-0.3,0.4-0.3,0.6c0,0.2,0.1,0.4,0.2,0.5L991.9,288.5z"/>
				<path class="st15" d="M961.6,299.4c-0.5,0-1.1-0.2-1.4-0.6h-0.1c0.1,0.2,0.1,0.5,0.1,0.7v1.9h-1v-6.6h0.8l0.2,0.6l0,0
					c0.3-0.5,0.8-0.7,1.4-0.7c0.5,0,1,0.2,1.3,0.6c0.3,0.5,0.5,1.1,0.5,1.7c0,0.6-0.1,1.3-0.5,1.8
					C962.6,299.2,962.1,299.4,961.6,299.4z M961.3,295.5c-0.3,0-0.6,0.1-0.8,0.3c-0.2,0.3-0.3,0.7-0.3,1.1l0,0
					c-0.1,0.4,0.1,0.9,0.3,1.2c0.1,0.3,0.4,0.4,0.8,0.4c0.3,0,0.6-0.1,0.8-0.4c0.2-0.4,0.3-0.8,0.3-1.2c0-0.4-0.1-0.8-0.3-1.1
					C961.9,295.6,961.6,295.4,961.3,295.5z"/>
				<path class="st15" d="M966.8,294.7h0.5v0.9h-0.4c-0.4,0-0.7,0.1-1,0.4c-0.2,0.2-0.3,0.6-0.3,0.9v2.4h-1v-4.5h0.8v0.8l0,0
					l0.6-0.7L966.8,294.7z"/>
				<path class="st15" d="M972.2,297c0.1,0.7-0.2,1.3-0.6,1.8c-0.4,0.4-1,0.6-1.6,0.6c-0.4,0-0.8-0.1-1.1-0.3
					c-0.3-0.2-0.6-0.5-0.8-0.8c-0.2-0.4-0.2-0.9-0.2-1.3c0-0.6,0.2-1.2,0.5-1.7c0.9-0.8,2.3-0.8,3.2,0
					C972,295.8,972.2,296.4,972.2,297z M968.9,297c0,1.1,0.3,1.6,1.1,1.6s1.2-0.5,1.2-1.6s-0.4-1.5-1.2-1.5c-0.3,0-0.7,0.1-0.9,0.4
					C968.9,296.2,968.8,296.6,968.9,297z"/>
				<path class="st15" d="M972.8,301.4h-0.7v-0.8h0.6c0.4,0,0.6-0.3,0.6-0.7v-5.1h1v5.1c0,0.4-0.1,0.8-0.4,1.1
					C973.6,301.3,973.2,301.4,972.8,301.4z M973.2,293.6c0-0.2,0.1-0.3,0.2-0.4l0.4-0.2l0.4,0.2c0.1,0.1,0.1,0.2,0.1,0.4
					c0,0.1,0,0.3-0.1,0.4h-0.8C973.3,293.9,973.2,293.7,973.2,293.6z"/>
				<path class="st15" d="M977.6,299.4c-0.6,0-1.2-0.2-1.6-0.6c-0.4-0.5-0.6-1.1-0.6-1.7c0-0.6,0.2-1.3,0.5-1.8
					c0.4-0.4,0.9-0.6,1.5-0.6c0.5,0,1.1,0.2,1.5,0.5c0.3,0.4,0.5,1,0.5,1.5v0.6h-3c-0.1,0.6,0.3,1.2,0.9,1.3c0.1,0,0.3,0,0.4,0h0.7
					l0.8-0.3v0.8l-0.7,0.2L977.6,299.4z M977.4,295.4c-0.3,0-0.5,0.1-0.7,0.3c-0.2,0.2-0.3,0.6-0.3,0.9h2c0-0.3-0.1-0.6-0.2-0.9
					C978,295.5,977.7,295.4,977.4,295.4L977.4,295.4z"/>
				<path class="st15" d="M982.3,299.4c-0.6,0-1.1-0.2-1.5-0.6c-0.4-0.5-0.6-1.1-0.6-1.7c-0.1-0.7,0.2-1.3,0.6-1.8
					c0.4-0.4,1-0.6,1.6-0.6c0.5,0,0.9,0.1,1.3,0.3l-0.3,0.7l-1-0.2c-0.8,0-1.2,0.5-1.2,1.6c0,0.4,0.1,0.8,0.3,1.1
					c0.2,0.3,0.6,0.4,0.9,0.4c0.4,0,0.8-0.1,1.2-0.3v0.8l-0.6,0.2L982.3,299.4z"/>
				<path class="st15" d="M986.4,298.6h0.7v0.7l-0.4,0.2h-0.6c-0.9,0-1.3-0.5-1.3-1.4v-2.5h-0.7v-0.4l0.7-0.4l0.3-0.9h0.6v1h1.3v0.7
					h-1.3v2.4c0,0.2,0.1,0.4,0.2,0.6L986.4,298.6z"/>
			</g>
			<g>
				<path class="st13" d="M986,236.5v6.1h-5.2v-5.1c0-0.6-0.4-1-1-1l0,0c-0.5-0.1-0.9,0.3-1,0.8c0,0.1,0,0.1,0,0.2v5.1h-11v-5.1
					c0-0.5-0.5-1-1-1c-0.6,0-1,0.4-1,1v5.1h-5.3v-6c0-2,1.3-3.8,3.2-4.4l4.7-1.5l4.9,3.2l5.5-3.2l4.1,1.4
					C984.8,232.7,986,234.5,986,236.5z"/>
				<path class="st13" d="M979.7,222.9c0,3.5-2.9,6.4-6.4,6.4c-3.5,0-6.4-2.9-6.4-6.4s2.9-6.4,6.4-6.4S979.7,219.4,979.7,222.9
					L979.7,222.9z"/>
				<g>
					<path class="st13" d="M961.8,270.3v6h-5.2v-5.1c0-0.6-0.4-1-1-1l0,0c-0.5,0-1,0.5-1,1v5.1h-11.1v-5c0.1-0.5-0.3-0.9-0.8-1
						c-0.1,0-0.1,0-0.2,0c-0.6,0-1,0.4-1,1v5h-5.2v-6c0-2,1.3-3.8,3.2-4.4l4.7-1.4l4.8,3.2l5.5-3.2l4.2,1.4
						C960.6,266.6,961.8,268.3,961.8,270.3z"/>
					<path class="st13" d="M955.4,256.6c0,3.5-2.9,6.4-6.4,6.4l0,0c-3.5,0-6.4-2.9-6.4-6.4c0-3.5,2.9-6.4,6.4-6.4
						C952.5,250.2,955.4,253.1,955.4,256.6L955.4,256.6z"/>
				</g>
				<g>
					<path class="st13" d="M1009,270.3v6h-5.2v-5.1c0-0.5-0.5-1-1-1h-0.1c-0.5,0.1-0.9,0.5-0.9,1v5.1h-11.1v-5
						c0.1-0.5-0.3-0.9-0.8-1c-0.1,0-0.1,0-0.2,0c-0.6,0-1,0.4-1,1v5h-5.2v-6c0-2,1.3-3.8,3.2-4.4l4.7-1.4l4.8,3.2l5.5-3.2l4.2,1.4
						C1007.8,266.5,1009.1,268.3,1009,270.3z"/>
					<path class="st13" d="M1002.6,256.6c0,3.5-2.9,6.4-6.4,6.4c-3.5,0-6.4-2.9-6.4-6.4c0-3.5,2.9-6.4,6.4-6.4
						S1002.6,253.1,1002.6,256.6C1002.6,256.6,1002.6,256.6,1002.6,256.6z"/>
				</g>
				<g>
					<path class="st14" d="M996.3,246.6h-0.5c-0.3-0.2-0.5-0.5-0.5-0.9v-18.3h-10.5c-0.5,0.1-0.9-0.3-1-0.8c0-0.1,0-0.1,0-0.2
						c0-0.6,0.4-1,1-1h11.5c0.5,0,1,0.5,1,1v17.3l2.2-1.5c0.5-0.3,1.1-0.2,1.4,0.3c0,0,0,0,0,0c0.3,0.4,0.2,1-0.2,1.3c0,0,0,0-0.1,0
						l-3.8,2.6L996.3,246.6z"/>
					<path class="st14" d="M996.3,246.6l-0.6-0.2l-3.8-2.6c-0.4-0.2-0.6-0.8-0.3-1.2c0,0,0-0.1,0-0.1c0.3-0.5,0.9-0.6,1.4-0.3
						c0,0,0,0,0,0l3.8,2.5c0.5,0.3,0.6,0.9,0.3,1.4c0,0,0,0,0,0C996.9,246.4,996.6,246.6,996.3,246.6z"/>
				</g>
				<g>
					<path class="st14" d="M949,246.6l-0.5-0.2l-3.9-2.6c-0.4-0.3-0.5-0.8-0.2-1.3c0,0,0,0,0,0c0.3-0.5,0.9-0.6,1.4-0.3c0,0,0,0,0,0
						l2.2,1.5v-17.3c0-0.5,0.5-1,1-1h11.5c0.6,0,1,0.4,1,1c0.1,0.5-0.3,0.9-0.8,1c-0.1,0-0.1,0-0.2,0H950v18.2
						c0,0.4-0.2,0.7-0.5,0.9L949,246.6z"/>
					<path class="st14" d="M949,246.6c-0.3,0-0.6-0.2-0.8-0.5c-0.3-0.5-0.2-1.1,0.3-1.4c0,0,0,0,0,0l3.8-2.5
						c0.5-0.3,1.1-0.2,1.4,0.3c0,0,0,0,0,0c0.3,0.4,0.2,1-0.2,1.3c0,0,0,0-0.1,0l-3.8,2.6L949,246.6z"/>
				</g>
				<g>
					<path class="st13" d="M979.5,257.1c0,3.5-2.8,6.3-6.3,6.3c-3.5,0-6.3-2.8-6.3-6.3c0-3.5,2.8-6.3,6.3-6.3c0,0,0.1,0,0.1,0
						c1.1,0,2.1,0.3,3,0.8l-3.2,3.1l-0.3-0.3c-0.4-0.5-1.1-0.8-1.7-0.8c-1.3,0.1-2.4,1.2-2.5,2.5c0,0.6,0.3,1.3,0.8,1.7l2,2.1
						c0.5,0.4,1.1,0.7,1.7,0.7c0.7,0,1.3-0.3,1.8-0.7l4.4-4.5C979.5,255.9,979.5,256.5,979.5,257.1z"/>
					<path class="st14" d="M973.1,259.4c-0.3,0-0.6-0.2-0.8-0.4l-2.1-2.1c-0.5-0.5-0.5-1.2,0-1.7c0.5-0.5,1.2-0.5,1.7,0l0,0l1.2,1.2
						l5.2-5.2c0.5-0.5,1.3-0.5,1.8,0c0.4,0.5,0.4,1.2,0,1.7L974,259C973.8,259.2,973.4,259.4,973.1,259.4z"/>
				</g>
			</g>
		</g>
		<g>
			<g>
				<path class="st15" d="M1325.1,291c0,0.6-0.2,1.2-0.7,1.5c-0.5,0.3-1.1,0.5-1.7,0.5h-0.6v2.2h-1v-6h1.7c0.6,0,1.2,0.1,1.7,0.5
					C1324.9,290,1325.1,290.5,1325.1,291z M1322.1,292.2h0.5c0.4,0,0.8-0.1,1.1-0.3c0.2-0.2,0.4-0.5,0.4-0.8c0-0.3-0.1-0.6-0.4-0.8
					c-0.3-0.2-0.6-0.3-1-0.3h-0.6V292.2z"/>
				<path class="st15" d="M1328.5,290.6h0.5v0.9h-0.5c-0.3,0-0.7,0.1-0.9,0.4c-0.3,0.3-0.4,0.6-0.4,1v2.3h-0.9v-4.5h0.7v0.8h0.1
					c0.1-0.3,0.3-0.5,0.6-0.7L1328.5,290.6z"/>
				<path class="st15" d="M1333.8,292.9c0,0.6-0.1,1.3-0.5,1.8c-0.4,0.4-1,0.6-1.6,0.6c-0.4,0-0.8-0.1-1.2-0.3
					c-0.3-0.2-0.5-0.5-0.7-0.8c-0.2-0.4-0.3-0.8-0.3-1.3c0-0.6,0.2-1.2,0.6-1.7c0.9-0.8,2.3-0.8,3.2,0
					C1333.6,291.7,1333.8,292.3,1333.8,292.9z M1330.5,292.9c0,1.1,0.4,1.6,1.2,1.6s1.1-0.5,1.1-1.6s-0.3-1.5-1.1-1.5
					c-0.3,0-0.7,0.1-0.9,0.4C1330.6,292.1,1330.5,292.5,1330.5,292.9z"/>
				<path class="st15" d="M1334.5,297.3h-0.7v-0.8h0.5c0.4,0,0.7-0.3,0.7-0.7v-5.1h0.9v5.1c0,0.4-0.1,0.8-0.3,1.1
					C1335.3,297.2,1334.9,297.3,1334.5,297.3z M1334.9,289.5c0-0.2,0-0.3,0.1-0.4l0.4-0.2l0.4,0.2c0.1,0.1,0.2,0.2,0.2,0.4
					c0,0.1-0.1,0.3-0.2,0.4h-0.8C1334.9,289.8,1334.9,289.6,1334.9,289.5z"/>
				<path class="st15" d="M1339.3,295.3c-1.2,0.1-2.2-0.7-2.3-1.9c0-0.1,0-0.3,0-0.4c0-0.7,0.2-1.3,0.6-1.8c0.4-0.4,0.9-0.6,1.5-0.6
					c0.5,0,1,0.2,1.4,0.5c0.4,0.4,0.6,0.9,0.6,1.5v0.6h-3.1c0,0.4,0.1,0.7,0.4,1c0.2,0.2,0.6,0.3,0.9,0.3h0.8l0.7-0.3v0.8l-0.7,0.2
					L1339.3,295.3z M1339.1,291.3c-0.3,0-0.5,0.1-0.7,0.3c-0.2,0.3-0.3,0.6-0.4,0.9h2.1c0-0.3-0.1-0.7-0.3-0.9
					C1339.6,291.4,1339.4,291.3,1339.1,291.3L1339.1,291.3z"/>
				<path class="st15" d="M1344,295.3c-0.6,0-1.2-0.2-1.6-0.6c-0.3-0.5-0.5-1.1-0.5-1.7c-0.1-0.7,0.2-1.3,0.6-1.8
					c0.4-0.4,1-0.6,1.6-0.6c0.5,0,0.9,0.1,1.3,0.3l-0.3,0.7l-1-0.2c-0.8,0-1.2,0.5-1.2,1.6c0,0.4,0.1,0.8,0.3,1.1
					c0.2,0.3,0.5,0.4,0.8,0.4c0.5,0,0.9-0.1,1.3-0.3v0.8l-0.6,0.2L1344,295.3z"/>
				<path class="st15" d="M1348,294.5h0.7v0.7l-0.4,0.2h-0.5c-0.7,0.1-1.3-0.5-1.4-1.2c0-0.1,0-0.1,0-0.2v-2.5h-0.6V291l0.7-0.4
					l0.3-0.9h0.6v1h1.3v0.7h-1.3v2.4c0,0.2,0.1,0.4,0.2,0.6L1348,294.5z"/>
				<path class="st15" d="M1354.2,290.6c0.5,0,1,0.2,1.3,0.6c0.3,0.5,0.5,1.1,0.5,1.7c0,0.6-0.1,1.3-0.5,1.8
					c-0.3,0.4-0.8,0.6-1.3,0.6c-0.5,0-1.1-0.2-1.4-0.6l0,0l-0.2,0.5h-0.8v-6.4h1v2.5l0,0C1353.1,290.8,1353.6,290.6,1354.2,290.6z
					 M1353.9,291.4c-0.3,0-0.6,0.1-0.8,0.3c-0.2,0.4-0.3,0.8-0.3,1.2l0,0c0,0.5,0.1,0.9,0.3,1.3c0.2,0.2,0.5,0.3,0.8,0.3
					c0.3,0,0.6-0.1,0.8-0.4c0.2-0.4,0.3-0.8,0.3-1.2C1355,291.9,1354.6,291.4,1353.9,291.4L1353.9,291.4z"/>
				<path class="st15" d="M1359.4,290.6h0.5v0.9h-0.4c-0.4,0-0.7,0.1-1,0.4c-0.2,0.3-0.3,0.6-0.3,1v2.3h-1v-4.5h0.8v0.8l0,0l0.6-0.7
					L1359.4,290.6z"/>
				<path class="st15" d="M1360.7,289.5c0-0.2,0-0.3,0.1-0.4l0.4-0.2c0.3,0,0.6,0.3,0.6,0.6c0,0.1-0.1,0.3-0.2,0.4h-0.8
					C1360.7,289.8,1360.7,289.6,1360.7,289.5z M1361.7,295.2h-1v-4.5h1V295.2z"/>
				<path class="st15" d="M1365.1,295.3c-1.2,0.1-2.2-0.7-2.3-1.9c0-0.1,0-0.3,0-0.4c0-0.7,0.2-1.3,0.6-1.8c0.4-0.4,0.9-0.6,1.5-0.6
					c0.5,0,1,0.2,1.4,0.5c0.4,0.4,0.6,0.9,0.6,1.5v0.6h-3.1c0,0.4,0.1,0.7,0.4,1c0.2,0.2,0.6,0.3,0.9,0.3h0.8l0.7-0.3v0.8l-0.7,0.2
					L1365.1,295.3z M1364.9,291.3c-0.3,0-0.5,0.1-0.7,0.3c-0.2,0.3-0.3,0.6-0.4,0.9h2.1c0-0.3-0.1-0.7-0.3-0.9
					C1365.4,291.4,1365.2,291.3,1364.9,291.3z"/>
				<path class="st15" d="M1370.2,291.4h-1.1v3.8h-0.9v-3.8h-0.8V291l0.8-0.3v-0.3c-0.1-0.4,0.1-0.9,0.3-1.2
					c0.3-0.3,0.8-0.4,1.2-0.4h1l-0.3,0.8h-0.6c-0.3,0-0.4,0-0.5,0.2c-0.1,0.2-0.2,0.4-0.2,0.6v0.3h1.1V291.4z"/>
			</g>
			<g>
				<path class="st13" d="M1367.8,265.9v-35.7c0-2.7-2.2-4.9-4.9-4.9l0,0h-4.5v5.2h-27.2v-5.2h-4.5c-2.7,0-4.9,2.2-4.9,4.9v0v47.1
					c0,2.7,2.2,4.9,4.9,4.9l0,0h36.2c2.2,0,4.1-1.4,4.7-3.5l-33.4,0.2l-8-6.4l7.9-6.6H1367.8z"/>
				<path class="st0" d="M1329.7,238.4h21.9c0.5-0.1,1,0.3,1.1,0.9c0,0,0,0.1,0,0.1c0,0.6-0.5,1.1-1.1,1.1h-21.9
					c-0.6,0-1.1-0.5-1.1-1.1c0-0.6,0.4-1,1-1C1329.6,238.4,1329.7,238.4,1329.7,238.4z"/>
				<path class="st0" d="M1329.7,243.8h21.9c0.6,0,1,0.4,1.1,1c0,0.6-0.5,1.1-1.1,1.1h-21.9c-0.6,0-1.1-0.5-1.1-1.1
					C1328.7,244.2,1329.1,243.8,1329.7,243.8z"/>
				<path class="st0" d="M1329.7,249.2h21.9c0.6,0,1.1,0.5,1.1,1.1c0,0.6-0.4,1-1,1c0,0-0.1,0-0.1,0h-21.9c-0.5,0.1-1-0.3-1.1-0.9
					c0,0,0-0.1,0-0.1C1328.6,249.7,1329.1,249.2,1329.7,249.2z"/>
				<path class="st0" d="M1328.6,255.7c0-0.6,0.4-1,1-1c0,0,0.1,0,0.1,0h14.5c0.5-0.1,1,0.3,1.1,0.9c0,0,0,0.1,0,0.1
					c0,0.6-0.5,1.1-1.1,1.1h-14.5C1329.1,256.8,1328.6,256.3,1328.6,255.7z"/>
			</g>
			<path class="st14" d="M1356.3,223.1v5.3h-23v-5.3h8.2c0.4-1.5,1.7-2.5,3.3-2.5c1.5-0.1,2.9,1,3.2,2.5H1356.3z"/>
			<g>
				<polygon class="st13" points="1368.5,275 1336.9,275 1336.9,277 1368.5,277 				"/>
				<rect x="1336.9" y="271.6" class="st13" width="31.6" height="1.4"/>
				<rect x="1336.9" y="267.7" class="st13" width="31.6" height="1.8"/>
				<rect x="1369.7" y="267.9" class="st14" width="2.4" height="8.9"/>
				<polygon class="st14" points="1335.4,267.7 1335.4,277 1329.8,272.5 				"/>
			</g>
		</g>
	</g>
</g>
</svg>
