<svg id="Layer_1" data-name="Layer 1" xmlns="http://www.w3.org/2000/svg" viewBox="0 0 1440 510"><defs><style>.cls-1{fill:#f8faf7;}.cls-2{fill:#8886da;}.cls-3{fill:#c2c0ff;}.cls-4{isolation:isolate;}.cls-5{fill:#939598;}.cls-6{fill:#fff;}.cls-7{fill:none;stroke:#d1d3d4;stroke-miterlimit:10;stroke-width:1.81px;stroke-dasharray:7.26;}.cls-8{fill:#d1d3d4;}.cls-9{fill:#181f36;}.cls-10{fill:#053c5e;}.cls-11{fill:#ff953f;}.cls-12{fill:#ffb888;}.cls-13{fill:#f7b58e;}</style></defs><rect class="cls-1" width="1440" height="510"/><path class="cls-2" d="M1156.8,453.6a3.46,3.46,0,0,0-1-1.1c-.4-.3-.9-.6-1.4-.9l-.1-.1a4.71,4.71,0,0,0-1.5-.6h0c0,.1-1.3,3.7-1.3,3.7a16.25,16.25,0,0,0-.4-1.9v-.1h0v-.1h0c.1-.1.2-.3.3-.4V452l-.1-.3v-.1c0-.1-.1-.2-.1-.3s0,0-.1,0a2.85,2.85,0,0,0-1.3,0h-.1c-.1,0-.1.2-.1.3v.1l-.1.3v.1l.3.4h0v.1h0v.1a10.62,10.62,0,0,1-.4,1.9c-.1.1-1.2-3.6-1.3-3.7h0a4.71,4.71,0,0,0-1.5.6l-.1.1a4.19,4.19,0,0,0-1.4.9,2.66,2.66,0,0,0-1,1.1,2.88,2.88,0,0,0-.1,1.3v.3a.66.66,0,0,0,.4.5h.1a2.51,2.51,0,0,0,.7.4,11.14,11.14,0,0,0,3,.8,4.87,4.87,0,0,0,1.2.1h2.3c.4,0,.8-.1,1.2-.1a11.14,11.14,0,0,0,3-.8c.2-.1.5-.3.7-.4h.1c.2-.1.4-.2.4-.5v-.4C1157,454.5,1156.9,454,1156.8,453.6Z"/><path class="cls-2" d="M1153.7,445.8h0a.3.3,0,0,1,0-.4,2.09,2.09,0,0,0-.4-1.7,3.6,3.6,0,0,0-4.9-.7,2.34,2.34,0,0,0-.7.7,2.09,2.09,0,0,0-.4,1.7.76.76,0,0,0,.1.4h-.1c-.3,0-.4.2-.4.5a2,2,0,0,0,.3,1.1c.1.2.4.4.6.3l.1.3c.3,1.1,1.3,2.5,2.6,2.5h.2c1.2,0,2.2-1.4,2.6-2.5,0-.1.1-.2.1-.3a.6.6,0,0,0,.6-.3,2.28,2.28,0,0,0,.3-1.1A1,1,0,0,0,1153.7,445.8Z"/><path class="cls-3" d="M1165.1,435.8a.85.85,0,0,1,.7,0,1,1,0,0,1,.5.4c.8,1.3,1.5,2.7,2.2,4a1.13,1.13,0,0,1,.1.8,2.18,2.18,0,0,1-.5.8l-2.2,1.5c-.2.2-.3.4-.2.6a6.45,6.45,0,0,1,.3,2,12.75,12.75,0,0,1,.1,2,.71.71,0,0,0,.3.6l2.5,1a2.65,2.65,0,0,1,.6.5c.1.2.2.5.3.7a.76.76,0,0,1-.1.4l-1.2,4.3a1.16,1.16,0,0,1-.5.7,1,1,0,0,1-.9.1l-2.5-.5c-.3,0-.6.1-.6.3-.4.6-.8,1.3-1.2,1.9a19.2,19.2,0,0,1-1.4,1.5.62.62,0,0,0-.2.7l1,2.4a1.18,1.18,0,0,1,.1.8,1.56,1.56,0,0,1-.6.8l-3.8,2.1a1.41,1.41,0,0,1-.9.1,1.61,1.61,0,0,1-.7-.4l-1.4-2.1a.6.6,0,0,0-.6-.3,15.52,15.52,0,0,1-2.1.4,16.2,16.2,0,0,1-2.2.1.51.51,0,0,0-.5.4l-1,2.3a1,1,0,0,1-.4.5,1.88,1.88,0,0,1-.8.2h-.3l-4.1-1.2a2.18,2.18,0,0,1-.8-.5,1.18,1.18,0,0,1-.1-.8l.3-2.6a.86.86,0,0,0-.3-.6v-.1a17.55,17.55,0,0,1-3-2.4.66.66,0,0,0-.6-.1l-2.4,1a1.39,1.39,0,0,1-.9,0,2.18,2.18,0,0,1-.8-.5l-2-3.8a1.73,1.73,0,0,1-.1-1,1.37,1.37,0,0,1,.5-.8l2.1-1.4a.71.71,0,0,0,.3-.6,7.61,7.61,0,0,1-.3-2.1,7.41,7.41,0,0,1-.1-2.1.71.71,0,0,0-.3-.6l-2.4-1a2.65,2.65,0,0,1-.6-.5,1.42,1.42,0,0,1-.2-.6V445c.5-1.5,1-3,1.4-4.5a.63.63,0,0,1,.5-.6,2.92,2.92,0,0,1,.9-.2l2.6.5c.2.1.5-.1.6-.3.4-.6.8-1.2,1.2-1.7a19.2,19.2,0,0,1,1.4-1.5.62.62,0,0,0,.2-.7l-1.1-2.5a1.73,1.73,0,0,1-.1-1h.1a1.16,1.16,0,0,1,.5-.7l3.8-2a1.23,1.23,0,0,1,1-.2,1.37,1.37,0,0,1,.8.5l1.6,2.4a.6.6,0,0,0,.6.3,15.81,15.81,0,0,1,3.8-.4.72.72,0,0,0,.6-.4l1.1-2.7a1,1,0,0,1,.4-.5,1.33,1.33,0,0,1,.8-.3c1,0,3.4,1,4.5,1.3a1.79,1.79,0,0,1,.7.5,2.35,2.35,0,0,1,.2.8l-.5,2.9c-.1.3,0,.6.3.6a17.33,17.33,0,0,1,2.1,1.7l.8.6c.1.2.4.2.6.1l2.7-.9ZM1144.4,454a8.62,8.62,0,0,0,6.1,2.5,8.39,8.39,0,0,0,6-2.5h.1a8.62,8.62,0,0,0,2.5-6.1,8.32,8.32,0,0,0-2.6-6.1,8.1,8.1,0,0,0-6-2.6,8.32,8.32,0,0,0-6.1,2.6,8.69,8.69,0,0,0,0,12.2Z"/><path class="cls-3" d="M1176.2,412.7a.6.6,0,0,1,.4-.1,14,14,0,0,1,2.9.9.76.76,0,0,1,.4.2.6.6,0,0,1,.1.4l-.4,1.9a.6.6,0,0,0,.3.6,13.44,13.44,0,0,1,1.4,1.1,2.18,2.18,0,0,0,.5.4c.1.2.4.2.6.1l1.8-.6.2-.1h.3c.1.1.2.1.3.2.4.9.9,1.8,1.4,2.7.1.1.1.2.1.4a1.38,1.38,0,0,1-.3.4l-1.4,1a.48.48,0,0,0-.2.6c.1.4.1.8.2,1.2a6.15,6.15,0,0,1,.1,1.4.62.62,0,0,0,.4.6l1.6.6c.1,0,.2.1.3.2s.1.2.2.4v.1l-.9,2.8a.76.76,0,0,1-.2.4.6.6,0,0,1-.4.1l-1.6-.3a.61.61,0,0,0-.7.3,4.44,4.44,0,0,1-.8,1.1,9,9,0,0,1-.9,1,.48.48,0,0,0-.2.6l.7,1.6a.3.3,0,0,1,0,.4c0,.2-.2.3-.3.4l-2.5,1.4a.9.9,0,0,1-.5.1c-.1,0-.2-.1-.3-.2l-.9-1.4a.86.86,0,0,0-.6-.3c-.4.1-.9.2-1.4.3s-.9.1-1.4.1a.82.82,0,0,0-.6.4l-.6,1.5c0,.1-.1.1-.2.2a.37.37,0,0,1-.3.1h-.3l-2.6-.9c-.1-.1-.3-.2-.4-.3s-.1-.2-.1-.4l.2-1.7a.73.73,0,0,0-.2-.6l-.1-.1a9,9,0,0,1-1.9-1.5v-.1a.62.62,0,0,0-.7-.1l-1.6.6a.3.3,0,0,1-.4,0c-.1-.1-.3-.2-.4-.3L1163,430a.9.9,0,0,1-.1-.5c.1-.1.1-.3.2-.4l1.4-.9a.71.71,0,0,0,.3-.6,5.9,5.9,0,0,1-.2-1.4,5.7,5.7,0,0,1-.1-1.3.68.68,0,0,0-.4-.6l-1.5-.6c-.1-.1-.3-.2-.4-.3a.37.37,0,0,1-.1-.3c.2-1,.5-2,.8-3,0-.1.1-.2.2-.3a.6.6,0,0,1,.4-.1l1.8.3a.6.6,0,0,0,.6-.3,4.44,4.44,0,0,1,.8-1.1,2.58,2.58,0,0,1,.9-.9.38.38,0,0,0,.1-.6l-.7-1.7c0-.1-.1-.1-.1-.2s0-.1.1-.2.1-.2.2-.4l2.6-1.4a.75.75,0,0,1,.5-.1c.2,0,.3.1.3.2l1,1.5a.91.91,0,0,0,.7.3,9.74,9.74,0,0,1,2.4-.2.62.62,0,0,0,.6-.4l.7-1.8Zm-5.8,16.7a5.89,5.89,0,0,0,4.2,1.7,5.83,5.83,0,0,0,4.1-1.7l.1-.1a5.87,5.87,0,1,0-8.4.1Z"/><g class="cls-4"><path class="cls-5" d="M1122,95.5v2.3h-1.3v-6h1.8a3,3,0,0,1,1.8.4,1.68,1.68,0,0,1,.6,1.4,1.22,1.22,0,0,1-.3.9,1.56,1.56,0,0,1-.8.6c.9,1.4,1.5,2.2,1.8,2.6h-1.4l-1.4-2.3-.8.1Zm0-1h.4a2,2,0,0,0,.9-.2.75.75,0,0,0,0-1.2,2,2,0,0,0-.9-.2h-.4Z"/><path class="cls-5" d="M1128.3,97.9a2.09,2.09,0,0,1-2.3-2.3,2.44,2.44,0,0,1,.6-1.8,2.11,2.11,0,0,1,1.6-.6,1.75,1.75,0,0,1,1.5.6,2,2,0,0,1,.5,1.5v.6h-3a1,1,0,0,0,.3.8,1.14,1.14,0,0,0,.8.3,2.2,2.2,0,0,0,.8-.1,4.12,4.12,0,0,0,.8-.3v1a1.85,1.85,0,0,1-.7.2C1129,97.8,1128.7,97.9,1128.3,97.9Zm-.2-3.9a.6.6,0,0,0-.6.3c-.2.2-.2.4-.3.7h1.8a1.45,1.45,0,0,0-.2-.7A.91.91,0,0,0,1128.1,94Z"/><path class="cls-5" d="M1132.7,97.9a1.61,1.61,0,0,1-1.3-.6,2.86,2.86,0,0,1-.5-1.7,3.2,3.2,0,0,1,.5-1.8,1.29,1.29,0,0,1,1.3-.6,1.36,1.36,0,0,1,1.3.7h0a3.08,3.08,0,0,1-.1-.9V91.5h1.3v6.4h-1l-.2-.6h-.1A1.21,1.21,0,0,1,1132.7,97.9Zm.4-1a.78.78,0,0,0,.7-.3,2.15,2.15,0,0,0,.2-1v-.1a3.09,3.09,0,0,0-.2-1.1.91.91,0,0,0-.7-.3.75.75,0,0,0-.7.4,1.64,1.64,0,0,0-.2,1,2.15,2.15,0,0,0,.2,1A.75.75,0,0,0,1133.1,96.9Z"/><path class="cls-5" d="M1139.8,97.8l-.2-.6h-.1a1,1,0,0,1-.6.5,1.88,1.88,0,0,1-.8.2,1.59,1.59,0,0,1-1.2-.4,1.7,1.7,0,0,1-.4-1.3v-3h1.3v2.7a1.17,1.17,0,0,0,.2.7c.1.2.3.2.6.2a.81.81,0,0,0,.8-.4c.2-.2.2-.6.2-1.2V93h1.3v4.6h-1.1v.2Z"/><path class="cls-5" d="M1144,97.9c-1.4,0-2.2-.8-2.2-2.4a2.44,2.44,0,0,1,.6-1.8,2.2,2.2,0,0,1,1.7-.6,3.19,3.19,0,0,1,1.4.3l-.4,1c-.2-.1-.4-.1-.6-.2a.9.9,0,0,0-.5-.1c-.7,0-1,.5-1,1.4s.3,1.4,1,1.4a1.7,1.7,0,0,0,.7-.1l.6-.3v1.1l-.6.3Z"/><path class="cls-5" d="M1148.5,97.9a2.09,2.09,0,0,1-2.3-2.3,2.44,2.44,0,0,1,.6-1.8,2.11,2.11,0,0,1,1.6-.6,1.75,1.75,0,0,1,1.5.6,2,2,0,0,1,.5,1.5v.6h-3a1,1,0,0,0,.3.8,1.14,1.14,0,0,0,.8.3,2.2,2.2,0,0,0,.8-.1,4.12,4.12,0,0,0,.8-.3v1a1.85,1.85,0,0,1-.7.2C1149.2,97.8,1148.9,97.9,1148.5,97.9Zm-.1-3.9a.6.6,0,0,0-.6.3c-.2.2-.2.4-.3.7h1.8a1.45,1.45,0,0,0-.2-.7A1.33,1.33,0,0,0,1148.4,94Z"/></g><g class="cls-4"><path class="cls-5" d="M1105.3,101.9h1.9a3.16,3.16,0,0,1,1.9.4,1.21,1.21,0,0,1,.6,1.2,1.22,1.22,0,0,1-.3.9,1,1,0,0,1-.7.4h0c.4.1.7.2.8.5a2.39,2.39,0,0,1,.3.9,1.61,1.61,0,0,1-.6,1.3,2.54,2.54,0,0,1-1.6.5h-2.3v-6.1Zm1.3,2.4h.7a1.88,1.88,0,0,0,.8-.2c.2-.1.2-.3.2-.5a.55.55,0,0,0-.3-.5,1.55,1.55,0,0,0-.8-.2h-.7l.1,1.4Zm0,1v1.6h.8a1.55,1.55,0,0,0,.8-.2.6.6,0,0,0,.3-.6c0-.5-.4-.8-1.1-.8Z"/><path class="cls-5" d="M1114.1,107.9l-.2-.6h-.1a1,1,0,0,1-.6.5,1.88,1.88,0,0,1-.8.2,1.59,1.59,0,0,1-1.2-.4,1.7,1.7,0,0,1-.4-1.3v-3h1.3V106a1.17,1.17,0,0,0,.2.7c.1.2.3.2.6.2a.81.81,0,0,0,.8-.4c.2-.2.2-.6.2-1.2v-2.2h1.3v4.6h-1.1v.2Z"/><path class="cls-5" d="M1119.6,106.6a1.43,1.43,0,0,1-.5,1.1,2.7,2.7,0,0,1-1.5.4,2.77,2.77,0,0,1-.9-.1,1.85,1.85,0,0,1-.7-.2v-1a6.89,6.89,0,0,0,.8.3,2.49,2.49,0,0,0,.8.1c.5,0,.7-.1.7-.4,0-.1,0-.2-.1-.2s-.2-.1-.3-.2a1.63,1.63,0,0,0-.6-.3,2.93,2.93,0,0,1-.8-.4c-.2-.1-.3-.3-.4-.4a1.27,1.27,0,0,1-.1-.6,1.39,1.39,0,0,1,.5-1,2.5,2.5,0,0,1,1.3-.3,2.93,2.93,0,0,1,1.6.4l-.4.9a1.42,1.42,0,0,0-.6-.2,1.27,1.27,0,0,0-.6-.1q-.6,0-.6.3c0,.1.1.2.2.3a5.56,5.56,0,0,0,.8.4,2.93,2.93,0,0,1,.8.4c.2.1.3.3.4.4C1119.6,106.1,1119.6,106.3,1119.6,106.6Z"/><path class="cls-5" d="M1120.5,102.1c0-.4.2-.6.7-.6s.7.2.7.6c0,.2-.1.3-.2.5a.76.76,0,0,1-.5.2A.63.63,0,0,1,1120.5,102.1Zm1.3,5.8h-1.3v-4.6h1.3Z"/><path class="cls-5" d="M1127.4,107.9h-1.3v-2.7a1.17,1.17,0,0,0-.2-.7c-.1-.2-.3-.2-.6-.2a.81.81,0,0,0-.8.4c-.2.2-.2.6-.2,1.2v2.2H1123v-4.6h1l.2.6h.1a1,1,0,0,1,.6-.5,1.88,1.88,0,0,1,.8-.2,1.59,1.59,0,0,1,1.2.4,1.7,1.7,0,0,1,.4,1.3l.1,2.8Z"/><path class="cls-5" d="M1130.8,108a2.09,2.09,0,0,1-2.3-2.3,2.44,2.44,0,0,1,.6-1.8,2.11,2.11,0,0,1,1.6-.6,1.75,1.75,0,0,1,1.5.6,2.46,2.46,0,0,1,.5,1.5v.6h-3a1,1,0,0,0,.3.8,1.14,1.14,0,0,0,.8.3,2.2,2.2,0,0,0,.8-.1,4.12,4.12,0,0,0,.8-.3v1a1.85,1.85,0,0,1-.7.2C1131.5,107.9,1131.2,108,1130.8,108Zm-.2-3.9a.6.6,0,0,0-.6.3c-.2.2-.2.4-.3.7h1.8a1.45,1.45,0,0,0-.2-.7A.78.78,0,0,0,1130.6,104.1Z"/><path class="cls-5" d="M1136.9,106.6a1.43,1.43,0,0,1-.5,1.1,2.7,2.7,0,0,1-1.5.4,2.77,2.77,0,0,1-.9-.1,1.85,1.85,0,0,1-.7-.2v-1a6.89,6.89,0,0,0,.8.3,2.2,2.2,0,0,0,.8.1c.5,0,.7-.1.7-.4,0-.1,0-.2-.1-.2s-.2-.1-.3-.2a1.63,1.63,0,0,0-.6-.3,2.93,2.93,0,0,1-.8-.4c-.2-.1-.3-.3-.4-.4a1.27,1.27,0,0,1-.1-.6,1.39,1.39,0,0,1,.5-1,2.5,2.5,0,0,1,1.3-.3,2.93,2.93,0,0,1,1.6.4l-.4.9a1.42,1.42,0,0,0-.6-.2,1.27,1.27,0,0,0-.6-.1q-.6,0-.6.3c0,.1.1.2.2.3a5.56,5.56,0,0,0,.8.4,2.93,2.93,0,0,1,.8.4c.2.1.3.3.4.4C1136.9,106.1,1136.9,106.3,1136.9,106.6Z"/><path class="cls-5" d="M1141.1,106.6a1.43,1.43,0,0,1-.5,1.1,2.7,2.7,0,0,1-1.5.4,2.77,2.77,0,0,1-.9-.1,1.85,1.85,0,0,1-.7-.2v-1a6.89,6.89,0,0,0,.8.3,2.2,2.2,0,0,0,.8.1c.5,0,.7-.1.7-.4,0-.1,0-.2-.1-.2s-.2-.1-.3-.2a1.63,1.63,0,0,0-.6-.3,2.93,2.93,0,0,1-.8-.4c-.2-.1-.3-.3-.4-.4a1.27,1.27,0,0,1-.1-.6,1.39,1.39,0,0,1,.5-1,2.5,2.5,0,0,1,1.3-.3,2.93,2.93,0,0,1,1.6.4l-.4.9a1.42,1.42,0,0,0-.6-.2,1.27,1.27,0,0,0-.6-.1q-.6,0-.6.3c0,.1.1.2.2.3a5.56,5.56,0,0,0,.8.4,2.93,2.93,0,0,1,.8.4c.2.1.3.3.4.4C1141.1,106.1,1141.1,106.3,1141.1,106.6Z"/><path class="cls-5" d="M1146.9,102.9a1.29,1.29,0,0,0-1.1.5,2.41,2.41,0,0,0-.4,1.5c0,1.3.5,2,1.5,2a4.94,4.94,0,0,0,1.5-.3v1.1a4.31,4.31,0,0,1-1.7.3,2.63,2.63,0,0,1-2-.8,3.17,3.17,0,0,1-.7-2.3,3.81,3.81,0,0,1,.3-1.6,2.66,2.66,0,0,1,1-1.1,2.41,2.41,0,0,1,1.5-.4,3.92,3.92,0,0,1,1.8.4l-.4,1c-.2-.1-.5-.2-.7-.3S1147.2,102.9,1146.9,102.9Z"/><path class="cls-5" d="M1153.8,105.6a2.61,2.61,0,0,1-.6,1.8,2.2,2.2,0,0,1-1.7.6,2.66,2.66,0,0,1-1.2-.3,2,2,0,0,1-.8-.8,2.77,2.77,0,0,1-.3-1.3,2.61,2.61,0,0,1,.6-1.8,2.2,2.2,0,0,1,1.7-.6,2.66,2.66,0,0,1,1.2.3,2,2,0,0,1,.8.8A1.94,1.94,0,0,1,1153.8,105.6Zm-3.1,0a2.15,2.15,0,0,0,.2,1,.84.84,0,0,0,.7.4.78.78,0,0,0,.7-.3,2.51,2.51,0,0,0,.2-1,2.15,2.15,0,0,0-.2-1,1,1,0,0,0-1.4,0A2,2,0,0,0,1150.7,105.6Z"/><path class="cls-5" d="M1158.1,106.6a1.43,1.43,0,0,1-.5,1.1,2.7,2.7,0,0,1-1.5.4,2.77,2.77,0,0,1-.9-.1,1.85,1.85,0,0,1-.7-.2v-1a6.89,6.89,0,0,0,.8.3,2.2,2.2,0,0,0,.8.1c.5,0,.7-.1.7-.4,0-.1,0-.2-.1-.2s-.2-.1-.3-.2a1.63,1.63,0,0,0-.6-.3,2.93,2.93,0,0,1-.8-.4c-.2-.1-.3-.3-.4-.4a1.27,1.27,0,0,1-.1-.6,1.39,1.39,0,0,1,.5-1,2.5,2.5,0,0,1,1.3-.3,2.93,2.93,0,0,1,1.6.4l-.4.9a1.42,1.42,0,0,0-.6-.2,1.27,1.27,0,0,0-.6-.1q-.6,0-.6.3c0,.1.1.2.2.3a5.56,5.56,0,0,0,.8.4,2.93,2.93,0,0,1,.8.4c.2.1.3.3.4.4C1158.1,106.1,1158.1,106.3,1158.1,106.6Z"/><path class="cls-5" d="M1161,107a2.49,2.49,0,0,0,.8-.1v.9a3.73,3.73,0,0,1-1.2.2,1.25,1.25,0,0,1-1.1-.4,1.8,1.8,0,0,1-.3-1.1v-2.2h-.6v-.5l.7-.4.4-1h.8v1h1.3v.9h-1.3v2.2c0,.2,0,.3.2.4C1160.7,107,1160.9,107,1161,107Z"/><path class="cls-5" d="M1166,106.6a1.43,1.43,0,0,1-.5,1.1,2.7,2.7,0,0,1-1.5.4,2.77,2.77,0,0,1-.9-.1,1.85,1.85,0,0,1-.7-.2v-1a6.89,6.89,0,0,0,.8.3,2.49,2.49,0,0,0,.8.1c.5,0,.7-.1.7-.4,0-.1,0-.2-.1-.2s-.2-.1-.3-.2a1.63,1.63,0,0,0-.6-.3,2.93,2.93,0,0,1-.8-.4c-.2-.1-.3-.3-.4-.4a1.27,1.27,0,0,1-.1-.6,1.39,1.39,0,0,1,.5-1,2.5,2.5,0,0,1,1.3-.3,2.93,2.93,0,0,1,1.6.4l-.4.9a1.42,1.42,0,0,0-.6-.2,1.27,1.27,0,0,0-.6-.1q-.6,0-.6.3c0,.1.1.2.2.3a5.56,5.56,0,0,0,.8.4,2.93,2.93,0,0,1,.8.4c.2.1.3.3.4.4C1165.9,106.1,1166,106.3,1166,106.6Z"/></g><g class="cls-4"><path class="cls-5" d="M986.2,221a1.29,1.29,0,0,0-1.1.5,2.41,2.41,0,0,0-.4,1.5c0,1.3.5,2,1.5,2a4.94,4.94,0,0,0,1.5-.3v1.1a4.31,4.31,0,0,1-1.7.3,2.63,2.63,0,0,1-2-.8,3.17,3.17,0,0,1-.7-2.3,3.81,3.81,0,0,1,.3-1.6,2.66,2.66,0,0,1,1-1.1,2.41,2.41,0,0,1,1.5-.4,3.92,3.92,0,0,1,1.8.4l-.4,1c-.2-.1-.5-.2-.7-.3Z"/><path class="cls-5" d="M991.8,226l-.2-.6h0a1.34,1.34,0,0,1-.7.6,2,2,0,0,1-.9.2,1.16,1.16,0,0,1-1-.4,1.37,1.37,0,0,1-.4-1.1,1.43,1.43,0,0,1,.5-1.1,3,3,0,0,1,1.5-.4h.8V223c0-.5-.2-.7-.7-.7a3.45,3.45,0,0,0-1.3.3l-.4-.8a3.42,3.42,0,0,1,1.8-.4,2,2,0,0,1,1.4.4,1.66,1.66,0,0,1,.5,1.2v3.1h-.9V226Zm-.4-2.1h-.5a1.55,1.55,0,0,0-.8.2.6.6,0,0,0-.3.6c0,.4.2.5.6.5a1,1,0,0,0,1-1v-.3Z"/><path class="cls-5" d="M997.2,224.7a1.43,1.43,0,0,1-.5,1.1,2.7,2.7,0,0,1-1.5.4,2.77,2.77,0,0,1-.9-.1,1.85,1.85,0,0,1-.7-.2v-1a6.89,6.89,0,0,0,.8.3,2.2,2.2,0,0,0,.8.1c.5,0,.7-.1.7-.4,0-.1,0-.2-.1-.2s-.2-.1-.3-.2a1.63,1.63,0,0,0-.6-.3,2.93,2.93,0,0,1-.8-.4c-.2-.1-.3-.3-.4-.4a1.27,1.27,0,0,1-.1-.6,1.39,1.39,0,0,1,.5-1,2.5,2.5,0,0,1,1.3-.3,2.93,2.93,0,0,1,1.6.4l-.4.9a1.42,1.42,0,0,0-.6-.2,1.27,1.27,0,0,0-.6-.1q-.6,0-.6.3c0,.1.1.2.2.3a5.56,5.56,0,0,0,.8.4,2.93,2.93,0,0,1,.8.4c.2.1.3.3.4.4S997.2,224.5,997.2,224.7Z"/><path class="cls-5" d="M1000.3,226.1a2.09,2.09,0,0,1-2.3-2.3,2.44,2.44,0,0,1,.6-1.8,2.11,2.11,0,0,1,1.6-.6,1.75,1.75,0,0,1,1.5.6,2.46,2.46,0,0,1,.5,1.5v.6h-3a1,1,0,0,0,.3.8,1.14,1.14,0,0,0,.8.3,2.2,2.2,0,0,0,.8-.1,2.61,2.61,0,0,0,.8-.3v1a1.85,1.85,0,0,1-.7.2C1001,226,1000.6,226.1,1000.3,226.1Zm-.2-3.9a.6.6,0,0,0-.6.3,4.88,4.88,0,0,0-.3.7h1.8a1.45,1.45,0,0,0-.2-.7A1.08,1.08,0,0,0,1000.1,222.2Z"/><path class="cls-5" d="M1009,224.4a1.61,1.61,0,0,1-.6,1.3,2.54,2.54,0,0,1-1.6.5,3.29,3.29,0,0,1-1.7-.4v-1.2c.4.2.8.3,1,.4a2.2,2.2,0,0,0,.8.1.85.85,0,0,0,.6-.2c.2-.1.2-.3.2-.5a.37.37,0,0,0-.1-.3l-.3-.3a5.56,5.56,0,0,0-.8-.4,2.77,2.77,0,0,1-.8-.5,1.27,1.27,0,0,1-.4-.6,1.85,1.85,0,0,1-.2-.7,1.9,1.9,0,0,1,.5-1.3,2.25,2.25,0,0,1,1.5-.5,2.77,2.77,0,0,1,.9.1l.9.3-.4,1a6.89,6.89,0,0,1-.8-.3,1.27,1.27,0,0,0-.6-.1,1.42,1.42,0,0,0-.6.2.76.76,0,0,0-.2.4.37.37,0,0,0,.1.3c.1.1.1.2.2.2a5.56,5.56,0,0,0,.8.4,4.13,4.13,0,0,1,1.2.8A2.69,2.69,0,0,1,1009,224.4Z"/><path class="cls-5" d="M1011.9,225.1a2.49,2.49,0,0,0,.8-.1v.9a3.73,3.73,0,0,1-1.2.2,1.25,1.25,0,0,1-1.1-.4,1.8,1.8,0,0,1-.3-1.1v-2.2h-.6v-.5l.7-.4.4-1h.8v1h1.3v.9h-1.3v2.2a.52.52,0,0,0,.2.4C1011.6,225.1,1011.8,225.1,1011.9,225.1Z"/><path class="cls-5" d="M1016.9,226l-.2-.6h-.1a1,1,0,0,1-.6.5,1.88,1.88,0,0,1-.8.2,1.59,1.59,0,0,1-1.2-.4,1.7,1.7,0,0,1-.4-1.3v-3h1.3v2.7a1.17,1.17,0,0,0,.2.7c.1.2.3.2.6.2a.81.81,0,0,0,.8-.4c.2-.2.2-.6.2-1.2v-2.2h1.3v4.6h-1.1v.2Z"/><path class="cls-5" d="M1020.7,226.1a1.61,1.61,0,0,1-1.3-.6,2.86,2.86,0,0,1-.5-1.7,3.2,3.2,0,0,1,.5-1.8,1.29,1.29,0,0,1,1.3-.6,1.36,1.36,0,0,1,1.3.7h0a3.08,3.08,0,0,1-.1-.9v-1.5h1.3v6.4h-1l-.2-.6h-.1A1.21,1.21,0,0,1,1020.7,226.1Zm.4-1a.78.78,0,0,0,.7-.3,2.15,2.15,0,0,0,.2-1v-.1a3.09,3.09,0,0,0-.2-1.1.91.91,0,0,0-.7-.3.75.75,0,0,0-.7.4,1.64,1.64,0,0,0-.2,1,2.15,2.15,0,0,0,.2,1A.84.84,0,0,0,1021.1,225.1Z"/><path class="cls-5" d="M1024.5,220.3c0-.4.2-.6.7-.6s.7.2.7.6c0,.2-.1.3-.2.5s-.3.2-.5.2C1024.7,220.9,1024.5,220.7,1024.5,220.3Zm1.3,5.7h-1.3v-4.6h1.3Z"/><path class="cls-5" d="M1029.2,226.1a2.09,2.09,0,0,1-2.3-2.3,2.44,2.44,0,0,1,.6-1.8,2.11,2.11,0,0,1,1.6-.6,1.75,1.75,0,0,1,1.5.6,2.46,2.46,0,0,1,.5,1.5v.6h-3a1,1,0,0,0,.3.8,1.14,1.14,0,0,0,.8.3,2.2,2.2,0,0,0,.8-.1,2.61,2.61,0,0,0,.8-.3v1a1.85,1.85,0,0,1-.7.2C1029.9,226,1029.6,226.1,1029.2,226.1Zm-.2-3.9a.6.6,0,0,0-.6.3,4.88,4.88,0,0,0-.3.7h1.8a1.45,1.45,0,0,0-.2-.7A.91.91,0,0,0,1029,222.2Z"/><path class="cls-5" d="M1035.3,224.7a1.43,1.43,0,0,1-.5,1.1,2.7,2.7,0,0,1-1.5.4,2.77,2.77,0,0,1-.9-.1,1.85,1.85,0,0,1-.7-.2v-1a6.89,6.89,0,0,0,.8.3,2.2,2.2,0,0,0,.8.1c.5,0,.7-.1.7-.4,0-.1,0-.2-.1-.2s-.2-.1-.3-.2a1.63,1.63,0,0,0-.6-.3,2.93,2.93,0,0,1-.8-.4c-.2-.1-.3-.3-.4-.4a1.27,1.27,0,0,1-.1-.6,1.39,1.39,0,0,1,.5-1,2.5,2.5,0,0,1,1.3-.3,2.93,2.93,0,0,1,1.6.4l-.4.9a1.42,1.42,0,0,0-.6-.2,1.27,1.27,0,0,0-.6-.1q-.6,0-.6.3c0,.1.1.2.2.3a5.56,5.56,0,0,0,.8.4,2.93,2.93,0,0,1,.8.4c.2.1.3.3.4.4S1035.3,224.5,1035.3,224.7Z"/></g><g class="cls-4"><path class="cls-5" d="M985,376.4a1.61,1.61,0,0,1-.6,1.3,2.54,2.54,0,0,1-1.6.5,3.29,3.29,0,0,1-1.7-.4v-1.2c.4.2.8.3,1,.4a2,2,0,0,0,.8.1.85.85,0,0,0,.6-.2.76.76,0,0,0,.2-.5.37.37,0,0,0-.1-.3l-.3-.3a5.56,5.56,0,0,0-.8-.4,2.77,2.77,0,0,1-.8-.5,1.27,1.27,0,0,1-.4-.6,1.85,1.85,0,0,1-.2-.7,1.9,1.9,0,0,1,.5-1.3,2.25,2.25,0,0,1,1.5-.5,2.77,2.77,0,0,1,.9.1l.9.3-.4,1a6.89,6.89,0,0,1-.8-.3,1.27,1.27,0,0,0-.6-.1,1.42,1.42,0,0,0-.6.2.76.76,0,0,0-.2.4.37.37,0,0,0,.1.3c.1.1.1.2.2.2a5.44,5.44,0,0,1,.8.4,4.13,4.13,0,0,1,1.2.8A2.69,2.69,0,0,1,985,376.4Z"/><path class="cls-5" d="M989.3,378.1l-.2-.6H989a1,1,0,0,1-.6.5,1.88,1.88,0,0,1-.8.2,1.59,1.59,0,0,1-1.2-.4,1.7,1.7,0,0,1-.4-1.3v-3h1.3v2.7a1.17,1.17,0,0,0,.2.7c.1.2.3.2.6.2a.81.81,0,0,0,.8-.4c.2-.2.2-.6.2-1.2v-2.2h1.3v4.6h-1.1v.2Z"/><path class="cls-5" d="M993.4,378.2c-1.4,0-2.2-.8-2.2-2.4a2.44,2.44,0,0,1,.6-1.8,2.2,2.2,0,0,1,1.7-.6,3.19,3.19,0,0,1,1.4.3l-.4,1c-.2-.1-.4-.1-.6-.2a.9.9,0,0,0-.5-.1c-.7,0-1,.5-1,1.4s.3,1.4,1,1.4a1.7,1.7,0,0,0,.7-.1l.6-.3v1.1l-.6.3Z"/><path class="cls-5" d="M997.8,378.2c-1.4,0-2.2-.8-2.2-2.4a2.44,2.44,0,0,1,.6-1.8,2.2,2.2,0,0,1,1.7-.6,3.19,3.19,0,0,1,1.4.3l-.4,1c-.2-.1-.4-.1-.6-.2a.9.9,0,0,0-.5-.1c-.7,0-1,.5-1,1.4s.3,1.4,1,1.4a1.7,1.7,0,0,0,.7-.1l.6-.3v1.1l-.6.3Z"/><path class="cls-5" d="M1002.3,378.2a2.09,2.09,0,0,1-2.3-2.3,2.44,2.44,0,0,1,.6-1.8,2.11,2.11,0,0,1,1.6-.6,1.75,1.75,0,0,1,1.5.6,2,2,0,0,1,.5,1.5v.6h-3a1,1,0,0,0,.3.8,1.14,1.14,0,0,0,.8.3,2.2,2.2,0,0,0,.8-.1,4.12,4.12,0,0,0,.8-.3v1a1.85,1.85,0,0,1-.7.2C1003,378.1,1002.7,378.2,1002.3,378.2Zm-.1-3.9a.6.6,0,0,0-.6.3c-.2.2-.2.4-.3.7h1.8a1.45,1.45,0,0,0-.2-.7A1.33,1.33,0,0,0,1002.2,374.3Z"/><path class="cls-5" d="M1008.5,376.7a1.43,1.43,0,0,1-.5,1.1,2.7,2.7,0,0,1-1.5.4,2.77,2.77,0,0,1-.9-.1,1.85,1.85,0,0,1-.7-.2v-1a6.89,6.89,0,0,0,.8.3,2.2,2.2,0,0,0,.8.1c.5,0,.7-.1.7-.4,0-.1,0-.2-.1-.2s-.2-.1-.3-.2a1.63,1.63,0,0,0-.6-.3,2.93,2.93,0,0,1-.8-.4c-.2-.1-.3-.3-.4-.4a1.27,1.27,0,0,1-.1-.6,1.39,1.39,0,0,1,.5-1,2.5,2.5,0,0,1,1.3-.3,2.93,2.93,0,0,1,1.6.4l-.4.9a1.42,1.42,0,0,0-.6-.2,1.27,1.27,0,0,0-.6-.1q-.6,0-.6.3c0,.1.1.2.2.3a5.56,5.56,0,0,0,.8.4,2.93,2.93,0,0,1,.8.4c.2.1.3.3.4.4S1008.5,376.5,1008.5,376.7Z"/><path class="cls-5" d="M1012.7,376.7a1.43,1.43,0,0,1-.5,1.1,2.7,2.7,0,0,1-1.5.4,2.77,2.77,0,0,1-.9-.1,1.85,1.85,0,0,1-.7-.2v-1a6.89,6.89,0,0,0,.8.3,2.2,2.2,0,0,0,.8.1c.5,0,.7-.1.7-.4,0-.1,0-.2-.1-.2s-.2-.1-.3-.2a1.63,1.63,0,0,0-.6-.3,2.93,2.93,0,0,1-.8-.4c-.2-.1-.3-.3-.4-.4a1.27,1.27,0,0,1-.1-.6,1.39,1.39,0,0,1,.5-1,2.5,2.5,0,0,1,1.3-.3,2.93,2.93,0,0,1,1.6.4l-.4.9a1.42,1.42,0,0,0-.6-.2,1.27,1.27,0,0,0-.6-.1q-.6,0-.6.3c0,.1.1.2.2.3a5.56,5.56,0,0,0,.8.4,2.93,2.93,0,0,1,.8.4c.2.1.3.3.4.4S1012.7,376.5,1012.7,376.7Z"/><path class="cls-5" d="M1019.5,376.4a1.61,1.61,0,0,1-.6,1.3,2.54,2.54,0,0,1-1.6.5,3.29,3.29,0,0,1-1.7-.4v-1.2c.4.2.8.3,1,.4a2.2,2.2,0,0,0,.8.1.85.85,0,0,0,.6-.2c.2-.1.2-.3.2-.5a.37.37,0,0,0-.1-.3l-.3-.3a5.56,5.56,0,0,0-.8-.4,2.77,2.77,0,0,1-.8-.5,1.27,1.27,0,0,1-.4-.6,1.85,1.85,0,0,1-.2-.7,1.9,1.9,0,0,1,.5-1.3,2.25,2.25,0,0,1,1.5-.5,2.77,2.77,0,0,1,.9.1l.9.3-.4,1a6.89,6.89,0,0,1-.8-.3,1.27,1.27,0,0,0-.6-.1,1.42,1.42,0,0,0-.6.2.76.76,0,0,0-.2.4.37.37,0,0,0,.1.3c.1.1.1.2.2.2a5.56,5.56,0,0,0,.8.4,4.13,4.13,0,0,1,1.2.8A2.69,2.69,0,0,1,1019.5,376.4Z"/><path class="cls-5" d="M1022.4,377.2a2.49,2.49,0,0,0,.8-.1v.9a3.73,3.73,0,0,1-1.2.2,1.25,1.25,0,0,1-1.1-.4,1.8,1.8,0,0,1-.3-1.1v-2.2h-.6V374l.7-.4.4-1h.8v1h1.3v.9h-1.3v2.2c0,.2,0,.3.2.4S1022.2,377.2,1022.4,377.2Z"/><path class="cls-5" d="M1028.3,375.8a2.61,2.61,0,0,1-.6,1.8,2.2,2.2,0,0,1-1.7.6,2.66,2.66,0,0,1-1.2-.3,2,2,0,0,1-.8-.8,2.77,2.77,0,0,1-.3-1.3,2.61,2.61,0,0,1,.6-1.8,2.2,2.2,0,0,1,1.7-.6,2.66,2.66,0,0,1,1.2.3,2,2,0,0,1,.8.8A2.77,2.77,0,0,1,1028.3,375.8Zm-3.2,0a2.15,2.15,0,0,0,.2,1,1,1,0,0,0,.7.4.78.78,0,0,0,.7-.3,2.51,2.51,0,0,0,.2-1,2.15,2.15,0,0,0-.2-1,1,1,0,0,0-1.4,0A1.69,1.69,0,0,0,1025.1,375.8Z"/><path class="cls-5" d="M1031.9,373.4h.4l-.1,1.2h-.4a1.06,1.06,0,0,0-1.2,1.2v2.3h-1.3v-4.6h1l.2.8h.1a.9.9,0,0,1,.6-.6C1031.5,373.6,1031.6,373.4,1031.9,373.4Z"/><path class="cls-5" d="M1033.1,372.3c0-.4.2-.6.7-.6s.7.2.7.6c0,.2-.1.3-.2.5a.76.76,0,0,1-.5.2C1033.4,372.9,1033.1,372.7,1033.1,372.3Zm1.4,5.8h-1.3v-4.6h1.3Z"/><path class="cls-5" d="M1037.9,378.2a2.09,2.09,0,0,1-2.3-2.3,2.44,2.44,0,0,1,.6-1.8,2.11,2.11,0,0,1,1.6-.6,1.75,1.75,0,0,1,1.5.6,2,2,0,0,1,.5,1.5v.6h-3a1,1,0,0,0,.3.8,1.14,1.14,0,0,0,.8.3,2.2,2.2,0,0,0,.8-.1,4.12,4.12,0,0,0,.8-.3v1a1.85,1.85,0,0,1-.7.2C1038.6,378.1,1038.2,378.2,1037.9,378.2Zm-.2-3.9a.6.6,0,0,0-.6.3c-.2.2-.2.4-.3.7h1.8a1.45,1.45,0,0,0-.2-.7A1.08,1.08,0,0,0,1037.7,374.3Z"/><path class="cls-5" d="M1044,376.7a1.43,1.43,0,0,1-.5,1.1,2.7,2.7,0,0,1-1.5.4,2.77,2.77,0,0,1-.9-.1,1.85,1.85,0,0,1-.7-.2v-1a6.89,6.89,0,0,0,.8.3,2.2,2.2,0,0,0,.8.1c.5,0,.7-.1.7-.4,0-.1,0-.2-.1-.2s-.2-.1-.3-.2a1.63,1.63,0,0,0-.6-.3,2.93,2.93,0,0,1-.8-.4c-.2-.1-.3-.3-.4-.4a1.27,1.27,0,0,1-.1-.6,1.39,1.39,0,0,1,.5-1,2.5,2.5,0,0,1,1.3-.3,2.93,2.93,0,0,1,1.6.4l-.4.9a1.42,1.42,0,0,0-.6-.2,1.27,1.27,0,0,0-.6-.1q-.6,0-.6.3c0,.1.1.2.2.3a5.56,5.56,0,0,0,.8.4,2.93,2.93,0,0,1,.8.4c.2.1.3.3.4.4S1044,376.5,1044,376.7Z"/></g><g class="cls-4"><path class="cls-5" d="M1128.9,475.8a2,2,0,0,1-.6,1.5,2.31,2.31,0,0,1-1.7.5h-.5v2.1h-1.3v-6h1.9a2.86,2.86,0,0,1,1.7.5A2,2,0,0,1,1128.9,475.8Zm-2.9,1h.4a2,2,0,0,0,.9-.2.91.91,0,0,0,.3-.7,1.45,1.45,0,0,0-.2-.7,1.55,1.55,0,0,0-.8-.2h-.6v1.8Z"/><path class="cls-5" d="M1132.5,475.3h.4l-.1,1.2h-.4a1.06,1.06,0,0,0-1.2,1.2V480h-1.3v-4.6h1l.2.8h.1a.9.9,0,0,1,.6-.6C1132.1,475.5,1132.3,475.3,1132.5,475.3Z"/><path class="cls-5" d="M1136.7,480l-.2-.6h0a1.34,1.34,0,0,1-.7.6,2,2,0,0,1-.9.2,1.16,1.16,0,0,1-1-.4,1.82,1.82,0,0,1-.4-1.1,1.43,1.43,0,0,1,.5-1.1,2.24,2.24,0,0,1,1.5-.4h.8V477c0-.5-.2-.7-.7-.7a3.45,3.45,0,0,0-1.3.3l-.4-.8a3.42,3.42,0,0,1,1.8-.4,2,2,0,0,1,1.4.4,1.66,1.66,0,0,1,.5,1.2v3.1h-.9V480Zm-.3-2.2h-.5a1.55,1.55,0,0,0-.8.2.6.6,0,0,0-.3.6c0,.4.2.5.6.5a1,1,0,0,0,1-1v-.3Z"/><path class="cls-5" d="M1140.8,480.1c-1.4,0-2.2-.8-2.2-2.4a2.44,2.44,0,0,1,.6-1.8,2.2,2.2,0,0,1,1.7-.6,3.19,3.19,0,0,1,1.4.3l-.4,1c-.2-.1-.4-.1-.6-.2a.9.9,0,0,0-.5-.1c-.7,0-1,.5-1,1.4s.3,1.4,1,1.4a1.7,1.7,0,0,0,.7-.1l.6-.3v1.1l-.6.3C1141.3,480,1141.1,480.1,1140.8,480.1Z"/><path class="cls-5" d="M1145.2,479.1a2.49,2.49,0,0,0,.8-.1v.9a3.73,3.73,0,0,1-1.2.2,1.25,1.25,0,0,1-1.1-.4,1.8,1.8,0,0,1-.3-1.1v-2.2h-.6v-.5l.7-.4.4-1h.8v1h1.3v.9h-1.3v2.2a.52.52,0,0,0,.2.4A.44.44,0,0,0,1145.2,479.1Z"/><path class="cls-5" d="M1146.8,474.2c0-.4.2-.6.7-.6s.7.2.7.6c0,.2-.1.3-.2.5a.76.76,0,0,1-.5.2C1147.1,474.8,1146.8,474.6,1146.8,474.2Zm1.4,5.8h-1.3v-4.6h1.3Z"/><path class="cls-5" d="M1151.3,480.1c-1.4,0-2.2-.8-2.2-2.4a2.44,2.44,0,0,1,.6-1.8,2.2,2.2,0,0,1,1.7-.6,3.19,3.19,0,0,1,1.4.3l-.4,1c-.2-.1-.4-.1-.6-.2a.9.9,0,0,0-.5-.1c-.7,0-1,.5-1,1.4s.3,1.4,1,1.4a1.7,1.7,0,0,0,.7-.1l.6-.3v1.1l-.6.3C1151.9,480,1151.7,480.1,1151.3,480.1Z"/><path class="cls-5" d="M1156.7,480l-.2-.6h0a1.34,1.34,0,0,1-.7.6,2,2,0,0,1-.9.2,1.16,1.16,0,0,1-1-.4,1.37,1.37,0,0,1-.4-1.1,1.43,1.43,0,0,1,.5-1.1,3,3,0,0,1,1.5-.4h.8V477c0-.5-.2-.7-.7-.7a3.45,3.45,0,0,0-1.3.3l-.4-.8a3.42,3.42,0,0,1,1.8-.4,2,2,0,0,1,1.4.4,1.66,1.66,0,0,1,.5,1.2v3.1h-.9V480Zm-.3-2.2h-.5a1.55,1.55,0,0,0-.8.2.6.6,0,0,0-.3.6c0,.4.2.5.6.5a1,1,0,0,0,1-1v-.3Z"/><path class="cls-5" d="M1160.2,480h-1.3v-6.4h1.3Z"/><path class="cls-5" d="M1167.3,478.3a1.61,1.61,0,0,1-.6,1.3,2.54,2.54,0,0,1-1.6.5,3.29,3.29,0,0,1-1.7-.4v-1.2c.4.2.8.3,1,.4a2.2,2.2,0,0,0,.8.1.85.85,0,0,0,.6-.2c.2-.1.2-.3.2-.5a.37.37,0,0,0-.1-.3l-.3-.3a5.56,5.56,0,0,0-.8-.4,2.77,2.77,0,0,1-.8-.5,1.27,1.27,0,0,1-.4-.6,1.85,1.85,0,0,1-.2-.7,1.9,1.9,0,0,1,.5-1.3,2.25,2.25,0,0,1,1.5-.5,2.77,2.77,0,0,1,.9.1l.9.3-.4,1a6.89,6.89,0,0,1-.8-.3,1.27,1.27,0,0,0-.6-.1,1.42,1.42,0,0,0-.6.2.76.76,0,0,0-.2.4.37.37,0,0,0,.1.3c.1.1.1.2.2.2a5.56,5.56,0,0,0,.8.4,4.13,4.13,0,0,1,1.2.8A2.69,2.69,0,0,1,1167.3,478.3Z"/><path class="cls-5" d="M1169.5,477.5l.5-.7,1.3-1.4h1.4l-1.8,2,1.9,2.6h-1.5l-1.3-1.9-.5.4v1.4h-1.3v-6.4h1.3v4Z"/><path class="cls-5" d="M1173.5,474.2c0-.4.2-.6.7-.6s.7.2.7.6c0,.2-.1.3-.2.5a.76.76,0,0,1-.5.2C1173.7,474.8,1173.5,474.6,1173.5,474.2Zm1.3,5.8h-1.3v-4.6h1.3Z"/><path class="cls-5" d="M1177.4,480h-1.3v-6.4h1.3Z"/><path class="cls-5" d="M1180,480h-1.3v-6.4h1.3Z"/></g><path class="cls-3" d="M1006.1,187.5a1.3,1.3,0,0,0-1.3-1h-4.5a1,1,0,0,1-1-1,1.08,1.08,0,0,1,1-1h5.5a17.33,17.33,0,0,1,.3-3.2,1.35,1.35,0,0,0-1-1.6h-4.8a1,1,0,0,1-1-1,1.08,1.08,0,0,1,1-1h6.3a1.52,1.52,0,0,0,1.2-.7,15.46,15.46,0,0,1,19-6.9,1.3,1.3,0,0,0,1.7-.8.9.9,0,0,0,.1-.5V162a1.32,1.32,0,0,0-1.3-1.3H991.4a1.32,1.32,0,0,0-1.3,1.3v46.9a1.32,1.32,0,0,0,1.3,1.3h35.9a1.32,1.32,0,0,0,1.3-1.3v-8.8a1.32,1.32,0,0,0-1.3-1.3.9.9,0,0,0-.5.1,15.46,15.46,0,0,1-19.9-8.9,14.36,14.36,0,0,1-.8-2.5Zm-10.3-17.2a.94.94,0,0,1,1-1h5.5a1,1,0,0,1,1,1,1.08,1.08,0,0,1-1,1h-5.5c-.5.1-1-.3-1-1Z"/><path class="cls-2" d="M1039.8,198.4l-7-7.3a13.47,13.47,0,1,0-4.3,4.5l6.9,7.2a3.14,3.14,0,0,0,4.4,0h0a3.14,3.14,0,0,0,0-4.4Zm-28.3-11.9H1023a1,1,0,0,0,1-1,1.08,1.08,0,0,0-1-1h-11.7a10.05,10.05,0,0,1,1.2-4.8H1023a1,1,0,0,0,1-1,1.08,1.08,0,0,0-1-1h-9a10,10,0,1,1,.3,14.1,10.92,10.92,0,0,1-2.8-5.3Z"/><path class="cls-3" d="M1119.7,48.1a19.07,19.07,0,0,1,4.3-4.2l-4.1-4.1L1118,38c-.1-.1-.4-.2-.5,0h0l-1.9,1.8-4.1,4.1a.37.37,0,0,1-.6,0l-6.7-6.8a.28.28,0,0,0-.5,0h0l-3.7,3.7c-.2.2-.2.4,0,.5l9.2,9.2,1.8,1.9a.38.38,0,0,0,.6,0l1.8-1.9,4-4.1a.37.37,0,0,1,.6,0Z"/><path class="cls-3" d="M1173.4,84.5l-5.1-18.6a.37.37,0,0,0-.5-.2.22.22,0,0,0-.2.2l-2.3,6.8-8.5-8.6a.28.28,0,0,0-.5,0h0l-6.2,6.2-.7-.7a15.61,15.61,0,0,1-4.2,4.3l4.6,4.6a.38.38,0,0,0,.6,0l5.9-6a.28.28,0,0,1,.5,0h0l4.8,4.9-6,2.6a.37.37,0,0,0-.2.5c0,.1.1.2.3.2L1173,85c.2,0,.4-.1.4-.3Z"/><path class="cls-3" d="M1134.3,46.5a12.5,12.5,0,1,0,12.4,12.6V59a12.48,12.48,0,0,0-12.4-12.5Z"/><path class="cls-3" d="M1151,59a16.7,16.7,0,1,0-16.7,16.9A16.84,16.84,0,0,0,1151,59Zm-16.7,13.6a13.6,13.6,0,1,1,13.5-13.7V59a13.47,13.47,0,0,1-13.5,13.6Z"/><path class="cls-2" d="M1135.6,66.5v1.6h-2.5V66.5a4.12,4.12,0,0,1-3.3-4.4h3c0,1.2.6,1.7,1.5,1.7a1.24,1.24,0,0,0,1.4-1.1v-.2c0-2.4-5.7-2.7-5.7-7.2a3.58,3.58,0,0,1,3-3.7V50h2.5v1.6a3.86,3.86,0,0,1,3,4.2h-3c0-1-.4-1.4-1.3-1.4a1,1,0,0,0-1.2.9v.1c0,2.3,5.8,2.4,5.8,7.1A3.83,3.83,0,0,1,1135.6,66.5Z"/><path class="cls-3" d="M1026.3,356.9l5.7,7c.1.2.4.2.6.2a.43.43,0,0,0,.4-.4l1.7-6.7h2.2a2.43,2.43,0,0,0,2.4-2.4V338.2a2.43,2.43,0,0,0-2.4-2.4h-9.8V318a3.54,3.54,0,0,0-3.5-3.5H989a3.54,3.54,0,0,0-3.5,3.5v25.3a3.48,3.48,0,0,0,3.5,3.5h4.2l2.7,10.6a.57.57,0,0,0,.7.4c.1,0,.3-.1.3-.2l9-10.9h6v7.7a2.43,2.43,0,0,0,2.4,2.4l12,.1Zm-13.1-10.1h10.6a3.48,3.48,0,0,0,3.5-3.5v-6.5"/><path class="cls-2" d="M1012.3,328.2a1,1,0,0,0-.8-.7l-3-.4-1.3-2.7a1.06,1.06,0,0,0-1.8,0l-1.3,2.7-3,.4a1,1,0,0,0-.8,1.2.55.55,0,0,0,.3.5l2.2,2.1-.5,3a1,1,0,0,0,.4,1,1.18,1.18,0,0,0,1,.1l2.7-1.4,2.7,1.4a.75.75,0,0,0,.5.1,1.42,1.42,0,0,0,.6-.2,1,1,0,0,0,.4-1l-.5-3,2.2-2.1A3.35,3.35,0,0,0,1012.3,328.2Z"/><path class="cls-6" d="M1011.3,348.8l13.6-.2s3.7-.3,3.9-3.3.3-11.6.3-11.6h-1.9V343a4.55,4.55,0,0,1-.5,2,3.59,3.59,0,0,1-2.6,1.7h-12.7Z"/><path class="cls-7" d="M1193,402.6a142.9,142.9,0,0,1,0-285.8"/><circle class="cls-8" cx="1186.8" cy="116.8" r="3.9"/><circle class="cls-8" cx="1193" cy="402.6" r="3.9"/><circle class="cls-8" cx="1066.2" cy="325.4" r="3.9"/><circle class="cls-8" cx="1069.8" cy="186.5" r="3.9"/><path class="cls-8" d="M1221.2,275.4l13.2,14.2a152.34,152.34,0,0,1,17.3-17.7c1.7-1.4,3.3-2.7,4.9-3.9l.2-13.7-13.9-.2c-1.2,1-2.5,2-3.7,3A173,173,0,0,0,1221.2,275.4Z"/><path class="cls-8" d="M1309.5,290.6a32.22,32.22,0,0,1-7.6,21.5l.8,10.9,16.1-1.2a46.41,46.41,0,0,0,5.1-8.6,53.38,53.38,0,0,0,4.8-22.6,54.16,54.16,0,0,0-4.6-22.4,47.91,47.91,0,0,0-12-16.2c-.8-.7-1.6-1.4-2.4-2l-.2,15.2-12-.2C1304.2,270,1309.5,278.3,1309.5,290.6Z"/><path class="cls-8" d="M1194.4,315.9l-.2,14.3a103.2,103.2,0,0,0,8.7-6.8,188.33,188.33,0,0,0,18.9-19l2.4,2.6c10.1,11.1,17.1,18.8,24,24.3l-1.6-15.7,11.6-1.2c-5-4.4-11-11-19.6-20.4l-4-4.4-13.2-14.2c-6.1-6.3-11.5-11.5-16.5-15.8l-13.4,1.4,1.4,13.9c4.7,4.2,9.9,9.2,15.8,15.3a200.82,200.82,0,0,1-18.3,18.6c-2.9,2.5-5.9,4.8-9,7Z"/><path class="cls-8" d="M1131,262.2l13.3,2.4c4.9-3.7,10.4-5.9,15.6-5.9,10,0,19.7,4.4,33.1,16.2l-1.4-13.8,13.3-1.4a137,137,0,0,0-12-9.3c-11.1-7.5-21.6-10.9-33-10.9-9,0-18.3,3.3-26.4,9.2Z"/><path class="cls-8" d="M1111.6,290.6a50.76,50.76,0,0,0,4.1,20,54.55,54.55,0,0,0,4.6,8.6l12.5,1.5,1.8-15.2a32,32,0,0,1-3.6-14.8c0-10.8,5.8-20.2,13.3-26l-13.2-2.3,2.4-13.6a55.26,55.26,0,0,0-17.6,21.9A46.56,46.56,0,0,0,1111.6,290.6Z"/><path class="cls-8" d="M1120.2,319.2a53.12,53.12,0,0,0,6.4,7.8,52.22,52.22,0,0,0,16.2,11.2,49.42,49.42,0,0,0,19.7,4.2c6.9,0,14.3-2,22-6.1,2.1-1.1,4.2-2.4,6.4-3.8,1.1-.7,2.2-1.5,3.4-2.3l.2-14.3-13.1-.2h0a47,47,0,0,1-5.5,3.3c-5,2.7-9.4,4-13.3,4-12,0-22.6-7.3-28-17.6l-1.8,15.2Z"/><path class="cls-8" d="M1256.9,254.3l-.2,13.7c8.3-6.1,15.9-9.3,22.3-9.3a31.61,31.61,0,0,1,18.5,6.4l12,.2.2-15.2a51,51,0,0,0-30.7-10.6c-11.3,0-23.4,5-36,14.8Z"/><path class="cls-8" d="M1194.4,315.9l-.2,14.3a103.2,103.2,0,0,0,8.7-6.8,188.33,188.33,0,0,0,18.9-19l-13.2-14.2a200.82,200.82,0,0,1-18.3,18.6c-2.9,2.5-5.9,4.8-9,7Z"/><path class="cls-8" d="M1205.1,260.4a4.56,4.56,0,0,0-2.2-1.7c-1-.3-9.9,0-9.9,0l-3.8,1.7-1,3.2,3.7,9.9,1.7,1.4,2.9-1.5Z"/><path class="cls-8" d="M1246.6,315.6l1.6,15.7c.8.7,1.7,1.3,2.5,1.9,8.7,6.4,17.2,9.1,28.3,9.1,11.3,0,23.6-4.8,32.7-12.9a48.08,48.08,0,0,0,7.1-7.8l-16.1,1.3-.8-10.9a27.55,27.55,0,0,1-2.9,3,31.85,31.85,0,0,1-19.9,8.1c-8.2,0-13.3-1.9-20.9-8.6Z"/><polygon class="cls-9" points="1136 215 1190.9 215 1204.8 254.5 1148.7 254.5 1136 215"/><polygon class="cls-10" points="1138.3 216.3 1189.6 216.3 1202.4 253.1 1150.2 253.1 1138.3 216.3"/><path class="cls-9" d="M1149.3,252.8h70.1a1.37,1.37,0,0,1,1.4,1.4v.9a1.37,1.37,0,0,1-1.4,1.4h-70.1a1.37,1.37,0,0,1-1.4-1.4v-.9A1.5,1.5,0,0,1,1149.3,252.8Z"/><path class="cls-9" d="M1148.8,252.8h24.6a1.54,1.54,0,0,1,1.5,1.5v.7a1.54,1.54,0,0,1-1.5,1.5h-24.6a.79.79,0,0,1-.8-.8v-1.9c0-.7.3-1,.8-1Z"/><path class="cls-11" d="M1276.3,278.8c-12.2.1-11.3-18.2-11.3-18.2l7.1-23C1272.1,237.5,1293,278.6,1276.3,278.8Z"/><path class="cls-12" d="M1265,228.3l-31,41.6-34.5-21-7.3-3.5c-6.7-.6-10.5,1.1-16.4,4.3l-6.8,3.7,28.4,2.6a119.84,119.84,0,0,0,31.3,33.4c4.9,3.6,12.2,1.4,17.3-1.9,12.9-8.3,23.8-25.7,23.8-25.7l9.5-18.5Z"/><path class="cls-11" d="M1296.1,209.6s-30.3,10.9-31.1,18.8c9.6,13.8,4.9,33.4,4.9,33.4s17,37.2,6.8,62.1c27.3-2.9,34-25.2,35.1-31.9a35.77,35.77,0,0,1,1.4-5.4c3.4-10.2,12.8-43.4.6-69.4C1306.8,210.5,1296.1,209.6,1296.1,209.6Z"/><path class="cls-13" d="M1266.1,173.3l24-.4,3.8,16.6a1.7,1.7,0,0,1,.1.7,10.54,10.54,0,0,0-1.1.7l-.2.1-.2.1c-4.5,3-6.4,8.4-6.3,13.6a26.1,26.1,0,0,1-9.2,3.3c-2.2.4-4.4.4-5.6-.3C1263.3,199.7,1266.1,173.3,1266.1,173.3Z"/><path class="cls-9" d="M1269.6,188.4a19.23,19.23,0,0,1,3.1,15.4c-1.9,9.8-2.9,18.9.2,23.1,2.2,2.9,6.8,4.5,10.7,5.3,4.1.9,7.4,4.4,8.9,9.7,2,7.4,4.5,16.8,10,16,15.3-2.2,20-6,18-22.3a36.57,36.57,0,0,0-4.6-13.6,30.54,30.54,0,0,1-4-18.2c.3-4.2.4-8.7-.2-11.3-.7-2.9-3.8-5.9-6.8-8.2-3.8-3-6.2-7.7-7-13.1s-2.9-11.4-8.3-14c-4.7-2.2-11,1-16.4,5.1a18.72,18.72,0,0,0-3.7,26Z"/></svg>