<svg id="Layer_1" data-name="Layer 1" xmlns="http://www.w3.org/2000/svg" xmlns:xlink="http://www.w3.org/1999/xlink" width="864" height="234.94" viewBox="0 0 864 234.94"><defs><linearGradient id="linear-gradient" x1="398.99" y1="12.93" x2="497.95" y2="12.93" gradientUnits="userSpaceOnUse"><stop offset="0" stop-color="#ff702a"/><stop offset="1" stop-color="#c407c8"/></linearGradient></defs><rect x="398.99" y="147.36" width="465.01" height="87.58" rx="4.33" fill="#f1f2f2"/><rect width="390.51" height="210.11" rx="3.78" fill="#f1f2f2"/><rect x="398.99" width="465.01" height="138.75" rx="4" fill="#f1f2f2"/><text transform="translate(15.35 119.47)" font-size="15.97" fill="#111" font-family="OpenSans-Bold, Open Sans" font-weight="700">24.7% <tspan x="50.45" y="0" font-size="14.97" font-family="OpenSans-Semibold, Open Sans" font-weight="600">​</tspan></text><text transform="translate(15.35 140.98)" font-size="12" font-family="OpenSans, Open Sans">CAGR, DevOps <tspan x="0" y="16">market</tspan></text><path d="M157.88,118.47h-2.42v-6.59l0-1.09,0-1.18a9.87,9.87,0,0,1-.84.78l-1.31,1.06L152.22,110l3.67-2.93h2Z" fill="#111"/><path d="M161,113.63a7.52,7.52,0,0,1,1.43-5,5.35,5.35,0,0,1,4.28-1.65,7.61,7.61,0,0,1,1.53.12V109a6.46,6.46,0,0,0-1.37-.15,4.75,4.75,0,0,0-2,.37,2.52,2.52,0,0,0-1.17,1.11,5.13,5.13,0,0,0-.46,2.08h.1a2.66,2.66,0,0,1,2.47-1.32,3.1,3.1,0,0,1,2.4,1,3.82,3.82,0,0,1,.86,2.66,4,4,0,0,1-1,2.89,3.8,3.8,0,0,1-2.86,1.06,4.06,4.06,0,0,1-2.2-.58,3.77,3.77,0,0,1-1.45-1.71A6.52,6.52,0,0,1,161,113.63Zm4.11,3.07a1.45,1.45,0,0,0,1.19-.51,2.31,2.31,0,0,0,.41-1.48,2.09,2.09,0,0,0-.38-1.32,1.42,1.42,0,0,0-1.17-.48,1.76,1.76,0,0,0-1.25.48,1.46,1.46,0,0,0-.52,1.11,2.44,2.44,0,0,0,.49,1.56A1.47,1.47,0,0,0,165.07,116.7Z" fill="#111"/><path d="M178.06,112.77a8,8,0,0,1-1,4.43,3.41,3.41,0,0,1-3,1.43,3.36,3.36,0,0,1-3-1.48,7.84,7.84,0,0,1-1-4.38,8,8,0,0,1,1-4.45,3.79,3.79,0,0,1,6,.07A7.88,7.88,0,0,1,178.06,112.77Zm-5.58,0a8.66,8.66,0,0,0,.37,3,1.25,1.25,0,0,0,1.22.91,1.27,1.27,0,0,0,1.21-.92,12.07,12.07,0,0,0,0-6,1.28,1.28,0,0,0-1.21-.92,1.26,1.26,0,0,0-1.22.92A8.91,8.91,0,0,0,172.48,112.77Z" fill="#111"/><path d="M182.33,113.7h-3V112h3v-3H184v3h3v1.71h-3v3h-1.71Z" fill="#111"/><text transform="translate(151.28 136.48)" font-size="12" font-family="OpenSans, Open Sans">Countries across <tspan x="0" y="16">the world </tspan></text><text transform="translate(15.35 28.49)" font-size="15.97" fill="#111" font-family="OpenSans-Bold, Open Sans" font-weight="700">$10.31 Billion</text><text transform="translate(15.35 48.15)" font-size="11.98" fill="#111" font-family="OpenSans, Open Sans">Estimated DevOps<tspan x="0" y="16.4">Market Size 2023</tspan></text><text transform="translate(151.28 27.99)" font-size="15.97" fill="#111" font-family="OpenSans-Bold, Open Sans" font-weight="700">60,000+</text><path d="M159.29,43.31a4.32,4.32,0,0,1-1.15,3.24,4.54,4.54,0,0,1-3.31,1.12h-2.37V39.11h2.62a3.83,3.83,0,0,1,4.21,4.2Zm-1,0a3.44,3.44,0,0,0-.84-2.52,3.37,3.37,0,0,0-2.5-.85h-1.45v6.84h1.21a3.71,3.71,0,0,0,2.68-.87A3.48,3.48,0,0,0,158.24,43.34Z"/><path d="M163.77,47.79a3,3,0,0,1-2.25-.87,3.35,3.35,0,0,1-.82-2.41,3.71,3.71,0,0,1,.76-2.46,2.55,2.55,0,0,1,2.06-.92,2.43,2.43,0,0,1,1.91.8,3,3,0,0,1,.7,2.09v.62h-4.42a2.54,2.54,0,0,0,.57,1.71,2,2,0,0,0,1.52.59,5.18,5.18,0,0,0,2.06-.43v.86a4.85,4.85,0,0,1-1,.32A5.13,5.13,0,0,1,163.77,47.79ZM163.51,42a1.62,1.62,0,0,0-1.24.5,2.41,2.41,0,0,0-.54,1.4h3.36a2.14,2.14,0,0,0-.41-1.41A1.45,1.45,0,0,0,163.51,42Z"/><path d="M169.2,47.67l-2.44-6.42h1l1.38,3.81a15.24,15.24,0,0,1,.55,1.73h.05a12.78,12.78,0,0,1,.41-1.28c.23-.65.74-2.07,1.54-4.26h1l-2.44,6.42Z"/><path d="M181.38,43.38a4.66,4.66,0,0,1-1,3.23,3.63,3.63,0,0,1-2.89,1.18,3.72,3.72,0,0,1-2.92-1.16,4.72,4.72,0,0,1-1-3.26,4.75,4.75,0,0,1,1-3.25A3.77,3.77,0,0,1,177.46,39a3.68,3.68,0,0,1,2.89,1.17A4.72,4.72,0,0,1,181.38,43.38Zm-6.82,0A4,4,0,0,0,175.3,46a2.62,2.62,0,0,0,2.15.9,2.59,2.59,0,0,0,2.15-.9,4.09,4.09,0,0,0,.73-2.64,4,4,0,0,0-.73-2.62,2.57,2.57,0,0,0-2.14-.9,2.63,2.63,0,0,0-2.16.9A4,4,0,0,0,174.56,43.38Z"/><path d="M186.13,47.79a2.83,2.83,0,0,1-1.14-.23,2.14,2.14,0,0,1-.87-.71h-.07a8,8,0,0,1,.07,1.06v2.65h-1V41.25h.79l.13.88h.05a2.22,2.22,0,0,1,.87-.76,2.61,2.61,0,0,1,1.14-.24,2.37,2.37,0,0,1,2,.88,3.84,3.84,0,0,1,.69,2.45,3.75,3.75,0,0,1-.71,2.45A2.36,2.36,0,0,1,186.13,47.79ZM186,42a1.73,1.73,0,0,0-1.42.54,2.88,2.88,0,0,0-.45,1.74v.22a3.21,3.21,0,0,0,.45,1.93A1.71,1.71,0,0,0,186,47a1.5,1.5,0,0,0,1.3-.68,3.16,3.16,0,0,0,.47-1.86,3,3,0,0,0-.47-1.84A1.54,1.54,0,0,0,186,42Z"/><path d="M194.64,45.92A1.59,1.59,0,0,1,194,47.3a3.08,3.08,0,0,1-1.87.49,4.17,4.17,0,0,1-2-.4v-.91a4.69,4.69,0,0,0,1,.37,4.1,4.1,0,0,0,1,.14,2.21,2.21,0,0,0,1.17-.25.83.83,0,0,0,.09-1.38,5,5,0,0,0-1.27-.63,6.93,6.93,0,0,1-1.27-.58,1.82,1.82,0,0,1-.57-.57,1.49,1.49,0,0,1-.18-.75,1.42,1.42,0,0,1,.64-1.24,2.91,2.91,0,0,1,1.75-.46,5,5,0,0,1,2,.43l-.35.79a4.56,4.56,0,0,0-1.75-.4,2,2,0,0,0-1,.21.67.67,0,0,0-.35.6.72.72,0,0,0,.13.44,1.39,1.39,0,0,0,.42.35,10.32,10.32,0,0,0,1.13.47,4.27,4.27,0,0,1,1.54.84A1.46,1.46,0,0,1,194.64,45.92Z"/><path d="M155.3,63.79a2.88,2.88,0,0,1-1.15-.23,2.28,2.28,0,0,1-.87-.71h-.07a8,8,0,0,1,.07,1.06v2.65h-1V57.25h.79l.13.88h.05a2.22,2.22,0,0,1,.87-.76,2.66,2.66,0,0,1,1.15-.24,2.35,2.35,0,0,1,2,.88,3.84,3.84,0,0,1,.69,2.45,3.8,3.8,0,0,1-.7,2.45A2.37,2.37,0,0,1,155.3,63.79ZM155.16,58a1.75,1.75,0,0,0-1.43.54,2.88,2.88,0,0,0-.45,1.74v.22a3.21,3.21,0,0,0,.45,1.93,1.73,1.73,0,0,0,1.45.59,1.5,1.5,0,0,0,1.3-.68,3.16,3.16,0,0,0,.48-1.86,3,3,0,0,0-.48-1.84A1.53,1.53,0,0,0,155.16,58Z"/><path d="M162.59,57.13a4.4,4.4,0,0,1,.77.07l-.14.91a3.2,3.2,0,0,0-.7-.09,1.71,1.71,0,0,0-1.33.63,2.31,2.31,0,0,0-.56,1.58v3.44h-1V57.25h.8l.12,1.19h0a2.93,2.93,0,0,1,.86-1A2,2,0,0,1,162.59,57.13Z"/><path d="M168.51,63.67l-.19-.91h0a2.81,2.81,0,0,1-1,.82,3,3,0,0,1-1.19.21,2.14,2.14,0,0,1-1.5-.49,1.81,1.81,0,0,1-.54-1.4c0-1.3,1-2,3.11-2l1.09,0v-.4a1.65,1.65,0,0,0-.32-1.11,1.35,1.35,0,0,0-1-.36,4.22,4.22,0,0,0-1.82.49l-.3-.74a4.34,4.34,0,0,1,1-.41,4.43,4.43,0,0,1,1.13-.14,2.46,2.46,0,0,1,1.71.5,2.14,2.14,0,0,1,.55,1.64v4.38Zm-2.2-.68a2,2,0,0,0,1.43-.5,1.87,1.87,0,0,0,.52-1.4v-.58l-1,.05a3.38,3.38,0,0,0-1.68.36,1.08,1.08,0,0,0-.51,1,1,1,0,0,0,.32.8A1.28,1.28,0,0,0,166.31,63Z"/><path d="M173.8,63.79a2.75,2.75,0,0,1-2.16-.86,3.52,3.52,0,0,1-.76-2.43,3.69,3.69,0,0,1,.77-2.49,2.83,2.83,0,0,1,2.22-.88,4.88,4.88,0,0,1,.92.1,3.27,3.27,0,0,1,.73.24l-.3.82a6.41,6.41,0,0,0-.7-.21,3,3,0,0,0-.68-.09c-1.3,0-2,.84-2,2.5a3,3,0,0,0,.48,1.82,1.67,1.67,0,0,0,1.42.63,4.32,4.32,0,0,0,1.64-.35v.87A3.54,3.54,0,0,1,173.8,63.79Z"/><path d="M179,63a4,4,0,0,0,.5,0,3.43,3.43,0,0,0,.38-.08v.74a1.7,1.7,0,0,1-.47.13,3.86,3.86,0,0,1-.55,0c-1.24,0-1.86-.65-1.86-2V58h-.92v-.47l.92-.41.41-1.37H178v1.49h1.86V58H178v3.78a1.28,1.28,0,0,0,.28.89A1,1,0,0,0,179,63Z"/><path d="M181.1,55.51a.65.65,0,0,1,.17-.49.58.58,0,0,1,.41-.15.59.59,0,0,1,.4.15.79.79,0,0,1,0,1,.55.55,0,0,1-.4.16.54.54,0,0,1-.41-.16A.66.66,0,0,1,181.1,55.51Zm1.06,8.16h-1V57.25h1Z"/><path d="M186.29,63a4,4,0,0,0,.5,0,3.43,3.43,0,0,0,.38-.08v.74a1.62,1.62,0,0,1-.46.13,4,4,0,0,1-.56,0c-1.24,0-1.86-.65-1.86-2V58h-.92v-.47l.92-.41.41-1.37h.56v1.49h1.86V58h-1.86v3.78a1.28,1.28,0,0,0,.28.89A1,1,0,0,0,186.29,63Z"/><path d="M188.37,55.51a.65.65,0,0,1,.17-.49.58.58,0,0,1,.41-.15.59.59,0,0,1,.4.15.79.79,0,0,1,0,1,.55.55,0,0,1-.4.16.54.54,0,0,1-.41-.16A.66.66,0,0,1,188.37,55.51Zm1.06,8.16h-1V57.25h1Z"/><path d="M197,60.46a3.54,3.54,0,0,1-.79,2.45,2.77,2.77,0,0,1-2.18.88,3,3,0,0,1-1.53-.4,2.65,2.65,0,0,1-1-1.16,4,4,0,0,1-.37-1.77,3.51,3.51,0,0,1,.79-2.45,2.79,2.79,0,0,1,2.18-.88,2.71,2.71,0,0,1,2.14.9A3.54,3.54,0,0,1,197,60.46Zm-4.89,0a3,3,0,0,0,.49,1.87,1.94,1.94,0,0,0,2.9,0,3,3,0,0,0,.5-1.87,3,3,0,0,0-.5-1.86,1.73,1.73,0,0,0-1.46-.64,1.7,1.7,0,0,0-1.44.63A3,3,0,0,0,192.14,60.46Z"/><path d="M203.13,63.67V59.52a1.69,1.69,0,0,0-.35-1.17,1.47,1.47,0,0,0-1.12-.39,1.85,1.85,0,0,0-1.48.54,2.79,2.79,0,0,0-.47,1.8v3.37h-1V57.25h.79l.16.88h0a2,2,0,0,1,.84-.74,2.78,2.78,0,0,1,1.2-.26,2.45,2.45,0,0,1,1.75.56,2.4,2.4,0,0,1,.59,1.79v4.19Z"/><path d="M208.82,63.79a3,3,0,0,1-2.25-.87,3.35,3.35,0,0,1-.82-2.41,3.71,3.71,0,0,1,.76-2.46,2.55,2.55,0,0,1,2.05-.92,2.4,2.4,0,0,1,1.91.8,3,3,0,0,1,.71,2.09v.62h-4.43a2.49,2.49,0,0,0,.58,1.71,2,2,0,0,0,1.52.59,5.13,5.13,0,0,0,2.05-.43v.86a4.77,4.77,0,0,1-1,.32A5.13,5.13,0,0,1,208.82,63.79ZM208.55,58a1.61,1.61,0,0,0-1.23.5,2.28,2.28,0,0,0-.54,1.4h3.35a2.08,2.08,0,0,0-.41-1.41A1.42,1.42,0,0,0,208.55,58Z"/><path d="M215.77,57.13a4.28,4.28,0,0,1,.76.07l-.13.91a3.27,3.27,0,0,0-.7-.09,1.73,1.73,0,0,0-1.34.63,2.31,2.31,0,0,0-.55,1.58v3.44h-1V57.25h.8l.11,1.19h.05a2.82,2.82,0,0,1,.86-1A2,2,0,0,1,215.77,57.13Z"/><path d="M221.88,61.92a1.61,1.61,0,0,1-.67,1.38,3.11,3.11,0,0,1-1.88.49,4.2,4.2,0,0,1-2-.4v-.91a4.69,4.69,0,0,0,1,.37,4.24,4.24,0,0,0,1,.14,2.21,2.21,0,0,0,1.17-.25.83.83,0,0,0,.08-1.38,4.9,4.9,0,0,0-1.26-.63,7.1,7.1,0,0,1-1.28-.58,1.78,1.78,0,0,1-.56-.57,1.49,1.49,0,0,1-.19-.75,1.45,1.45,0,0,1,.64-1.24,2.93,2.93,0,0,1,1.75-.46,5,5,0,0,1,2,.43l-.34.79a4.61,4.61,0,0,0-1.76-.4,2.07,2.07,0,0,0-1,.21.69.69,0,0,0-.35.6.72.72,0,0,0,.13.44,1.33,1.33,0,0,0,.43.35,9.91,9.91,0,0,0,1.12.47,4.34,4.34,0,0,1,1.55.84A1.5,1.5,0,0,1,221.88,61.92Z"/><path d="M157.56,73.25v.62l-1.18.14a2.33,2.33,0,0,1,.29.53,2.18,2.18,0,0,1,.13.75,1.92,1.92,0,0,1-.65,1.51,2.63,2.63,0,0,1-1.77.56,3.1,3.1,0,0,1-.54,0,1,1,0,0,0-.62.83.43.43,0,0,0,.22.39,1.62,1.62,0,0,0,.74.12h1.14a2.54,2.54,0,0,1,1.6.44,1.52,1.52,0,0,1,.56,1.28,1.84,1.84,0,0,1-.85,1.63,4.63,4.63,0,0,1-2.5.56,3.41,3.41,0,0,1-1.94-.47,1.52,1.52,0,0,1-.68-1.33,1.47,1.47,0,0,1,.37-1,1.86,1.86,0,0,1,1.06-.58,1,1,0,0,1-.42-.35.91.91,0,0,1-.16-.54,1.08,1.08,0,0,1,.18-.62,2.38,2.38,0,0,1,.59-.51,1.74,1.74,0,0,1-.81-.69,2.06,2.06,0,0,1-.31-1.13,2.11,2.11,0,0,1,.63-1.63,2.59,2.59,0,0,1,1.8-.57,3.16,3.16,0,0,1,.9.12Zm-5.12,7.5a.87.87,0,0,0,.44.79,2.46,2.46,0,0,0,1.26.27,3.49,3.49,0,0,0,1.82-.37,1.11,1.11,0,0,0,.58-1,.76.76,0,0,0-.32-.72,2.43,2.43,0,0,0-1.21-.2h-1.17a1.55,1.55,0,0,0-1,.31A1.16,1.16,0,0,0,152.44,80.75Zm.53-5.44a1.32,1.32,0,0,0,.38,1,1.54,1.54,0,0,0,1.06.34,1.24,1.24,0,0,0,1.43-1.38,1.28,1.28,0,0,0-1.45-1.45,1.46,1.46,0,0,0-1,.37A1.48,1.48,0,0,0,153,75.31Z"/><path d="M159.86,79.67h-1V70.56h1Z"/><path d="M167.46,76.46a3.54,3.54,0,0,1-.79,2.45,2.79,2.79,0,0,1-2.19.88,3,3,0,0,1-1.52-.4,2.73,2.73,0,0,1-1-1.16,4.11,4.11,0,0,1-.36-1.77,3.51,3.51,0,0,1,.79-2.45,2.79,2.79,0,0,1,2.18-.88,2.72,2.72,0,0,1,2.14.9A3.54,3.54,0,0,1,167.46,76.46Zm-4.89,0a3,3,0,0,0,.49,1.87,1.94,1.94,0,0,0,2.9,0,3,3,0,0,0,.49-1.87A3,3,0,0,0,166,74.6a2,2,0,0,0-2.91,0A3,3,0,0,0,162.57,76.46Z"/><path d="M172.15,73.15a2.38,2.38,0,0,1,2,.86,4.61,4.61,0,0,1,0,4.9,2.36,2.36,0,0,1-2,.88,2.83,2.83,0,0,1-1.14-.23,2.14,2.14,0,0,1-.87-.71h-.07l-.21.82h-.69V70.56h1v2.21c0,.5,0,.94,0,1.34h0A2.3,2.3,0,0,1,172.15,73.15ZM172,74a1.69,1.69,0,0,0-1.43.57,3.24,3.24,0,0,0-.44,1.93,3.21,3.21,0,0,0,.45,1.93A1.71,1.71,0,0,0,172,79a1.49,1.49,0,0,0,1.33-.66,3.29,3.29,0,0,0,.44-1.88,3.19,3.19,0,0,0-.44-1.87A1.54,1.54,0,0,0,172,74Z"/><path d="M180.47,79.67l-.19-.91h-.05a2.81,2.81,0,0,1-1,.82,3,3,0,0,1-1.19.21,2.14,2.14,0,0,1-1.5-.49,1.81,1.81,0,0,1-.54-1.4c0-1.3,1-2,3.11-2l1.09,0v-.4a1.65,1.65,0,0,0-.32-1.11,1.35,1.35,0,0,0-1-.36,4.18,4.18,0,0,0-1.82.49l-.3-.74a4.48,4.48,0,0,1,2.17-.55,2.46,2.46,0,0,1,1.71.5,2.18,2.18,0,0,1,.55,1.64v4.38Zm-2.2-.68a2,2,0,0,0,1.43-.5,1.87,1.87,0,0,0,.52-1.4v-.58l-1,0a3.36,3.36,0,0,0-1.67.36,1.08,1.08,0,0,0-.51,1,1,1,0,0,0,.32.8A1.28,1.28,0,0,0,178.27,79Z"/><path d="M184.17,79.67h-1V70.56h1Z"/><path d="M187.2,79.67h-1V70.56h1Z"/><path d="M188.24,73.25h1l1.4,3.66a15.28,15.28,0,0,1,.58,1.81h0c.06-.2.16-.54.32-1s.7-2,1.59-4.45h1.05l-2.76,7.31a3.61,3.61,0,0,1-1,1.54,2.05,2.05,0,0,1-1.34.46,4.32,4.32,0,0,1-.88-.1v-.78a3.82,3.82,0,0,0,.72.07,1.5,1.5,0,0,0,1.43-1.13l.35-.91Z"/><text transform="translate(274.03 118.47)" font-size="15.97" fill="#111" font-family="OpenSans-Bold, Open Sans" font-weight="700">75%</text><text transform="translate(274.03 139.65)" font-size="12" font-family="OpenSans, Open Sans">Enterprise <tspan x="0" y="16">adoption of </tspan><tspan x="0" y="32">DevOps globally </tspan></text><text transform="translate(274.03 27.99)" font-size="15.97" fill="#111" font-family="OpenSans-Bold, Open Sans" font-weight="700">30,000+</text><path d="M282.05,43.31a4.36,4.36,0,0,1-1.15,3.24,4.57,4.57,0,0,1-3.32,1.12h-2.37V39.11h2.62a4.23,4.23,0,0,1,3.11,1.1A4.19,4.19,0,0,1,282.05,43.31Zm-1.06,0a3.44,3.44,0,0,0-.84-2.52,3.35,3.35,0,0,0-2.5-.85h-1.44v6.84h1.21a3.71,3.71,0,0,0,2.68-.87A3.52,3.52,0,0,0,281,43.34Z"/><path d="M286.52,47.79a2.93,2.93,0,0,1-2.24-.87,3.36,3.36,0,0,1-.83-2.41,3.72,3.72,0,0,1,.77-2.46,2.53,2.53,0,0,1,2-.92,2.42,2.42,0,0,1,1.91.8,3,3,0,0,1,.7,2.09v.62h-4.42a2.54,2.54,0,0,0,.57,1.71,2,2,0,0,0,1.53.59,5.17,5.17,0,0,0,2.05-.43v.86a4.65,4.65,0,0,1-1,.32A5,5,0,0,1,286.52,47.79ZM286.26,42a1.58,1.58,0,0,0-1.23.5,2.35,2.35,0,0,0-.55,1.4h3.36a2.08,2.08,0,0,0-.41-1.41A1.42,1.42,0,0,0,286.26,42Z"/><path d="M292,47.67l-2.44-6.42h1l1.39,3.81c.31.89.49,1.47.55,1.73h.05a11.79,11.79,0,0,1,.4-1.28c.23-.65.74-2.07,1.54-4.26h1l-2.43,6.42Z"/><path d="M304.14,43.38a4.71,4.71,0,0,1-1,3.23,3.65,3.65,0,0,1-2.89,1.18,3.72,3.72,0,0,1-2.93-1.16,4.77,4.77,0,0,1-1-3.26,4.7,4.7,0,0,1,1-3.25A3.74,3.74,0,0,1,300.22,39a3.64,3.64,0,0,1,2.88,1.17A4.72,4.72,0,0,1,304.14,43.38Zm-6.83,0a4.09,4.09,0,0,0,.74,2.64,3,3,0,0,0,4.31,0,4.15,4.15,0,0,0,.72-2.64,4.09,4.09,0,0,0-.72-2.62,2.59,2.59,0,0,0-2.14-.9,2.66,2.66,0,0,0-2.17.9A4.05,4.05,0,0,0,297.31,43.38Z"/><path d="M308.89,47.79a2.88,2.88,0,0,1-1.15-.23,2.28,2.28,0,0,1-.87-.71h-.07a8,8,0,0,1,.07,1.06v2.65h-1V41.25h.79l.14.88h0a2.18,2.18,0,0,1,.88-.76,2.58,2.58,0,0,1,1.14-.24,2.35,2.35,0,0,1,2,.88,3.84,3.84,0,0,1,.69,2.45,3.8,3.8,0,0,1-.7,2.45A2.37,2.37,0,0,1,308.89,47.79ZM308.75,42a1.75,1.75,0,0,0-1.43.54,2.88,2.88,0,0,0-.45,1.74v.22a3.21,3.21,0,0,0,.45,1.93,1.73,1.73,0,0,0,1.45.59,1.52,1.52,0,0,0,1.31-.68,3.24,3.24,0,0,0,.47-1.86,3.1,3.1,0,0,0-.47-1.84A1.56,1.56,0,0,0,308.75,42Z"/><path d="M317.4,45.92a1.61,1.61,0,0,1-.67,1.38,3.11,3.11,0,0,1-1.88.49,4.2,4.2,0,0,1-2-.4v-.91a4.69,4.69,0,0,0,1,.37,4.24,4.24,0,0,0,1,.14,2.24,2.24,0,0,0,1.17-.25.83.83,0,0,0,.08-1.38,4.9,4.9,0,0,0-1.26-.63,7.1,7.1,0,0,1-1.28-.58,1.78,1.78,0,0,1-.56-.57,1.49,1.49,0,0,1-.19-.75,1.45,1.45,0,0,1,.64-1.24,2.93,2.93,0,0,1,1.75-.46,5,5,0,0,1,2,.43l-.34.79a4.61,4.61,0,0,0-1.76-.4,2.07,2.07,0,0,0-1,.21.69.69,0,0,0-.35.6.72.72,0,0,0,.13.44,1.33,1.33,0,0,0,.43.35,9.91,9.91,0,0,0,1.12.47,4.34,4.34,0,0,1,1.55.84A1.5,1.5,0,0,1,317.4,45.92Z"/><path d="M324.66,47.79a2.75,2.75,0,0,1-2.16-.86,3.52,3.52,0,0,1-.76-2.43,3.69,3.69,0,0,1,.77-2.49,2.83,2.83,0,0,1,2.22-.88,4.8,4.8,0,0,1,.92.1,3.27,3.27,0,0,1,.73.24l-.3.82a5.81,5.81,0,0,0-.7-.21,3,3,0,0,0-.68-.09c-1.3,0-1.95.84-1.95,2.5a3,3,0,0,0,.47,1.82,1.67,1.67,0,0,0,1.42.63,4.41,4.41,0,0,0,1.65-.35v.87A3.58,3.58,0,0,1,324.66,47.79Z"/><path d="M330.52,47.79a3,3,0,0,1-2.25-.87,3.4,3.4,0,0,1-.82-2.41,3.72,3.72,0,0,1,.77-2.46,2.53,2.53,0,0,1,2-.92,2.43,2.43,0,0,1,1.91.8,3,3,0,0,1,.7,2.09v.62h-4.42a2.54,2.54,0,0,0,.57,1.71,2,2,0,0,0,1.53.59,5.17,5.17,0,0,0,2.05-.43v.86a4.85,4.85,0,0,1-1,.32A5,5,0,0,1,330.52,47.79ZM330.26,42a1.62,1.62,0,0,0-1.24.5,2.41,2.41,0,0,0-.54,1.4h3.36a2.14,2.14,0,0,0-.41-1.41A1.42,1.42,0,0,0,330.26,42Z"/><path d="M337.47,41.13a4.4,4.4,0,0,1,.77.07l-.14.91a3.2,3.2,0,0,0-.7-.09,1.71,1.71,0,0,0-1.33.63,2.31,2.31,0,0,0-.56,1.58v3.44h-1V41.25h.8l.12,1.19h0a2.93,2.93,0,0,1,.86-1A2,2,0,0,1,337.47,41.13Z"/><path d="M341.51,47a3.9,3.9,0,0,0,.5,0,3.43,3.43,0,0,0,.38-.08v.74a1.62,1.62,0,0,1-.46.13,4,4,0,0,1-.56,0c-1.24,0-1.86-.65-1.86-2V42h-.92v-.47l.92-.41.41-1.37h.56v1.49h1.87V42h-1.87v3.78a1.28,1.28,0,0,0,.28.89A1,1,0,0,0,341.51,47Z"/><path d="M343.59,39.51a.65.65,0,0,1,.17-.49.58.58,0,0,1,.41-.15.59.59,0,0,1,.4.15.79.79,0,0,1,0,1,.55.55,0,0,1-.4.16.54.54,0,0,1-.41-.16A.66.66,0,0,1,343.59,39.51Zm1.06,8.16h-1V41.25h1Z"/><path d="M349.61,42H348v5.66h-1V42h-1.15v-.44l1.15-.35v-.36q0-2.37,2.07-2.37a4.15,4.15,0,0,1,1.19.21l-.25.78a3,3,0,0,0-1-.19,1,1,0,0,0-.82.37,2.09,2.09,0,0,0-.26,1.17v.42h1.64Zm1.09-2.5a.64.64,0,0,1,.16-.49.59.59,0,0,1,.41-.15.57.57,0,0,1,.4.15.79.79,0,0,1,0,1,.54.54,0,0,1-.4.16.56.56,0,0,1-.41-.16A.66.66,0,0,1,350.7,39.51Zm1.05,8.16h-1V41.25h1Z"/><path d="M356.53,47.79a3,3,0,0,1-2.25-.87,3.35,3.35,0,0,1-.82-2.41,3.71,3.71,0,0,1,.76-2.46,2.53,2.53,0,0,1,2-.92,2.42,2.42,0,0,1,1.91.8,3,3,0,0,1,.71,2.09v.62h-4.43a2.54,2.54,0,0,0,.57,1.71,2,2,0,0,0,1.53.59,5.13,5.13,0,0,0,2.05-.43v.86a4.77,4.77,0,0,1-1,.32A5.13,5.13,0,0,1,356.53,47.79ZM356.26,42a1.6,1.6,0,0,0-1.23.5,2.28,2.28,0,0,0-.54,1.4h3.35a2.08,2.08,0,0,0-.41-1.41A1.42,1.42,0,0,0,356.26,42Z"/><path d="M364.92,46.81h-.06a2.29,2.29,0,0,1-2,1,2.39,2.39,0,0,1-2-.86,3.78,3.78,0,0,1-.7-2.45,3.86,3.86,0,0,1,.7-2.47,2.39,2.39,0,0,1,2-.88,2.33,2.33,0,0,1,2,.95h.08l0-.46,0-.45V38.56h1v9.11H365ZM363,47a1.8,1.8,0,0,0,1.45-.55,2.79,2.79,0,0,0,.44-1.75v-.2a3.25,3.25,0,0,0-.45-1.95A1.72,1.72,0,0,0,363,42a1.49,1.49,0,0,0-1.31.66,3.35,3.35,0,0,0-.45,1.88,3.19,3.19,0,0,0,.45,1.86A1.52,1.52,0,0,0,363,47Z"/><path d="M278.05,63.79a2.8,2.8,0,0,1-1.14-.23,2.14,2.14,0,0,1-.87-.71H276a8,8,0,0,1,.08,1.06v2.65h-1V57.25h.79l.14.88H276a2.22,2.22,0,0,1,.87-.76,2.58,2.58,0,0,1,1.14-.24,2.35,2.35,0,0,1,2,.88,4.61,4.61,0,0,1,0,4.9A2.36,2.36,0,0,1,278.05,63.79ZM277.91,58a1.71,1.71,0,0,0-1.42.54,2.75,2.75,0,0,0-.45,1.74v.22a3.21,3.21,0,0,0,.45,1.93,1.7,1.7,0,0,0,1.44.59,1.52,1.52,0,0,0,1.31-.68,3.24,3.24,0,0,0,.47-1.86,3.1,3.1,0,0,0-.47-1.84A1.56,1.56,0,0,0,277.91,58Z"/><path d="M285.35,57.13a4.28,4.28,0,0,1,.76.07l-.13.91a3.27,3.27,0,0,0-.7-.09,1.73,1.73,0,0,0-1.34.63,2.31,2.31,0,0,0-.55,1.58v3.44h-1V57.25h.8l.11,1.19h.05a2.82,2.82,0,0,1,.86-1A2,2,0,0,1,285.35,57.13Z"/><path d="M292.86,60.46a3.59,3.59,0,0,1-.79,2.45,2.79,2.79,0,0,1-2.19.88,3,3,0,0,1-1.53-.4,2.71,2.71,0,0,1-1-1.16,4.11,4.11,0,0,1-.36-1.77,3.55,3.55,0,0,1,.78-2.45,2.8,2.8,0,0,1,2.18-.88,2.71,2.71,0,0,1,2.14.9A3.54,3.54,0,0,1,292.86,60.46Zm-4.9,0a3,3,0,0,0,.5,1.87,1.93,1.93,0,0,0,2.89,0,3,3,0,0,0,.5-1.87,3,3,0,0,0-.5-1.86,2,2,0,0,0-2.9,0A3,3,0,0,0,288,60.46Z"/><path d="M297.46,58h-1.64v5.66h-1V58H293.7v-.44l1.15-.35v-.36q0-2.37,2.07-2.37a4.09,4.09,0,0,1,1.19.21l-.25.78a3,3,0,0,0-1-.19.93.93,0,0,0-.81.37,2,2,0,0,0-.27,1.17v.42h1.64Z"/><path d="M301.34,63.79a3,3,0,0,1-2.25-.87,3.4,3.4,0,0,1-.82-2.41,3.72,3.72,0,0,1,.77-2.46,2.53,2.53,0,0,1,2-.92,2.43,2.43,0,0,1,1.91.8,3,3,0,0,1,.7,2.09v.62h-4.42a2.54,2.54,0,0,0,.57,1.71,2,2,0,0,0,1.53.59,5.17,5.17,0,0,0,2.05-.43v.86a4.85,4.85,0,0,1-1,.32A5,5,0,0,1,301.34,63.79ZM301.08,58a1.62,1.62,0,0,0-1.24.5,2.41,2.41,0,0,0-.54,1.4h3.36a2.14,2.14,0,0,0-.41-1.41A1.42,1.42,0,0,0,301.08,58Z"/><path d="M309.5,61.92a1.6,1.6,0,0,1-.66,1.38,3.11,3.11,0,0,1-1.88.49,4.2,4.2,0,0,1-2-.4v-.91a4.69,4.69,0,0,0,1,.37,4.23,4.23,0,0,0,1,.14,2.28,2.28,0,0,0,1.18-.25.83.83,0,0,0,.08-1.38,5,5,0,0,0-1.27-.63,7.27,7.27,0,0,1-1.27-.58,1.78,1.78,0,0,1-.56-.57,1.39,1.39,0,0,1-.19-.75,1.42,1.42,0,0,1,.64-1.24,2.93,2.93,0,0,1,1.75-.46,5,5,0,0,1,2,.43l-.35.79a4.56,4.56,0,0,0-1.75-.4,2,2,0,0,0-1,.21.67.67,0,0,0-.35.6.72.72,0,0,0,.13.44,1.39,1.39,0,0,0,.42.35,10.32,10.32,0,0,0,1.13.47,4.27,4.27,0,0,1,1.54.84A1.46,1.46,0,0,1,309.5,61.92Z"/><path d="M315.23,61.92a1.59,1.59,0,0,1-.67,1.38,3.08,3.08,0,0,1-1.87.49,4.21,4.21,0,0,1-2-.4v-.91a4.58,4.58,0,0,0,1,.37,4.1,4.1,0,0,0,1,.14,2.21,2.21,0,0,0,1.17-.25.81.81,0,0,0,.41-.74.82.82,0,0,0-.32-.64,5,5,0,0,0-1.27-.63,7.1,7.1,0,0,1-1.28-.58,1.78,1.78,0,0,1-.56-.57,1.49,1.49,0,0,1-.18-.75,1.44,1.44,0,0,1,.63-1.24,2.94,2.94,0,0,1,1.76-.46,5,5,0,0,1,2,.43l-.34.79A4.6,4.6,0,0,0,313,58a2.12,2.12,0,0,0-1.05.21.69.69,0,0,0-.35.6.79.79,0,0,0,.13.44,1.33,1.33,0,0,0,.43.35,9.91,9.91,0,0,0,1.12.47,4.34,4.34,0,0,1,1.55.84A1.5,1.5,0,0,1,315.23,61.92Z"/><path d="M316.73,55.51a.64.64,0,0,1,.16-.49.59.59,0,0,1,.41-.15.61.61,0,0,1,.41.15.79.79,0,0,1,0,1,.57.57,0,0,1-.41.16.56.56,0,0,1-.41-.16A.66.66,0,0,1,316.73,55.51Zm1,8.16h-1V57.25h1Z"/><path d="M325.39,60.46a3.59,3.59,0,0,1-.79,2.45,2.79,2.79,0,0,1-2.19.88,3,3,0,0,1-1.53-.4,2.71,2.71,0,0,1-1-1.16,4.11,4.11,0,0,1-.36-1.77,3.55,3.55,0,0,1,.78-2.45,2.8,2.8,0,0,1,2.18-.88,2.69,2.69,0,0,1,2.14.9A3.54,3.54,0,0,1,325.39,60.46Zm-4.89,0a3,3,0,0,0,.49,1.87,1.94,1.94,0,0,0,2.9,0,3,3,0,0,0,.49-1.87,3,3,0,0,0-.49-1.86,2,2,0,0,0-2.91,0A3,3,0,0,0,320.5,60.46Z"/><path d="M331.49,63.67V59.52a1.64,1.64,0,0,0-.36-1.17A1.45,1.45,0,0,0,330,58a1.84,1.84,0,0,0-1.47.54,2.73,2.73,0,0,0-.47,1.8v3.37h-1V57.25h.79l.16.88h0a2,2,0,0,1,.84-.74,2.78,2.78,0,0,1,1.2-.26,2.48,2.48,0,0,1,1.75.56,2.39,2.39,0,0,1,.58,1.79v4.19Z"/><path d="M338.41,63.67l-.2-.91h0a2.81,2.81,0,0,1-1,.82,3,3,0,0,1-1.19.21,2.14,2.14,0,0,1-1.5-.49,1.81,1.81,0,0,1-.54-1.4c0-1.3,1-2,3.11-2l1.09,0v-.4a1.6,1.6,0,0,0-.33-1.11,1.32,1.32,0,0,0-1-.36,4.18,4.18,0,0,0-1.81.49l-.3-.74a4.48,4.48,0,0,1,2.17-.55,2.46,2.46,0,0,1,1.71.5,2.18,2.18,0,0,1,.55,1.64v4.38Zm-2.2-.68a2,2,0,0,0,1.43-.5,1.87,1.87,0,0,0,.52-1.4v-.58l-1,.05a3.36,3.36,0,0,0-1.67.36,1.08,1.08,0,0,0-.51,1,1,1,0,0,0,.32.8A1.28,1.28,0,0,0,336.21,63Z"/><path d="M342.11,63.67h-1V54.56h1Z"/><path d="M348.31,61.92a1.59,1.59,0,0,1-.67,1.38,3.08,3.08,0,0,1-1.87.49,4.17,4.17,0,0,1-2-.4v-.91a4.5,4.5,0,0,0,1,.37,4.1,4.1,0,0,0,1,.14,2.21,2.21,0,0,0,1.17-.25.79.79,0,0,0,.41-.74.82.82,0,0,0-.32-.64,5,5,0,0,0-1.27-.63,7.46,7.46,0,0,1-1.28-.58,1.89,1.89,0,0,1-.56-.57,1.49,1.49,0,0,1-.18-.75,1.42,1.42,0,0,1,.64-1.24,2.91,2.91,0,0,1,1.75-.46,5,5,0,0,1,2,.43l-.35.79a4.56,4.56,0,0,0-1.75-.4,2,2,0,0,0-1,.21.68.68,0,0,0-.36.6.72.72,0,0,0,.14.44,1.18,1.18,0,0,0,.42.35,10.32,10.32,0,0,0,1.13.47,4.27,4.27,0,0,1,1.54.84A1.46,1.46,0,0,1,348.31,61.92Z"/><path d="M350.91,62.28l.09.13a13.92,13.92,0,0,1-.44,1.36c-.19.52-.39,1-.6,1.45h-.73c.11-.41.22-.91.35-1.51s.21-1.07.27-1.43Z"/><path d="M275.21,79.67V71.11h1v7.66H280v.9Z"/><path d="M281.21,71.51a.64.64,0,0,1,.16-.49.59.59,0,0,1,.41-.15.61.61,0,0,1,.41.15.79.79,0,0,1,0,1,.57.57,0,0,1-.41.16.56.56,0,0,1-.41-.16A.66.66,0,0,1,281.21,71.51Zm1.05,8.16h-1V73.25h1Z"/><path d="M288.72,79.67V75.52a1.64,1.64,0,0,0-.36-1.17,1.45,1.45,0,0,0-1.12-.39,1.84,1.84,0,0,0-1.47.54,2.79,2.79,0,0,0-.47,1.8v3.37h-1V73.25h.79l.16.88h0a2,2,0,0,1,.84-.74,2.78,2.78,0,0,1,1.2-.26,2.47,2.47,0,0,1,1.75.56,2.39,2.39,0,0,1,.58,1.79v4.19Z"/><path d="M292.65,76.39a11.3,11.3,0,0,1,.77-.94l2.07-2.2h1.16L294.05,76l2.78,3.68h-1.18l-2.27-3-.73.63v2.4h-1V70.56h1v4.83c0,.21,0,.55,0,1Z"/><path d="M300.7,79.79a2.92,2.92,0,0,1-2.24-.87,3.36,3.36,0,0,1-.83-2.41,3.72,3.72,0,0,1,.77-2.46,2.53,2.53,0,0,1,2.05-.92,2.42,2.42,0,0,1,1.91.8,3,3,0,0,1,.7,2.09v.62h-4.42a2.54,2.54,0,0,0,.57,1.71,2,2,0,0,0,1.53.59,5.17,5.17,0,0,0,2.05-.43v.86a4.65,4.65,0,0,1-1,.32A5,5,0,0,1,300.7,79.79ZM300.44,74a1.58,1.58,0,0,0-1.23.5,2.35,2.35,0,0,0-.55,1.4H302a2.14,2.14,0,0,0-.41-1.41A1.42,1.42,0,0,0,300.44,74Z"/><path d="M309.09,78.81h0a2.29,2.29,0,0,1-2,1,2.39,2.39,0,0,1-2-.86,3.78,3.78,0,0,1-.7-2.45,3.86,3.86,0,0,1,.7-2.47,2.39,2.39,0,0,1,2-.88,2.34,2.34,0,0,1,2,1h.08l-.05-.46,0-.45V70.56h1v9.11h-.79Zm-1.94.17a1.78,1.78,0,0,0,1.44-.55,2.72,2.72,0,0,0,.45-1.75v-.2a3.25,3.25,0,0,0-.45-2,1.73,1.73,0,0,0-1.45-.58,1.49,1.49,0,0,0-1.31.66,3.27,3.27,0,0,0-.46,1.88,3.19,3.19,0,0,0,.45,1.86A1.54,1.54,0,0,0,307.15,79Z"/><path d="M312.22,79.67V71.11h1v8.56Z"/><path d="M319.82,79.67V75.52a1.64,1.64,0,0,0-.36-1.17,1.45,1.45,0,0,0-1.12-.39,1.88,1.88,0,0,0-1.48.54,2.79,2.79,0,0,0-.47,1.8v3.37h-1V73.25h.79l.16.88h.05a2,2,0,0,1,.84-.74,2.78,2.78,0,0,1,1.2-.26,2.44,2.44,0,0,1,1.74.56,2.4,2.4,0,0,1,.59,1.79v4.19Z"/><text transform="translate(15.35 225)" font-size="7.21" fill="#6d6d6d" font-family="OpenSans, Open Sans">Sources: State of DevOps 2020, DevOps Institute, CodeMotion</text><path d="M498,0V25.86H399V4a4,4,0,0,1,4-4Z" fill="url(#linear-gradient)"/><text transform="translate(405.22 16.27)" font-size="11.82" fill="#fff" font-family="OpenSans-Extrabold, Open Sans" font-weight="800">Career Impact</text><polyline points="137.06 9.85 137.06 113.62 137.06 127.16 137.06 201.59" fill="none" stroke="#808285" stroke-miterlimit="10" stroke-width="0.25"/><polyline points="258.06 9.85 258.06 113.62 258.06 127.16 258.06 201.59" fill="none" stroke="#808285" stroke-miterlimit="10" stroke-width="0.25"/><text transform="translate(408.37 169.95)" font-size="15.97" fill="#111" font-family="OpenSans-Bold, Open Sans" font-weight="700">Most Popular DevOps Roles </text><text transform="translate(510.37 126) rotate(-90)" font-size="7.86" fill="#111" font-family="OpenSans, Open Sans">Annual Average Salary</text><path d="M446.39,70.21a4.32,4.32,0,0,1-1.15,3.24,4.54,4.54,0,0,1-3.31,1.12h-2.38V66h2.63a3.85,3.85,0,0,1,4.21,4.21Zm-1.05,0a3.46,3.46,0,0,0-.84-2.53,3.4,3.4,0,0,0-2.5-.84h-1.45v6.84h1.21a3.67,3.67,0,0,0,2.68-.88A3.45,3.45,0,0,0,445.34,70.24Z"/><path d="M450.87,74.69a3,3,0,0,1-2.25-.87,3.35,3.35,0,0,1-.82-2.41,3.69,3.69,0,0,1,.76-2.46,2.55,2.55,0,0,1,2.06-.92,2.43,2.43,0,0,1,1.91.8,3.05,3.05,0,0,1,.7,2.09v.62H448.8a2.54,2.54,0,0,0,.58,1.71,2,2,0,0,0,1.52.59A5.15,5.15,0,0,0,453,73.4v.87a4.58,4.58,0,0,1-1,.32A5.13,5.13,0,0,1,450.87,74.69Zm-.27-5.84a1.58,1.58,0,0,0-1.23.5,2.28,2.28,0,0,0-.54,1.39h3.36a2.17,2.17,0,0,0-.41-1.41A1.48,1.48,0,0,0,450.6,68.85Z"/><path d="M456.29,74.57l-2.43-6.42h1L456.28,72a17.8,17.8,0,0,1,.55,1.73h.05a12,12,0,0,1,.41-1.28c.23-.66.74-2.07,1.53-4.26h1.05l-2.44,6.42Z"/><path d="M468.48,70.28a4.73,4.73,0,0,1-1,3.23,4.19,4.19,0,0,1-5.81,0,4.73,4.73,0,0,1-1-3.27,4.69,4.69,0,0,1,1-3.24,3.72,3.72,0,0,1,2.93-1.15A3.64,3.64,0,0,1,467.44,67,4.72,4.72,0,0,1,468.48,70.28Zm-6.83,0a4,4,0,0,0,.75,2.64,2.64,2.64,0,0,0,2.15.89,2.6,2.6,0,0,0,2.15-.89,4.15,4.15,0,0,0,.73-2.64,4.06,4.06,0,0,0-.73-2.63,2.59,2.59,0,0,0-2.14-.89,2.63,2.63,0,0,0-2.16.9A4,4,0,0,0,461.65,70.28Z"/><path d="M473.23,74.69a2.8,2.8,0,0,1-1.14-.23,2.17,2.17,0,0,1-.87-.72h-.07a10.27,10.27,0,0,1,.07,1.07v2.64h-1v-9.3h.8l.13.88h.05a2.22,2.22,0,0,1,.87-.76,2.58,2.58,0,0,1,1.14-.24,2.4,2.4,0,0,1,2,.87,3.88,3.88,0,0,1,.69,2.45,3.81,3.81,0,0,1-.71,2.46A2.36,2.36,0,0,1,473.23,74.69Zm-.14-5.83a1.73,1.73,0,0,0-1.42.54,2.79,2.79,0,0,0-.45,1.74v.21a3.22,3.22,0,0,0,.45,1.94,1.71,1.71,0,0,0,1.45.58,1.49,1.49,0,0,0,1.3-.67,3.24,3.24,0,0,0,.47-1.86,3.1,3.1,0,0,0-.47-1.84A1.54,1.54,0,0,0,473.09,68.86Z"/><path d="M481.74,72.82a1.59,1.59,0,0,1-.67,1.38,3.08,3.08,0,0,1-1.87.49,4,4,0,0,1-2-.41v-.9a4.5,4.5,0,0,0,1,.37,4.08,4.08,0,0,0,1,.13,2.32,2.32,0,0,0,1.17-.24.84.84,0,0,0,.09-1.38,5,5,0,0,0-1.27-.63,6.93,6.93,0,0,1-1.27-.58,1.82,1.82,0,0,1-.57-.57,1.5,1.5,0,0,1-.18-.76,1.42,1.42,0,0,1,.64-1.23,2.91,2.91,0,0,1,1.75-.46,5.16,5.16,0,0,1,2,.42l-.35.79a4.72,4.72,0,0,0-1.75-.39,2.12,2.12,0,0,0-1.05.21.69.69,0,0,0-.35.6.72.72,0,0,0,.14.44,1.18,1.18,0,0,0,.42.35c.2.1.57.26,1.12.47a4.24,4.24,0,0,1,1.55.84A1.46,1.46,0,0,1,481.74,72.82Z"/><path d="M444.33,90.57h-4.78V82h4.78v.89h-3.78v2.76h3.55v.88h-3.55v3.15h3.78Z"/><path d="M450.47,90.57V86.42a1.68,1.68,0,0,0-.35-1.18,1.49,1.49,0,0,0-1.12-.38,1.86,1.86,0,0,0-1.48.54,2.79,2.79,0,0,0-.47,1.8v3.37h-1V84.15h.79L447,85h.05a2,2,0,0,1,.83-.74,2.79,2.79,0,0,1,1.21-.26,2.44,2.44,0,0,1,1.74.56,2.38,2.38,0,0,1,.59,1.79v4.19Z"/><path d="M458.7,84.15v.61l-1.19.14a2.15,2.15,0,0,1,.42,1.29,1.87,1.87,0,0,1-.64,1.5,2.58,2.58,0,0,1-1.77.57,3.1,3.1,0,0,1-.54-.05,1,1,0,0,0-.62.83.4.4,0,0,0,.22.38,1.48,1.48,0,0,0,.74.13h1.14a2.56,2.56,0,0,1,1.6.44,1.54,1.54,0,0,1,.56,1.28,1.82,1.82,0,0,1-.86,1.62,4.5,4.5,0,0,1-2.49.56,3.33,3.33,0,0,1-1.94-.47,1.5,1.5,0,0,1-.69-1.32,1.47,1.47,0,0,1,.38-1,1.87,1.87,0,0,1,1.05-.58,1.06,1.06,0,0,1-.41-.35.94.94,0,0,1-.17-.54,1,1,0,0,1,.19-.62,1.8,1.8,0,0,1,.59-.51,1.76,1.76,0,0,1-.81-.7,2,2,0,0,1-.31-1.12,2.1,2.1,0,0,1,.63-1.63,2.58,2.58,0,0,1,1.79-.57,3.18,3.18,0,0,1,.91.12Zm-5.12,7.5a.87.87,0,0,0,.44.79,2.41,2.41,0,0,0,1.26.27,3.42,3.42,0,0,0,1.81-.37,1.1,1.1,0,0,0,.59-1,.78.78,0,0,0-.32-.72,2.43,2.43,0,0,0-1.21-.21H455a1.55,1.55,0,0,0-1,.32A1.11,1.11,0,0,0,453.58,91.65Zm.53-5.44a1.28,1.28,0,0,0,.38,1,1.48,1.48,0,0,0,1.06.35A1.24,1.24,0,0,0,457,86.19a1.28,1.28,0,0,0-1.44-1.45,1.39,1.39,0,0,0-1,.37A1.48,1.48,0,0,0,454.11,86.21Z"/><path d="M459.94,82.41a.64.64,0,0,1,.16-.49.6.6,0,0,1,.41-.16.62.62,0,0,1,.41.16.79.79,0,0,1,0,1,.62.62,0,0,1-.41.16.6.6,0,0,1-.41-.16A.66.66,0,0,1,459.94,82.41ZM461,90.57h-1V84.15h1Z"/><path d="M467.45,90.57V86.42a1.68,1.68,0,0,0-.36-1.18,1.49,1.49,0,0,0-1.12-.38,1.84,1.84,0,0,0-1.47.54,2.73,2.73,0,0,0-.47,1.8v3.37h-1V84.15h.8L464,85h.05a2,2,0,0,1,.84-.74,2.78,2.78,0,0,1,1.2-.26,2.47,2.47,0,0,1,1.75.56,2.38,2.38,0,0,1,.58,1.79v4.19Z"/><path d="M473.13,90.69a2.93,2.93,0,0,1-2.24-.87,3.36,3.36,0,0,1-.83-2.41,3.7,3.7,0,0,1,.77-2.46,2.53,2.53,0,0,1,2.05-.92,2.42,2.42,0,0,1,1.91.8,3,3,0,0,1,.7,2.09v.62h-4.42a2.54,2.54,0,0,0,.57,1.71,2,2,0,0,0,1.53.59,5.18,5.18,0,0,0,2.05-.44v.87a4.65,4.65,0,0,1-1,.32A5,5,0,0,1,473.13,90.69Zm-.26-5.84a1.55,1.55,0,0,0-1.23.5,2.35,2.35,0,0,0-.55,1.39h3.36a2.17,2.17,0,0,0-.41-1.41A1.45,1.45,0,0,0,472.87,84.85Z"/><path d="M479.87,90.69a3,3,0,0,1-2.25-.87,3.36,3.36,0,0,1-.83-2.41,3.7,3.7,0,0,1,.77-2.46,2.53,2.53,0,0,1,2.05-.92,2.42,2.42,0,0,1,1.91.8,3,3,0,0,1,.71,2.09v.62H477.8a2.49,2.49,0,0,0,.58,1.71,2,2,0,0,0,1.52.59A5.15,5.15,0,0,0,482,89.4v.87a4.77,4.77,0,0,1-1,.32A5.13,5.13,0,0,1,479.87,90.69Zm-.27-5.84a1.58,1.58,0,0,0-1.23.5,2.28,2.28,0,0,0-.54,1.39h3.35a2.12,2.12,0,0,0-.41-1.41A1.45,1.45,0,0,0,479.6,84.85Z"/><path d="M486.81,84a3.55,3.55,0,0,1,.77.07l-.13.9a4,4,0,0,0-.71-.08,1.71,1.71,0,0,0-1.33.63,2.31,2.31,0,0,0-.55,1.58v3.44h-1V84.15h.81l.11,1.19h.05a2.72,2.72,0,0,1,.86-1A1.88,1.88,0,0,1,486.81,84Z"/><text transform="translate(418.22 197.96)" font-size="12" font-family="OpenSans, Open Sans">DevOps Engineer</text><text transform="translate(418.22 197.96)" font-size="12" font-family="OpenSans, Open Sans">DevOps Engineer</text><text transform="translate(418.22 220.03)" font-size="12" font-family="OpenSans, Open Sans">Software Engineer</text><text transform="translate(418.22 220.03)" font-size="12" font-family="OpenSans, Open Sans">Software Engineer</text><circle cx="410.07" cy="194.39" r="1.69" fill="#ff4560"/><circle cx="410.07" cy="217.07" r="1.69" fill="#ff4560"/><text transform="translate(555.57 197.96)" font-size="12" font-family="OpenSans, Open Sans">DevOps Consultant</text><text transform="translate(555.57 197.96)" font-size="12" font-family="OpenSans, Open Sans">DevOps Consultant</text><text transform="translate(555.57 220.03)" font-size="12" font-family="OpenSans, Open Sans">CI/CD Engineer</text><text transform="translate(555.57 220.03)" font-size="12" font-family="OpenSans, Open Sans">CI/CD Engineer</text><circle cx="549.09" cy="194.39" r="1.69" fill="#ff4560"/><circle cx="549.09" cy="217.07" r="1.69" fill="#ff4560"/><text transform="translate(696.04 197.96)" font-size="12" font-family="OpenSans, Open Sans">Infrastructure Engineer </text><text transform="translate(696.04 197.96)" font-size="12" font-family="OpenSans, Open Sans">Infrastructure Engineer </text><circle cx="689.14" cy="194.39" r="1.69" fill="#ff4560"/><polyline points="537 125.73 537 123.07 536.66 123.07 536.66 125.73"/><text transform="translate(532.46 127.6) scale(0.95 1)" font-size="4.98" font-family="OpenSans-Semibold, Open Sans" font-weight="600">0</text><text transform="translate(521.3 101.02) scale(0.95 1)" font-size="4.98" font-family="OpenSans-Semibold, Open Sans" font-weight="600">50000</text><text transform="translate(518.51 74.44) scale(0.95 1)" font-size="4.98" font-family="OpenSans-Semibold, Open Sans" font-weight="600">100000</text><text transform="translate(518.51 47.86) scale(0.95 1)" font-size="4.98" font-family="OpenSans-Semibold, Open Sans" font-weight="600">150000</text><text transform="translate(518.51 21.28) scale(0.95 1)" font-size="4.98" font-family="OpenSans-Semibold, Open Sans" font-weight="600">200000</text><polyline points="537 125.73 537 19.41 536.66 19.41 536.66 125.73" fill="gray"/><line x1="536.83" y1="99.33" x2="537.33" y2="99.33" fill="none" stroke="#c4c4c4" stroke-miterlimit="10" stroke-width="0.5"/><line x1="538.33" y1="99.33" x2="637.36" y2="99.33" fill="none" stroke="#c4c4c4" stroke-miterlimit="10" stroke-width="0.5" stroke-dasharray="1 1"/><line x1="637.86" y1="99.33" x2="638.36" y2="99.33" fill="none" stroke="#c4c4c4" stroke-miterlimit="10" stroke-width="0.5"/><line x1="536.83" y1="72.75" x2="537.33" y2="72.75" fill="none" stroke="#c4c4c4" stroke-miterlimit="10" stroke-width="0.5"/><line x1="538.33" y1="72.75" x2="637.36" y2="72.75" fill="none" stroke="#c4c4c4" stroke-miterlimit="10" stroke-width="0.5" stroke-dasharray="1 1"/><line x1="637.86" y1="72.75" x2="638.36" y2="72.75" fill="none" stroke="#c4c4c4" stroke-miterlimit="10" stroke-width="0.5"/><line x1="536.83" y1="45.81" x2="537.33" y2="45.81" fill="none" stroke="gray" stroke-miterlimit="10" stroke-width="0.5"/><line x1="538.33" y1="45.81" x2="637.36" y2="45.81" fill="none" stroke="gray" stroke-miterlimit="10" stroke-width="0.5" stroke-dasharray="1 1"/><line x1="637.86" y1="45.81" x2="638.36" y2="45.81" fill="none" stroke="gray" stroke-miterlimit="10" stroke-width="0.5"/><rect x="570.75" y="70.66" width="18.27" height="55.07" fill="#d983ed"/><rect x="616.25" y="29.94" width="18.27" height="95.79" fill="#f28b8b"/><rect x="593.5" y="43.44" width="18.27" height="82.29" fill="#efc57b"/><rect x="548" y="75.65" width="18.27" height="50.07" fill="#79e2dd"/><polyline points="536.83 125.91 638.36 125.91 638.36 125.55 536.83 125.55" fill="gray"/><text transform="translate(582.87 118.05) rotate(-90)" font-size="9" font-family="OpenSans-Semibold, Open Sans" font-weight="600">$104K</text><text transform="translate(605.86 117.02) rotate(-90)" font-size="9" font-family="OpenSans-Semibold, Open Sans" font-weight="600">$91K - $155K</text><text transform="translate(628.09 117.02) rotate(-90)" font-size="9" font-family="OpenSans-Semibold, Open Sans" font-weight="600">$103K – $180K</text><text transform="translate(559.96 118.05) rotate(-90)" font-size="9" font-family="OpenSans-Semibold, Open Sans" font-weight="600">$94K</text><line x1="537" y1="19.41" x2="537.5" y2="19.41" fill="none" stroke="#c4c4c4" stroke-miterlimit="10" stroke-width="0.5"/><line x1="538.49" y1="19.41" x2="637.36" y2="19.41" fill="none" stroke="#c4c4c4" stroke-miterlimit="10" stroke-width="0.5" stroke-dasharray="0.99 0.99"/><line x1="637.86" y1="19.41" x2="638.36" y2="19.41" fill="none" stroke="#c4c4c4" stroke-miterlimit="10" stroke-width="0.5"/><text transform="translate(684.26 37.22)" font-size="12" font-family="OpenSans, Open Sans">Entry-Level DevOps Engineer</text><circle cx="669.22" cy="33.7" r="4.66" fill="#79e2dd"/><text transform="translate(684.26 62.8)" font-size="12" font-family="OpenSans, Open Sans">Mid-Level DevOps Engineer </text><circle cx="669.22" cy="58.39" r="4.66" fill="#d983ed"/><text transform="translate(684.26 88.38)" font-size="12" font-family="OpenSans, Open Sans">Senior DevOps Engineer </text><circle cx="669.22" cy="84.9" r="4.66" fill="#efc57b"/><text transform="translate(684.26 113.96)" font-size="12" font-family="OpenSans, Open Sans">Experienced DevOps Engineer </text><circle cx="669.22" cy="109.5" r="4.66" fill="#f28b8b"/></svg>