<svg xmlns="http://www.w3.org/2000/svg" xmlns:xlink="http://www.w3.org/1999/xlink" viewBox="0 0 1440 510">
  <defs>
    <style>
      .cls-1, .cls-14 {
        fill: none;
      }

      .cls-2 {
        fill: #f8faf7;
      }

      .cls-3 {
        clip-path: url(#clip-path);
      }

      .cls-4 {
        opacity: 0.35;
      }

      .cls-5 {
        fill: #c2c0ff;
      }

      .cls-6 {
        fill: #8886da;
      }

      .cls-7 {
        fill: #181f36;
      }

      .cls-8 {
        fill: #ff953f;
      }

      .cls-9 {
        fill: #f39f85;
      }

      .cls-10 {
        fill: #f7b58e;
      }

      .cls-11 {
        fill: #63c0c4;
      }

      .cls-12 {
        fill: #fff;
      }

      .cls-13 {
        fill: #939598;
      }

      .cls-14 {
        stroke: #d1d3d4;
        stroke-miterlimit: 10;
        stroke-width: 2.21px;
        stroke-dasharray: 8.82;
      }

      .cls-15 {
        fill: #d1d3d4;
      }
    </style>
    <clipPath id="clip-path">
      <circle class="cls-1" cx="1149.4" cy="316.3" r="103.1"/>
    </clipPath>
  </defs>
  <g id="Layer_2" data-name="Layer 2">
    <g id="Layer_1-2" data-name="Layer 1">
      <rect class="cls-2" width="1440" height="510"/>
      <g class="cls-3">
        <g class="cls-4">
          <rect class="cls-5" x="1198.8" y="253.9" width="14.2" height="165.61"/>
          <rect class="cls-6" x="1168.3" y="277.9" width="14.2" height="141.54"/>
          <rect class="cls-5" x="1137.8" y="293.6" width="14.2" height="125.92"/>
          <rect class="cls-5" x="1107.2" y="311.2" width="14.2" height="108.29"/>
        </g>
        <path class="cls-7" d="M1156.5,317.6s0,4.8,3.5,14.4,21.9,17.7,27.3,26.8c7.1,12,6.5,38.6-23.7,46s-63.3,6.7-65.7-17.9,11.5-33.2,19.4-36.3,5.3-10.4,4.9-16.1c-1.3-22.6,11.3-27.9,18.4-29S1156.4,317.1,1156.5,317.6Z"/>
        <path class="cls-8" d="M1124.3,393.8h41.1l-1.1-16.9,2.8,4.4,15.3-5.9-2.9-5.9c-5.8-11.7-16.5-19.6-29.7-20h-1.6a63,63,0,0,0-16.9,2.2,31.6,31.6,0,0,0-16,11.1l-5.7,8.9,14.9-.2Z"/>
        <path class="cls-9" d="M1141.4,344.6l-.8,6s-.3,3.2,5.3,3.2a8.5,8.5,0,0,0,4.7-1.1,3.6,3.6,0,0,0,1.5-3.4l-1.8-13Z"/>
        <path class="cls-10" d="M1181.5,375.8s7.4,16.3,4.2,20.7-45.1-3.5-45.1-3.5v-6.9l31.7,2.1-4.4-7.2Z"/>
        <polygon class="cls-11" points="1138.8 370.8 1094.4 370.8 1107.5 397.6 1151.5 397.6 1138.8 370.8"/>
        <path class="cls-7" d="M1152.3,334.5c-.7-2-5-13-8-11a17.1,17.1,0,0,1-8.4,3.9,12.1,12.1,0,0,1-4.9-.5h0c-.1-.3-9.1-16.2,8.4-21.2a25,25,0,0,1,7-.6C1153.3,305.5,1161.8,316.5,1152.3,334.5Z"/>
        <rect class="cls-11" x="1129.4" y="394.5" width="33.2" height="3.15"/>
        <path class="cls-12" d="M1119.6,382.8a2,2,0,1,0,1.9-2A2,2,0,0,0,1119.6,382.8Z"/>
        <path class="cls-8" d="M1124.3,419.5h41.6l-1.2-42.6,2.4,4.5,15.3-5.9-2.9-5.9c-5.8-11.7-16.5-19.6-29.7-20h-1.6a63,63,0,0,0-16.9,2.2,31.6,31.6,0,0,0-16,11.1l-5.7,8.9,14.9-.2Z"/>
        <path class="cls-10" d="M1141.4,344.6l-.8,6s-.3,3.2,5.3,3.2a8.5,8.5,0,0,0,4.7-1.1,3.6,3.6,0,0,0,1.5-3.4l-1.8-13Z"/>
        <path class="cls-10" d="M1181.5,375.8s7.4,16.3,4.2,20.7-45.1-3.5-45.1-3.5v-6.9l31.7,2.1-4.4-7.2Z"/>
        <path class="cls-10" d="M1152.5,325.4c-1.2-.2-2.5,1.1-2.9,2.9s.2,3.5,1.5,3.7,2.5-1.2,2.9-3S1153.7,325.5,1152.5,325.4Z"/>
        <g>
          <polygon class="cls-7" points="1135.3 367 1084.6 367 1099.6 397.6 1149.9 397.6 1135.3 367"/>
          <rect class="cls-7" x="1124.6" y="394" width="38" height="3.6"/>
        </g>
        <path class="cls-12" d="M1114.5,380.8a1.8,1.8,0,0,0,1.7,1.7,1.7,1.7,0,0,0,1.6-1.7,1.6,1.6,0,0,0-1.6-1.6A1.7,1.7,0,0,0,1114.5,380.8Z"/>
        <path class="cls-10" d="M1151.4,330.6l-2.6-10.7a3,3,0,0,0-2.9-2.2H1143a21.4,21.4,0,0,0,3-6.2,19.6,19.6,0,0,1-4.4,4.9,6.7,6.7,0,0,1-3.9,1.5h-3.8a2.9,2.9,0,0,0-2.9,2.8c0,4.9.3,15.3,3.2,21.3a5.4,5.4,0,0,0,5.8,3h0a18.1,18.1,0,0,0,9.2-4.7A11,11,0,0,0,1151.4,330.6Z"/>
        <rect class="cls-2" x="1084.6" y="366.6" width="50.9" height="0.86"/>
        <rect class="cls-2" x="1099" y="397.2" width="63.6" height="0.86"/>
      </g>
      <g>
        <path class="cls-13" d="M989.1,154.6a1.9,1.9,0,0,1-.5,1.3,2.7,2.7,0,0,1-1.6.4,4,4,0,0,1-1.7-.3v-.9l.9.3h.8l.9-.2a.9.9,0,0,0,.3-.6.7.7,0,0,0-.3-.6l-1.1-.6a2.3,2.3,0,0,1-1.1-.7,2.1,2.1,0,0,1-.4-1.1,1.3,1.3,0,0,1,.6-1.1,2,2,0,0,1,1.4-.5,4.7,4.7,0,0,1,1.7.4l-.3.8-1.4-.3c-.3,0-.6,0-.7.2a.5.5,0,0,0-.3.5c0,.2.1.3.1.4l.3.3.9.4.9.6a1.2,1.2,0,0,1,.5.5A1.5,1.5,0,0,1,989.1,154.6Z"/>
        <path class="cls-13" d="M994.2,154a2.9,2.9,0,0,1-.5,1.7,2.1,2.1,0,0,1-1.6.6,2.4,2.4,0,0,1-1.2-.3,1.9,1.9,0,0,1-.7-.8,2.7,2.7,0,0,1-.3-1.2,2.4,2.4,0,0,1,.6-1.8,2.4,2.4,0,0,1,3.2,0A3.2,3.2,0,0,1,994.2,154Zm-3.3,0q0,1.5,1.2,1.5c.8,0,1.1-.5,1.1-1.5s-.3-1.6-1.1-1.6a1,1,0,0,0-.9.4A2.1,2.1,0,0,0,990.9,154Z"/>
        <path class="cls-13" d="M996.3,156.2h-1v-6.4h1Z"/>
        <path class="cls-13" d="M1000.9,156.2v-.6h-.1a.8.8,0,0,1-.5.5,1.5,1.5,0,0,1-.9.2,1.5,1.5,0,0,1-1.2-.4,1.6,1.6,0,0,1-.4-1.2v-3h.9v2.8a1.9,1.9,0,0,0,.2.8.8.8,0,0,0,.7.2,1.2,1.2,0,0,0,.9-.3,2.1,2.1,0,0,0,.3-1.2v-2.3h1v4.5Z"/>
        <path class="cls-13" d="M1004.8,155.5h.7v.8h-1a1.3,1.3,0,0,1-1.4-1.4v-2.5h-.6V152l.7-.4.3-.9h.6v1h1.3v.7h-1.3v2.5a.8.8,0,0,0,.2.5Z"/>
        <path class="cls-13" d="M1006.3,150.5a.5.5,0,0,1,.2-.4l.4-.2.4.2c.1.1.1.2.1.4a.6.6,0,0,1-.1.4h-.8A.8.8,0,0,1,1006.3,150.5Zm1,5.7h-.9v-4.5h.9Z"/>
        <path class="cls-13" d="M1012.8,154a2.4,2.4,0,0,1-.6,1.7,2.1,2.1,0,0,1-1.6.6,2,2,0,0,1-1.1-.3,1.6,1.6,0,0,1-.8-.8,2.5,2.5,0,0,1-.2-1.2,2.4,2.4,0,0,1,.5-1.8,2.4,2.4,0,0,1,3.2,0A2.6,2.6,0,0,1,1012.8,154Zm-3.4,0q0,1.5,1.2,1.5t1.2-1.5c0-1.1-.4-1.6-1.2-1.6a1,1,0,0,0-.9.4A2.1,2.1,0,0,0,1009.4,154Z"/>
        <path class="cls-13" d="M1017.9,156.2h-1v-2.8a1.2,1.2,0,0,0-.2-.7.8.8,0,0,0-.7-.3,1,1,0,0,0-.9.4,1.7,1.7,0,0,0-.3,1.2v2.2h-.9v-4.5h.7l.2.6h0l.6-.5.8-.2a1.5,1.5,0,0,1,1.7,1.7Z"/>
        <path class="cls-13" d="M1024.9,156.2h-3.4v-6h3.4v.8h-2.4v1.7h2.3v.8h-2.3v1.9h2.4Z"/>
        <path class="cls-13" d="M1027.2,156.2l-1.8-4.5h1.1l.9,2.6a8.1,8.1,0,0,0,.3,1.1h0a4.5,4.5,0,0,1,.3-1.1l.9-2.6h1.1l-1.8,4.5Z"/>
        <path class="cls-13" d="M1033.5,156.2l-.2-.6h0l-.7.6h-.9a1.5,1.5,0,0,1-1-.3,1.4,1.4,0,0,1-.4-1.1,1.2,1.2,0,0,1,.5-1,2.5,2.5,0,0,1,1.6-.4h.8v-.3c0-.3,0-.5-.2-.6a.6.6,0,0,0-.6-.3h-.7l-.6.3-.3-.7.8-.3h.8a1.7,1.7,0,0,1,1.3.4,1.4,1.4,0,0,1,.5,1.2v3Zm-1.4-.6a1,1,0,0,0,1.1-1.1v-.4h-.6l-1,.2a.9.9,0,0,0-.3.6.8.8,0,0,0,.2.5Z"/>
        <path class="cls-13" d="M1036.5,156.2h-1v-6.4h1Z"/>
        <path class="cls-13" d="M1041.1,156.2v-.6h-.1c-.1.3-.3.4-.6.5a1.1,1.1,0,0,1-.8.2c-.6,0-1-.1-1.2-.4a1.7,1.7,0,0,1-.5-1.2v-3h1v2.8a1.9,1.9,0,0,0,.2.8.8.8,0,0,0,.7.2,1.2,1.2,0,0,0,.9-.3,2.1,2.1,0,0,0,.3-1.2v-2.3h1v4.5Z"/>
        <path class="cls-13" d="M1046.1,156.2l-.2-.6h0l-.7.6h-.9a1.5,1.5,0,0,1-1-.3,1.4,1.4,0,0,1-.4-1.1,1.2,1.2,0,0,1,.5-1,2.5,2.5,0,0,1,1.6-.4h.8v-.3c0-.3,0-.5-.2-.6a.6.6,0,0,0-.6-.3h-.7l-.6.3-.3-.7.8-.3h.8a1.7,1.7,0,0,1,1.3.4,1.4,1.4,0,0,1,.5,1.2v3Zm-1.4-.6a1,1,0,0,0,1.1-1.1v-.4h-.6l-1,.2a.9.9,0,0,0-.3.6.8.8,0,0,0,.2.5Z"/>
        <path class="cls-13" d="M1049.8,155.5h.7v.8h-.9a1.3,1.3,0,0,1-1.4-1.4v-2.5h-.6V152l.7-.4.3-.9h.6v1h1.3v.7h-1.3v2.5a.8.8,0,0,0,.2.5Z"/>
        <path class="cls-13" d="M1051.4,150.5c0-.2,0-.3.1-.4l.4-.2.4.2a.5.5,0,0,1,.2.4.8.8,0,0,1-.2.4h-.8A.6.6,0,0,1,1051.4,150.5Zm1,5.7h-.9v-4.5h.9Z"/>
        <path class="cls-13" d="M1057.8,154a2.3,2.3,0,0,1-.5,1.7,2.1,2.1,0,0,1-1.6.6,2.7,2.7,0,0,1-1.2-.3,1.9,1.9,0,0,1-.7-.8,2.7,2.7,0,0,1-.3-1.2,2.4,2.4,0,0,1,.6-1.8,2.4,2.4,0,0,1,3.2,0A2.6,2.6,0,0,1,1057.8,154Zm-3.3,0q0,1.5,1.2,1.5c.8,0,1.1-.5,1.1-1.5s-.3-1.6-1.1-1.6a1,1,0,0,0-.9.4A2.1,2.1,0,0,0,1054.5,154Z"/>
        <path class="cls-13" d="M1063,156.2h-1v-2.8a1.2,1.2,0,0,0-.2-.7.9.9,0,0,0-.7-.3,1,1,0,0,0-.9.4,1.7,1.7,0,0,0-.3,1.2v2.2h-.9v-4.5h.7v.6h.1a1,1,0,0,1,.6-.5l.8-.2a1.5,1.5,0,0,1,1.7,1.7Z"/>
      </g>
      <g>
        <path class="cls-5" d="M1034.7,92.9a18.5,18.5,0,0,0-13.7-5.6,19.1,19.1,0,0,0-19.1,19.5,18.9,18.9,0,0,0,5.4,13.1,14.4,14.4,0,0,1,3.8,7.8,4.7,4.7,0,0,0,2,3.1h16.2a4.6,4.6,0,0,0,1.9-3.1,15.1,15.1,0,0,1,3.8-7.8,19.2,19.2,0,0,0-.3-27Zm-3.1,14.4h-2.5a.9.9,0,0,0-1,.8c0,.5.5.7,1,.7h2.5v7.5h-4.5a3.7,3.7,0,0,1-7.4,0h-5.5v-3.7a4.7,4.7,0,0,1-3.5-4.5,4.6,4.6,0,0,1,3.5-4.5v-2.2a2.5,2.5,0,0,1,2.5-2.5h2.2a4.7,4.7,0,0,1,4.5-3.5,4.6,4.6,0,0,1,4.5,3.5h3.7Z"/>
        <path class="cls-6" d="M1029.3,132v2.1a3.4,3.4,0,0,1-2.5,3.2h-11.2a3.3,3.3,0,0,1-2.5-3.3v-2h16.2Z"/>
        <path class="cls-6" d="M1026.5,138.3l-.5,1.9a2.4,2.4,0,0,1-2.3,1.7h-5.1a2.3,2.3,0,0,1-2.2-1.7l-.5-1.9Z"/>
        <path class="cls-5" d="M1021.2,83.3a1.9,1.9,0,0,0,1.9-2V74.4a1.9,1.9,0,0,0-1.9-2,2,2,0,0,0-2,2v6.9A2,2,0,0,0,1021.2,83.3Z"/>
        <path class="cls-5" d="M995.9,104.6H989a1.9,1.9,0,0,0-2,1.9,2,2,0,0,0,2,2h6.9a2,2,0,1,0,0-3.9Z"/>
        <path class="cls-5" d="M1053.3,104.6h-6.9a1.9,1.9,0,0,0-2,1.9,2,2,0,0,0,2,2h6.9a2,2,0,1,0,0-3.9Z"/>
        <path class="cls-5" d="M1039,90.7a2,2,0,0,0,1.4-.6l4.9-4.9a2,2,0,1,0-2.8-2.8l-4.9,4.9a1.9,1.9,0,0,0,0,2.8A2,2,0,0,0,1039,90.7Z"/>
        <path class="cls-5" d="M1001.9,90.1a1.9,1.9,0,0,0,2.8,0,1.9,1.9,0,0,0,0-2.8l-4.9-4.9a1.9,1.9,0,0,0-2.8,0,2.1,2.1,0,0,0,0,2.8Z"/>
        <path class="cls-6" d="M1016.2,110.8v3.5h5a.5.5,0,0,1,.5.5v1a1.7,1.7,0,1,0,3.4,0v-1a.5.5,0,0,1,.5-.5h4v-3.5h-.5a2.8,2.8,0,1,1,0-5.5h.5v-4.4h-3.5v-.5a2.7,2.7,0,1,0-5.4,0v.5h-4a.5.5,0,0,0-.5.5v3.9h-.5a2.8,2.8,0,1,0,0,5.5Z"/>
      </g>
      <g>
        <path class="cls-13" d="M1174.3,119.3a3.2,3.2,0,0,1-.8,2.3,3.6,3.6,0,0,1-2.4.8h-1.7v-6.1h1.9a2.8,2.8,0,0,1,3,3Zm-1,0a1.8,1.8,0,0,0-2-2.1h-.9v4.3h.7A2,2,0,0,0,1173.3,119.3Z"/>
        <path class="cls-13" d="M1178.4,122.4l-.2-.7h-.1a1.7,1.7,0,0,1-.6.6h-.9a1.5,1.5,0,0,1-1-.3,1.5,1.5,0,0,1,.1-2.1,3.4,3.4,0,0,1,1.6-.4h.8v-.3a.7.7,0,0,0-.9-.8h-.6l-.6.2-.4-.7.9-.3h.8a2.2,2.2,0,0,1,1.3.4,1.6,1.6,0,0,1,.4,1.2v3.1Zm-1.5-.7a1.4,1.4,0,0,0,.9-.3,1.1,1.1,0,0,0,.3-.8v-.4h-.6a2.2,2.2,0,0,0-1,.2.9.9,0,0,0-.3.7c0,.2,0,.3.2.4Z"/>
        <path class="cls-13" d="M1182.1,121.7h.7v.7h-.9c-1,0-1.4-.4-1.4-1.4v-2.5h-.6v-.4l.6-.3.4-1h.6v1h1.3v.7h-1.3V121a.7.7,0,0,0,.1.5Z"/>
        <path class="cls-13" d="M1186.6,122.4l-.2-.7h-.1a1.7,1.7,0,0,1-.6.6h-.9a1.5,1.5,0,0,1-1-.3,1.5,1.5,0,0,1,.1-2.1,3.4,3.4,0,0,1,1.6-.4h.8v-.3a.8.8,0,0,0-.2-.6c-.1-.2-.4-.2-.6-.2h-.7l-.6.2-.3-.7.8-.3h.8a2.2,2.2,0,0,1,1.3.4,1.7,1.7,0,0,1,.5,1.2v3.1Zm-1.5-.7a1.2,1.2,0,0,0,.9-.3,1.1,1.1,0,0,0,.3-.8v-.4h-.6a2.2,2.2,0,0,0-1,.2.9.9,0,0,0-.3.7.5.5,0,0,0,.2.4Z"/>
        <path class="cls-13" d="M1195.8,119.3a3.2,3.2,0,0,1-.8,2.3,3.6,3.6,0,0,1-2.4.8h-1.7v-6.1h1.9a2.8,2.8,0,0,1,3,3Zm-1,0a1.9,1.9,0,0,0-2.1-2.1h-.8v4.3h.7A2,2,0,0,0,1194.8,119.3Z"/>
        <path class="cls-13" d="M1196.9,116.6a.5.5,0,0,1,.2-.4h.8c.1.1.1.2.1.4s0,.3-.1.4h-.8A.5.5,0,0,1,1196.9,116.6Zm1.1,5.8h-1v-4.6h1Z"/>
        <path class="cls-13" d="M1201.2,122.4a2.1,2.1,0,0,1-1.6-.6,2.2,2.2,0,0,1-.5-1.7,3.2,3.2,0,0,1,.5-1.8,2.2,2.2,0,0,1,1.7-.6,3.1,3.1,0,0,1,1.3.3l-.3.8-1.1-.3c-.7,0-1.1.6-1.1,1.6a2.1,2.1,0,0,0,.3,1.2,1,1,0,0,0,.8.3,2.1,2.1,0,0,0,1.2-.3v.9l-.5.2Z"/>
        <path class="cls-13" d="M1205.2,121.7h.7v.7h-.9a1.2,1.2,0,0,1-1.4-1.4v-2.5h-.6v-.4l.6-.3.4-1h.6v1h1.3v.7h-1.3V121c0,.2,0,.4.2.5A.5.5,0,0,0,1205.2,121.7Z"/>
        <path class="cls-13" d="M1206.8,116.6c0-.2,0-.3.1-.4h.8a.5.5,0,0,1,0,.8h-.8C1206.8,116.9,1206.8,116.8,1206.8,116.6Zm1,5.8h-1v-4.6h1Z"/>
        <path class="cls-13" d="M1213.2,120.1a2.4,2.4,0,0,1-.6,1.7,1.9,1.9,0,0,1-1.5.6,2.3,2.3,0,0,1-1.2-.2,1.6,1.6,0,0,1-.7-.9,2.1,2.1,0,0,1-.3-1.2,2.6,2.6,0,0,1,.6-1.8,2.1,2.1,0,0,1,1.6-.6,1.7,1.7,0,0,1,1.5.7A2.4,2.4,0,0,1,1213.2,120.1Zm-3.3,0c0,1,.4,1.6,1.2,1.6s1.1-.6,1.1-1.6-.4-1.6-1.1-1.6a1.3,1.3,0,0,0-.9.4A2.1,2.1,0,0,0,1209.9,120.1Z"/>
        <path class="cls-13" d="M1218.3,122.4h-.9v-2.8a1.5,1.5,0,0,0-.2-.8.9.9,0,0,0-.7-.3,1,1,0,0,0-.9.4,1.7,1.7,0,0,0-.3,1.2v2.3h-1v-4.6h.8v.6h.1a1,1,0,0,1,.6-.5l.8-.2c1.1,0,1.6.6,1.6,1.7Z"/>
        <path class="cls-13" d="M1222.5,122.4l-.2-.7h0a1.3,1.3,0,0,1-.7.6h-.8a1.8,1.8,0,0,1-1.1-.3,1.7,1.7,0,0,1-.3-1c0-.5.1-.9.5-1.1a3.1,3.1,0,0,1,1.6-.4h.8v-.3a.7.7,0,0,0-.9-.8h-.6l-.7.2-.3-.7.8-.3h.9a2.2,2.2,0,0,1,1.3.4,1.6,1.6,0,0,1,.4,1.2v3.1Zm-1.4-.7a1.1,1.1,0,0,0,.8-.3.9.9,0,0,0,.4-.8v-.4h-.6a2.2,2.2,0,0,0-1,.2.9.9,0,0,0-.3.7c0,.2,0,.3.2.4Z"/>
        <path class="cls-13" d="M1226.9,117.7h.5v.9h-.5a1.1,1.1,0,0,0-.9.4,1.8,1.8,0,0,0-.4,1v2.4h-.9v-4.6h.7l.2.8h0l.6-.6A1.1,1.1,0,0,1,1226.9,117.7Z"/>
        <path class="cls-13" d="M1227.5,117.8h1.1l.9,2.6.3,1h0a1.7,1.7,0,0,1,.2-.5c0-.2.4-1.3,1-3.1h1l-1.9,5.2c-.4.9-.9,1.4-1.8,1.4h-.6v-.7h.5a1.1,1.1,0,0,0,1-.8l.2-.4Z"/>
      </g>
      <g>
        <g>
          <path class="cls-6" d="M1194.5,57.9h-2.6a1.3,1.3,0,0,0-1.3,1.3v40a1.3,1.3,0,0,0,1.3,1.4h2.6Z"/>
          <path class="cls-6" d="M1225.6,57.9h-4.2V70.7l-2.6-3.3-2.7,3.3V57.9h-18.4v42.7h27.9a1.4,1.4,0,0,0,1.4-1.4v-40A1.3,1.3,0,0,0,1225.6,57.9Z"/>
        </g>
        <rect class="cls-2" x="1180.7" y="67.8" width="26.9" height="38.8"/>
        <g>
          <g>
            <rect class="cls-5" x="1177.2" y="73.6" width="3.5" height="4.46"/>
            <path class="cls-5" d="M1173.7,70.6v10h31.7v-10Zm8.2,8.6H1176V72.4h5.9Zm19.3-1.1h-16.7a.6.6,0,0,1-.6-.6.6.6,0,0,1,.6-.6h16.7a.6.6,0,0,1,.6.6A.6.6,0,0,1,1201.2,78.1Zm0-3.7h-16.7a.6.6,0,0,1,0-1.2h16.7a.6.6,0,1,1,0,1.2Z"/>
          </g>
          <g>
            <rect class="cls-5" x="1177.2" y="99.5" width="3.5" height="4.46"/>
            <path class="cls-5" d="M1173.7,96.6v10h31.7v-10Zm8.2,8.6H1176V98.4h5.9Zm19.3-1.2h-16.7a.6.6,0,0,1-.6-.6.6.6,0,0,1,.6-.6h16.7a.6.6,0,0,1,.6.6A.6.6,0,0,1,1201.2,104Zm0-3.6h-16.7a.6.6,0,0,1-.6-.6.6.6,0,0,1,.6-.6h16.7a.6.6,0,0,1,.6.6A.6.6,0,0,1,1201.2,100.4Z"/>
          </g>
          <g>
            <rect class="cls-5" x="1177.2" y="86.4" width="3.5" height="4.46"/>
            <path class="cls-5" d="M1173.7,83.4V93.5h31.7V83.4Zm8.2,8.6H1176V85.2h5.9Zm19.3-1.1h-16.7a.6.6,0,0,1,0-1.2h16.7a.6.6,0,1,1,0,1.2Zm0-3.7h-16.7a.6.6,0,0,1,0-1.2h16.7a.6.6,0,1,1,0,1.2Z"/>
          </g>
        </g>
      </g>
      <g>
        <path class="cls-13" d="M1301.8,198h1.8a3,3,0,0,1,1.8.4c.4.2.5.6.5,1.1s0,.7-.2.9a1.2,1.2,0,0,1-.8.4h0a1.9,1.9,0,0,1,.9.4,1.7,1.7,0,0,1,.3,1,1.9,1.9,0,0,1-.5,1.3,2.7,2.7,0,0,1-1.6.4h-2.2Zm1,2.5h.9l.9-.2a.8.8,0,0,0,.3-.7.6.6,0,0,0-.3-.6l-1-.2h-.8Zm0,.8v1.9h1l1-.2a1,1,0,0,0,.3-.8.9.9,0,0,0-.3-.7l-1-.2Z"/>
        <path class="cls-13" d="M1310.5,204l-.2-.6h0a1,1,0,0,1-.6.5l-.8.2a1.7,1.7,0,0,1-1.3-.4,2.1,2.1,0,0,1-.4-1.2v-3h1v2.8a1.9,1.9,0,0,0,.2.8l.7.2a1.2,1.2,0,0,0,.9-.3,2.3,2.3,0,0,0,.3-1.3v-2.2h.9V204Z"/>
        <path class="cls-13" d="M1315.7,202.7a1.4,1.4,0,0,1-.5,1.1,2.6,2.6,0,0,1-1.4.3,3.3,3.3,0,0,1-1.5-.3V203a5.6,5.6,0,0,0,1.5.4q.9,0,.9-.6a.4.4,0,0,0-.1-.3l-.3-.2-.6-.3-1.1-.6a1.1,1.1,0,0,1-.3-.8,1.1,1.1,0,0,1,.5-.9,2.3,2.3,0,0,1,1.3-.3l1.5.3-.3.7-1.2-.3c-.6,0-.8.2-.8.5l.2.3a1.9,1.9,0,0,0,.9.4l.8.4.4.5A4.3,4.3,0,0,1,1315.7,202.7Z"/>
        <path class="cls-13" d="M1316.7,198.3c0-.2,0-.3.1-.4a.6.6,0,0,1,1,.4.8.8,0,0,1-.2.4h-.8A.6.6,0,0,1,1316.7,198.3Zm1,5.7h-1v-4.5h1Z"/>
        <path class="cls-13" d="M1323.1,204h-1v-2.8a1.9,1.9,0,0,0-.2-.8l-.7-.2a1.2,1.2,0,0,0-.9.3,2.3,2.3,0,0,0-.3,1.3V204h-.9v-4.5h.7l.2.6h0l.6-.5a1.2,1.2,0,0,1,.8-.2,1.5,1.5,0,0,1,1.7,1.7Z"/>
        <path class="cls-13" d="M1326.4,204.1a2.1,2.1,0,0,1-1.6-.6,2.4,2.4,0,0,1-.6-1.7,2.6,2.6,0,0,1,.5-1.8,2,2,0,0,1,1.5-.6,1.8,1.8,0,0,1,2,2v.6h-3a1.1,1.1,0,0,0,1.3,1.3h.7l.8-.3v.8l-.7.2Zm-.2-4a.9.9,0,0,0-.7.3,1.2,1.2,0,0,0-.3.9h2a2,2,0,0,0-.2-.9A1,1,0,0,0,1326.2,200.1Z"/>
        <path class="cls-13" d="M1332.4,202.7a1.4,1.4,0,0,1-.5,1.1,2.9,2.9,0,0,1-1.4.3,3.3,3.3,0,0,1-1.5-.3V203a4.8,4.8,0,0,0,1.5.4q.9,0,.9-.6a.4.4,0,0,0-.1-.3l-.3-.2-.7-.3a2.9,2.9,0,0,1-1-.6,1.1,1.1,0,0,1-.3-.8,1.1,1.1,0,0,1,.5-.9,2.3,2.3,0,0,1,1.3-.3l1.5.3-.3.7-1.3-.3c-.5,0-.7.2-.7.5s0,.2.2.3a1.9,1.9,0,0,0,.8.4l.9.4.3.5A.8.8,0,0,1,1332.4,202.7Z"/>
        <path class="cls-13" d="M1336.5,202.7a1.4,1.4,0,0,1-.5,1.1,2.6,2.6,0,0,1-1.4.3,3.3,3.3,0,0,1-1.5-.3V203a5.6,5.6,0,0,0,1.5.4q.9,0,.9-.6a.4.4,0,0,0-.1-.3l-.3-.2-.6-.3a2.7,2.7,0,0,1-1.1-.6,1.1,1.1,0,0,1-.3-.8,1.1,1.1,0,0,1,.5-.9,2.3,2.3,0,0,1,1.3-.3l1.5.3-.3.7-1.3-.3c-.5,0-.7.2-.7.5s0,.2.2.3l.8.4.9.4c.1.2.3.3.3.5A.8.8,0,0,1,1336.5,202.7Z"/>
        <path class="cls-13" d="M1343.5,204l-.6-1.6h-2.3l-.6,1.6h-1l2.3-6h1l2.3,6Zm-.8-2.5-.6-1.6-.2-.6a4.3,4.3,0,0,0-.1-.5l-.3,1.1-.6,1.6Z"/>
        <path class="cls-13" d="M1349.3,204h-1v-2.8a1.9,1.9,0,0,0-.2-.8l-.7-.2a1.2,1.2,0,0,0-.9.3,2.3,2.3,0,0,0-.3,1.3V204h-.9v-4.5h.7l.2.6h0l.6-.5a1.2,1.2,0,0,1,.8-.2,1.5,1.5,0,0,1,1.7,1.7Z"/>
        <path class="cls-13" d="M1353.5,204l-.2-.6h0l-.7.6h-.9a1.2,1.2,0,0,1-1-.4,1.1,1.1,0,0,1-.4-1,1.2,1.2,0,0,1,.5-1,2.5,2.5,0,0,1,1.6-.4h.8V201a1.4,1.4,0,0,0-.2-.7l-.6-.2h-.7l-.6.3-.3-.7.8-.3h.8a1.7,1.7,0,0,1,1.3.4,1.4,1.4,0,0,1,.5,1.2v3Zm-1.5-.6a1.1,1.1,0,0,0,1.2-1.2v-.3h-.6l-1,.2a.7.7,0,0,0-.3.6.8.8,0,0,0,.2.5Z"/>
        <path class="cls-13" d="M1356.5,204h-1v-6.4h1Z"/>
        <path class="cls-13" d="M1357.2,199.5h1l1,2.6a3.6,3.6,0,0,1,.2,1h.1a1.5,1.5,0,0,1,.1-.6c.1-.2.4-1.2,1.1-3h1l-1.9,5.1q-.6,1.5-1.8,1.5h-.6v-.8h.5a.9.9,0,0,0,.9-.8l.2-.5Z"/>
        <path class="cls-13" d="M1365.5,202.7a1.4,1.4,0,0,1-.5,1.1,2.9,2.9,0,0,1-1.4.3,3.3,3.3,0,0,1-1.5-.3V203a5.6,5.6,0,0,0,1.5.4q.9,0,.9-.6a.4.4,0,0,0-.1-.3l-.3-.2-.6-.3a2.7,2.7,0,0,1-1.1-.6,1.1,1.1,0,0,1-.3-.8,1.1,1.1,0,0,1,.5-.9,2.3,2.3,0,0,1,1.3-.3l1.5.3-.3.7-1.3-.3c-.5,0-.7.2-.7.5s0,.2.2.3l.8.4.9.4c.1.2.3.3.3.5A.8.8,0,0,1,1365.5,202.7Z"/>
        <path class="cls-13" d="M1366.4,198.3a.6.6,0,0,1,1-.4c.1.1.1.2.1.4a.6.6,0,0,1-.1.4h-.8Zm1.1,5.7h-1v-4.5h1Z"/>
        <path class="cls-13" d="M1371.9,202.7a1.2,1.2,0,0,1-.5,1.1,3.4,3.4,0,0,1-2.8,0V203a4.2,4.2,0,0,0,1.5.4q.9,0,.9-.6c0-.1-.1-.2-.1-.3l-.4-.2-.6-.3-1.1-.6a1.9,1.9,0,0,1-.2-.8,1,1,0,0,1,.4-.9,2.8,2.8,0,0,1,1.3-.3,3.3,3.3,0,0,1,1.5.3l-.3.7-1.2-.3c-.5,0-.8.2-.8.5l.2.3a2.6,2.6,0,0,0,.9.4l.8.4.4.5A.7.7,0,0,1,1371.9,202.7Z"/>
      </g>
      <g>
        <path class="cls-5" d="M1344.7,179.7H1341v3.4a1.5,1.5,0,0,1-1.4,1.6,1.6,1.6,0,0,1-1.5-1.6v-3.4h-19.2v3.4a1.6,1.6,0,0,1-1.5,1.6,1.5,1.5,0,0,1-1.4-1.6v-3.4h-3.7a10.1,10.1,0,0,1-4.6-1.1v5.8a4.8,4.8,0,0,0,4.6,5h32.4a4.8,4.8,0,0,0,4.7-5v-5.8A10.5,10.5,0,0,1,1344.7,179.7Z"/>
        <path class="cls-6" d="M1344.7,157h-7.6l-.4-4.1a5,5,0,0,0-4.7-4.4h-7a4.9,4.9,0,0,0-4.6,4.4l-.5,4.1h-7.6a4.8,4.8,0,0,0-4.6,5v12.8a7.1,7.1,0,0,0,4.6,1.7h3.7v-7.1a1.5,1.5,0,0,1,1.4-1.6,1.6,1.6,0,0,1,1.5,1.6v7.1h19.2v-7.1a1.6,1.6,0,0,1,1.5-1.6,1.5,1.5,0,0,1,1.4,1.6v7.1h3.7a7.1,7.1,0,0,0,4.7-1.7V162A4.8,4.8,0,0,0,1344.7,157Zm-21.6-5a.8.8,0,0,1,.7-.7h9.4a.8.8,0,0,1,.7.7l.6,5h-11.9Z"/>
        <rect class="cls-2" x="1341.6" y="153" width="8.4" height="12.61"/>
        <g>
          <rect class="cls-5" x="1343.1" y="157.3" width="3.1" height="6.91"/>
          <rect class="cls-5" x="1349.1" y="152.6" width="3.1" height="11.62"/>
          <rect class="cls-5" x="1355" y="147.8" width="3.1" height="16.41"/>
          <rect class="cls-5" x="1361" y="143.9" width="3.1" height="20.26"/>
        </g>
        <polygon class="cls-5" points="1365.6 144.3 1359.5 144.3 1362.5 141.3 1365.6 144.3"/>
      </g>
      <g>
        <g>
          <path class="cls-13" d="M909.9,322.1a1.6,1.6,0,0,1-.7,1.5,2.9,2.9,0,0,1-1.7.5h-.6v2.2h-1v-6h1.7a2.6,2.6,0,0,1,1.7.5A1.5,1.5,0,0,1,909.9,322.1Zm-3,1.2h.5a1.6,1.6,0,0,0,1.1-.3,1.2,1.2,0,0,0,.4-.8,1,1,0,0,0-.4-.8,1.3,1.3,0,0,0-1-.3h-.6Z"/>
          <path class="cls-13" d="M911.9,326.3H911v-6.4h.9Z"/>
          <path class="cls-13" d="M916.2,326.3l-.2-.6h-.1a1.7,1.7,0,0,1-.6.6h-.9a1.5,1.5,0,0,1-1-.3,1.4,1.4,0,0,1-.4-1.1,1.2,1.2,0,0,1,.5-1,2.5,2.5,0,0,1,1.6-.4h.8v-.3a.8.8,0,0,0-.2-.6.7.7,0,0,0-.6-.3h-.7l-.6.3-.3-.7.8-.3h.8a1.7,1.7,0,0,1,1.3.4,1.4,1.4,0,0,1,.5,1.2v3Zm-1.5-.6a1.2,1.2,0,0,0,.9-.3,1.1,1.1,0,0,0,.3-.8v-.4h-.6l-1,.2a.9.9,0,0,0-.3.6.8.8,0,0,0,.2.5Z"/>
          <path class="cls-13" d="M922.2,326.3h-1v-2.8c0-.3,0-.6-.2-.7a.6.6,0,0,0-.6-.3c-.5,0-.7.1-.9.4a1.7,1.7,0,0,0-.3,1.2v2.2h-1v-4.5h.8v.6h.1a1.2,1.2,0,0,1,.5-.5l.9-.2c1.1,0,1.6.6,1.6,1.7Z"/>
          <path class="cls-13" d="M927.6,326.3h-1v-2.8a1.2,1.2,0,0,0-.2-.7.9.9,0,0,0-.7-.3,1,1,0,0,0-.9.4,1.7,1.7,0,0,0-.3,1.2v2.2h-.9v-4.5h.7l.2.6h0a1,1,0,0,1,.6-.5l.8-.2a1.5,1.5,0,0,1,1.7,1.7Z"/>
          <path class="cls-13" d="M928.9,320.6c0-.2,0-.3.1-.4l.4-.2a.5.5,0,0,1,.4.2c.1.1.1.2.1.4a.6.6,0,0,1-.1.4H929A.6.6,0,0,1,928.9,320.6Zm1,5.7h-1v-4.5h1Z"/>
          <path class="cls-13" d="M935.3,326.3h-1v-2.8a1.2,1.2,0,0,0-.2-.7.8.8,0,0,0-.7-.3,1,1,0,0,0-.9.4,1.7,1.7,0,0,0-.3,1.2v2.2h-.9v-4.5h.7l.2.6h0a1,1,0,0,1,.6-.5l.8-.2a1.5,1.5,0,0,1,1.7,1.7Z"/>
          <path class="cls-13" d="M940.5,321.8v.5l-.8.2.2.3v.5a1.5,1.5,0,0,1-.4,1.1,2.9,2.9,0,0,1-1.4.4h-.4c-.2.2-.3.3-.3.5a.2.2,0,0,0,.2.2c0,.1.2.1.5.1h.8a1.6,1.6,0,0,1,1.1.3,1.1,1.1,0,0,1,.4,1,1.1,1.1,0,0,1-.6,1.1,3.3,3.3,0,0,1-1.9.5,2,2,0,0,1-1.4-.4,1.1,1.1,0,0,1-.5-.9.9.9,0,0,1,.3-.7l.7-.4c-.1-.1-.2-.1-.3-.3s-.1-.2-.1-.4a.6.6,0,0,1,.1-.4l.5-.3a1,1,0,0,1-.6-.5,1.2,1.2,0,0,1-.2-.8,1.6,1.6,0,0,1,.4-1.2,2,2,0,0,1,1.4-.4h2.3Zm-3.6,5.3c0,.2.1.3.3.4l.8.2,1.1-.2a.7.7,0,0,0,.4-.6c0-.2,0-.4-.2-.4l-.8-.2h-.7l-.7.2A1.1,1.1,0,0,0,936.9,327.1Zm.4-3.8a1.1,1.1,0,0,0,.2.6.9.9,0,0,0,.7.3c.5,0,.8-.3.8-.9a1.2,1.2,0,0,0-.2-.7.7.7,0,0,0-.6-.3.9.9,0,0,0-.7.3A1.2,1.2,0,0,0,937.3,323.3Z"/>
          <path class="cls-13" d="M946.4,326.3l-.2-.6h-.1a1.7,1.7,0,0,1-.6.6h-.9a1.5,1.5,0,0,1-1-.3,1.4,1.4,0,0,1-.4-1.1,1.2,1.2,0,0,1,.5-1,2.5,2.5,0,0,1,1.6-.4h.8v-.3a.8.8,0,0,0-.2-.6.9.9,0,0,0-.6-.3h-.7l-.6.3-.3-.7.8-.3h.8a1.7,1.7,0,0,1,1.3.4c.3.2.4.6.4,1.2v3Zm-1.5-.6a1.4,1.4,0,0,0,.9-.3,1.1,1.1,0,0,0,.3-.8v-.4h-.6l-1,.2a.9.9,0,0,0-.3.6.8.8,0,0,0,.2.5Z"/>
          <path class="cls-13" d="M952.4,326.3h-1v-2.8c0-.3,0-.6-.2-.7s-.3-.3-.7-.3-.7.1-.8.4a1.7,1.7,0,0,0-.3,1.2v2.2h-1v-4.5h.8v.6h0l.6-.5.9-.2c1.1,0,1.6.6,1.6,1.7Z"/>
          <path class="cls-13" d="M955.3,326.4a1.5,1.5,0,0,1-1.3-.6,2.3,2.3,0,0,1-.5-1.7,2.4,2.4,0,0,1,.5-1.8,1.5,1.5,0,0,1,1.3-.6,1.5,1.5,0,0,1,1.4.7h0v-2.5h.9v6.4h-.7l-.2-.6h0A1.6,1.6,0,0,1,955.3,326.4Zm.2-.8a1.2,1.2,0,0,0,.9-.3,1.6,1.6,0,0,0,.3-1.1h0a1.7,1.7,0,0,0-.3-1.2,1,1,0,0,0-.9-.4.7.7,0,0,0-.7.4,2.1,2.1,0,0,0-.3,1.2,2.7,2.7,0,0,0,.2,1.1A.9.9,0,0,0,955.5,325.6Z"/>
          <path class="cls-13" d="M912.5,336.5l-1.7-5.1h-.1a16.2,16.2,0,0,1,.1,2.1v3h-.9v-6.1h1.4l1.7,4.8h0l1.7-4.8h1.4v6.1h-.9v-5.1h0l-1.8,5.1Z"/>
          <path class="cls-13" d="M921.6,334.2a2.3,2.3,0,0,1-.5,1.7,2.1,2.1,0,0,1-1.6.6,2.5,2.5,0,0,1-1.2-.2,2.2,2.2,0,0,1-.7-.9,2.1,2.1,0,0,1-.3-1.2,2.6,2.6,0,0,1,.6-1.8,2.1,2.1,0,0,1,1.6-.6,1.9,1.9,0,0,1,1.6.7A2.3,2.3,0,0,1,921.6,334.2Zm-3.3,0c0,1,.4,1.6,1.2,1.6s1.1-.6,1.1-1.6-.3-1.6-1.1-1.6a1.3,1.3,0,0,0-.9.4A2.1,2.1,0,0,0,918.3,334.2Z"/>
          <path class="cls-13" d="M926.8,336.5h-1v-2.8a1.5,1.5,0,0,0-.2-.8.9.9,0,0,0-.7-.3,1,1,0,0,0-.9.4,1.7,1.7,0,0,0-.3,1.2v2.3h-.9v-4.6h.7v.6h.1a1,1,0,0,1,.6-.5l.8-.2a1.5,1.5,0,0,1,1.7,1.7Z"/>
          <path class="cls-13" d="M928.1,330.7c0-.2,0-.3.1-.4h.8c.1.1.1.2.1.4s0,.3-.1.4h-.8C928.1,331,928.1,330.9,928.1,330.7Zm1,5.8h-1v-4.6h1Z"/>
          <path class="cls-13" d="M932.2,335.8h.7v.7h-1c-.9,0-1.3-.4-1.3-1.4v-2.5h-.7v-.4l.7-.3.3-1h.6v1h1.3v.7h-1.3v2.5a.8.8,0,0,0,.2.5Z"/>
          <path class="cls-13" d="M937.8,334.2a2.4,2.4,0,0,1-.6,1.7,1.9,1.9,0,0,1-1.5.6,2.2,2.2,0,0,1-1.2-.2,1.6,1.6,0,0,1-.7-.9,2.1,2.1,0,0,1-.3-1.2,2.6,2.6,0,0,1,.6-1.8,2.1,2.1,0,0,1,1.6-.6,1.7,1.7,0,0,1,1.5.7A2.4,2.4,0,0,1,937.8,334.2Zm-3.3,0c0,1,.4,1.6,1.2,1.6s1.1-.6,1.1-1.6-.4-1.6-1.1-1.6a1.3,1.3,0,0,0-.9.4A2.1,2.1,0,0,0,934.5,334.2Z"/>
          <path class="cls-13" d="M941.2,331.8h.5v.9h-.4a1,1,0,0,0-.9.4,1.3,1.3,0,0,0-.4,1v2.4h-1v-4.6h.8v.8h.1a.9.9,0,0,1,.6-.6A1.1,1.1,0,0,1,941.2,331.8Z"/>
          <path class="cls-13" d="M942.5,330.7a.5.5,0,0,1,.2-.4c0-.1.2-.1.4-.1h.4c0,.1.1.2.1.4s-.1.3-.1.4h-.8A.5.5,0,0,1,942.5,330.7Zm1,5.8h-.9v-4.6h.9Z"/>
          <path class="cls-13" d="M948.9,336.5H948v-2.8a1,1,0,0,0-.3-.8.6.6,0,0,0-.6-.3,1,1,0,0,0-.9.4,1.7,1.7,0,0,0-.3,1.2v2.3h-1v-4.6h.8v.6h.1l.5-.5.9-.2c1.1,0,1.6.6,1.6,1.7Z"/>
          <path class="cls-13" d="M954.1,331.9v.5l-.8.2.2.3a.9.9,0,0,1,.1.5,1.4,1.4,0,0,1-.5,1.1,1.8,1.8,0,0,1-1.3.4h-.4c-.2.1-.3.2-.3.4a.4.4,0,0,0,.1.3h1.3a2.1,2.1,0,0,1,1.2.3,1.8,1.8,0,0,1,.4,1,1.3,1.3,0,0,1-.7,1.2,3,3,0,0,1-1.8.4,2.6,2.6,0,0,1-1.4-.3,1.1,1.1,0,0,1-.5-1,1.4,1.4,0,0,1,.2-.7l.8-.4c-.1,0-.3-.1-.3-.2s-.2-.3-.2-.4.1-.3.2-.5l.4-.3-.6-.5a1.9,1.9,0,0,1-.2-.8,1.7,1.7,0,0,1,.5-1.2,2.2,2.2,0,0,1,1.3-.4h2.3Zm-3.6,5.3c0,.2.1.3.3.5h.8l1.2-.2a.7.7,0,0,0,.4-.6.5.5,0,0,0-.2-.4,1.5,1.5,0,0,0-.8-.2h-.8l-.6.2A.9.9,0,0,0,950.5,337.2Zm.5-3.8c0,.3,0,.5.2.6a.6.6,0,0,0,.6.3c.6,0,.8-.3.8-.9s0-.6-.2-.7a.7.7,0,0,0-1.2,0C951,332.8,951,333.1,951,333.4Z"/>
        </g>
        <g>
          <path class="cls-6" d="M942.7,260.4h-22v-3.8a.7.7,0,0,1,.7-.7h5.7a1,1,0,0,0,1-1V254a3.9,3.9,0,0,1,1.1-2.7,3.7,3.7,0,0,1,6.1,2.9v.7a1,1,0,0,0,1,1H942a.7.7,0,0,1,.7.7Z"/>
          <path class="cls-5" d="M922.5,295a1.8,1.8,0,1,0,1.8,1.8A1.8,1.8,0,0,0,922.5,295Zm0,0a1.8,1.8,0,1,0,1.8,1.8A1.8,1.8,0,0,0,922.5,295Zm22.2-35.4v1.8a1,1,0,0,1-1,1h-24a1,1,0,0,1-1-1v-1.8h-6.3v51.6H951V259.6Zm-16.2,11.7a1,1,0,0,1,1.4-1.4l1.4,1.5,1.5-1.5a.9.9,0,0,1,1.3,0,1,1,0,0,1,0,1.4l-1.4,1.5,1.4,1.4a1,1,0,0,1,0,1.4.7.7,0,0,1-.6.3.9.9,0,0,1-.7-.3l-1.5-1.5-1.4,1.5a1.1,1.1,0,0,1-.7.3.9.9,0,0,1-.7-.3,1,1,0,0,1,0-1.4l1.4-1.4Zm-9.4,9.8a1,1,0,1,1,1.4-1.4l1.6,1.5,1.5-1.5a1,1,0,0,1,1.4,1.4l-1.5,1.5,1.5,1.6a1,1,0,0,1,0,1.4.9.9,0,0,1-.7.3,1.1,1.1,0,0,1-.7-.3l-1.5-1.6-1.6,1.6a.9.9,0,0,1-.7.3,1.1,1.1,0,0,1-.7-.3,1,1,0,0,1,0-1.4l1.6-1.6Zm23.8,19.3a1.2,1.2,0,0,1,0,1.4,1.1,1.1,0,0,1-.7.3.9.9,0,0,1-.7-.3l-1.6-1.6-1.6,1.6a.9.9,0,0,1-.7.3,1.1,1.1,0,0,1-.7-.3,1.2,1.2,0,0,1,0-1.4l1.6-1.6-1.6-1.6a1.1,1.1,0,0,1,0-1.3,1,1,0,0,1,1.4,0l1.6,1.5,1.6-1.5a1,1,0,0,1,1.4,0,1.1,1.1,0,0,1,0,1.3l-1.6,1.6Zm1.5-17.5a1.1,1.1,0,0,1-1.4-.1l-1.6-1.5c-.4,4.3-2.8,13.4-15.2,15.8a3.6,3.6,0,0,1-3.7,3.4,3.7,3.7,0,0,1-3.8-3.7,3.8,3.8,0,0,1,3.8-3.8,3.7,3.7,0,0,1,3.3,2.1c11-2,13.3-9.7,13.7-13.7l-1.5,1.5a.9.9,0,0,1-.7.3,1.1,1.1,0,0,1-.7-.3,1.2,1.2,0,0,1,0-1.4l3.2-3.3h.2c.1,0,.1,0,.1-.1h.4c.1,0,.1,0,.1.1a.9.9,0,0,1,.7.3l3.1,3.2A1,1,0,0,1,944.4,282.9ZM922.5,295a1.8,1.8,0,1,0,1.8,1.8A1.8,1.8,0,0,0,922.5,295Z"/>
        </g>
      </g>
      <path class="cls-14" d="M1042.8,439.7A157.3,157.3,0,0,1,998.3,330c0-86.9,70.4-157.4,157.3-157.4a156.5,156.5,0,0,1,111,45.9"/>
      <g>
        <line class="cls-14" x1="1002.4" y1="297.9" x2="972.8" y2="289.2"/>
        <circle class="cls-15" cx="972.8" cy="289.2" r="5.9"/>
      </g>
      <g>
        <line class="cls-14" x1="1075.4" y1="193.4" x2="1058.4" y2="167.8"/>
        <circle class="cls-15" cx="1058.4" cy="167.8" r="5.9"/>
      </g>
      <g>
        <line class="cls-14" x1="1190.3" y1="172" x2="1197.1" y2="141.9"/>
        <circle class="cls-15" cx="1197.1" cy="141.9" r="5.9"/>
      </g>
      <g>
        <line class="cls-14" x1="1261.1" y1="207.7" x2="1281.3" y2="184.5"/>
        <circle class="cls-15" cx="1281.3" cy="184.5" r="5.9"/>
      </g>
    </g>
  </g>
</svg>
