<?xml version="1.0" encoding="utf-8"?>
<!-- Generator: Adobe Illustrator 26.0.2, SVG Export Plug-In . SVG Version: 6.00 Build 0)  -->
<svg version="1.1" id="Layer_1" xmlns="http://www.w3.org/2000/svg" xmlns:xlink="http://www.w3.org/1999/xlink" x="0px" y="0px"
	 viewBox="0 0 1440 510" style="enable-background:new 0 0 1440 510;" xml:space="preserve">
<style type="text/css">
	.st0{fill:#F8FAF7;}
	.st1{fill:#939598;}
	.st2{fill:none;stroke:#D1D3D4;stroke-width:2;stroke-miterlimit:10;}
	.st3{fill:none;stroke:#D1D3D4;stroke-width:2;stroke-miterlimit:10;stroke-dasharray:7.9962,7.9962;}
	.st4{fill:#C2C0FF;}
	.st5{fill:#8886DA;}
	.st6{fill:#D1D3D4;}
	.st7{clip-path:url(#SVGID_00000139998753585010259820000005675970787076353937_);}
	.st8{fill:#FF953F;}
	.st9{fill:#F7B58E;}
	.st10{fill:#FFFFFF;}
	.st11{fill:#A8A8A8;}
	.st12{fill:#EDEDED;}
	.st13{clip-path:url(#SVGID_00000183217832246515451520000000789946822897004707_);}
	.st14{fill:none;stroke:#D1D3D4;stroke-width:2;stroke-miterlimit:10;stroke-dasharray:8.0447,8.0447;}
	.st15{clip-path:url(#SVGID_00000022532959895797666930000013547368453346487998_);}
</style>
<rect class="st0" width="1440" height="510"/>
<g>
	<g>
		<path class="st1" d="M971,323.4h-3.6v-6.4h3.6v0.9h-2.6v1.7h2.4v0.9h-2.4v2h2.6V323.4z"/>
		<path class="st1" d="M974.8,318.5c0.2,0,0.4,0,0.5,0l-0.1,1c-0.1,0-0.3-0.1-0.5-0.1c-0.4,0-0.7,0.1-1,0.4c-0.3,0.3-0.4,0.6-0.4,1
			v2.5h-1v-4.8h0.8l0.1,0.8h0.1c0.2-0.3,0.4-0.5,0.6-0.7C974.2,318.6,974.5,318.5,974.8,318.5z"/>
		<path class="st1" d="M978.6,318.5c0.2,0,0.4,0,0.5,0l-0.1,1c-0.1,0-0.3-0.1-0.5-0.1c-0.4,0-0.7,0.1-1,0.4c-0.3,0.3-0.4,0.6-0.4,1
			v2.5h-1v-4.8h0.8l0.1,0.8h0.1c0.2-0.3,0.4-0.5,0.6-0.7C978,318.6,978.3,318.5,978.6,318.5z"/>
		<path class="st1" d="M984.3,321c0,0.8-0.2,1.4-0.6,1.8s-1,0.7-1.7,0.7c-0.5,0-0.8-0.1-1.2-0.3c-0.3-0.2-0.6-0.5-0.8-0.9
			c-0.2-0.4-0.3-0.8-0.3-1.3c0-0.8,0.2-1.4,0.6-1.8s1-0.7,1.7-0.7c0.7,0,1.2,0.2,1.7,0.7C984.1,319.7,984.3,320.3,984.3,321z
			 M980.8,321c0,1.1,0.4,1.7,1.2,1.7c0.8,0,1.2-0.6,1.2-1.7c0-1.1-0.4-1.6-1.2-1.6c-0.4,0-0.7,0.1-0.9,0.4
			C980.9,320.1,980.8,320.5,980.8,321z"/>
		<path class="st1" d="M987.9,318.5c0.2,0,0.4,0,0.5,0l-0.1,1c-0.1,0-0.3-0.1-0.5-0.1c-0.4,0-0.7,0.1-1,0.4c-0.3,0.3-0.4,0.6-0.4,1
			v2.5h-1v-4.8h0.8l0.1,0.8h0.1c0.2-0.3,0.4-0.5,0.6-0.7C987.3,318.6,987.6,318.5,987.9,318.5z"/>
		<path class="st1" d="M996.9,320.2c0,1.1-0.3,1.9-0.9,2.4c-0.6,0.6-1.4,0.8-2.5,0.8h-1.8v-6.4h2c1,0,1.8,0.3,2.4,0.8
			C996.6,318.4,996.9,319.2,996.9,320.2z M995.8,320.2c0-1.5-0.7-2.3-2.1-2.3h-0.9v4.6h0.7C995,322.6,995.8,321.8,995.8,320.2z"/>
		<path class="st1" d="M1000.2,323.5c-0.7,0-1.3-0.2-1.8-0.7s-0.6-1-0.6-1.8c0-0.8,0.2-1.4,0.6-1.9c0.4-0.4,0.9-0.7,1.6-0.7
			c0.6,0,1.1,0.2,1.5,0.6c0.4,0.4,0.6,0.9,0.6,1.6v0.6h-3.2c0,0.5,0.1,0.8,0.4,1.1c0.2,0.3,0.6,0.4,1,0.4c0.3,0,0.5,0,0.8-0.1
			s0.5-0.1,0.8-0.3v0.8c-0.2,0.1-0.5,0.2-0.8,0.3S1000.6,323.5,1000.2,323.5z M1000,319.3c-0.3,0-0.6,0.1-0.8,0.3
			c-0.2,0.2-0.3,0.5-0.4,0.9h2.2c0-0.4-0.1-0.7-0.3-0.9S1000.4,319.3,1000,319.3z"/>
		<path class="st1" d="M1005.1,322.7c0.2,0,0.5,0,0.7-0.1v0.8c-0.1,0-0.3,0.1-0.4,0.1c-0.2,0-0.4,0-0.6,0c-1,0-1.5-0.5-1.5-1.5v-2.6
			h-0.7V319l0.7-0.4l0.3-1h0.6v1.1h1.4v0.8h-1.4v2.6c0,0.2,0.1,0.4,0.2,0.5C1004.7,322.6,1004.9,322.7,1005.1,322.7z"/>
		<path class="st1" d="M1008.9,323.5c-0.7,0-1.3-0.2-1.8-0.7s-0.6-1-0.6-1.8c0-0.8,0.2-1.4,0.6-1.9c0.4-0.4,0.9-0.7,1.6-0.7
			c0.6,0,1.1,0.2,1.5,0.6c0.4,0.4,0.6,0.9,0.6,1.6v0.6h-3.2c0,0.5,0.1,0.8,0.4,1.1c0.2,0.3,0.6,0.4,1,0.4c0.3,0,0.5,0,0.8-0.1
			s0.5-0.1,0.8-0.3v0.8c-0.2,0.1-0.5,0.2-0.8,0.3S1009.2,323.5,1008.9,323.5z M1008.7,319.3c-0.3,0-0.6,0.1-0.8,0.3
			c-0.2,0.2-0.3,0.5-0.4,0.9h2.2c0-0.4-0.1-0.7-0.3-0.9S1009,319.3,1008.7,319.3z"/>
		<path class="st1" d="M1013.8,323.5c-0.7,0-1.3-0.2-1.7-0.6s-0.6-1-0.6-1.8c0-0.8,0.2-1.4,0.6-1.9c0.4-0.4,1-0.7,1.7-0.7
			c0.5,0,1,0.1,1.4,0.3l-0.3,0.8c-0.4-0.2-0.8-0.3-1.1-0.3c-0.8,0-1.2,0.6-1.2,1.7c0,0.5,0.1,0.9,0.3,1.2c0.2,0.3,0.5,0.4,0.9,0.4
			c0.5,0,0.9-0.1,1.3-0.3v0.9c-0.2,0.1-0.4,0.2-0.6,0.2C1014.4,323.5,1014.1,323.5,1013.8,323.5z"/>
		<path class="st1" d="M1018.1,322.7c0.2,0,0.5,0,0.7-0.1v0.8c-0.1,0-0.3,0.1-0.4,0.1c-0.2,0-0.4,0-0.6,0c-1,0-1.5-0.5-1.5-1.5v-2.6
			h-0.7V319l0.7-0.4l0.3-1h0.6v1.1h1.4v0.8h-1.4v2.6c0,0.2,0.1,0.4,0.2,0.5C1017.7,322.6,1017.9,322.7,1018.1,322.7z"/>
		<path class="st1" d="M1019.8,317.4c0-0.2,0-0.3,0.2-0.4c0.1-0.1,0.2-0.1,0.4-0.1c0.2,0,0.3,0,0.4,0.1c0.1,0.1,0.1,0.2,0.1,0.4
			c0,0.2,0,0.3-0.1,0.4c-0.1,0.1-0.2,0.1-0.4,0.1c-0.2,0-0.3,0-0.4-0.1C1019.8,317.7,1019.8,317.5,1019.8,317.4z M1020.8,323.4h-1
			v-4.8h1V323.4z"/>
		<path class="st1" d="M1026.6,321c0,0.8-0.2,1.4-0.6,1.8s-1,0.7-1.7,0.7c-0.5,0-0.8-0.1-1.2-0.3c-0.3-0.2-0.6-0.5-0.8-0.9
			c-0.2-0.4-0.3-0.8-0.3-1.3c0-0.8,0.2-1.4,0.6-1.8s1-0.7,1.7-0.7c0.7,0,1.2,0.2,1.7,0.7C1026.4,319.7,1026.6,320.3,1026.6,321z
			 M1023.1,321c0,1.1,0.4,1.7,1.2,1.7c0.8,0,1.2-0.6,1.2-1.7c0-1.1-0.4-1.6-1.2-1.6c-0.4,0-0.7,0.1-0.9,0.4
			C1023.2,320.1,1023.1,320.5,1023.1,321z"/>
		<path class="st1" d="M1032,323.4h-1v-3c0-0.4-0.1-0.6-0.2-0.8c-0.1-0.2-0.4-0.3-0.7-0.3c-0.4,0-0.7,0.1-0.9,0.4
			c-0.2,0.3-0.3,0.7-0.3,1.3v2.4h-1v-4.8h0.8l0.1,0.6h0.1c0.1-0.2,0.4-0.4,0.6-0.5c0.3-0.1,0.6-0.2,0.9-0.2c1.2,0,1.7,0.6,1.7,1.8
			V323.4z"/>
	</g>
</g>
<g>
	<g>
		<path class="st1" d="M1317.1,277.3c-0.6,0-1.1,0.2-1.4,0.6c-0.3,0.4-0.5,1-0.5,1.8c0,0.8,0.2,1.4,0.5,1.8c0.3,0.4,0.8,0.6,1.4,0.6
			c0.3,0,0.5,0,0.8-0.1c0.3-0.1,0.5-0.1,0.8-0.2v0.9c-0.5,0.2-1.1,0.3-1.7,0.3c-0.9,0-1.6-0.3-2.1-0.8c-0.5-0.6-0.7-1.4-0.7-2.4
			c0-0.7,0.1-1.2,0.4-1.7s0.6-0.9,1.1-1.1c0.5-0.3,1-0.4,1.6-0.4c0.6,0,1.2,0.1,1.8,0.4l-0.4,0.9c-0.2-0.1-0.4-0.2-0.7-0.3
			C1317.6,277.3,1317.3,277.3,1317.1,277.3z"/>
		<path class="st1" d="M1324.2,280.4c0,0.8-0.2,1.4-0.6,1.8s-1,0.7-1.7,0.7c-0.5,0-0.8-0.1-1.2-0.3c-0.3-0.2-0.6-0.5-0.8-0.9
			c-0.2-0.4-0.3-0.8-0.3-1.3c0-0.8,0.2-1.4,0.6-1.8s1-0.7,1.7-0.7c0.7,0,1.2,0.2,1.7,0.7C1324,279.1,1324.2,279.7,1324.2,280.4z
			 M1320.7,280.4c0,1.1,0.4,1.7,1.2,1.7c0.8,0,1.2-0.6,1.2-1.7c0-1.1-0.4-1.6-1.2-1.6c-0.4,0-0.7,0.1-0.9,0.4
			C1320.8,279.5,1320.7,279.9,1320.7,280.4z"/>
		<path class="st1" d="M1328.6,281.5c0,0.5-0.2,0.8-0.5,1.1c-0.3,0.3-0.8,0.4-1.5,0.4c-0.6,0-1.2-0.1-1.5-0.3v-0.9
			c0.6,0.3,1.1,0.4,1.6,0.4c0.6,0,0.9-0.2,0.9-0.6c0-0.1,0-0.2-0.1-0.3c-0.1-0.1-0.2-0.2-0.3-0.3c-0.2-0.1-0.4-0.2-0.7-0.3
			c-0.6-0.2-0.9-0.4-1.1-0.6c-0.2-0.2-0.3-0.5-0.3-0.8c0-0.4,0.2-0.7,0.5-1s0.8-0.3,1.4-0.3c0.6,0,1.1,0.1,1.6,0.3l-0.3,0.8
			c-0.5-0.2-1-0.3-1.3-0.3c-0.5,0-0.8,0.2-0.8,0.5c0,0.2,0.1,0.3,0.2,0.4s0.4,0.2,0.9,0.4c0.4,0.2,0.7,0.3,0.9,0.4
			c0.2,0.1,0.3,0.3,0.4,0.4S1328.6,281.3,1328.6,281.5z"/>
		<path class="st1" d="M1331.5,282.1c0.2,0,0.5,0,0.7-0.1v0.8c-0.1,0-0.3,0.1-0.4,0.1c-0.2,0-0.4,0-0.6,0c-1,0-1.5-0.5-1.5-1.5v-2.6
			h-0.7v-0.5l0.7-0.4l0.3-1h0.6v1.1h1.4v0.8h-1.4v2.6c0,0.2,0.1,0.4,0.2,0.5C1331.1,282.1,1331.3,282.1,1331.5,282.1z"/>
		<path class="st1" d="M1341.3,279.7c0,1-0.3,1.8-0.8,2.4s-1.3,0.9-2.2,0.9c-1,0-1.7-0.3-2.2-0.9c-0.5-0.6-0.8-1.4-0.8-2.4
			c0-1.1,0.3-1.9,0.8-2.4c0.5-0.6,1.3-0.8,2.2-0.8c0.9,0,1.7,0.3,2.2,0.9S1341.3,278.6,1341.3,279.7z M1336.4,279.7
			c0,0.8,0.2,1.4,0.5,1.8c0.3,0.4,0.8,0.6,1.4,0.6c0.6,0,1.1-0.2,1.4-0.6c0.3-0.4,0.5-1,0.5-1.8c0-0.8-0.2-1.4-0.5-1.8
			c-0.3-0.4-0.8-0.6-1.4-0.6c-0.6,0-1.1,0.2-1.4,0.6C1336.6,278.3,1336.4,278.9,1336.4,279.7z"/>
		<path class="st1" d="M1345,282.9c-0.6,0-1.1-0.2-1.4-0.7h-0.1c0,0.4,0.1,0.7,0.1,0.7v2h-1v-7h0.8c0,0.1,0.1,0.3,0.1,0.6h0.1
			c0.3-0.5,0.8-0.7,1.4-0.7c0.6,0,1.1,0.2,1.4,0.7s0.5,1,0.5,1.8c0,0.8-0.2,1.4-0.5,1.8S1345.6,282.9,1345,282.9z M1344.7,278.8
			c-0.4,0-0.7,0.1-0.9,0.4s-0.3,0.6-0.3,1.1v0.2c0,0.6,0.1,1,0.3,1.3s0.5,0.4,0.9,0.4c0.4,0,0.6-0.1,0.8-0.4
			c0.2-0.3,0.3-0.7,0.3-1.2c0-0.5-0.1-0.9-0.3-1.2C1345.4,278.9,1345.1,278.8,1344.7,278.8z"/>
		<path class="st1" d="M1349.9,282.1c0.2,0,0.5,0,0.7-0.1v0.8c-0.1,0-0.3,0.1-0.4,0.1c-0.2,0-0.4,0-0.6,0c-1,0-1.5-0.5-1.5-1.5v-2.6
			h-0.7v-0.5l0.7-0.4l0.3-1h0.6v1.1h1.4v0.8h-1.4v2.6c0,0.2,0.1,0.4,0.2,0.5C1349.5,282.1,1349.7,282.1,1349.9,282.1z"/>
		<path class="st1" d="M1351.5,276.8c0-0.2,0-0.3,0.2-0.4c0.1-0.1,0.2-0.1,0.4-0.1c0.2,0,0.3,0,0.4,0.1c0.1,0.1,0.1,0.2,0.1,0.4
			c0,0.2,0,0.3-0.1,0.4c-0.1,0.1-0.2,0.1-0.4,0.1c-0.2,0-0.3,0-0.4-0.1C1351.6,277.1,1351.5,276.9,1351.5,276.8z M1352.6,282.9h-1
			V278h1V282.9z"/>
		<path class="st1" d="M1358.1,282.9h-1v-3c0-0.4-0.1-0.6-0.2-0.8c-0.1-0.2-0.4-0.3-0.7-0.3c-0.4,0-0.7,0.1-0.9,0.4
			c-0.2,0.3-0.3,0.7-0.3,1.3v2.4h-1V278h0.8l0.1,0.6h0.1c0.1-0.2,0.3-0.4,0.6-0.5c0.3-0.1,0.5-0.2,0.8-0.2c0.7,0,1.2,0.3,1.5,0.8
			h0.1c0.1-0.2,0.3-0.4,0.6-0.6c0.3-0.1,0.6-0.2,0.9-0.2c0.6,0,1,0.1,1.3,0.4c0.3,0.3,0.4,0.7,0.4,1.3v3.1h-1v-3
			c0-0.4-0.1-0.6-0.2-0.8c-0.1-0.2-0.4-0.3-0.7-0.3c-0.4,0-0.7,0.1-0.9,0.4c-0.2,0.2-0.3,0.6-0.3,1.1V282.9z"/>
		<path class="st1" d="M1362.5,276.8c0-0.2,0-0.3,0.2-0.4c0.1-0.1,0.2-0.1,0.4-0.1c0.2,0,0.3,0,0.4,0.1c0.1,0.1,0.1,0.2,0.1,0.4
			c0,0.2,0,0.3-0.1,0.4c-0.1,0.1-0.2,0.1-0.4,0.1c-0.2,0-0.3,0-0.4-0.1C1362.6,277.1,1362.5,276.9,1362.5,276.8z M1363.6,282.9h-1
			V278h1V282.9z"/>
		<path class="st1" d="M1368.3,282.9h-3.7v-0.6l2.4-3.4h-2.3V278h3.4v0.7l-2.4,3.3h2.4V282.9z"/>
		<path class="st1" d="M1372.3,282.9l-0.2-0.7h0c-0.2,0.3-0.5,0.5-0.7,0.6c-0.2,0.1-0.5,0.2-0.9,0.2c-0.5,0-0.8-0.1-1.1-0.4
			c-0.3-0.3-0.4-0.6-0.4-1.1c0-0.5,0.2-0.9,0.6-1.1s0.9-0.4,1.7-0.4l0.8,0v-0.3c0-0.3-0.1-0.5-0.2-0.7c-0.1-0.2-0.4-0.2-0.7-0.2
			c-0.2,0-0.5,0-0.7,0.1c-0.2,0.1-0.4,0.2-0.7,0.3l-0.3-0.7c0.3-0.1,0.5-0.2,0.9-0.3c0.3-0.1,0.6-0.1,0.9-0.1c0.6,0,1.1,0.1,1.4,0.4
			c0.3,0.3,0.5,0.7,0.5,1.3v3.2H1372.3z M1370.8,282.2c0.4,0,0.7-0.1,0.9-0.3s0.3-0.5,0.3-0.9v-0.4l-0.6,0c-0.5,0-0.8,0.1-1,0.2
			c-0.2,0.1-0.3,0.4-0.3,0.7c0,0.2,0.1,0.4,0.2,0.5C1370.4,282.1,1370.6,282.2,1370.8,282.2z"/>
		<path class="st1" d="M1376.3,282.1c0.2,0,0.5,0,0.7-0.1v0.8c-0.1,0-0.3,0.1-0.4,0.1c-0.2,0-0.4,0-0.6,0c-1,0-1.5-0.5-1.5-1.5v-2.6
			h-0.7v-0.5l0.7-0.4l0.3-1h0.6v1.1h1.4v0.8h-1.4v2.6c0,0.2,0.1,0.4,0.2,0.5C1375.9,282.1,1376.1,282.1,1376.3,282.1z"/>
		<path class="st1" d="M1377.9,276.8c0-0.2,0-0.3,0.2-0.4c0.1-0.1,0.2-0.1,0.4-0.1c0.2,0,0.3,0,0.4,0.1c0.1,0.1,0.1,0.2,0.1,0.4
			c0,0.2,0,0.3-0.1,0.4c-0.1,0.1-0.2,0.1-0.4,0.1c-0.2,0-0.3,0-0.4-0.1C1378,277.1,1377.9,276.9,1377.9,276.8z M1379,282.9h-1V278h1
			V282.9z"/>
		<path class="st1" d="M1384.7,280.4c0,0.8-0.2,1.4-0.6,1.8s-1,0.7-1.7,0.7c-0.5,0-0.8-0.1-1.2-0.3c-0.3-0.2-0.6-0.5-0.8-0.9
			c-0.2-0.4-0.3-0.8-0.3-1.3c0-0.8,0.2-1.4,0.6-1.8s1-0.7,1.7-0.7c0.7,0,1.2,0.2,1.7,0.7C1384.5,279.1,1384.7,279.7,1384.7,280.4z
			 M1381.2,280.4c0,1.1,0.4,1.7,1.2,1.7c0.8,0,1.2-0.6,1.2-1.7c0-1.1-0.4-1.6-1.2-1.6c-0.4,0-0.7,0.1-0.9,0.4
			C1381.3,279.5,1381.2,279.9,1381.2,280.4z"/>
		<path class="st1" d="M1390.2,282.9h-1v-3c0-0.4-0.1-0.6-0.2-0.8c-0.1-0.2-0.4-0.3-0.7-0.3c-0.4,0-0.7,0.1-0.9,0.4
			c-0.2,0.3-0.3,0.7-0.3,1.3v2.4h-1V278h0.8l0.1,0.6h0.1c0.1-0.2,0.4-0.4,0.6-0.5c0.3-0.1,0.6-0.2,0.9-0.2c1.2,0,1.7,0.6,1.7,1.8
			V282.9z"/>
	</g>
</g>
<g>
	<g>
		<path class="st2" d="M1006,273.3c0-1.3,0-2.7,0-4"/>
		<path class="st3" d="M1006.5,261.3c6.2-90,81.1-161.1,172.7-161.1c92.9,0,168.7,73.2,172.9,165.1"/>
		<path class="st2" d="M1352.1,269.3c0,1.3,0,2.7,0,4"/>
	</g>
</g>
<circle class="st0" cx="1009.3" cy="275.6" r="33.8"/>
<circle class="st0" cx="1225.7" cy="126" r="42.7"/>
<circle class="st0" cx="1349.3" cy="241.7" r="33.8"/>
<circle class="st0" cx="1054.1" cy="149.3" r="44.3"/>
<g>
	<g>
		<path class="st1" d="M1006.8,158.4c-0.6,0-1.1,0.2-1.4,0.6c-0.3,0.4-0.5,1-0.5,1.8c0,0.8,0.2,1.4,0.5,1.8c0.3,0.4,0.8,0.6,1.4,0.6
			c0.3,0,0.5,0,0.8-0.1c0.3-0.1,0.5-0.1,0.8-0.2v0.9c-0.5,0.2-1.1,0.3-1.7,0.3c-0.9,0-1.6-0.3-2.1-0.8c-0.5-0.6-0.7-1.4-0.7-2.4
			c0-0.7,0.1-1.2,0.4-1.7s0.6-0.9,1.1-1.1c0.5-0.3,1-0.4,1.6-0.4c0.6,0,1.2,0.1,1.8,0.4l-0.4,0.9c-0.2-0.1-0.4-0.2-0.7-0.3
			C1007.4,158.4,1007.1,158.4,1006.8,158.4z"/>
		<path class="st1" d="M1013.1,164l-0.1-0.6h-0.1c-0.1,0.2-0.3,0.4-0.6,0.5s-0.6,0.2-0.9,0.2c-0.6,0-1-0.1-1.3-0.4s-0.4-0.7-0.4-1.3
			v-3.1h1v3c0,0.4,0.1,0.6,0.2,0.8c0.2,0.2,0.4,0.3,0.7,0.3c0.4,0,0.7-0.1,0.9-0.4c0.2-0.3,0.3-0.7,0.3-1.3v-2.4h1v4.8H1013.1z"/>
		<path class="st1" d="M1018.6,162.6c0,0.5-0.2,0.8-0.5,1.1c-0.3,0.3-0.8,0.4-1.5,0.4c-0.6,0-1.2-0.1-1.5-0.3v-0.9
			c0.6,0.3,1.1,0.4,1.6,0.4c0.6,0,0.9-0.2,0.9-0.6c0-0.1,0-0.2-0.1-0.3c-0.1-0.1-0.2-0.2-0.3-0.3c-0.2-0.1-0.4-0.2-0.7-0.3
			c-0.6-0.2-0.9-0.4-1.1-0.6c-0.2-0.2-0.3-0.5-0.3-0.8c0-0.4,0.2-0.7,0.5-1s0.8-0.3,1.4-0.3c0.6,0,1.1,0.1,1.6,0.3l-0.3,0.8
			c-0.5-0.2-1-0.3-1.3-0.3c-0.5,0-0.8,0.2-0.8,0.5c0,0.2,0.1,0.3,0.2,0.4s0.4,0.2,0.9,0.4c0.4,0.2,0.7,0.3,0.9,0.4
			c0.2,0.1,0.3,0.3,0.4,0.4S1018.6,162.4,1018.6,162.6z"/>
		<path class="st1" d="M1021.5,163.2c0.2,0,0.5,0,0.7-0.1v0.8c-0.1,0-0.3,0.1-0.4,0.1c-0.2,0-0.4,0-0.6,0c-1,0-1.5-0.5-1.5-1.5v-2.6
			h-0.7v-0.5l0.7-0.4l0.3-1h0.6v1.1h1.4v0.8h-1.4v2.6c0,0.2,0.1,0.4,0.2,0.5C1021.1,163.2,1021.3,163.2,1021.5,163.2z"/>
		<path class="st1" d="M1027.4,161.6c0,0.8-0.2,1.4-0.6,1.8s-1,0.7-1.7,0.7c-0.5,0-0.8-0.1-1.2-0.3c-0.3-0.2-0.6-0.5-0.8-0.9
			c-0.2-0.4-0.3-0.8-0.3-1.3c0-0.8,0.2-1.4,0.6-1.8s1-0.7,1.7-0.7c0.7,0,1.2,0.2,1.7,0.7C1027.2,160.2,1027.4,160.8,1027.4,161.6z
			 M1023.9,161.6c0,1.1,0.4,1.7,1.2,1.7c0.8,0,1.2-0.6,1.2-1.7c0-1.1-0.4-1.6-1.2-1.6c-0.4,0-0.7,0.1-0.9,0.4
			C1024,160.6,1023.9,161,1023.9,161.6z"/>
		<path class="st1" d="M1032.7,164h-1v-3c0-0.4-0.1-0.6-0.2-0.8c-0.1-0.2-0.4-0.3-0.7-0.3c-0.4,0-0.7,0.1-0.9,0.4
			c-0.2,0.3-0.3,0.7-0.3,1.3v2.4h-1v-4.8h0.8l0.1,0.6h0.1c0.1-0.2,0.3-0.4,0.6-0.5c0.3-0.1,0.5-0.2,0.8-0.2c0.7,0,1.2,0.3,1.5,0.8
			h0.1c0.1-0.2,0.3-0.4,0.6-0.6c0.3-0.1,0.6-0.2,0.9-0.2c0.6,0,1,0.1,1.3,0.4c0.3,0.3,0.4,0.7,0.4,1.3v3.1h-1v-3
			c0-0.4-0.1-0.6-0.2-0.8c-0.1-0.2-0.4-0.3-0.7-0.3c-0.4,0-0.7,0.1-0.9,0.4c-0.2,0.2-0.3,0.6-0.3,1.1V164z"/>
		<path class="st1" d="M1039.2,164.1c-0.7,0-1.3-0.2-1.8-0.7s-0.6-1-0.6-1.8c0-0.8,0.2-1.4,0.6-1.9c0.4-0.4,0.9-0.7,1.6-0.7
			c0.6,0,1.1,0.2,1.5,0.6c0.4,0.4,0.6,0.9,0.6,1.6v0.6h-3.2c0,0.5,0.1,0.8,0.4,1.1c0.2,0.3,0.6,0.4,1,0.4c0.3,0,0.5,0,0.8-0.1
			s0.5-0.1,0.8-0.3v0.8c-0.2,0.1-0.5,0.2-0.8,0.3S1039.6,164.1,1039.2,164.1z M1039,159.8c-0.3,0-0.6,0.1-0.8,0.3
			c-0.2,0.2-0.3,0.5-0.4,0.9h2.2c0-0.4-0.1-0.7-0.3-0.9S1039.4,159.8,1039,159.8z"/>
		<path class="st1" d="M1044.7,159.1c0.2,0,0.4,0,0.5,0l-0.1,1c-0.1,0-0.3-0.1-0.5-0.1c-0.4,0-0.7,0.1-1,0.4c-0.3,0.3-0.4,0.6-0.4,1
			v2.5h-1v-4.8h0.8l0.1,0.8h0.1c0.2-0.3,0.4-0.5,0.6-0.7C1044.1,159.2,1044.4,159.1,1044.7,159.1z"/>
		<path class="st1" d="M1052.2,162.2c0,0.6-0.2,1-0.6,1.3c-0.4,0.3-1,0.5-1.7,0.5c-0.7,0-1.3-0.1-1.8-0.3v-1
			c0.3,0.1,0.6,0.2,0.9,0.3c0.3,0.1,0.6,0.1,0.9,0.1c0.4,0,0.7-0.1,0.9-0.2c0.2-0.2,0.3-0.4,0.3-0.6c0-0.2-0.1-0.4-0.3-0.6
			c-0.2-0.2-0.6-0.4-1.1-0.6c-0.6-0.2-1-0.5-1.2-0.8c-0.2-0.3-0.4-0.7-0.4-1.1c0-0.5,0.2-0.9,0.6-1.3c0.4-0.3,0.9-0.5,1.5-0.5
			c0.6,0,1.2,0.1,1.8,0.4l-0.3,0.8c-0.6-0.2-1.1-0.4-1.5-0.4c-0.3,0-0.6,0.1-0.8,0.2c-0.2,0.1-0.3,0.3-0.3,0.6c0,0.2,0,0.3,0.1,0.4
			c0.1,0.1,0.2,0.2,0.3,0.3s0.4,0.2,0.9,0.4c0.5,0.2,0.8,0.4,1,0.5c0.2,0.2,0.4,0.4,0.5,0.6C1052.2,161.7,1052.2,162,1052.2,162.2z"
			/>
		<path class="st1" d="M1056.3,164l-0.2-0.7h0c-0.2,0.3-0.5,0.5-0.7,0.6c-0.2,0.1-0.5,0.2-0.9,0.2c-0.5,0-0.8-0.1-1.1-0.4
			c-0.3-0.3-0.4-0.6-0.4-1.1c0-0.5,0.2-0.9,0.6-1.1s0.9-0.4,1.7-0.4l0.8,0v-0.3c0-0.3-0.1-0.5-0.2-0.7c-0.1-0.2-0.4-0.2-0.7-0.2
			c-0.2,0-0.5,0-0.7,0.1c-0.2,0.1-0.4,0.2-0.7,0.3l-0.3-0.7c0.3-0.1,0.5-0.2,0.9-0.3c0.3-0.1,0.6-0.1,0.9-0.1c0.6,0,1.1,0.1,1.4,0.4
			c0.3,0.3,0.5,0.7,0.5,1.3v3.2H1056.3z M1054.8,163.3c0.4,0,0.7-0.1,0.9-0.3s0.3-0.5,0.3-0.9v-0.4l-0.6,0c-0.5,0-0.8,0.1-1,0.2
			c-0.2,0.1-0.3,0.4-0.3,0.7c0,0.2,0.1,0.4,0.2,0.5C1054.4,163.2,1054.6,163.3,1054.8,163.3z"/>
		<path class="st1" d="M1060.3,163.2c0.2,0,0.5,0,0.7-0.1v0.8c-0.1,0-0.3,0.1-0.4,0.1c-0.2,0-0.4,0-0.6,0c-1,0-1.5-0.5-1.5-1.5v-2.6
			h-0.7v-0.5l0.7-0.4l0.3-1h0.6v1.1h1.4v0.8h-1.4v2.6c0,0.2,0.1,0.4,0.2,0.5C1059.9,163.2,1060.1,163.2,1060.3,163.2z"/>
		<path class="st1" d="M1061.9,157.9c0-0.2,0-0.3,0.2-0.4c0.1-0.1,0.2-0.1,0.4-0.1c0.2,0,0.3,0,0.4,0.1c0.1,0.1,0.1,0.2,0.1,0.4
			c0,0.2,0,0.3-0.1,0.4c-0.1,0.1-0.2,0.1-0.4,0.1c-0.2,0-0.3,0-0.4-0.1C1062,158.2,1061.9,158.1,1061.9,157.9z M1063,164h-1v-4.8h1
			V164z"/>
		<path class="st1" d="M1067.7,162.6c0,0.5-0.2,0.8-0.5,1.1c-0.3,0.3-0.8,0.4-1.5,0.4c-0.6,0-1.2-0.1-1.5-0.3v-0.9
			c0.6,0.3,1.1,0.4,1.6,0.4c0.6,0,0.9-0.2,0.9-0.6c0-0.1,0-0.2-0.1-0.3c-0.1-0.1-0.2-0.2-0.3-0.3c-0.2-0.1-0.4-0.2-0.7-0.3
			c-0.6-0.2-0.9-0.4-1.1-0.6c-0.2-0.2-0.3-0.5-0.3-0.8c0-0.4,0.2-0.7,0.5-1s0.8-0.3,1.4-0.3c0.6,0,1.1,0.1,1.6,0.3l-0.3,0.8
			c-0.5-0.2-1-0.3-1.3-0.3c-0.5,0-0.8,0.2-0.8,0.5c0,0.2,0.1,0.3,0.2,0.4s0.4,0.2,0.9,0.4c0.4,0.2,0.7,0.3,0.9,0.4
			c0.2,0.1,0.3,0.3,0.4,0.4S1067.7,162.4,1067.7,162.6z"/>
		<path class="st1" d="M1071.2,159.9h-1.2v4h-1v-4h-0.8v-0.5l0.8-0.3v-0.3c0-0.6,0.1-1,0.4-1.3c0.3-0.3,0.7-0.4,1.2-0.4
			c0.4,0,0.7,0.1,1.1,0.2l-0.3,0.8c-0.3-0.1-0.5-0.1-0.7-0.1c-0.2,0-0.4,0.1-0.5,0.2c-0.1,0.1-0.2,0.4-0.2,0.6v0.3h1.2V159.9z"/>
		<path class="st1" d="M1075.1,164l-0.2-0.7h0c-0.2,0.3-0.5,0.5-0.7,0.6c-0.2,0.1-0.5,0.2-0.9,0.2c-0.5,0-0.8-0.1-1.1-0.4
			c-0.3-0.3-0.4-0.6-0.4-1.1c0-0.5,0.2-0.9,0.6-1.1s0.9-0.4,1.7-0.4l0.8,0v-0.3c0-0.3-0.1-0.5-0.2-0.7c-0.1-0.2-0.4-0.2-0.7-0.2
			c-0.2,0-0.5,0-0.7,0.1c-0.2,0.1-0.4,0.2-0.7,0.3l-0.3-0.7c0.3-0.1,0.5-0.2,0.9-0.3c0.3-0.1,0.6-0.1,0.9-0.1c0.6,0,1.1,0.1,1.4,0.4
			c0.3,0.3,0.5,0.7,0.5,1.3v3.2H1075.1z M1073.5,163.3c0.4,0,0.7-0.1,0.9-0.3s0.3-0.5,0.3-0.9v-0.4l-0.6,0c-0.5,0-0.8,0.1-1,0.2
			c-0.2,0.1-0.3,0.4-0.3,0.7c0,0.2,0.1,0.4,0.2,0.5C1073.1,163.2,1073.3,163.3,1073.5,163.3z"/>
		<path class="st1" d="M1079.2,164.1c-0.7,0-1.3-0.2-1.7-0.6s-0.6-1-0.6-1.8c0-0.8,0.2-1.4,0.6-1.9c0.4-0.4,1-0.7,1.7-0.7
			c0.5,0,1,0.1,1.4,0.3l-0.3,0.8c-0.4-0.2-0.8-0.3-1.1-0.3c-0.8,0-1.2,0.6-1.2,1.7c0,0.5,0.1,0.9,0.3,1.2c0.2,0.3,0.5,0.4,0.9,0.4
			c0.5,0,0.9-0.1,1.3-0.3v0.9c-0.2,0.1-0.4,0.2-0.6,0.2C1079.7,164,1079.5,164.1,1079.2,164.1z"/>
		<path class="st1" d="M1083.4,163.2c0.2,0,0.5,0,0.7-0.1v0.8c-0.1,0-0.3,0.1-0.4,0.1c-0.2,0-0.4,0-0.6,0c-1,0-1.5-0.5-1.5-1.5v-2.6
			h-0.7v-0.5l0.7-0.4l0.3-1h0.6v1.1h1.4v0.8h-1.4v2.6c0,0.2,0.1,0.4,0.2,0.5C1083.1,163.2,1083.2,163.2,1083.4,163.2z"/>
		<path class="st1" d="M1085.1,157.9c0-0.2,0-0.3,0.2-0.4c0.1-0.1,0.2-0.1,0.4-0.1c0.2,0,0.3,0,0.4,0.1c0.1,0.1,0.1,0.2,0.1,0.4
			c0,0.2,0,0.3-0.1,0.4c-0.1,0.1-0.2,0.1-0.4,0.1c-0.2,0-0.3,0-0.4-0.1C1085.1,158.2,1085.1,158.1,1085.1,157.9z M1086.2,164h-1
			v-4.8h1V164z"/>
		<path class="st1" d="M1091.9,161.6c0,0.8-0.2,1.4-0.6,1.8s-1,0.7-1.7,0.7c-0.5,0-0.8-0.1-1.2-0.3c-0.3-0.2-0.6-0.5-0.8-0.9
			c-0.2-0.4-0.3-0.8-0.3-1.3c0-0.8,0.2-1.4,0.6-1.8s1-0.7,1.7-0.7c0.7,0,1.2,0.2,1.7,0.7C1091.7,160.2,1091.9,160.8,1091.9,161.6z
			 M1088.4,161.6c0,1.1,0.4,1.7,1.2,1.7c0.8,0,1.2-0.6,1.2-1.7c0-1.1-0.4-1.6-1.2-1.6c-0.4,0-0.7,0.1-0.9,0.4
			C1088.5,160.6,1088.4,161,1088.4,161.6z"/>
		<path class="st1" d="M1097.3,164h-1v-3c0-0.4-0.1-0.6-0.2-0.8c-0.1-0.2-0.4-0.3-0.7-0.3c-0.4,0-0.7,0.1-0.9,0.4
			c-0.2,0.3-0.3,0.7-0.3,1.3v2.4h-1v-4.8h0.8l0.1,0.6h0.1c0.1-0.2,0.4-0.4,0.6-0.5c0.3-0.1,0.6-0.2,0.9-0.2c1.2,0,1.7,0.6,1.7,1.8
			V164z"/>
	</g>
</g>
<g>
	<g>
		<path class="st1" d="M1190.4,153.5c0,0.7-0.2,1.2-0.7,1.5c-0.4,0.4-1.1,0.5-1.9,0.5h-0.7v2.4h-1v-6.4h1.8c0.8,0,1.4,0.2,1.8,0.5
			C1190.2,152.4,1190.4,152.9,1190.4,153.5z M1187.2,154.7h0.6c0.5,0,0.9-0.1,1.2-0.3c0.2-0.2,0.4-0.5,0.4-0.9
			c0-0.4-0.1-0.6-0.3-0.8c-0.2-0.2-0.6-0.3-1-0.3h-0.7V154.7z"/>
		<path class="st1" d="M1194,153c0.2,0,0.4,0,0.5,0l-0.1,1c-0.1,0-0.3-0.1-0.5-0.1c-0.4,0-0.7,0.1-1,0.4c-0.3,0.3-0.4,0.6-0.4,1v2.5
			h-1v-4.8h0.8l0.1,0.8h0.1c0.2-0.3,0.4-0.5,0.6-0.7C1193.4,153.1,1193.7,153,1194,153z"/>
		<path class="st1" d="M1199.7,155.5c0,0.8-0.2,1.4-0.6,1.8s-1,0.7-1.7,0.7c-0.5,0-0.8-0.1-1.2-0.3c-0.3-0.2-0.6-0.5-0.8-0.9
			c-0.2-0.4-0.3-0.8-0.3-1.3c0-0.8,0.2-1.4,0.6-1.8s1-0.7,1.7-0.7c0.7,0,1.2,0.2,1.7,0.7C1199.5,154.2,1199.7,154.8,1199.7,155.5z
			 M1196.2,155.5c0,1.1,0.4,1.7,1.2,1.7c0.8,0,1.2-0.6,1.2-1.7c0-1.1-0.4-1.6-1.2-1.6c-0.4,0-0.7,0.1-0.9,0.4
			C1196.3,154.6,1196.2,155,1196.2,155.5z"/>
		<path class="st1" d="M1202.5,158c-0.6,0-1.1-0.2-1.4-0.7c-0.3-0.4-0.5-1-0.5-1.8c0-0.8,0.2-1.4,0.5-1.8s0.8-0.7,1.4-0.7
			c0.6,0,1.1,0.2,1.4,0.7h0.1c0-0.3-0.1-0.6-0.1-0.8v-1.8h1v6.8h-0.8l-0.2-0.6h0C1203.6,157.8,1203.1,158,1202.5,158z M1202.7,157.2
			c0.4,0,0.7-0.1,0.9-0.4s0.3-0.6,0.3-1.2v-0.1c0-0.6-0.1-1-0.3-1.3c-0.2-0.3-0.5-0.4-0.9-0.4c-0.4,0-0.6,0.1-0.8,0.4
			s-0.3,0.7-0.3,1.2c0,0.5,0.1,0.9,0.3,1.2C1202.1,157.1,1202.4,157.2,1202.7,157.2z"/>
		<path class="st1" d="M1209.8,157.9l-0.1-0.6h-0.1c-0.1,0.2-0.3,0.4-0.6,0.5s-0.6,0.2-0.9,0.2c-0.6,0-1-0.1-1.3-0.4
			s-0.4-0.7-0.4-1.3v-3.1h1v3c0,0.4,0.1,0.6,0.2,0.8c0.2,0.2,0.4,0.3,0.7,0.3c0.4,0,0.7-0.1,0.9-0.4c0.2-0.3,0.3-0.7,0.3-1.3v-2.4h1
			v4.8H1209.8z"/>
		<path class="st1" d="M1214,158c-0.7,0-1.3-0.2-1.7-0.6s-0.6-1-0.6-1.8c0-0.8,0.2-1.4,0.6-1.9c0.4-0.4,1-0.7,1.7-0.7
			c0.5,0,1,0.1,1.4,0.3l-0.3,0.8c-0.4-0.2-0.8-0.3-1.1-0.3c-0.8,0-1.2,0.6-1.2,1.7c0,0.5,0.1,0.9,0.3,1.2c0.2,0.3,0.5,0.4,0.9,0.4
			c0.5,0,0.9-0.1,1.3-0.3v0.9c-0.2,0.1-0.4,0.2-0.6,0.2C1214.5,158,1214.3,158,1214,158z"/>
		<path class="st1" d="M1218.3,157.2c0.2,0,0.5,0,0.7-0.1v0.8c-0.1,0-0.3,0.1-0.4,0.1c-0.2,0-0.4,0-0.6,0c-1,0-1.5-0.5-1.5-1.5v-2.6
			h-0.7v-0.5l0.7-0.4l0.3-1h0.6v1.1h1.4v0.8h-1.4v2.6c0,0.2,0.1,0.4,0.2,0.5C1217.9,157.1,1218.1,157.2,1218.3,157.2z"/>
		<path class="st1" d="M1219.9,151.9c0-0.2,0-0.3,0.2-0.4c0.1-0.1,0.2-0.1,0.4-0.1c0.2,0,0.3,0,0.4,0.1c0.1,0.1,0.1,0.2,0.1,0.4
			c0,0.2,0,0.3-0.1,0.4c-0.1,0.1-0.2,0.1-0.4,0.1c-0.2,0-0.3,0-0.4-0.1C1220,152.2,1219.9,152,1219.9,151.9z M1221,157.9h-1v-4.8h1
			V157.9z"/>
		<path class="st1" d="M1226.7,155.5c0,0.8-0.2,1.4-0.6,1.8s-1,0.7-1.7,0.7c-0.5,0-0.8-0.1-1.2-0.3c-0.3-0.2-0.6-0.5-0.8-0.9
			c-0.2-0.4-0.3-0.8-0.3-1.3c0-0.8,0.2-1.4,0.6-1.8s1-0.7,1.7-0.7c0.7,0,1.2,0.2,1.7,0.7C1226.5,154.2,1226.7,154.8,1226.7,155.5z
			 M1223.2,155.5c0,1.1,0.4,1.7,1.2,1.7c0.8,0,1.2-0.6,1.2-1.7c0-1.1-0.4-1.6-1.2-1.6c-0.4,0-0.7,0.1-0.9,0.4
			C1223.3,154.6,1223.2,155,1223.2,155.5z"/>
		<path class="st1" d="M1232.1,157.9h-1v-3c0-0.4-0.1-0.6-0.2-0.8c-0.1-0.2-0.4-0.3-0.7-0.3c-0.4,0-0.7,0.1-0.9,0.4
			c-0.2,0.3-0.3,0.7-0.3,1.3v2.4h-1v-4.8h0.8l0.1,0.6h0.1c0.1-0.2,0.4-0.4,0.6-0.5c0.3-0.1,0.6-0.2,0.9-0.2c1.2,0,1.7,0.6,1.7,1.8
			V157.9z"/>
		<path class="st1" d="M1239.6,157.9h-3.6v-6.4h3.6v0.9h-2.6v1.7h2.4v0.9h-2.4v2h2.6V157.9z"/>
		<path class="st1" d="M1243.3,153.9h-1.2v4h-1v-4h-0.8v-0.5l0.8-0.3v-0.3c0-0.6,0.1-1,0.4-1.3c0.3-0.3,0.7-0.4,1.2-0.4
			c0.4,0,0.7,0.1,1.1,0.2l-0.3,0.8c-0.3-0.1-0.5-0.1-0.7-0.1c-0.2,0-0.4,0.1-0.5,0.2c-0.1,0.1-0.2,0.4-0.2,0.6v0.3h1.2V153.9z
			 M1246.5,153.9h-1.2v4h-1v-4h-0.8v-0.5l0.8-0.3v-0.3c0-0.6,0.1-1,0.4-1.3c0.3-0.3,0.7-0.4,1.2-0.4c0.4,0,0.7,0.1,1.1,0.2l-0.3,0.8
			c-0.3-0.1-0.5-0.1-0.7-0.1c-0.2,0-0.4,0.1-0.5,0.2c-0.1,0.1-0.2,0.4-0.2,0.6v0.3h1.2V153.9z M1247.2,151.9c0-0.2,0.1-0.3,0.2-0.4
			c0.1-0.1,0.2-0.1,0.4-0.1c0.2,0,0.3,0,0.4,0.1c0.1,0.1,0.2,0.2,0.2,0.4c0,0.2-0.1,0.3-0.2,0.4c-0.1,0.1-0.2,0.1-0.4,0.1
			c-0.2,0-0.3,0-0.4-0.1C1247.3,152.2,1247.2,152,1247.2,151.9z M1248.3,157.9h-1v-4.8h1V157.9z"/>
		<path class="st1" d="M1251.7,158c-0.7,0-1.3-0.2-1.7-0.6s-0.6-1-0.6-1.8c0-0.8,0.2-1.4,0.6-1.9c0.4-0.4,1-0.7,1.7-0.7
			c0.5,0,1,0.1,1.4,0.3l-0.3,0.8c-0.4-0.2-0.8-0.3-1.1-0.3c-0.8,0-1.2,0.6-1.2,1.7c0,0.5,0.1,0.9,0.3,1.2c0.2,0.3,0.5,0.4,0.9,0.4
			c0.5,0,0.9-0.1,1.3-0.3v0.9c-0.2,0.1-0.4,0.2-0.6,0.2C1252.3,158,1252,158,1251.7,158z"/>
		<path class="st1" d="M1254.1,151.9c0-0.2,0-0.3,0.2-0.4c0.1-0.1,0.2-0.1,0.4-0.1c0.2,0,0.3,0,0.4,0.1c0.1,0.1,0.1,0.2,0.1,0.4
			c0,0.2,0,0.3-0.1,0.4c-0.1,0.1-0.2,0.1-0.4,0.1c-0.2,0-0.3,0-0.4-0.1C1254.2,152.2,1254.1,152,1254.1,151.9z M1255.2,157.9h-1
			v-4.8h1V157.9z"/>
		<path class="st1" d="M1258.8,158c-0.7,0-1.3-0.2-1.8-0.7s-0.6-1-0.6-1.8c0-0.8,0.2-1.4,0.6-1.9c0.4-0.4,0.9-0.7,1.6-0.7
			c0.6,0,1.1,0.2,1.5,0.6c0.4,0.4,0.6,0.9,0.6,1.6v0.6h-3.2c0,0.5,0.1,0.8,0.4,1.1c0.2,0.3,0.6,0.4,1,0.4c0.3,0,0.5,0,0.8-0.1
			s0.5-0.1,0.8-0.3v0.8c-0.2,0.1-0.5,0.2-0.8,0.3S1259.1,158,1258.8,158z M1258.6,153.8c-0.3,0-0.6,0.1-0.8,0.3
			c-0.2,0.2-0.3,0.5-0.4,0.9h2.2c0-0.4-0.1-0.7-0.3-0.9S1258.9,153.8,1258.6,153.8z"/>
		<path class="st1" d="M1266.1,157.9h-1v-3c0-0.4-0.1-0.6-0.2-0.8c-0.1-0.2-0.4-0.3-0.7-0.3c-0.4,0-0.7,0.1-0.9,0.4
			c-0.2,0.3-0.3,0.7-0.3,1.3v2.4h-1v-4.8h0.8l0.1,0.6h0.1c0.1-0.2,0.4-0.4,0.6-0.5c0.3-0.1,0.6-0.2,0.9-0.2c1.2,0,1.7,0.6,1.7,1.8
			V157.9z"/>
		<path class="st1" d="M1269.4,158c-0.7,0-1.3-0.2-1.7-0.6s-0.6-1-0.6-1.8c0-0.8,0.2-1.4,0.6-1.9c0.4-0.4,1-0.7,1.7-0.7
			c0.5,0,1,0.1,1.4,0.3l-0.3,0.8c-0.4-0.2-0.8-0.3-1.1-0.3c-0.8,0-1.2,0.6-1.2,1.7c0,0.5,0.1,0.9,0.3,1.2c0.2,0.3,0.5,0.4,0.9,0.4
			c0.5,0,0.9-0.1,1.3-0.3v0.9c-0.2,0.1-0.4,0.2-0.6,0.2C1270,158,1269.7,158,1269.4,158z"/>
		<path class="st1" d="M1271.2,153.1h1.1l1,2.7c0.1,0.4,0.2,0.8,0.3,1.1h0c0-0.2,0.1-0.4,0.1-0.6c0.1-0.2,0.4-1.3,1.1-3.2h1.1
			l-2.1,5.5c-0.4,1-1,1.5-1.9,1.5c-0.2,0-0.4,0-0.7-0.1v-0.8c0.2,0,0.3,0.1,0.5,0.1c0.5,0,0.8-0.3,1-0.9l0.2-0.5L1271.2,153.1z"/>
	</g>
</g>
<g>
	<path class="st4" d="M1048.1,119.2c5.1,0,9.2-4.1,9.2-9.2c0-5.1-4.1-9.2-9.2-9.2c-5.1,0-9.2,4.1-9.2,9.2
		C1038.8,115,1043,119.2,1048.1,119.2z M1048.1,101.9c4.4,0,8,3.6,8,8c0,4.4-3.6,8-8,8c-4.4,0-8-3.6-8-8
		C1040,105.5,1043.6,101.9,1048.1,101.9z"/>
	<path class="st5" d="M1075.2,136.8c0.3-0.3,0.5-0.8,0.5-1.3c0-1-0.8-1.8-1.8-1.8h-1.7h-2.1c0.4-0.8,0.6-1.8,0.6-2.7v-0.7
		c0-1-0.8-1.8-1.8-1.8s-1.8,0.8-1.8,1.8c0,2.1-1.4,3.4-1.4,3.4h-3.5v1.2h4.1l0.7-0.9c0.8-1.1,1.3-2.4,1.3-3.7c0-0.3,0.3-0.6,0.6-0.6
		s0.6,0.3,0.6,0.6v0.7c0,0.9-0.2,1.7-0.7,2.5l-0.9,1.4h4.2h1.7c0.3,0,0.6,0.3,0.6,0.6c0,0.4-0.3,0.7-0.7,0.7h-1.1h-0.1v1.2h0.1h1.1
		h0.1c0.3,0,0.6,0.3,0.6,0.6c0,0.3-0.3,0.6-0.6,0.6h-1.2v1.2h1.2c0.3,0,0.6,0.3,0.6,0.6c0,0.3-0.3,0.6-0.6,0.6h-0.7h-0.5v1.2h0.5
		c0.3,0,0.6,0.3,0.6,0.6c0,0.3-0.3,0.6-0.6,0.6h-5c-0.2,0-0.3,0-0.5-0.1l-0.9-0.4c-0.4-0.2-0.8-0.3-1.2-0.3h-4.1v1.2h4.1
		c0.2,0,0.5,0.1,0.7,0.2l0.9,0.4c0.3,0.1,0.7,0.2,1,0.2h5c1,0,1.8-0.8,1.8-1.8c0-0.3-0.1-0.6-0.2-0.9c0.6-0.3,0.9-0.9,0.9-1.6
		c0-0.5-0.2-0.9-0.5-1.2c0.3-0.3,0.5-0.7,0.5-1.2C1075.7,137.6,1075.5,137.2,1075.2,136.8z"/>
	<path class="st4" d="M1068.3,125.7c-1.1,0-2.2,0.2-3.3,0.5c-0.8-0.9-1.9-1.5-3-2l-6.5-2.3l-6.1,11.3h-2.6l-6.1-11.3l-6.5,2.3
		c-1.8,0.6-3.3,1.9-4.2,3.5c-0.9,1.6-1.4,3.2-1.4,4.6c0,0.1-0.7,6.3-0.9,12.4l0,0.6h30.7c2.2,3,5.8,5,9.8,5
		c6.8,0,12.3-5.5,12.3-12.3C1080.5,131.2,1075,125.7,1068.3,125.7z M1036.2,144.1l0.4-7.1l-1.2-0.1l-0.5,7.2h-6.1
		c0.3-5.8,0.9-11.6,0.9-11.7c0-1.6,0.7-3.1,1.2-4.1c0.8-1.3,2-2.4,3.5-2.9l5.5-2l5.9,11h4l5.9-11l5.5,2c0.8,0.3,1.5,0.7,2.1,1.2
		c-4.5,1.8-7.7,6.2-7.7,11.4c0,2.2,0.6,4.3,1.6,6.1H1036.2z M1068.3,149.1c-6.1,0-11.1-5-11.1-11.1c0-6.1,5-11.1,11.1-11.1
		s11.1,5,11.1,11.1C1079.3,144.1,1074.4,149.1,1068.3,149.1z"/>
</g>
<g>
	<g>
		<g>
			<g>
				<g>
					<g>
						<path class="st5" d="M1226.7,140.4c-2,0-3.6-1.6-3.6-3.6s1.6-3.6,3.6-3.6c2,0,3.6,1.6,3.6,3.6S1228.6,140.4,1226.7,140.4z
							 M1226.7,134.4c-1.3,0-2.4,1.1-2.4,2.4c0,1.3,1.1,2.4,2.4,2.4c1.3,0,2.4-1.1,2.4-2.4C1229.1,135.5,1228,134.4,1226.7,134.4z"
							/>
					</g>
				</g>
			</g>
			<g>
				<g>
					<path class="st5" d="M1228.6,147.6h-3.8l-0.3-2.4c-0.8-0.2-1.5-0.5-2.1-0.9l-1.9,1.5l-2.7-2.7l1.5-1.9
						c-0.4-0.7-0.7-1.4-0.9-2.1l-2.4-0.3v-3.8l2.4-0.3c0.2-0.7,0.5-1.5,0.9-2.1l-1.5-1.9l2.7-2.7l1.9,1.5c0.7-0.4,1.4-0.7,2.1-0.9
						l0.3-2.4h3.8l0.3,2.4c0.7,0.2,1.5,0.5,2.1,0.9l1.9-1.5l2.7,2.7l-1.5,1.9c0.4,0.7,0.7,1.4,0.9,2.1l2.4,0.3l0,3.8l-2.4,0.3
						c-0.2,0.7-0.5,1.5-0.9,2.1l1.5,1.9l-2.7,2.7l-1.9-1.5c-0.7,0.4-1.4,0.7-2.1,0.9L1228.6,147.6z M1225.8,146.5h1.8l0.3-2.2
						l0.4-0.1c0.9-0.2,1.7-0.5,2.5-1l0.3-0.2l1.8,1.3l1.3-1.3l-1.3-1.8l0.2-0.3c0.5-0.8,0.8-1.6,1-2.5l0.1-0.4l2.2-0.3l0-1.8
						l-2.2-0.3l-0.1-0.4c-0.2-0.9-0.5-1.7-1-2.5l-0.2-0.3l1.3-1.8l-1.3-1.3l-1.8,1.3l-0.3-0.2c-0.8-0.5-1.6-0.8-2.5-1l-0.4-0.1
						l-0.3-2.2h-1.8l-0.3,2.2l-0.4,0.1c-0.9,0.2-1.7,0.5-2.5,1l-0.3,0.2l-1.8-1.3l-1.3,1.3l1.3,1.8l-0.2,0.3c-0.5,0.8-0.8,1.6-1,2.5
						l-0.1,0.4l-2.2,0.3v1.8l2.2,0.3l0.1,0.4c0.2,0.9,0.5,1.7,1,2.5l0.2,0.3l-1.3,1.8l1.3,1.3l1.8-1.3l0.3,0.2
						c0.8,0.5,1.6,0.8,2.5,1l0.4,0.1L1225.8,146.5z"/>
				</g>
			</g>
		</g>
		<g>
			<g>
				<g>
					<g>
						<g>
							<path class="st5" d="M1208.3,134.1c-1.5,0-2.8-1.2-2.8-2.8c0-1.5,1.2-2.8,2.8-2.8c1.5,0,2.8,1.2,2.8,2.8
								C1211.1,132.9,1209.9,134.1,1208.3,134.1z M1208.3,129.8c-0.9,0-1.6,0.7-1.6,1.6c0,0.9,0.7,1.6,1.6,1.6
								c0.9,0,1.6-0.7,1.6-1.6C1210,130.5,1209.2,129.8,1208.3,129.8z"/>
						</g>
					</g>
				</g>
				<g>
					<g>
						<path class="st5" d="M1209.9,139.4h-3l-0.3-1.8c-0.5-0.1-1-0.3-1.4-0.6l-1.5,1.1l-2.1-2.1l1.1-1.5c-0.2-0.4-0.4-0.9-0.6-1.4
							l-1.8-0.3v-3l1.8-0.3c0.1-0.5,0.3-1,0.6-1.4l-1.1-1.5l2.1-2.1l1.5,1.1c0.4-0.3,0.9-0.4,1.4-0.6l0.3-1.8h3l0.3,1.8
							c0.5,0.1,1,0.3,1.4,0.6l1.5-1.1l2.1,2.1l-1.1,1.5c0.2,0.4,0.4,0.9,0.6,1.4l1.8,0.3l0,3l-1.8,0.3c-0.1,0.5-0.3,1-0.6,1.4
							l1.1,1.5l-2.1,2.1l-1.5-1.1c-0.4,0.3-0.9,0.4-1.4,0.6L1209.9,139.4z M1207.8,138.3h1l0.2-1.6l0.4-0.1c0.6-0.1,1.2-0.4,1.8-0.7
							l0.3-0.2l1.3,1l0.7-0.7l-1-1.3l0.2-0.3c0.3-0.5,0.6-1.1,0.7-1.8l0.1-0.4l1.6-0.2l0-1l-1.6-0.2l-0.1-0.4
							c-0.1-0.6-0.4-1.2-0.7-1.7l-0.2-0.3l1-1.3l-0.7-0.7l-1.3,1l-0.3-0.2c-0.5-0.3-1.1-0.6-1.8-0.7l-0.4-0.1l-0.2-1.6h-1l-0.2,1.6
							l-0.4,0.1c-0.6,0.1-1.2,0.4-1.8,0.7l-0.3,0.2l-1.3-1l-0.7,0.7l1,1.3l-0.2,0.3c-0.4,0.5-0.6,1.1-0.7,1.8l-0.1,0.4l-1.6,0.2v1
							l1.6,0.2l0.1,0.4c0.1,0.6,0.4,1.2,0.7,1.8l0.2,0.3l-1,1.3l0.7,0.7l1.3-1l0.3,0.2c0.5,0.3,1.1,0.6,1.8,0.7l0.4,0.1
							L1207.8,138.3z"/>
					</g>
				</g>
			</g>
			<g>
				<g>
					<g>
						<g>
							<path class="st5" d="M1245,134.1c-1.5,0-2.8-1.2-2.8-2.8c0-1.5,1.2-2.8,2.8-2.8c1.5,0,2.8,1.2,2.8,2.8
								C1247.8,132.9,1246.5,134.1,1245,134.1z M1245,129.8c-0.9,0-1.6,0.7-1.6,1.6c0,0.9,0.7,1.6,1.6,1.6c0.9,0,1.6-0.7,1.6-1.6
								C1246.6,130.5,1245.9,129.8,1245,129.8z"/>
						</g>
					</g>
				</g>
				<g>
					<g>
						<path class="st5" d="M1246.5,139.4h-3l-0.3-1.8c-0.5-0.1-1-0.3-1.4-0.6l-1.5,1.1l-2.1-2.1l1.1-1.5c-0.2-0.4-0.4-0.9-0.6-1.4
							l-1.8-0.3v-3l1.8-0.3c0.1-0.5,0.3-1,0.6-1.4l-1.1-1.5l2.1-2.1l1.5,1.1c0.4-0.3,0.9-0.4,1.4-0.6l0.3-1.8h3l0.3,1.8
							c0.5,0.1,1,0.3,1.4,0.6l1.5-1.1l2.1,2.1l-1.1,1.5c0.2,0.4,0.4,0.9,0.6,1.4l1.8,0.3l0,3l-1.8,0.3c-0.1,0.5-0.3,1-0.6,1.4
							l1.1,1.5l-2.1,2.1l-1.5-1.1c-0.4,0.3-0.9,0.4-1.4,0.6L1246.5,139.4z M1244.5,138.3h1l0.2-1.6l0.4-0.1c0.6-0.1,1.2-0.4,1.8-0.7
							l0.3-0.2l1.3,1l0.7-0.7l-1-1.3l0.2-0.3c0.3-0.5,0.6-1.1,0.7-1.8l0.1-0.4l1.6-0.2l0-1l-1.6-0.2l-0.1-0.4
							c-0.1-0.6-0.4-1.2-0.7-1.8l-0.2-0.3l1-1.3l-0.7-0.7l-1.3,1l-0.3-0.2c-0.5-0.3-1.1-0.6-1.8-0.7l-0.4-0.1l-0.2-1.6h-1l-0.2,1.6
							l-0.4,0.1c-0.6,0.1-1.2,0.4-1.8,0.7l-0.3,0.2l-1.3-1l-0.7,0.7l1,1.3l-0.2,0.3c-0.4,0.5-0.6,1.1-0.7,1.8l-0.1,0.4l-1.6,0.2v1
							l1.6,0.2l0.1,0.4c0.1,0.6,0.4,1.2,0.7,1.8l0.2,0.3l-1,1.3l0.7,0.7l1.3-1l0.3,0.2c0.5,0.3,1.1,0.6,1.8,0.7l0.4,0.1
							L1244.5,138.3z"/>
					</g>
				</g>
			</g>
		</g>
	</g>
	<g>
		<polygon class="st4" points="1232.1,126.6 1231,126.6 1231,112.6 1235.6,112.6 1226.7,102 1217.8,112.6 1222.4,112.6 
			1222.4,126.6 1221.2,126.6 1221.2,113.7 1215.3,113.7 1226.7,100.2 1238.1,113.7 1232.1,113.7 		"/>
	</g>
	<g>
		<g>
			<g>
				<polygon class="st4" points="1211,122.1 1209.8,122.1 1209.8,116.1 1205.3,116.1 1214.4,105.3 1218.6,110.4 1217.8,111.1 
					1214.4,107.1 1207.8,114.9 1211,114.9 				"/>
			</g>
			<g>
				<rect x="1217.8" y="115.2" class="st4" width="1.2" height="12.1"/>
			</g>
		</g>
		<g>
			<g>
				<polygon class="st4" points="1243.5,122.1 1242.4,122.1 1242.4,114.9 1245.6,114.9 1239,107.1 1235.6,111.1 1234.7,110.4 
					1239,105.3 1248,116.1 1243.5,116.1 				"/>
			</g>
			<g>
				<rect x="1234.5" y="115.2" class="st4" width="1.2" height="12.1"/>
			</g>
		</g>
	</g>
</g>
<g>
	<g>
		<g>
			<g>
				<g>
					<path class="st5" d="M1350.9,253.8L1350.9,253.8c-2.3,0-4.3-1.4-5.2-3.5c-0.6-1.4-0.6-2.9,0-4.3c0.6-1.4,1.6-2.5,3-3
						c0.7-0.3,1.4-0.4,2.1-0.4c2.3,0,4.3,1.4,5.2,3.5c0.6,1.4,0.6,2.9,0,4.3c-0.6,1.4-1.6,2.5-3,3
						C1352.4,253.6,1351.7,253.8,1350.9,253.8z M1350.9,243.7c-0.6,0-1.2,0.1-1.7,0.3c-1.1,0.5-2,1.3-2.4,2.4
						c-0.5,1.1-0.5,2.3,0,3.4c0.7,1.7,2.3,2.8,4.1,2.8h0c0.6,0,1.2-0.1,1.7-0.3c1.1-0.5,2-1.3,2.4-2.4c0.5-1.1,0.5-2.3,0-3.4
						C1354.4,244.8,1352.7,243.7,1350.9,243.7z"/>
				</g>
			</g>
			<g>
				<g>
					<path class="st5" d="M1354.2,262.1l-1.6-2.7c-1.1,0.2-2.2,0.2-3.2,0l-1.6,2.7l-4.3-1.8l0.8-3.1c-0.9-0.6-1.6-1.4-2.3-2.3
						l-3.1,0.8l-1.8-4.3l2.7-1.6c-0.2-1.1-0.2-2.2,0-3.2l-2.7-1.6l1.8-4.3l3.1,0.8c0.6-0.9,1.4-1.6,2.3-2.3l-0.8-3.1l4.3-1.8
						l1.6,2.7c1.1-0.2,2.2-0.2,3.2,0l1.6-2.7l4.3,1.8l-0.8,3.1c0.9,0.6,1.6,1.4,2.3,2.3l3.1-0.8l1.8,4.3l-2.7,1.6
						c0.2,1.1,0.2,2.2,0,3.2l2.7,1.6l-1.8,4.3l-3.1-0.8c-0.6,0.9-1.4,1.6-2.3,2.3l0.8,3.1L1354.2,262.1z M1353.1,258.1l1.5,2.6
						l2.5-1l-0.7-2.9l0.3-0.2c1-0.7,1.9-1.6,2.6-2.6l0.2-0.3l2.9,0.7l1-2.5l-2.6-1.5l0.1-0.4c0.2-1.2,0.2-2.4,0-3.6l-0.1-0.4
						l2.6-1.5l-1-2.5l-2.8,0.7l-0.3-0.3c-0.7-1-1.6-1.9-2.6-2.6l-0.3-0.2l0.7-2.9l-2.5-1l-1.5,2.6l-0.4-0.1c-1.2-0.2-2.4-0.2-3.6,0
						l-0.4,0.1l-1.5-2.6l-2.5,1l0.7,2.9l-0.3,0.2c-1,0.7-1.9,1.5-2.6,2.6l-0.2,0.3l-2.9-0.7l-1,2.5l2.6,1.5l-0.1,0.4
						c-0.2,1.2-0.2,2.4,0,3.6l0.1,0.4l-2.6,1.5l1,2.5l2.9-0.7l0.2,0.3c0.7,1,1.6,1.9,2.6,2.6l0.3,0.2l-0.7,2.9l2.5,1l1.5-2.6
						l0.4,0.1c1.2,0.2,2.4,0.2,3.6,0L1353.1,258.1z"/>
				</g>
			</g>
		</g>
		<g>
			<g>
				<g>
					<g>
						<path class="st5" d="M1368.5,250.7c-1.4,0-2.6-1.2-2.6-2.6c0-1.4,1.2-2.6,2.6-2.6c1.4,0,2.6,1.2,2.6,2.6
							C1371.1,249.6,1369.9,250.7,1368.5,250.7z M1368.5,246.7c-0.8,0-1.5,0.7-1.5,1.5c0,0.8,0.7,1.5,1.5,1.5c0.8,0,1.5-0.7,1.5-1.5
							C1370,247.4,1369.3,246.7,1368.5,246.7z"/>
					</g>
				</g>
				<g>
					<g>
						<path class="st5" d="M1375.4,250.1c-0.2,0.6-0.4,1.1-0.7,1.6l1.2,1.6l-2.3,2.3l-1.6-1.2c-0.5,0.3-1.1,0.5-1.6,0.7l-0.3,2h-3.2
							l-0.3-2c-0.6-0.2-1.2-0.4-1.7-0.7l0.4-1.1c0.6,0.4,1.2,0.6,1.9,0.8l0.4,0.1l0.3,1.8h1.3l0.3-1.8l0.4-0.1
							c0.7-0.1,1.4-0.4,2-0.8l0.3-0.2l1.4,1.1l0.9-0.9l-1.1-1.4l0.2-0.3c0.4-0.6,0.7-1.3,0.8-2l0.1-0.4l1.8-0.3v-1.3l-1.8-0.2
							l-0.1-0.4c-0.2-0.7-0.4-1.4-0.8-2l-0.2-0.3l1.1-1.4l-0.9-0.9l-1.4,1.1l-0.3-0.2c-0.6-0.4-1.3-0.7-2-0.8l-0.4-0.1l-0.3-1.8
							h-1.3l-0.3,1.8l-0.4,0.1c-0.7,0.1-1.3,0.4-1.9,0.8l-0.4-1c0.5-0.3,1.1-0.6,1.7-0.7l0.3-2h3.2l0.3,2c0.6,0.2,1.1,0.4,1.6,0.7
							l1.6-1.2l2.3,2.3l-1.2,1.6c0.3,0.5,0.5,1.1,0.7,1.6l2,0.3v3.2L1375.4,250.1z"/>
					</g>
				</g>
			</g>
			<g>
				<g>
					<g>
						<path class="st5" d="M1333.4,250.7c-1.4,0-2.6-1.2-2.6-2.6c0-1.4,1.2-2.6,2.6-2.6c1.4,0,2.6,1.2,2.6,2.6
							C1335.9,249.6,1334.8,250.7,1333.4,250.7z M1333.4,246.7c-0.8,0-1.5,0.7-1.5,1.5c0,0.8,0.7,1.5,1.5,1.5c0.8,0,1.5-0.7,1.5-1.5
							C1334.8,247.4,1334.2,246.7,1333.4,246.7z"/>
					</g>
				</g>
				<g>
					<g>
						<path class="st5" d="M1337,254.3c-0.5,0.3-1.1,0.6-1.7,0.7l-0.3,2h-3.2l-0.3-2c-0.6-0.2-1.1-0.4-1.6-0.7l-1.6,1.2l-2.3-2.3
							l1.2-1.6c-0.3-0.5-0.5-1.1-0.7-1.6l-2-0.3v-3.2l2-0.3c0.2-0.6,0.4-1.1,0.7-1.6l-1.2-1.6l2.3-2.3l1.6,1.2
							c0.5-0.3,1.1-0.5,1.6-0.7l0.3-2h3.2l0.3,2c0.6,0.2,1.2,0.4,1.7,0.7l-0.4,1c-0.6-0.4-1.2-0.6-1.9-0.8l-0.4-0.1l-0.3-1.8h-1.3
							l-0.3,1.8l-0.4,0.1c-0.7,0.2-1.4,0.4-2,0.8l-0.3,0.2l-1.4-1.1l-0.9,0.9l1.1,1.4l-0.2,0.3c-0.4,0.6-0.7,1.3-0.8,2l0,0.1
							l-0.1,0.3l-1.7,0.2v1.3l1.8,0.3l0.1,0.4c0.1,0.7,0.4,1.4,0.8,2l0.2,0.3l-1.1,1.4l0.9,0.9l1.4-1.1l0.3,0.2
							c0.6,0.4,1.3,0.7,2,0.8l0.4,0.1l0.3,1.8h1.3l0.3-1.8l0.4-0.1c0.7-0.1,1.3-0.4,1.9-0.8L1337,254.3z"/>
					</g>
				</g>
			</g>
		</g>
	</g>
	<g>
		<g>
			<polygon class="st4" points="1368.6,263.9 1368.2,260.7 1365,261.1 1364.9,260 1369.2,259.4 1369.7,263.8 			"/>
		</g>
		<g>
			<path class="st4" d="M1350.6,270.7c-7.3,0-14.1-3.6-18.1-9.7l0.9-0.6c3.8,5.8,10.3,9.2,17.2,9.2c6.9,0,13.4-3.5,17.2-9.2l0.9,0.6
				C1364.6,267,1357.9,270.7,1350.6,270.7z"/>
		</g>
	</g>
	<g>
		<g>
			<g>
				<polygon class="st4" points="1332.6,236.9 1332.1,232.6 1333.2,232.5 1333.6,235.7 1336.8,235.3 1336.9,236.4 				"/>
			</g>
		</g>
		<g>
			<path class="st4" d="M1368.5,236c-3.8-5.8-10.3-9.2-17.2-9.2c-6.9,0-13.4,3.5-17.2,9.2l-0.9-0.6c4-6.1,10.8-9.7,18.1-9.7
				s14.1,3.6,18.1,9.7L1368.5,236z"/>
		</g>
	</g>
</g>
<g>
	<g>
		<g>
			<path class="st4" d="M1025.6,305.8h-48.7c-0.2,0-0.3-0.2-0.3-0.3v-46.5c0-0.2,0.2-0.3,0.3-0.3h48.7c0.2,0,0.3,0.2,0.3,0.3v46.5
				C1025.9,305.6,1025.8,305.8,1025.6,305.8z M977.3,305.1h48v-45.8h-48V305.1z"/>
		</g>
		<g>
			<path class="st4" d="M976.9,299.4h-3.5c-0.2,0-0.3-0.2-0.3-0.3v-43.2c0-0.2,0.2-0.3,0.3-0.3h47.3c0.2,0,0.3,0.2,0.3,0.3v3.2
				c0,0.2-0.2,0.3-0.3,0.3h-43.5V299C977.3,299.2,977.1,299.4,976.9,299.4z M973.8,298.7h2.8v-39.7c0-0.2,0.2-0.3,0.3-0.3h43.5v-2.5
				h-46.6V298.7z"/>
		</g>
		<g>
			<path class="st4" d="M1009.7,307.7h-33.2c-0.2,0-0.3-0.2-0.3-0.3s0.2-0.3,0.3-0.3h33.2c0.2,0,0.3,0.2,0.3,0.3
				S1009.9,307.7,1009.7,307.7z"/>
		</g>
		<g>
			<path class="st4" d="M1019,309.7h-23c-0.2,0-0.3-0.2-0.3-0.3c0-0.2,0.2-0.3,0.3-0.3h23c0.2,0,0.3,0.2,0.3,0.3
				C1019.4,309.5,1019.2,309.7,1019,309.7z"/>
		</g>
		<g>
			<path class="st4" d="M1024.3,309.7h-2.9c-0.2,0-0.3-0.2-0.3-0.3c0-0.2,0.2-0.3,0.3-0.3h2.9c0.2,0,0.3,0.2,0.3,0.3
				C1024.6,309.5,1024.4,309.7,1024.3,309.7z"/>
		</g>
		<g>
			<path class="st4" d="M986.2,309.6h-10.9c-0.2,0-0.3-0.2-0.3-0.3c0-0.2,0.2-0.3,0.3-0.3h10.9c0.2,0,0.3,0.2,0.3,0.3
				C986.5,309.4,986.3,309.6,986.2,309.6z"/>
		</g>
		<g>
			<path class="st5" d="M1018.8,297.3C1018.8,297.3,1018.8,297.3,1018.8,297.3h-35c-0.1,0-0.2-0.1-0.3-0.2s-0.1-0.2,0-0.4l17.5-29.5
				c0.1-0.1,0.2-0.2,0.3-0.2c0.1,0,0.2,0.1,0.3,0.2l17.5,29.4c0,0.1,0.1,0.1,0.1,0.2C1019.1,297.1,1019,297.3,1018.8,297.3z
				 M984.4,296.6h33.8l-16.9-28.4L984.4,296.6z"/>
		</g>
		<g>
			<path class="st5" d="M1001.3,294.8c-4.1,0-7.5-3.4-7.5-7.5c0-4.1,3.3-7.5,7.5-7.5c4.1,0,7.5,3.3,7.5,7.5
				C1008.7,291.5,1005.4,294.8,1001.3,294.8z M1001.3,280.6c-3.7,0-6.8,3-6.8,6.8c0,3.7,3,6.8,6.8,6.8c3.7,0,6.8-3,6.8-6.8
				C1008,283.6,1005,280.6,1001.3,280.6z"/>
		</g>
		<g>
			<path class="st5" d="M1001.3,289.4L1001.3,289.4c-0.8,0-1.5-0.7-1.5-1.5v-4.7c0-0.8,0.7-1.5,1.5-1.5c0.8,0,1.5,0.7,1.5,1.5v4.7
				C1002.7,288.7,1002.1,289.4,1001.3,289.4z M1001.3,282.4c-0.4,0-0.8,0.3-0.8,0.8v4.7c0,0.4,0.3,0.8,0.8,0.8h0
				c0.4,0,0.8-0.3,0.8-0.8v-4.7C1002,282.8,1001.7,282.4,1001.3,282.4z"/>
		</g>
		<g>
			<path class="st5" d="M1001.3,292.8c-0.8,0-1.5-0.7-1.5-1.5c0-0.8,0.7-1.5,1.5-1.5c0.8,0,1.5,0.7,1.5,1.5
				C1002.8,292.1,1002.1,292.8,1001.3,292.8z M1001.3,290.4c-0.5,0-0.8,0.4-0.8,0.8c0,0.5,0.4,0.8,0.8,0.8c0.5,0,0.8-0.4,0.8-0.8
				C1002.1,290.8,1001.7,290.4,1001.3,290.4z"/>
		</g>
		<g>
			<path class="st4" d="M1022.2,266.7c-0.2,0-0.3-0.2-0.3-0.3v-4.6h-4.5c-0.2,0-0.3-0.2-0.3-0.3c0-0.2,0.2-0.3,0.3-0.3h4.8
				c0.2,0,0.3,0.2,0.3,0.3v4.9C1022.6,266.5,1022.4,266.7,1022.2,266.7z"/>
		</g>
		<g>
			<path class="st4" d="M980.3,266.7c-0.2,0-0.3-0.2-0.3-0.3v-4.9c0-0.2,0.2-0.3,0.3-0.3h4.8c0.2,0,0.3,0.2,0.3,0.3
				c0,0.2-0.2,0.3-0.3,0.3h-4.5v4.6C980.7,266.5,980.5,266.7,980.3,266.7z"/>
		</g>
		<g>
			<path class="st4" d="M1022.2,303.3h-4.8c-0.2,0-0.3-0.2-0.3-0.3s0.2-0.3,0.3-0.3h4.5V298c0-0.2,0.2-0.3,0.3-0.3
				c0.2,0,0.3,0.2,0.3,0.3v4.9C1022.6,303.1,1022.4,303.3,1022.2,303.3z"/>
		</g>
		<g>
			<path class="st4" d="M985.1,303.3h-4.8c-0.2,0-0.3-0.2-0.3-0.3V298c0-0.2,0.2-0.3,0.3-0.3c0.2,0,0.3,0.2,0.3,0.3v4.6h4.5
				c0.2,0,0.3,0.2,0.3,0.3S985.3,303.3,985.1,303.3z"/>
		</g>
	</g>
</g>
<circle class="st6" cx="1179.9" cy="327.2" r="99"/>
<g>
	<defs>
		<circle id="SVGID_1_" cx="1179.2" cy="327.6" r="99"/>
	</defs>
	<clipPath id="SVGID_00000055674382401040259620000012931261503729980337_">
		<use xlink:href="#SVGID_1_"  style="overflow:visible;"/>
	</clipPath>
	<g style="clip-path:url(#SVGID_00000055674382401040259620000012931261503729980337_);">
		<path d="M1188.9,222.7c-3.6-3.3-8.2-5.1-11.6-9c-3.4-4-6.9-8.4-7.5-13.7c-1.5-13.4,10.7-20.7,23.1-19.5
			c12.2,1.2,22.4,7.1,25.7,19.5c2.6,9.7,3.1,19.6,8.9,28.3c4,6,10.4,10.2,15.3,15.4c4.6,4.9,7.9,10.5,11,16.4
			c4.3,8.4,5.7,21.1,1,29.6c-3.1,5.6-7.4,10.4-12.7,13.9c-4.6,3.1-9.3,7.7-14.8,8.9c-12.5,2.6-21.3-13.2-26.5-22.1
			c-5.3-9.2-11.6-21.3-11.1-32.2c0.5-9.9,5.8-19.4,2.8-29.5C1191.5,225.9,1189.8,224.4,1188.9,222.7z"/>
		<path d="M1175.7,199.3c-11.8-3.8-31,5.2-29.3,19.4c1.4,12.3,12.3,23.3,3.7,35.4c-3.9,5.5-10.8,9.3-12.9,16
			c-2.1,6.7,0.1,15.1,7.4,17.3c8,2.4,18.1-2.3,25.4-5.6c6.7-3,13.6-9,15.8-16.2c2.6-8.5,0.8-16-1.1-24.4
			C1182.5,232.5,1181,222.3,1175.7,199.3z"/>
		<path class="st8" d="M1175.8,277.5C1175.8,277.6,1175.8,277.6,1175.8,277.5c0,0.3,0,0.6,0,0.8c-0.1,1.9-0.2,3.7-0.3,5.4
			c-1.5,18.2-6.8,19.6-6.6,21.9c1,10.3,1,20.4,2.3,30.6c0.7,5.2,1.4,10.3,1.8,15.3c0.1,0.8,0.2,1.6,0.2,2.3
			c0.3,3.8,0.4,7.6,0.3,11.6c-0.1,2.1-0.1,4.1-0.1,6.2c0,5,0.1,10,0.3,15c0,0.3,0,0.7,0,1v0c0,1,0.1,2,0.1,3.1c0,0.3,0,0.5,0,0.8
			c0,1.9,0.1,3.7,0.1,5.6c0,5.3-0.1,10.6-0.7,15.8c0,0.3-0.1,0.7-0.1,1c-0.5,4.7-1.1,10.2-2.6,15.2c0,0,0,0,0,0c0,0,0,0,0,0v0
			c-1.2,4.2-2.9,8.2-5.5,11.4h-2.2c-0.9,0.9-1.8,1.7-2.8,2.4c-3.5,2.4-7.8,3.5-12.1,3.4h0c-5.7-0.1-11.4-2.1-15.5-5.8h-2.7
			c-1.7-1.9-3-4.1-3.8-6.6c-0.2-0.5-0.3-1-0.4-1.6c-0.1-0.5-0.2-1.1-0.3-1.6c-1.4-7.8-0.2-15,2.7-21.9c0.1-0.3,0.3-0.7,0.4-1
			c0.1-0.3,0.3-0.6,0.4-0.9c0.2-0.5,0.5-1,0.7-1.5c1.2-2.6,2.7-5.1,4.4-7.5c3.8-5.8,6.8-12.3,8.4-19c0,0,0,0,0-0.1
			c0.3-1.5,0.6-3,0.8-4.6c0.3-2.6,0.5-5.3,0.4-8c0-0.3-0.4-2.2-1-4.9c0,0,0,0,0,0c-0.1-0.4-0.2-0.9-0.3-1.3
			c-2-8.9-5.5-24.4-5.5-25.4c1.3-0.4,3-2.5,5-5.6v0c0.3-0.6,0.7-1.2,1.1-1.9c0.4-0.8,0.9-1.6,1.3-2.5c0,0,0,0,0,0
			c5.7-11.1,12.5-28.6,16.3-39v0c1.9-5.1,3.1-8.5,3.1-8.5s4.5-1,8.3-3.1c0.8-0.4,1.5-0.9,2.1-1.4h0c0.1-0.1,0.2-0.2,0.3-0.3h0
			c0.4-0.3,0.7-0.7,1.1-1c0.3-0.4,0.7-0.9,0.9-1.3C1175.8,272.9,1175.8,275.3,1175.8,277.5z"/>
		<path class="st9" d="M1087.5,323.1l-0.4-1.1c-1.5-4.3-2.2-8.6-1.8-13.2c0.1-1.4,0-3.7-0.1-5.4c-0.1-1.6-0.5-3.7-1.5-3.4
			c-3.2,1.1-3,5.7-3.4,7.6c-0.1,0.3-0.6,1.9-0.9,1.8l-7.2-5.9c-0.1-0.1-0.2-0.2-0.2-0.3c-0.3-1.4-1.9-9.8-2.2-10
			c-0.2-0.1-2.1-1.1-3.6-1.7c-1-0.5-2.1-0.2-2.8,0.6l-4.1,4.6c-1.8,2.1-2.6,4.8-2.3,7.5c0.6,4.3,3,8.1,6.5,10.5l14.1,9.7
			c0.1,0.1,2.7,1.9,2.8,1.9l6.4-2.5C1087.4,323.7,1087.6,323.4,1087.5,323.1z"/>
		<g>
			<path class="st8" d="M1173.7,397.2c0,5.3-0.1,10.6-0.7,15.8c0,0.3-0.1,0.7-0.1,1c-0.5,4.7-1.1,10.2-2.6,15.2c0,0,0,0,0,0
				c0,0,0,0,0,0v0c-1.2,4.2-2.9,8.2-5.5,11.4h-2.2c-0.9,0.9-1.8,1.7-2.8,2.4c-3.5,2.4-7.8,3.5-12.1,3.4h0
				c-5.7-0.1-11.4-2.1-15.5-5.8h-2.7c-1.7-1.9-3-4.1-3.8-6.6c-0.2-0.5-0.3-1-0.4-1.6c-0.1-0.5-0.2-1.1-0.3-1.6
				c-1.4-7.8-0.2-15,2.7-21.9c0.1-0.3,0.3-0.7,0.4-1c0.1-0.3,0.3-0.6,0.4-0.9c0.2,0.3,0.4,0.6,0.6,0.9c0.2,0.3,0.4,0.5,0.6,0.8
				c4.2,5.7,10.6,10.5,17.8,2.6c6.1-6.7,7.2-18,6.8-27.9v0c-0.3-7.2-1.4-13.6-2.1-17c-0.3-1.7-0.6-2.7-0.6-2.7s0.7-0.1,1.6-0.3
				c0,0,0.1,0,0.1,0c0.5-0.1,1.1-0.2,1.7-0.3c2.5-0.5,5.4-1,5.7-0.6c0.1,0.2,0.9,1.6,1.9,3.7c3,6,8.3,17.2,8.4,18.2
				c0,0.3,0.5,1.4,1.1,3.1c0.4,1,0.8,2.1,1.3,3.4c0.1,0.3,0.2,0.5,0.3,0.8C1173.7,393.4,1173.7,395.3,1173.7,397.2z"/>
			<g>
				<path class="st8" d="M1171.7,396.5c-0.2-2-0.4-4-0.9-5.9c0,0,0,0,0,0c-0.3-1.2-0.6-2.3-0.9-3.5c0,0,0,0,0,0
					c-0.2-0.7-0.5-1.5-0.7-2.2c-1.2-3.3-2.8-6.5-4.3-9.7c-1.2-2.6-2.3-5.7-3.8-8.3c0,0,0,0,0,0c-0.4-0.8-0.9-1.5-1.4-2.2
					c-0.1-0.1-0.1-0.3-0.2-0.5c-0.4,0.3-1.8,0.2-2.1,0.3c-0.8,0.1-1.6,0.3-2.4,0.4c0,0,0,0,0,0c-0.5,0.1-1,0.2-1.4,0.3
					c0.2,0.8,0.4,1.5,0.5,2.3c0,0,0,0,0,0c1.2,5.7,1.9,11.7,2,17.6c0.1,4.3-0.2,8.7-1,12.8c-1.2,6.9-4.4,15.2-11.2,18.4
					c-6.1,2.9-11.3-1-15.1-5.7c-2.6,6.9-3.4,14-1.9,21.4c0.9,3.4,2.8,6.4,5.4,8.6c4.1,3.7,9.8,5.7,15.5,5.8h0
					c4.3,0.1,8.6-1,12.1-3.4c1-0.7,2-1.5,2.8-2.4c4.1-4.2,6.3-10.2,7.5-16.5v0c0.9-4.7,1.3-9.6,1.5-14c0.1-1.2,0.1-2.4,0.2-3.6
					C1172,403,1172,399.7,1171.7,396.5z"/>
			</g>
		</g>
		<path d="M1179.6,440.7h-16.9c-0.9,0.9-1.8,1.7-2.8,2.4c-3.5,2.4-7.8,3.5-12.1,3.4c0.5-1.9,1.1-3.9,1.7-5.8
			c5.1-16.9,11.2-33.7,12.3-51.2c0.1-0.7,0.1-1.4,0.1-2.2v0c0-1,0.1-2,0.1-2.9c0.2,0.5,0.4,1,0.6,1.5c0,0,0,0,0,0
			c0.3,0.9,0.7,1.7,1,2.5c0,0,0,0,0,0c0.5,1.2,1,2.4,1.4,3.6c2.7,6.9,4.9,12.9,6.7,18.2c0.5,1.3,0.9,2.6,1.3,3.9
			c0.5,1.4,0.9,2.8,1.3,4.1c0,0,0,0,0,0C1177.4,428.3,1178.8,435.3,1179.6,440.7z"/>
		<path d="M1222.5,440.7h-51.7c0-0.8-0.1-1.5-0.1-2.3c-0.1-3-0.2-6.1-0.4-9.1v0c-0.1-1.7-0.2-3.4-0.2-5.1v0c-0.2-4.3-0.5-8.7-1-13
			c-0.5-4.8-1.4-9.5-2.9-14.2c-0.9-2.7-2.5-5.9-3.3-8.9c-0.2-0.8-0.3-1.5-0.4-2.2c-0.1-0.5-0.1-1,0-1.5c2.4,1.2,4.9,2,7.5,2.7
			c0.7,0.2,1.3,0.3,2,0.4c0.5,0.1,1,0.2,1.6,0.3c0.5,0.1,0.9,0.2,1.4,0.2h0c0.6,0.1,1.3,0.2,1.9,0.3h0c0.2,0,0.3,0,0.5,0.1
			c2.4,0.3,4.8,0.5,7.1,0.8c0.3,0.1,0.5,0.3,0.8,0.4C1218,405.7,1223.5,423.9,1222.5,440.7z"/>
		<path class="st8" d="M1078.3,325.8c4.4,10.7,10,21.1,17.6,30c6.5,7.6,16.2,17.4,26.7,18.4c7,0.7,13.9-2.9,17.4-8.9
			c2.5-4.3,2.8-10.3,4.4-15c1.9-5.4,3-10.7,3.9-16.3c2.4-15.5,12.8-30.4,27.5-65.9c-9.2-0.8-22.4,10.3-27.8,16.5
			c-7.2,8.4-12.8,16.8-16.4,27.3c-2.8,8.1-4,16.5-5.8,24.8l-3.5,11.2l-34.5-25.7L1078.3,325.8z"/>
		<path class="st9" d="M1172.2,280.3c2.8,7.8,15.1,2.4,18.6-1.6c4.7-5.3,4.1-10,4.8-16.8c0.4-3.8,0.7-6.8,0.9-9.1
			c0.7-11.7-3.4-5.4-20.2-5.1c2,4,2.6,9.9,1.6,14.8c0,0.2-0.1,0.4-0.1,0.6C1176.7,267.5,1170.7,275.9,1172.2,280.3z"/>
		<path class="st10" d="M1194.7,268.9c0,0-20.6,26.1-19.8,0.9c0,0-30.4,30.3-18.2,108.9c0.8,4.9,4.1,9.1,8.7,10.6
			c4.4,1.5,10.8,2.4,19.7,0.9L1194.7,268.9z"/>
		<path class="st9" d="M1163.6,224.2c0,1.1,0,2.3,0.1,3.5c-0.1,13.3,9.8,30.9,24.7,25.8c1.2-0.3,2.5-0.7,3.6-1.3
			c3.5-1.6,6.4-4.2,8.2-7.9c0.8-1.2,1.5-2.4,2-3.7c0.9-2.1,1.6-4.2,2-6.3c0.5-2.6,0.5-5-0.4-7.4c-1.9-5-7.7-9.8-20.4-16.9
			c-3.5-2-7.6-4.1-12.2-6.4c-3,5.8-6,9.6-7.2,15.3C1163.8,220.5,1163.6,222.3,1163.6,224.2z"/>
		<path class="st8" d="M1241.8,426.1c-0.5,4.7-1.8,10-4.1,14.5h-50.3c-2.1-2.5-3.9-5.3-5.6-8.4c-3.3-6.3-7.1-13.3-7.7-20.6
			c-0.4-5.5,1.2-11.6,2.2-16.9c0.3-1.8,0.6-3.6,0.8-5.4v0c0-0.3,0.1-0.7,0.1-1c1-9,0.6-17.9-0.2-27.2c-1.2-12.7-0.5-25.5-0.5-38.2
			c0-7.2,1.5-14.2,3.9-20.9c1.1-3.2,12.4-35,15.3-33.7c22.6,10.1,23.1,15.5,23.3,18.9c0.6,13.2,0.4,53.6,3.9,66.4
			c1.2,4.6,2,9.3,3.1,14c0.4,1.5,0.8,3,1.3,4.5c1.4,4.2,3.3,8.2,5.1,12.2c1.1,2.3,2.1,4.6,3.1,6.9
			C1240.4,401.7,1243,414.6,1241.8,426.1z"/>
		<path class="st8" d="M1196.5,373.1c11.4,15.8,28.6,13.2,36,11.1c-1.8-4-3.7-8.1-5.1-12.2c-0.5-1.5-0.9-3-1.3-4.5
			C1211,360.4,1186.9,359.6,1196.5,373.1z"/>
		<path d="M1210.1,256.8c4.4-7.6-2.6-19.7-9.1-24.2c-3.9-2.8-8.8-4-12.8-6.6c-4.2-2.7-8.5-5.9-12-9.4c-5.1-5.1-9.7-17.3-3.3-23.4
			c7.7-7.4,21.8,3.5,27.6,8.9c5.1,4.8,9.7,10.7,12.4,17.2C1215.7,226,1214.6,232.2,1210.1,256.8z"/>
		<path class="st9" d="M1153.8,367.3c3.7,1.3,9.5-0.9,12.2-3.6c0.3-0.3,0.6-0.6,0.8-0.9c3.3-3.9-0.2-5.9-5.2-11.2
			c-4.2,1.1-5.8-6.5-6.8-6.1c-0.2,0-0.3,0-0.5,0.1C1144.8,347.4,1145.4,364.3,1153.8,367.3z"/>
		<path class="st9" d="M1163.1,354.1c-0.9-1.2-1.6-2.4-2.1-3.8c-0.6-1.4-0.6-2.7-0.9-4.2c-0.5-2.4-2-1.4-2.4,0.4
			c-0.3,1.3-0.4,2.6-0.5,3.9C1157.2,351.4,1157.5,354.3,1163.1,354.1z"/>
		<path class="st8" d="M1194.7,270.8c5.3,3.6,12,4.1,17.9,6c7.6,2.4,11.5,10.8,13.5,17.9c3.8,13.5,9.4,25.7,11.5,39.6
			c1.1,7.1,1.8,14.4,2.5,21.6c0.8,7.9,0.7,13.2-6.6,17.8c-11.1,7-28.5,3.8-40.3,1.4c-7.4-1.5-15.6-1.9-22.7-4
			c-3.4-1-7.2-2.2-8.1-5.9c-0.6-2.8,0.3-5.8,0.7-8.8c0.2-1.3,1.2-2.3,2.5-2.3c12.8-0.5,25.8,0.4,38.6,0c0.6-12.5-3.8-23.4-4.8-35.5
			c-0.9-10.4-1.7-23.5,3.3-33c1.7-3.2,4.5-4.6,1.6-7.7C1202.9,276.2,1199,273.8,1194.7,270.8z"/>
		<g>
			<path class="st11" d="M1074.4,300.1h83.4c0.8,0,1.5,0.5,1.9,1.2l26.9,55.5c0.7,1.4-0.3,3-1.9,3h-83.5c-0.8,0-1.5-0.5-1.9-1.2
				l-26.9-55.5C1071.9,301.7,1072.9,300.1,1074.4,300.1z"/>
			<path class="st12" d="M1125.8,321.8c0,2-1.6,3.5-3.5,3.5c-2,0-3.5-1.6-3.5-3.5c0-2,1.6-3.5,3.5-3.5
				C1124.2,318.3,1125.8,319.8,1125.8,321.8z"/>
		</g>
		<path class="st9" d="M1139.6,359.7c0,0,2.8,4.4,7.7,6.1c5,1.7,8.3,2.8,15.1,0.3c6.8-2.5,3.5-6.4,3.5-6.4s-4.1-3.3-6.5-3.1
			c-2.4,0.2-2.6,1.9-2.2,2.4C1157.6,359.5,1139.6,359.7,1139.6,359.7z"/>
	</g>
</g>
<path d="M1188.9,222.7c-3.6-3.3-8.2-5.1-11.6-9c-3.4-4-6.9-8.4-7.5-13.7c-1.5-13.4,10.7-20.7,23.1-19.5c12.2,1.2,22.4,7.1,25.7,19.5
	c2.6,9.7,3.1,19.6,8.9,28.3c4,6,10.4,10.2,15.3,15.4c4.6,4.9,7.9,10.5,11,16.4c4.3,8.4,5.7,21.1,1,29.6c-3.1,5.6-7.4,10.4-12.7,13.9
	c-4.6,3.1-9.3,7.7-14.8,8.9c-12.5,2.6-21.3-13.2-26.5-22.1c-5.3-9.2-11.6-21.3-11.1-32.2c0.5-9.9,5.8-19.4,2.8-29.5
	C1191.5,225.9,1189.8,224.4,1188.9,222.7z"/>
<path d="M1175.7,199.3c-11.8-3.8-31,5.2-29.3,19.4c1.4,12.3,12.3,23.3,3.7,35.4c-3.9,5.5-10.8,9.3-12.9,16
	c-2.1,6.7,0.1,15.1,7.4,17.3c8,2.4,18.1-2.3,25.4-5.6c6.7-3,13.6-9,15.8-16.2c2.6-8.5,0.8-16-1.1-24.4
	C1182.5,232.5,1181,222.3,1175.7,199.3z"/>
<path class="st9" d="M1087.5,323.1l-0.4-1.1c-1.5-4.3-2.2-8.6-1.8-13.2c0.1-1.4,0-3.7-0.1-5.4c-0.1-1.6-0.5-3.7-1.5-3.4
	c-3.2,1.1-3,5.7-3.4,7.6c-0.1,0.3-0.6,1.9-0.9,1.8l-7.2-5.9c-0.1-0.1-0.2-0.2-0.2-0.3c-0.3-1.4-1.9-9.8-2.2-10
	c-0.2-0.1-2.1-1.1-3.6-1.7c-1-0.5-2.1-0.2-2.8,0.6l-4.1,4.6c-1.8,2.1-2.6,4.8-2.3,7.5c0.6,4.3,3,8.1,6.5,10.5l14.1,9.7
	c0.1,0.1,2.7,1.9,2.8,1.9l6.4-2.5C1087.4,323.7,1087.6,323.4,1087.5,323.1z"/>
<path class="st8" d="M1078.3,325.8c4.4,10.7,10,21.1,17.6,30c6.5,7.6,16.2,17.4,26.7,18.4c7,0.7,13.9-2.9,17.4-8.9
	c2.5-4.3,2.8-10.3,4.4-15c1.9-5.4,3-10.7,3.9-16.3c2.4-15.5,12.8-30.4,27.5-65.9c-9.2-0.8-22.4,10.3-27.8,16.5
	c-7.2,8.4-12.8,16.8-16.4,27.3c-2.8,8.1-4,16.5-5.8,24.8l-3.5,11.2l-34.5-25.7L1078.3,325.8z"/>
<path class="st9" d="M1172.2,280.3c2.8,7.8,15.1,2.4,18.6-1.6c4.7-5.3,4.1-10,4.8-16.8c0.4-3.8,0.7-6.8,0.9-9.1
	c0.7-11.7-3.4-5.4-20.2-5.1c2,4,2.6,9.9,1.6,14.8c0,0.2-0.1,0.4-0.1,0.6C1176.7,267.5,1170.7,275.9,1172.2,280.3z"/>
<path class="st9" d="M1163.6,224.2c0,1.1,0,2.3,0.1,3.5c-0.1,13.3,9.8,30.9,24.7,25.8c1.2-0.3,2.5-0.7,3.6-1.3
	c3.5-1.6,6.4-4.2,8.2-7.9c0.8-1.2,1.5-2.4,2-3.7c0.9-2.1,1.6-4.2,2-6.3c0.5-2.6,0.5-5-0.4-7.4c-1.9-5-7.7-9.8-20.4-16.9
	c-3.5-2-7.6-4.1-12.2-6.4c-3,5.8-6,9.6-7.2,15.3C1163.8,220.5,1163.6,222.3,1163.6,224.2z"/>
<path class="st8" d="M1196.5,373.1c11.4,15.8,28.6,13.2,36,11.1c-1.8-4-3.7-8.1-5.1-12.2c-0.5-1.5-0.9-3-1.3-4.5
	C1211,360.4,1186.9,359.6,1196.5,373.1z"/>
<path d="M1210.1,256.8c4.4-7.6-2.6-19.7-9.1-24.2c-3.9-2.8-8.8-4-12.8-6.6c-4.2-2.7-8.5-5.9-12-9.4c-5.1-5.1-9.7-17.3-3.3-23.4
	c7.7-7.4,21.8,3.5,27.6,8.9c5.1,4.8,9.7,10.7,12.4,17.2C1215.7,226,1214.6,232.2,1210.1,256.8z"/>
<path class="st9" d="M1153.8,367.3c3.7,1.3,9.5-0.9,12.2-3.6c0.3-0.3,0.6-0.6,0.8-0.9c3.3-3.9-0.2-5.9-5.2-11.2
	c-4.2,1.1-5.8-6.5-6.8-6.1c-0.2,0-0.3,0-0.5,0.1C1144.8,347.4,1145.4,364.3,1153.8,367.3z"/>
<path class="st9" d="M1163.1,354.1c-0.9-1.2-1.6-2.4-2.1-3.8c-0.6-1.4-0.6-2.7-0.9-4.2c-0.5-2.4-2-1.4-2.4,0.4
	c-0.3,1.3-0.4,2.6-0.5,3.9C1157.2,351.4,1157.5,354.3,1163.1,354.1z"/>
<path class="st8" d="M1194.7,270.8c5.3,3.6,12,4.1,17.9,6c7.6,2.4,11.5,10.8,13.5,17.9c3.8,13.5,9.4,25.7,11.5,39.6
	c1.1,7.1,1.8,14.4,2.5,21.6c0.8,7.9,0.7,13.2-6.6,17.8c-11.1,7-28.5,3.8-40.3,1.4c-7.4-1.5-15.6-1.9-22.7-4c-3.4-1-7.2-2.2-8.1-5.9
	c-0.6-2.8,0.3-5.8,0.7-8.8c0.2-1.3,1.2-2.3,2.5-2.3c12.8-0.5,25.8,0.4,38.6,0c0.6-12.5-3.8-23.4-4.8-35.5c-0.9-10.4-1.7-23.5,3.3-33
	c1.7-3.2,4.5-4.6,1.6-7.7C1202.9,276.2,1199,273.8,1194.7,270.8z"/>
<g>
	<path class="st11" d="M1074.4,300.1h83.4c0.8,0,1.5,0.5,1.9,1.2l26.9,55.5c0.7,1.4-0.3,3-1.9,3h-83.5c-0.8,0-1.5-0.5-1.9-1.2
		l-26.9-55.5C1071.9,301.7,1072.9,300.1,1074.4,300.1z"/>
	<path class="st12" d="M1125.8,321.8c0,2-1.6,3.5-3.5,3.5c-2,0-3.5-1.6-3.5-3.5c0-2,1.6-3.5,3.5-3.5
		C1124.2,318.3,1125.8,319.8,1125.8,321.8z"/>
</g>
<path class="st9" d="M1139.6,359.7c0,0,2.8,4.4,7.7,6.1c5,1.7,8.3,2.8,15.1,0.3c6.8-2.5,3.5-6.4,3.5-6.4s-4.1-3.3-6.5-3.1
	c-2.4,0.2-2.6,1.9-2.2,2.4C1157.6,359.5,1139.6,359.7,1139.6,359.7z"/>
</svg>
