<?xml version="1.0" encoding="utf-8"?>
<!-- Generator: Adobe Illustrator 26.0.2, SVG Export Plug-In . SVG Version: 6.00 Build 0)  -->
<svg version="1.1" id="Layer_1" xmlns="http://www.w3.org/2000/svg" xmlns:xlink="http://www.w3.org/1999/xlink" x="0px" y="0px"
	 viewBox="0 0 1440 510" style="enable-background:new 0 0 1440 510;" xml:space="preserve">
<style type="text/css">
	.st0{fill:#F8FAF7;}
	.st1{fill:none;}
	.st2{fill:none;stroke:#D1D3D4;stroke-width:2;stroke-miterlimit:10;}
	.st3{fill:none;stroke:#D1D3D4;stroke-width:2;stroke-miterlimit:10;stroke-dasharray:12.2412,12.2412;}
	.st4{fill:#939598;}
	.st5{fill:#FF953F;}
	.st6{fill:#E07220;}
	.st7{fill:#F7B58E;}
	.st8{fill:#F39F85;}
	.st9{fill:#181F36;}
	.st10{fill:#2C2622;}
	.st11{fill:#D16C3E;}
	.st12{fill:#69D3D8;}
	.st13{fill:#AAAAAA;}
	.st14{fill:#FFFFFF;}
	.st15{fill:#C2C0FF;}
	.st16{fill:#8886DA;}
	.st17{fill-rule:evenodd;clip-rule:evenodd;fill:#8886DA;}
	.st18{fill-rule:evenodd;clip-rule:evenodd;fill:#FFFFFF;}
	.st19{fill:none;stroke:#D1D3D4;stroke-width:2;stroke-miterlimit:10;stroke-dasharray:12.0818,12.0818;}
</style>
<rect class="st0" width="1440" height="510"/>
<g>
	<g>
		<path class="st2" d="M967.8,362.8c-0.4-2-0.7-3.9-1-5.9"/>
		<path class="st3" d="M965.3,344.7c-0.6-6.2-0.9-12.4-0.9-18.7c0-111.8,90.6-202.4,202.4-202.4c86.6,0,160.4,54.3,189.4,130.8"/>
		<path class="st2" d="M1358.3,260.1c0.6,1.9,1.3,3.8,1.9,5.7"/>
	</g>
</g>
<circle class="st0" cx="967.8" cy="326.4" r="36.4"/>
<circle class="st0" cx="1023" cy="188.8" r="44.9"/>
<circle class="st0" cx="1354.8" cy="270.9" r="42.7"/>
<circle class="st0" cx="1209.2" cy="129.1" r="31.5"/>
<g>
	<g>
		<path class="st4" d="M948.3,363.7l-2-5.7h0c0.1,0.8,0.1,1.6,0.1,2.4v3.3h-1v-6.8h1.6l1.9,5.4h0l2-5.4h1.6v6.8h-1.1v-3.4
			c0-0.3,0-0.8,0-1.3c0-0.5,0-0.9,0-1h0l-2.1,5.7H948.3z"/>
		<path class="st4" d="M957.3,363.7l-0.2-0.7h0c-0.2,0.3-0.5,0.5-0.8,0.6c-0.3,0.1-0.6,0.2-1,0.2c-0.5,0-0.9-0.1-1.2-0.4
			c-0.3-0.3-0.4-0.7-0.4-1.2c0-0.5,0.2-0.9,0.6-1.2s1-0.4,1.8-0.4l0.9,0v-0.3c0-0.3-0.1-0.6-0.2-0.7c-0.2-0.2-0.4-0.2-0.7-0.2
			c-0.3,0-0.5,0-0.8,0.1c-0.2,0.1-0.5,0.2-0.7,0.3l-0.4-0.8c0.3-0.1,0.6-0.3,0.9-0.3c0.3-0.1,0.6-0.1,0.9-0.1c0.7,0,1.2,0.1,1.5,0.4
			c0.3,0.3,0.5,0.7,0.5,1.4v3.5H957.3z M955.7,362.9c0.4,0,0.7-0.1,1-0.3s0.4-0.5,0.4-0.9v-0.4l-0.7,0c-0.5,0-0.9,0.1-1.1,0.3
			c-0.2,0.2-0.4,0.4-0.4,0.7c0,0.2,0.1,0.4,0.2,0.5C955.2,362.9,955.4,362.9,955.7,362.9z"/>
		<path class="st4" d="M960.7,363.7h-1.1v-7.3h1.1V363.7z"/>
		<path class="st4" d="M966.6,363.7l-0.7-2.4c-0.1-0.3-0.2-0.9-0.4-1.8h0c-0.2,0.8-0.3,1.4-0.4,1.8l-0.7,2.4h-1.2l-1.5-5.2h1.1
			l0.7,2.6c0.1,0.6,0.3,1.2,0.3,1.6h0c0-0.2,0.1-0.5,0.1-0.8c0.1-0.3,0.1-0.5,0.2-0.7l0.8-2.7h1.2l0.8,2.7c0,0.2,0.1,0.4,0.2,0.7
			c0.1,0.3,0.1,0.6,0.1,0.7h0c0-0.4,0.2-0.9,0.3-1.6l0.7-2.6h1.1l-1.5,5.2H966.6z"/>
		<path class="st4" d="M973.4,363.7l-0.2-0.7h0c-0.2,0.3-0.5,0.5-0.8,0.6c-0.3,0.1-0.6,0.2-1,0.2c-0.5,0-0.9-0.1-1.2-0.4
			c-0.3-0.3-0.4-0.7-0.4-1.2c0-0.5,0.2-0.9,0.6-1.2s1-0.4,1.8-0.4l0.9,0v-0.3c0-0.3-0.1-0.6-0.2-0.7c-0.2-0.2-0.4-0.2-0.7-0.2
			c-0.3,0-0.5,0-0.8,0.1c-0.2,0.1-0.5,0.2-0.7,0.3l-0.4-0.8c0.3-0.1,0.6-0.3,0.9-0.3c0.3-0.1,0.6-0.1,0.9-0.1c0.7,0,1.2,0.1,1.5,0.4
			c0.3,0.3,0.5,0.7,0.5,1.4v3.5H973.4z M971.7,362.9c0.4,0,0.7-0.1,1-0.3s0.4-0.5,0.4-0.9v-0.4l-0.7,0c-0.5,0-0.9,0.1-1.1,0.3
			c-0.2,0.2-0.4,0.4-0.4,0.7c0,0.2,0.1,0.4,0.2,0.5C971.3,362.9,971.5,362.9,971.7,362.9z"/>
		<path class="st4" d="M978.3,358.4c0.2,0,0.4,0,0.5,0l-0.1,1c-0.2,0-0.3-0.1-0.5-0.1c-0.4,0-0.8,0.1-1.1,0.4
			c-0.3,0.3-0.4,0.7-0.4,1.1v2.7h-1.1v-5.2h0.9l0.1,0.9h0.1c0.2-0.3,0.4-0.6,0.7-0.7C977.7,358.5,978,358.4,978.3,358.4z"/>
		<path class="st4" d="M982.1,363.8c-0.8,0-1.4-0.2-1.9-0.7c-0.5-0.5-0.7-1.1-0.7-1.9c0-0.8,0.2-1.5,0.6-2c0.4-0.5,1-0.7,1.7-0.7
			c0.7,0,1.2,0.2,1.6,0.6s0.6,1,0.6,1.7v0.6h-3.4c0,0.5,0.2,0.9,0.4,1.2c0.3,0.3,0.6,0.4,1.1,0.4c0.3,0,0.6,0,0.9-0.1
			c0.3-0.1,0.5-0.2,0.8-0.3v0.9c-0.3,0.1-0.5,0.2-0.8,0.3C982.8,363.7,982.4,363.8,982.1,363.8z M981.9,359.2
			c-0.3,0-0.6,0.1-0.8,0.3c-0.2,0.2-0.3,0.5-0.4,1h2.3c0-0.4-0.1-0.8-0.3-1C982.5,359.4,982.2,359.2,981.9,359.2z"/>
	</g>
</g>
<g>
	<g>
		<path class="st4" d="M1323.6,287.2c-0.6,0-1.1,0.2-1.5,0.7s-0.6,1.1-0.6,1.9c0,0.8,0.2,1.5,0.5,1.9c0.4,0.4,0.9,0.6,1.5,0.6
			c0.3,0,0.6,0,0.8-0.1c0.3-0.1,0.6-0.1,0.8-0.2v1c-0.5,0.2-1.1,0.3-1.8,0.3c-1,0-1.8-0.3-2.3-0.9c-0.5-0.6-0.8-1.5-0.8-2.6
			c0-0.7,0.1-1.3,0.4-1.9s0.6-0.9,1.1-1.2c0.5-0.3,1.1-0.4,1.7-0.4c0.7,0,1.3,0.1,1.9,0.4l-0.4,0.9c-0.2-0.1-0.5-0.2-0.7-0.3
			C1324.1,287.2,1323.9,287.2,1323.6,287.2z"/>
		<path class="st4" d="M1327.7,293.1h-1.1v-7.3h1.1V293.1z"/>
		<path class="st4" d="M1333.9,290.5c0,0.8-0.2,1.5-0.7,2s-1,0.7-1.8,0.7c-0.5,0-0.9-0.1-1.3-0.3c-0.4-0.2-0.7-0.5-0.9-0.9
			c-0.2-0.4-0.3-0.9-0.3-1.4c0-0.8,0.2-1.5,0.6-2s1-0.7,1.8-0.7c0.7,0,1.3,0.2,1.8,0.7C1333.7,289.1,1333.9,289.7,1333.9,290.5z
			 M1330.1,290.5c0,1.2,0.4,1.8,1.3,1.8c0.9,0,1.3-0.6,1.3-1.8c0-1.2-0.4-1.8-1.3-1.8c-0.5,0-0.8,0.2-1,0.5
			C1330.2,289.5,1330.1,290,1330.1,290.5z"/>
		<path class="st4" d="M1338.8,293.1l-0.2-0.7h-0.1c-0.2,0.2-0.4,0.4-0.7,0.6s-0.6,0.2-1,0.2c-0.6,0-1.1-0.2-1.4-0.5
			c-0.3-0.3-0.5-0.8-0.5-1.4V288h1.1v3.2c0,0.4,0.1,0.7,0.2,0.9s0.4,0.3,0.8,0.3c0.5,0,0.8-0.1,1-0.4c0.2-0.3,0.3-0.7,0.3-1.4V288
			h1.1v5.2H1338.8z"/>
		<path class="st4" d="M1343,293.2c-0.6,0-1.2-0.2-1.5-0.7c-0.4-0.5-0.5-1.1-0.5-2c0-0.8,0.2-1.5,0.5-2c0.4-0.5,0.9-0.7,1.5-0.7
			c0.7,0,1.2,0.3,1.6,0.8h0.1c-0.1-0.4-0.1-0.7-0.1-0.9v-1.9h1.1v7.3h-0.9l-0.2-0.7h-0.1C1344.2,293,1343.7,293.2,1343,293.2z
			 M1343.3,292.3c0.5,0,0.8-0.1,1-0.4c0.2-0.3,0.3-0.7,0.3-1.2v-0.2c0-0.7-0.1-1.1-0.3-1.4c-0.2-0.3-0.5-0.4-1-0.4
			c-0.4,0-0.7,0.2-0.9,0.5s-0.3,0.8-0.3,1.3c0,0.6,0.1,1,0.3,1.3C1342.6,292.2,1342.9,292.3,1343.3,292.3z"/>
		<path class="st4" d="M1355.2,293.1h-1.1v-3.1h-3.2v3.1h-1.1v-6.8h1.1v2.8h3.2v-2.8h1.1V293.1z"/>
		<path class="st4" d="M1360.1,293.1l-0.2-0.7h0c-0.2,0.3-0.5,0.5-0.8,0.6c-0.3,0.1-0.6,0.2-1,0.2c-0.5,0-0.9-0.1-1.2-0.4
			c-0.3-0.3-0.4-0.7-0.4-1.2c0-0.5,0.2-0.9,0.6-1.2s1-0.4,1.8-0.4l0.9,0v-0.3c0-0.3-0.1-0.6-0.2-0.7c-0.2-0.2-0.4-0.2-0.7-0.2
			c-0.3,0-0.5,0-0.8,0.1c-0.2,0.1-0.5,0.2-0.7,0.3l-0.4-0.8c0.3-0.1,0.6-0.3,0.9-0.3c0.3-0.1,0.6-0.1,0.9-0.1c0.7,0,1.2,0.1,1.5,0.4
			c0.3,0.3,0.5,0.7,0.5,1.4v3.5H1360.1z M1358.5,292.4c0.4,0,0.7-0.1,1-0.3s0.4-0.5,0.4-0.9v-0.4l-0.7,0c-0.5,0-0.9,0.1-1.1,0.3
			c-0.2,0.2-0.4,0.4-0.4,0.7c0,0.2,0.1,0.4,0.2,0.5C1358,292.3,1358.2,292.4,1358.5,292.4z"/>
		<path class="st4" d="M1364.5,293.2c-0.8,0-1.4-0.2-1.8-0.7c-0.4-0.5-0.6-1.1-0.6-2c0-0.9,0.2-1.5,0.6-2c0.4-0.5,1-0.7,1.8-0.7
			c0.5,0,1,0.1,1.5,0.3l-0.3,0.9c-0.5-0.2-0.8-0.3-1.2-0.3c-0.9,0-1.3,0.6-1.3,1.8c0,0.6,0.1,1,0.3,1.3c0.2,0.3,0.5,0.4,1,0.4
			c0.5,0,1-0.1,1.4-0.4v1c-0.2,0.1-0.4,0.2-0.6,0.2S1364.9,293.2,1364.5,293.2z"/>
		<path class="st4" d="M1368.3,290.4l0.6-0.8l1.6-1.7h1.3l-2.1,2.2l2.2,3h-1.3l-1.7-2.3l-0.6,0.5v1.8h-1.1v-7.3h1.1v3.6
			L1368.3,290.4L1368.3,290.4z"/>
		<path class="st4" d="M1372.6,286.6c0-0.2,0.1-0.3,0.2-0.5c0.1-0.1,0.3-0.2,0.5-0.2c0.2,0,0.3,0.1,0.5,0.2s0.2,0.3,0.2,0.5
			c0,0.2-0.1,0.3-0.2,0.4c-0.1,0.1-0.3,0.2-0.5,0.2c-0.2,0-0.4-0.1-0.5-0.2C1372.7,286.9,1372.6,286.8,1372.6,286.6z M1373.8,293.1
			h-1.1V288h1.1V293.1z"/>
		<path class="st4" d="M1379.9,293.1h-1.1V290c0-0.4-0.1-0.7-0.2-0.9c-0.2-0.2-0.4-0.3-0.8-0.3c-0.5,0-0.8,0.1-1,0.4
			c-0.2,0.3-0.3,0.7-0.3,1.4v2.6h-1.1V288h0.9l0.2,0.7h0.1c0.2-0.2,0.4-0.4,0.7-0.6c0.3-0.1,0.6-0.2,1-0.2c1.2,0,1.9,0.6,1.9,1.9
			V293.1z"/>
		<path class="st4" d="M1385.8,288v0.6l-0.9,0.2c0.1,0.1,0.1,0.2,0.2,0.4c0.1,0.2,0.1,0.3,0.1,0.5c0,0.5-0.2,1-0.6,1.3
			s-0.9,0.5-1.5,0.5c-0.2,0-0.3,0-0.4,0c-0.2,0.1-0.4,0.3-0.4,0.5c0,0.1,0.1,0.2,0.2,0.3c0.1,0.1,0.3,0.1,0.6,0.1h0.9
			c0.6,0,1,0.1,1.3,0.4c0.3,0.2,0.4,0.6,0.4,1.1c0,0.6-0.2,1-0.7,1.4s-1.2,0.5-2.1,0.5c-0.7,0-1.2-0.1-1.6-0.4
			c-0.4-0.2-0.6-0.6-0.6-1.1c0-0.3,0.1-0.6,0.3-0.8s0.5-0.4,0.8-0.5c-0.1-0.1-0.3-0.2-0.4-0.3c-0.1-0.1-0.1-0.3-0.1-0.4
			c0-0.2,0.1-0.4,0.2-0.5c0.1-0.1,0.3-0.3,0.5-0.4c-0.3-0.1-0.5-0.3-0.7-0.6c-0.2-0.3-0.2-0.6-0.2-0.9c0-0.6,0.2-1,0.5-1.3
			c0.4-0.3,0.9-0.5,1.5-0.5c0.1,0,0.3,0,0.5,0c0.2,0,0.3,0,0.4,0.1H1385.8z M1381.7,293.9c0,0.2,0.1,0.4,0.3,0.5s0.5,0.2,0.9,0.2
			c0.6,0,1-0.1,1.3-0.3c0.3-0.2,0.4-0.4,0.4-0.7c0-0.2-0.1-0.4-0.2-0.5c-0.2-0.1-0.5-0.1-0.9-0.1h-0.8c-0.3,0-0.6,0.1-0.8,0.2
			C1381.8,293.5,1381.7,293.7,1381.7,293.9z M1382.2,289.6c0,0.3,0.1,0.6,0.2,0.7s0.4,0.3,0.7,0.3c0.6,0,1-0.3,1-1
			c0-0.3-0.1-0.6-0.2-0.8c-0.2-0.2-0.4-0.3-0.7-0.3c-0.3,0-0.6,0.1-0.7,0.3C1382.3,289,1382.2,289.3,1382.2,289.6z"/>
	</g>
</g>
<g>
	<g>
		<path class="st4" d="M995.4,208.7v2.7h-1.1v-6.8h1.9c0.9,0,1.5,0.2,2,0.5c0.4,0.3,0.6,0.8,0.6,1.5c0,0.9-0.4,1.5-1.3,1.8l1.9,3
			h-1.3l-1.6-2.7H995.4z M995.4,207.7h0.8c0.5,0,0.9-0.1,1.1-0.3c0.2-0.2,0.4-0.5,0.4-0.9c0-0.4-0.1-0.7-0.4-0.8s-0.6-0.3-1.1-0.3
			h-0.7V207.7z"/>
		<path class="st4" d="M1003.5,211.4l-0.2-0.7h0c-0.2,0.3-0.5,0.5-0.8,0.6c-0.3,0.1-0.6,0.2-1,0.2c-0.5,0-0.9-0.1-1.2-0.4
			c-0.3-0.3-0.4-0.7-0.4-1.2c0-0.5,0.2-0.9,0.6-1.2s1-0.4,1.8-0.4l0.9,0V208c0-0.3-0.1-0.6-0.2-0.7c-0.2-0.2-0.4-0.2-0.7-0.2
			c-0.3,0-0.5,0-0.8,0.1c-0.2,0.1-0.5,0.2-0.7,0.3l-0.4-0.8c0.3-0.1,0.6-0.3,0.9-0.3c0.3-0.1,0.6-0.1,0.9-0.1c0.7,0,1.2,0.1,1.5,0.4
			c0.3,0.3,0.5,0.7,0.5,1.4v3.5H1003.5z M1001.9,210.7c0.4,0,0.7-0.1,1-0.3s0.4-0.5,0.4-0.9v-0.4l-0.7,0c-0.5,0-0.9,0.1-1.1,0.3
			c-0.2,0.2-0.4,0.4-0.4,0.7c0,0.2,0.1,0.4,0.2,0.5C1001.4,210.6,1001.6,210.7,1001.9,210.7z"/>
		<path class="st4" d="M1010.4,211.4h-1.1v-3.2c0-0.4-0.1-0.7-0.2-0.9c-0.2-0.2-0.4-0.3-0.8-0.3c-0.5,0-0.8,0.1-1,0.4
			c-0.2,0.3-0.3,0.7-0.3,1.4v2.6h-1.1v-5.2h0.9l0.2,0.7h0.1c0.2-0.2,0.4-0.4,0.7-0.6c0.3-0.1,0.6-0.2,1-0.2c1.2,0,1.9,0.6,1.9,1.9
			V211.4z"/>
		<path class="st4" d="M1015.4,209.9c0,0.5-0.2,0.9-0.6,1.2c-0.4,0.3-0.9,0.4-1.6,0.4c-0.7,0-1.2-0.1-1.7-0.3v-1
			c0.6,0.3,1.2,0.4,1.7,0.4c0.7,0,1-0.2,1-0.6c0-0.1,0-0.2-0.1-0.3s-0.2-0.2-0.4-0.3c-0.2-0.1-0.4-0.2-0.7-0.3
			c-0.6-0.2-1-0.5-1.2-0.7s-0.3-0.5-0.3-0.9c0-0.4,0.2-0.8,0.5-1c0.4-0.2,0.8-0.4,1.5-0.4c0.6,0,1.2,0.1,1.7,0.4l-0.4,0.8
			c-0.6-0.2-1-0.3-1.4-0.3c-0.6,0-0.9,0.2-0.9,0.5c0,0.2,0.1,0.3,0.2,0.4s0.5,0.3,1,0.5c0.4,0.2,0.7,0.3,0.9,0.5s0.3,0.3,0.4,0.5
			C1015.4,209.5,1015.4,209.7,1015.4,209.9z"/>
		<path class="st4" d="M1021.2,208.8c0,0.8-0.2,1.5-0.7,2s-1,0.7-1.8,0.7c-0.5,0-0.9-0.1-1.3-0.3c-0.4-0.2-0.7-0.5-0.9-0.9
			c-0.2-0.4-0.3-0.9-0.3-1.4c0-0.8,0.2-1.5,0.6-2s1-0.7,1.8-0.7c0.7,0,1.3,0.2,1.8,0.7C1021,207.3,1021.2,208,1021.2,208.8z
			 M1017.4,208.8c0,1.2,0.4,1.8,1.3,1.8c0.9,0,1.3-0.6,1.3-1.8c0-1.2-0.4-1.8-1.3-1.8c-0.5,0-0.8,0.2-1,0.5
			C1017.5,207.8,1017.4,208.2,1017.4,208.8z"/>
		<path class="st4" d="M1026.8,211.4h-1.1v-3.2c0-0.4-0.1-0.7-0.2-0.9c-0.2-0.2-0.4-0.3-0.7-0.3c-0.4,0-0.7,0.1-0.9,0.4
			c-0.2,0.3-0.3,0.7-0.3,1.4v2.6h-1.1v-5.2h0.9l0.2,0.7h0.1c0.1-0.2,0.4-0.4,0.6-0.6c0.3-0.1,0.6-0.2,0.9-0.2c0.8,0,1.3,0.3,1.6,0.8
			h0.1c0.2-0.3,0.4-0.5,0.6-0.6c0.3-0.1,0.6-0.2,1-0.2c0.6,0,1.1,0.2,1.3,0.5s0.4,0.8,0.4,1.4v3.4h-1.1v-3.2c0-0.4-0.1-0.7-0.2-0.9
			c-0.2-0.2-0.4-0.3-0.7-0.3c-0.4,0-0.7,0.1-0.9,0.4c-0.2,0.3-0.3,0.7-0.3,1.2V211.4z"/>
		<path class="st4" d="M1035.9,211.4l-0.7-2.4c-0.1-0.3-0.2-0.9-0.4-1.8h0c-0.2,0.8-0.3,1.4-0.4,1.8l-0.7,2.4h-1.2l-1.5-5.2h1.1
			l0.7,2.6c0.1,0.6,0.3,1.2,0.3,1.6h0c0-0.2,0.1-0.5,0.1-0.8c0.1-0.3,0.1-0.5,0.2-0.7l0.8-2.7h1.2l0.8,2.7c0,0.2,0.1,0.4,0.2,0.7
			c0.1,0.3,0.1,0.6,0.1,0.7h0c0-0.4,0.2-0.9,0.3-1.6l0.7-2.6h1.1l-1.5,5.2H1035.9z"/>
		<path class="st4" d="M1042.7,211.4l-0.2-0.7h0c-0.2,0.3-0.5,0.5-0.8,0.6c-0.3,0.1-0.6,0.2-1,0.2c-0.5,0-0.9-0.1-1.2-0.4
			c-0.3-0.3-0.4-0.7-0.4-1.2c0-0.5,0.2-0.9,0.6-1.2s1-0.4,1.8-0.4l0.9,0V208c0-0.3-0.1-0.6-0.2-0.7c-0.2-0.2-0.4-0.2-0.7-0.2
			c-0.3,0-0.5,0-0.8,0.1c-0.2,0.1-0.5,0.2-0.7,0.3l-0.4-0.8c0.3-0.1,0.6-0.3,0.9-0.3c0.3-0.1,0.6-0.1,0.9-0.1c0.7,0,1.2,0.1,1.5,0.4
			c0.3,0.3,0.5,0.7,0.5,1.4v3.5H1042.7z M1041.1,210.7c0.4,0,0.7-0.1,1-0.3s0.4-0.5,0.4-0.9v-0.4l-0.7,0c-0.5,0-0.9,0.1-1.1,0.3
			c-0.2,0.2-0.4,0.4-0.4,0.7c0,0.2,0.1,0.4,0.2,0.5C1040.6,210.6,1040.8,210.7,1041.1,210.7z"/>
		<path class="st4" d="M1047.6,206.1c0.2,0,0.4,0,0.5,0l-0.1,1c-0.2,0-0.3-0.1-0.5-0.1c-0.4,0-0.8,0.1-1.1,0.4
			c-0.3,0.3-0.4,0.7-0.4,1.1v2.7h-1.1v-5.2h0.9l0.1,0.9h0.1c0.2-0.3,0.4-0.6,0.7-0.7C1047,206.2,1047.3,206.1,1047.6,206.1z"/>
		<path class="st4" d="M1051.4,211.5c-0.8,0-1.4-0.2-1.9-0.7c-0.5-0.5-0.7-1.1-0.7-1.9c0-0.8,0.2-1.5,0.6-2c0.4-0.5,1-0.7,1.7-0.7
			c0.7,0,1.2,0.2,1.6,0.6s0.6,1,0.6,1.7v0.6h-3.4c0,0.5,0.2,0.9,0.4,1.2c0.3,0.3,0.6,0.4,1.1,0.4c0.3,0,0.6,0,0.9-0.1
			c0.3-0.1,0.5-0.2,0.8-0.3v0.9c-0.3,0.1-0.5,0.2-0.8,0.3C1052.1,211.5,1051.8,211.5,1051.4,211.5z M1051.2,207
			c-0.3,0-0.6,0.1-0.8,0.3c-0.2,0.2-0.3,0.5-0.4,1h2.3c0-0.4-0.1-0.8-0.3-1C1051.8,207.1,1051.6,207,1051.2,207z"/>
	</g>
</g>
<g>
	<g>
		<path class="st4" d="M1183.1,167.7h-3.9v-6.8h3.9v0.9h-2.8v1.9h2.6v0.9h-2.6v2.1h2.8V167.7z"/>
		<path class="st4" d="M1189,167.7h-1.1v-3.2c0-0.4-0.1-0.7-0.2-0.9c-0.2-0.2-0.4-0.3-0.8-0.3c-0.5,0-0.8,0.1-1,0.4
			c-0.2,0.3-0.3,0.7-0.3,1.4v2.6h-1.1v-5.2h0.9l0.2,0.7h0.1c0.2-0.2,0.4-0.4,0.7-0.6c0.3-0.1,0.6-0.2,1-0.2c1.2,0,1.9,0.6,1.9,1.9
			V167.7z"/>
		<path class="st4" d="M1194.2,167.7l-0.2-0.7h-0.1c-0.2,0.2-0.4,0.4-0.7,0.6s-0.6,0.2-1,0.2c-0.6,0-1.1-0.2-1.4-0.5
			c-0.3-0.3-0.5-0.8-0.5-1.4v-3.4h1.1v3.2c0,0.4,0.1,0.7,0.2,0.9s0.4,0.3,0.8,0.3c0.5,0,0.8-0.1,1-0.4c0.2-0.3,0.3-0.7,0.3-1.4v-2.6
			h1.1v5.2H1194.2z"/>
		<path class="st4" d="M1201,167.7h-1.1v-3.2c0-0.4-0.1-0.7-0.2-0.9c-0.2-0.2-0.4-0.3-0.7-0.3c-0.4,0-0.7,0.1-0.9,0.4
			c-0.2,0.3-0.3,0.7-0.3,1.4v2.6h-1.1v-5.2h0.9l0.2,0.7h0.1c0.1-0.2,0.4-0.4,0.6-0.6c0.3-0.1,0.6-0.2,0.9-0.2c0.8,0,1.3,0.3,1.6,0.8
			h0.1c0.2-0.3,0.4-0.5,0.6-0.6c0.3-0.1,0.6-0.2,1-0.2c0.6,0,1.1,0.2,1.3,0.5s0.4,0.8,0.4,1.4v3.4h-1.1v-3.2c0-0.4-0.1-0.7-0.2-0.9
			c-0.2-0.2-0.4-0.3-0.7-0.3c-0.4,0-0.7,0.1-0.9,0.4c-0.2,0.3-0.3,0.7-0.3,1.2V167.7z"/>
		<path class="st4" d="M1208.1,167.8c-0.8,0-1.4-0.2-1.9-0.7c-0.5-0.5-0.7-1.1-0.7-1.9c0-0.8,0.2-1.5,0.6-2c0.4-0.5,1-0.7,1.7-0.7
			c0.7,0,1.2,0.2,1.6,0.6s0.6,1,0.6,1.7v0.6h-3.4c0,0.5,0.2,0.9,0.4,1.2c0.3,0.3,0.6,0.4,1.1,0.4c0.3,0,0.6,0,0.9-0.1
			c0.3-0.1,0.5-0.2,0.8-0.3v0.9c-0.3,0.1-0.5,0.2-0.8,0.3C1208.7,167.8,1208.4,167.8,1208.1,167.8z M1207.9,163.3
			c-0.3,0-0.6,0.1-0.8,0.3c-0.2,0.2-0.3,0.5-0.4,1h2.3c0-0.4-0.1-0.8-0.3-1C1208.5,163.4,1208.2,163.3,1207.9,163.3z"/>
		<path class="st4" d="M1213.9,162.5c0.2,0,0.4,0,0.5,0l-0.1,1c-0.2,0-0.3-0.1-0.5-0.1c-0.4,0-0.8,0.1-1.1,0.4
			c-0.3,0.3-0.4,0.7-0.4,1.1v2.7h-1.1v-5.2h0.9l0.1,0.9h0.1c0.2-0.3,0.4-0.6,0.7-0.7C1213.3,162.6,1213.6,162.5,1213.9,162.5z"/>
		<path class="st4" d="M1218.7,167.7l-0.2-0.7h0c-0.2,0.3-0.5,0.5-0.8,0.6c-0.3,0.1-0.6,0.2-1,0.2c-0.5,0-0.9-0.1-1.2-0.4
			c-0.3-0.3-0.4-0.7-0.4-1.2c0-0.5,0.2-0.9,0.6-1.2s1-0.4,1.8-0.4l0.9,0v-0.3c0-0.3-0.1-0.6-0.2-0.7c-0.2-0.2-0.4-0.2-0.7-0.2
			c-0.3,0-0.5,0-0.8,0.1c-0.2,0.1-0.5,0.2-0.7,0.3l-0.4-0.8c0.3-0.1,0.6-0.3,0.9-0.3c0.3-0.1,0.6-0.1,0.9-0.1c0.7,0,1.2,0.1,1.5,0.4
			c0.3,0.3,0.5,0.7,0.5,1.4v3.5H1218.7z M1217.1,167c0.4,0,0.7-0.1,1-0.3s0.4-0.5,0.4-0.9v-0.4l-0.7,0c-0.5,0-0.9,0.1-1.1,0.3
			c-0.2,0.2-0.4,0.4-0.4,0.7c0,0.2,0.1,0.4,0.2,0.5C1216.6,166.9,1216.8,167,1217.1,167z"/>
		<path class="st4" d="M1222.9,166.9c0.3,0,0.5,0,0.8-0.1v0.8c-0.1,0.1-0.3,0.1-0.5,0.1c-0.2,0-0.4,0.1-0.6,0.1
			c-1,0-1.6-0.5-1.6-1.6v-2.8h-0.7v-0.5l0.8-0.4l0.4-1.1h0.7v1.2h1.5v0.8h-1.5v2.8c0,0.3,0.1,0.5,0.2,0.6
			C1222.6,166.9,1222.7,166.9,1222.9,166.9z"/>
		<path class="st4" d="M1224.7,161.2c0-0.2,0.1-0.3,0.2-0.5c0.1-0.1,0.3-0.2,0.5-0.2c0.2,0,0.3,0.1,0.5,0.2s0.2,0.3,0.2,0.5
			c0,0.2-0.1,0.3-0.2,0.4c-0.1,0.1-0.3,0.2-0.5,0.2c-0.2,0-0.4-0.1-0.5-0.2C1224.8,161.5,1224.7,161.4,1224.7,161.2z M1225.9,167.7
			h-1.1v-5.2h1.1V167.7z"/>
		<path class="st4" d="M1232,165.1c0,0.8-0.2,1.5-0.7,2s-1,0.7-1.8,0.7c-0.5,0-0.9-0.1-1.3-0.3c-0.4-0.2-0.7-0.5-0.9-0.9
			c-0.2-0.4-0.3-0.9-0.3-1.4c0-0.8,0.2-1.5,0.6-2s1-0.7,1.8-0.7c0.7,0,1.3,0.2,1.8,0.7C1231.8,163.7,1232,164.3,1232,165.1z
			 M1228.3,165.1c0,1.2,0.4,1.8,1.3,1.8c0.9,0,1.3-0.6,1.3-1.8c0-1.2-0.4-1.8-1.3-1.8c-0.5,0-0.8,0.2-1,0.5
			C1228.4,164.1,1228.3,164.6,1228.3,165.1z"/>
		<path class="st4" d="M1237.9,167.7h-1.1v-3.2c0-0.4-0.1-0.7-0.2-0.9c-0.2-0.2-0.4-0.3-0.8-0.3c-0.5,0-0.8,0.1-1,0.4
			c-0.2,0.3-0.3,0.7-0.3,1.4v2.6h-1.1v-5.2h0.9l0.2,0.7h0.1c0.2-0.2,0.4-0.4,0.7-0.6c0.3-0.1,0.6-0.2,1-0.2c1.2,0,1.9,0.6,1.9,1.9
			V167.7z"/>
		<path class="st4" d="M1185.3,179.2h-1.1v-5.9h-2v-1h5.1v1h-2V179.2z"/>
		<path class="st4" d="M1190.6,179.3c-0.8,0-1.4-0.2-1.9-0.7c-0.5-0.5-0.7-1.1-0.7-1.9c0-0.8,0.2-1.5,0.6-2c0.4-0.5,1-0.7,1.7-0.7
			c0.7,0,1.2,0.2,1.6,0.6s0.6,1,0.6,1.7v0.6h-3.4c0,0.5,0.2,0.9,0.4,1.2c0.3,0.3,0.6,0.4,1.1,0.4c0.3,0,0.6,0,0.9-0.1
			c0.3-0.1,0.5-0.2,0.8-0.3v0.9c-0.3,0.1-0.5,0.2-0.8,0.3C1191.2,179.3,1190.9,179.3,1190.6,179.3z M1190.3,174.8
			c-0.3,0-0.6,0.1-0.8,0.3c-0.2,0.2-0.3,0.5-0.4,1h2.3c0-0.4-0.1-0.8-0.3-1C1191,174.9,1190.7,174.8,1190.3,174.8z"/>
		<path class="st4" d="M1195.9,179.3c-0.8,0-1.4-0.2-1.8-0.7c-0.4-0.5-0.6-1.1-0.6-2c0-0.9,0.2-1.5,0.6-2c0.4-0.5,1-0.7,1.8-0.7
			c0.5,0,1,0.1,1.5,0.3l-0.3,0.9c-0.5-0.2-0.8-0.3-1.2-0.3c-0.9,0-1.3,0.6-1.3,1.8c0,0.6,0.1,1,0.3,1.3c0.2,0.3,0.5,0.4,1,0.4
			c0.5,0,1-0.1,1.4-0.4v1c-0.2,0.1-0.4,0.2-0.6,0.2S1196.2,179.3,1195.9,179.3z"/>
		<path class="st4" d="M1203.1,179.2h-1.1v-3.2c0-0.4-0.1-0.7-0.2-0.9c-0.2-0.2-0.4-0.3-0.8-0.3c-0.5,0-0.8,0.1-1,0.4
			c-0.2,0.3-0.3,0.7-0.3,1.4v2.6h-1.1V172h1.1v1.8c0,0.3,0,0.6-0.1,1h0.1c0.1-0.2,0.4-0.4,0.6-0.6c0.3-0.1,0.6-0.2,0.9-0.2
			c1.3,0,1.9,0.6,1.9,1.9V179.2z"/>
		<path class="st4" d="M1209.2,179.2h-1.1v-3.2c0-0.4-0.1-0.7-0.2-0.9c-0.2-0.2-0.4-0.3-0.8-0.3c-0.5,0-0.8,0.1-1,0.4
			c-0.2,0.3-0.3,0.7-0.3,1.4v2.6h-1.1v-5.2h0.9l0.2,0.7h0.1c0.2-0.2,0.4-0.4,0.7-0.6c0.3-0.1,0.6-0.2,1-0.2c1.2,0,1.9,0.6,1.9,1.9
			V179.2z"/>
		<path class="st4" d="M1210.7,172.7c0-0.2,0.1-0.3,0.2-0.5c0.1-0.1,0.3-0.2,0.5-0.2c0.2,0,0.3,0.1,0.5,0.2s0.2,0.3,0.2,0.5
			c0,0.2-0.1,0.3-0.2,0.4c-0.1,0.1-0.3,0.2-0.5,0.2c-0.2,0-0.4-0.1-0.5-0.2C1210.7,173,1210.7,172.9,1210.7,172.7z M1211.8,179.2
			h-1.1v-5.2h1.1V179.2z"/>
		<path class="st4" d="M1215.1,179.3c-0.6,0-1.1-0.2-1.5-0.7c-0.4-0.5-0.5-1.1-0.5-2c0-0.8,0.2-1.5,0.6-2c0.4-0.5,0.9-0.7,1.5-0.7
			c0.3,0,0.6,0.1,0.9,0.2c0.3,0.1,0.5,0.3,0.7,0.6h0l0.1-0.7h0.9v7.5h-1.1v-2.2c0-0.1,0-0.3,0-0.4s0-0.3,0-0.4h-0.1
			C1216.4,179.1,1215.8,179.3,1215.1,179.3z M1215.4,178.4c0.5,0,0.8-0.1,1-0.4c0.2-0.3,0.3-0.7,0.3-1.2v-0.2c0-0.6-0.1-1.1-0.3-1.4
			s-0.5-0.4-1-0.4c-0.4,0-0.7,0.2-0.9,0.5s-0.3,0.8-0.3,1.3C1214.2,177.9,1214.6,178.4,1215.4,178.4z"/>
		<path class="st4" d="M1223,179.2l-0.2-0.7h-0.1c-0.2,0.2-0.4,0.4-0.7,0.6s-0.6,0.2-1,0.2c-0.6,0-1.1-0.2-1.4-0.5
			c-0.3-0.3-0.5-0.8-0.5-1.4v-3.4h1.1v3.2c0,0.4,0.1,0.7,0.2,0.9s0.4,0.3,0.8,0.3c0.5,0,0.8-0.1,1-0.4c0.2-0.3,0.3-0.7,0.3-1.4v-2.6
			h1.1v5.2H1223z"/>
		<path class="st4" d="M1227.7,179.3c-0.8,0-1.4-0.2-1.9-0.7c-0.5-0.5-0.7-1.1-0.7-1.9c0-0.8,0.2-1.5,0.6-2c0.4-0.5,1-0.7,1.7-0.7
			c0.7,0,1.2,0.2,1.6,0.6s0.6,1,0.6,1.7v0.6h-3.4c0,0.5,0.2,0.9,0.4,1.2c0.3,0.3,0.6,0.4,1.1,0.4c0.3,0,0.6,0,0.9-0.1
			c0.3-0.1,0.5-0.2,0.8-0.3v0.9c-0.3,0.1-0.5,0.2-0.8,0.3C1228.4,179.3,1228.1,179.3,1227.7,179.3z M1227.5,174.8
			c-0.3,0-0.6,0.1-0.8,0.3c-0.2,0.2-0.3,0.5-0.4,1h2.3c0-0.4-0.1-0.8-0.3-1C1228.1,174.9,1227.9,174.8,1227.5,174.8z"/>
		<path class="st4" d="M1234.5,177.8c0,0.5-0.2,0.9-0.6,1.2c-0.4,0.3-0.9,0.4-1.6,0.4c-0.7,0-1.2-0.1-1.7-0.3v-1
			c0.6,0.3,1.2,0.4,1.7,0.4c0.7,0,1-0.2,1-0.6c0-0.1,0-0.2-0.1-0.3s-0.2-0.2-0.4-0.3c-0.2-0.1-0.4-0.2-0.7-0.3
			c-0.6-0.2-1-0.5-1.2-0.7s-0.3-0.5-0.3-0.9c0-0.4,0.2-0.8,0.5-1c0.4-0.2,0.8-0.4,1.5-0.4c0.6,0,1.2,0.1,1.7,0.4l-0.4,0.8
			c-0.6-0.2-1-0.3-1.4-0.3c-0.6,0-0.9,0.2-0.9,0.5c0,0.2,0.1,0.3,0.2,0.4s0.5,0.3,1,0.5c0.4,0.2,0.7,0.3,0.9,0.5s0.3,0.3,0.4,0.5
			C1234.4,177.3,1234.5,177.5,1234.5,177.8z"/>
	</g>
</g>
<g>
	<path class="st5" d="M1268.9,326.8c-1,3.6-1.9,7.2-2.7,10.9c-0.4,1.9-0.8,3.7-1.2,5.6c-1.2,6-2.2,12-3,17.9
		c-1.5,11-1,30.5,0.2,51.1h-87.8c0.7-9,1.3-17.9,1.4-26.5c0-1.9,0-3.7-0.1-5.5c-0.1-3.7-0.3-7.3-0.7-10.9c0-0.3-0.1-0.5-0.1-0.8
		c-1-8.9-2.1-17.3-3.3-24.8c-1.6-10.4,0.9-21.5,3.9-30.1c1.5-4.5,3.2-8.3,4.5-11c1.3-2.7,3.9-4.5,6.9-4.8l0,0l3.5-0.3l2.8-0.3
		l1.3-0.1l0.2,0l3.1-0.3l0.3,0l2.7-0.3l5-0.6l4.9-0.6l3-0.2l0.5,0c1.7-0.1,3.4-0.1,5.1-0.1c1.5,0,3,0,4.6,0.1
		c1.7,0.1,3.5,0.2,5.2,0.3c1.5,0.1,3,0.3,4.5,0.5c0,0,0,0,0,0c0.2,0,0.5,0.1,0.7,0.1h0c0.1,0,0.8,0.1,1.9,0.3
		c2.2,0.3,5.9,0.9,9.8,1.5c8.7,1.3,15.7,7.6,18,16.1c1.1,4,2.5,8.2,4,11.5C1268.4,325.9,1268.7,326.3,1268.9,326.8z"/>
	<path class="st5" d="M1184.2,298.6c0,0-24.7,8-45.5,55.1l16.8,23.4l42.8-50.1L1184.2,298.6z"/>
	<path class="st6" d="M1175.5,365.2c-0.6-4.6-1.3-9.2-2-13.8c-0.6-4.5-1.1-9-1.1-13.5c0.1-4.9,0.7-9.8,2.5-14.4
		c0.2-0.4-0.5-0.6-0.6-0.2c-3.2,8.4-2.8,17.6-1.7,26.3c0.6,4.6,1.4,9.2,2,13.8c0.6,4.6,1.1,9.3,1.6,14c0.5,5.3,1,10.5,1.4,15.8
		c0,0.4,0.7,0.4,0.7,0C1177.5,383.9,1176.7,374.5,1175.5,365.2z"/>
	<g>
		<path class="st6" d="M1233.1,296.2c0,3.5-0.7,6.9-2.2,10.1c-2.5,5.5-7.5,9.8-13.3,11c-5.8,1.1-12.1-1.2-15.6-6.1
			c-2.8-4-3.5-9.1-3.5-14.2l0.2,0l2.6-0.2l0.3,0l2.3-0.3l4.1-0.5l4-0.5l2.5-0.1l0.4,0c1.4-0.1,2.8-0.1,4.2-0.1c1.2,0,2.5,0,3.8,0.1
			c1.4,0.1,2.9,0.1,4.3,0.3c1.2,0.1,2.5,0.2,3.7,0.4c0,0,0,0,0,0c0.2,0,0.4,0.1,0.6,0.1h0C1231.7,296,1232.2,296,1233.1,296.2z"/>
	</g>
	<path class="st6" d="M1227.2,295.5v0.2c0,9.1-5.2,16.4-11.6,16.4c-6.2,0-11.3-7-11.6-15.7l4.1-0.5l4-0.5l2.5-0.1l0.4,0
		c1.4-0.1,2.8-0.1,4.2-0.1c1.2,0,2.5,0,3.8,0.1C1224.4,295.2,1225.8,295.3,1227.2,295.5z"/>
	<path class="st7" d="M1224,299.2c0,3.8-2.1,7.3-5.4,9c-0.9,0.4-1.8,0.8-2.7,0.9c-5.3,1-10.6-3.2-10.3-9.1v-0.2l0-0.2l0-0.4l0.2-2.7
		l0.4-6.8c0.1-0.7,0.5-1.4,1.1-1.7l6-3.1l4.1-2.6l6.1-3.9l0.3-0.2l-0.1,1.7l0.1,12.7l0.1,3L1224,299.2z"/>
	<path class="st8" d="M1219.6,281.3c0.2,8.4-5.6,16.2-14.1,18.8v-0.2l0-0.2l0-0.4l0.2-2.7l0.4-6.8c0.1-0.7,0.5-1.4,1.1-1.7l6-3.1
		l4.1-2.6L1219.6,281.3z"/>
	<path class="st7" d="M1242.9,259.6c0,0-0.5-8.4-7.1-5.3c0,0,4.6-16.6-5.1-21.5c0,0-13.4-10.7-27.9-0.8c-2.4,1.7-4.5,3.9-6.1,6.3
		c-2.4,3.5-5.5,9-5.4,14c0,0,0.5,4-0.7,8.8c-0.9,3.5-1,7.1-0.4,10.6c0.6,3.1,1.7,6.8,4,10.2c4.3,6.7,12.6,9.8,20.1,7.2
		c3.8-1.3,8.2-3.8,13.3-8.5c0,0,5.4-4.8,7.6-12.8C1235.2,267.9,1243.4,268.1,1242.9,259.6z"/>
	<g>
		<path class="st9" d="M1209.2,226.6c5.4-2.3,11.7-2.7,17.4-0.9c5.7,1.8,10.6,5.7,13.7,10.7c2.8,4.6,4.4,10.4,9.1,13
			c-1.3-0.4-2.6-0.9-3.8-1.3c2.4,3.6,3.5,8.1,2.9,12.3c-0.6,4.3-2.9,8.3-6.2,11c-1.8,1.4-3.8,2.6-5.1,4.4c-1.3,1.9-1.4,4.9,0.5,6.1
			c-2.2,0.4-4.6-0.7-5.8-2.6c0.4,2-0.1,4.2-1.5,5.8c-1.3,1.6-3.4,2.5-5.5,2.4c-0.1-1.2-0.6-2.4-1.4-3.4c5.4-4.3,9.2-10.5,10.7-17.2
			c1.2,1.2,3.7,0.4,5.2-0.5c1.5-0.9,2.2-1.7,2.8-3.4c0.7-1.8,1-3.9,0.2-5.7c-0.7-1.8-2.7-3.2-4.6-2.8c-2,0.4-3.2,2.5-3.6,4.5
			c-0.4,2-0.2,4.1-0.7,6.1c-1.1,4.5-6.2,7.7-10.7,6.8c3.2-1.8,5-5.7,4.5-9.3c-0.5-3.5-3.1-6.3-5.4-9c-5-5.9-9.6-12.5-11-20.1"/>
	</g>
	<g>
		<path class="st10" d="M1219.4,257.8C1219.4,257.8,1219.4,257.8,1219.4,257.8c0.1,0,0.2,0,0.2,0c-0.7-2.6-2.8-4.8-5.4-5.6
			c-0.4-0.1-0.8-0.2-1.3-0.1c-0.4,0.1-0.8,0.5-0.8,0.9c0,0.5,0.4,0.8,0.8,1.1c0.8,0.5,1.8,0.8,2.7,1.1c0.9,0.3,1.9,0.7,2.6,1.3
			C1218.8,256.8,1219.1,257.3,1219.4,257.8z"/>
	</g>
	<g>
		<path class="st9" d="M1187.5,236.5c2-3.4,6.5-5.6,10.2-4.2c0.9-2.8,3.1-5,5.7-6.3c2.6-1.3,5.5-1.8,8.4-2c3.2-0.2,6.4-0.1,9.4,1.1
			c3.6,1.5,6.3,4.5,8.4,7.8c3,4.8,4.9,10.2,5.5,15.8c0.2,2.1,0.2,4.4,1.2,6.2c-2.5,1.3-5.4,1.6-8.1,0.9c0.5,1.4,1.5,2.6,2.8,3.3
			c-7.1,2.7-15.5,1.9-21.9-2.2c-6.2-3.9-10.5-10.8-11.4-18.1c-4.9,5.2-6.3,14.7-6.8,20.6c-2.2-3.4-3.1-7.7-4.3-11.5
			C1185.4,244.3,1185.4,240,1187.5,236.5z"/>
	</g>
	<g>
		<path class="st11" d="M1094.7,294.1c0,0-12.5-3.1-7-13.3l10.3-1.9l11,8.2L1094.7,294.1z"/>
		<path class="st8" d="M1094.7,294.1c0,0-12.5-3.1-7-13.3l10.3-1.9l11,8.2L1094.7,294.1z"/>
		<path class="st7" d="M1124.2,287.4c-1.7-5.4-6.7-9.1-12.4-9.2l-37.9-0.3c-1.9-0.1-2.5,2.6-0.6,3.2c2.6,0.9,7.9,1.6,18.2,1.4
			l6.1,4.4c0,0-10.5,8.4-2.4,9.3c0,0,9,1.4,17.4-5.2l27.3,79.6c2,6,8.6,9.1,14.5,7.1l0,0c6.5-2.3,9.5-9.7,6.5-15.8L1124.2,287.4z"/>
	</g>
	<g>
		<path class="st12" d="M1113.5,395.7h81c5,0,9.1,4.1,9.1,9.1l0,0h-90V395.7z"/>
		<path class="st12" d="M1113.5,395.7h81c5,0,9.1,4.1,9.1,9.1l0,0h-90V395.7z"/>
		<path class="st13" d="M1113.5,395.7h81c5,0,9.1,4.1,9.1,9.1l0,0h-90V395.7z"/>
		<path class="st13" d="M1038.4,343.7h97.8c0.9,0,1.8,0.5,2.1,1.4l25.8,56.4c0.7,1.6-0.4,3.3-2.1,3.3h-97.8c-0.9,0-1.8-0.5-2.1-1.4
			l-25.8-56.4C1035.5,345.5,1036.6,343.7,1038.4,343.7z"/>
		<path class="st14" d="M1090.9,374.6c0.9,3.3,4.4,7.6,8.3,7c4-0.7,4.7-5.9,3.6-9.1c-1.6-4.6-8.2-8.4-11.2-2.8
			C1090.7,371.1,1090.4,372.9,1090.9,374.6z"/>
	</g>
	<g>
		<g>
			<path class="st7" d="M1211,377.2c0,0-34.8-9-40.4,15.1c0,0-2.5,8.2,7.9-5.4c0,0,4.2-3.8,6.4-2.6c0,0-11.1,9.4-11.7,13
				c-0.3,1.8,3.5,6.5,14.1-9.4c0,0-5.8,8.5-6.2,13.5c-0.2,2.1,2.3,3.1,3.3,1.3l6.9-12.5l-3.9,13c-0.3,1,0,2.1,0.8,2.6
				c1.3,0.8,3.7-0.2,7.3-12.3l0,0c0,0,0.1,0.1,0.1,0.1c6.5,1,12,0.8,17.4-3.9l0.9-1.4L1211,377.2z"/>
			<path class="st7" d="M1269.8,403.1c-0.3,0-0.6-0.1-1-0.2l-59.7-14v-11.4l55.4-2.4l-2.2-4.1l-19.7-36.2c-4.1-7.6-4.7-17-1.4-25.1
				c0-0.1,0.1-0.2,0.1-0.2c5.8-13.8,19.3-8.7,24.1,6c0.1,0.2,13.2,37.4,20.1,57.1c0.5,1.5,1,3,1.5,4.2
				C1291.8,390.2,1282.3,405,1269.8,403.1z"/>
			<g>
				<path class="st5" d="M1287.7,375.4c-6.8,2.7-22.1,0-30.3,0.2l-17.9-40.9c-4.4-8.2-5.1-18.4-1.5-27.1c0-0.1,0.1-0.2,0.1-0.3
					c6.2-14.9,23.1-9.2,28.3,6.6C1266.4,314.2,1280.2,354.2,1287.7,375.4z"/>
			</g>
		</g>
		<g>
			<path class="st6" d="M1256,375.2c-2.8-5.8-5.5-11.7-8.1-17.6c-2.5-6-4.9-12-7.2-18.1c-1.2-3.4-2.4-6.8-3.6-10.3
				c-0.1-0.4-0.8-0.2-0.6,0.2c2.1,6.1,4.3,12.2,6.6,18.3c2.4,6,4.9,12,7.6,17.9c1.5,3.3,3.1,6.6,4.7,9.9
				C1255.6,375.9,1256.2,375.5,1256,375.2z"/>
		</g>
	</g>
</g>
<g>
	<path class="st15" d="M943.5,320.5c0.2-2.3,0.3-4.6,0.5-6.8c0.1-0.8,0.4-1.2,1.2-1.5c6.2-2.3,12.5-4.5,18.7-6.8
		c0.4-0.1,1-0.1,1.4,0c6.2,2.2,12.4,4.5,18.7,6.7c0.7,0.3,1.1,0.7,1.2,1.5c0.5,4.8,0.6,9.6,0,14.4c-0.7,5.4-2.2,10.5-5.4,15
		c-3.4,4.8-7.9,7.9-13.7,9.1c-1.6,0.3-3.1,0-4.7-0.4c-5.9-1.7-10.3-5.5-13.3-10.8c-2.2-3.8-3.3-7.9-3.9-12.1
		C943.6,326,943.5,323.3,943.5,320.5z M982.5,320c-0.1-1.2-0.2-3-0.3-4.8c0-0.3,0-0.5-0.4-0.6c-5.7-2-11.4-4.1-17-6.2
		c-0.2-0.1-0.4-0.1-0.6,0c-5.7,2-11.3,4.1-17,6.1c-0.3,0.1-0.4,0.3-0.4,0.6c-0.4,4.2-0.4,8.4,0.1,12.6c0.5,3.7,1.3,7.2,3,10.6
		c2.6,5.2,6.6,8.9,12.3,10.6c0.9,0.3,1.9,0.6,2.9,0.4c2.3-0.4,4.5-1.3,6.5-2.5c4.1-2.6,6.8-6.3,8.6-10.8
		C982,331,982.5,325.8,982.5,320z"/>
	<path class="st16" d="M969.7,324.8c0.9-0.4,1.9-0.7,2.8-1.1c0.1-0.1,0.2-0.3,0.3-0.4c0.4-0.8,0.8-1.6,1.1-2.4
		c0.3-0.6,0.8-0.8,1.3-0.6c0.5,0.2,0.7,0.8,0.4,1.5c-0.5,1-0.9,2-1.4,3c-0.2,0.3-0.5,0.6-0.8,0.7c-0.8,0.4-1.7,0.7-2.5,1
		c-0.2,0.1-0.4,0.2-0.6,0.3c0.1,0.7,0.2,1.4,0.3,2.2c0.8,0.1,1.6,0.1,2.4,0.2c0.4,0.1,0.8,0.2,1.1,0.5c0.8,0.7,1.5,1.5,2.3,2.2
		c0.5,0.5,0.5,1.1,0.1,1.5c-0.4,0.4-1,0.4-1.5-0.1c-0.6-0.6-1.2-1.2-1.9-1.8c-0.2-0.2-0.5-0.3-0.8-0.4c-0.6-0.1-1.1-0.1-1.8-0.1
		c0,0.6,0.1,1.1,0,1.7c-0.2,1,0.2,1.6,1.2,1.9c1.2,0.3,1.9,1.1,2.4,2.3c0.2,0.6,0.6,1.2,0.9,1.8c0.3,0.6,0.2,1.2-0.3,1.5
		c-0.5,0.3-1.1,0.1-1.4-0.6c-0.4-0.7-0.8-1.5-1.1-2.2c-0.2-0.4-0.4-0.7-0.8-0.8c-0.4-0.2-0.8-0.4-1.3-0.6c-1,2-2.6,3.2-4.9,3.6
		c0-0.2,0-0.4,0-0.6c0-3.4,0-6.9,0-10.3c0-1.5,0-3,0-4.4c0-0.5,0.2-0.6,0.6-0.6c0.7,0,1.4,0,2.1,0c0.6,0,1,0.2,1.3,0.7
		C969.4,324.3,969.6,324.5,969.7,324.8z"/>
	<path class="st16" d="M958.1,328.9c0.1-0.8,0.3-1.5,0.4-2.3c-1-0.4-1.9-0.8-2.9-1.2c-0.4-0.2-0.7-0.4-0.9-0.8
		c-0.4-1-0.9-1.9-1.3-2.9c-0.3-0.6-0.1-1.2,0.4-1.5c0.5-0.3,1.1,0,1.4,0.6c0.4,0.8,0.7,1.6,1.1,2.4c0.1,0.2,0.3,0.4,0.5,0.5
		c0.8,0.3,1.6,0.7,2.5,1c0.4-1.4,1.4-1.5,2.6-1.4c0.4,0,0.8,0,1.2,0c0.4,0,0.6,0.2,0.6,0.6c0,2,0,3.9,0,5.9c0,2.9,0,5.9,0,8.8
		c0,0.2,0,0.4,0,0.7c-2.3-0.4-3.9-1.6-4.9-3.6c-0.6,0.3-1.2,0.6-1.8,0.9c-0.1,0.1-0.2,0.3-0.3,0.4c-0.4,0.8-0.8,1.7-1.2,2.5
		c-0.3,0.6-0.8,0.8-1.4,0.5c-0.5-0.3-0.7-0.8-0.4-1.4c0.5-1,0.9-1.9,1.4-2.9c0.2-0.3,0.5-0.6,0.8-0.8c0.6-0.4,1.3-0.6,1.9-0.9
		c0.1-0.1,0.3-0.3,0.3-0.4c0-0.8,0-1.5,0-2.3c0-0.3-0.1-0.4-0.4-0.4c-0.3,0-0.6,0-1,0.1c-0.6,0-1.1,0.2-1.5,0.7
		c-0.5,0.6-1.1,1.1-1.6,1.6c-0.5,0.5-1.1,0.5-1.5,0c-0.4-0.4-0.3-1,0.1-1.4c0.7-0.7,1.4-1.3,2-2c0.6-0.7,1.4-0.8,2.3-0.8
		C957.1,328.9,957.6,328.9,958.1,328.9z"/>
	<path class="st16" d="M964.4,321.8c-1.1,0-2.2,0-3.3,0c-0.4,0-0.6-0.2-0.6-0.6c0-0.6,0-1.2,0-1.9c0-0.8,0.4-1.5,1.1-2
		c0.6-0.4,1.2-0.8,1.8-1.2c0.7-0.4,1.4-0.5,2.1,0c0.6,0.4,1.3,0.8,1.9,1.3c0.6,0.5,1,1.1,1,1.9c0,0.6,0,1.3,0,1.9
		c0,0.4-0.2,0.6-0.6,0.6C966.7,321.8,965.6,321.8,964.4,321.8z"/>
</g>
<g>
	<path class="st15" d="M1037.7,190.7c-0.2-0.2-0.5-0.2-0.8,0c-0.2,0.2-0.2,0.5,0,0.8l0,0c-0.1,0-0.1,0-0.2,0c-0.3,0-0.5-0.1-0.7-0.3
		l-0.9-0.9c-0.2-0.2-0.3-0.4-0.3-0.7c0-0.2,0-0.3,0.1-0.5c0.1,0,0.2-0.1,0.2-0.1c0.1-0.1,0.1-0.1,0.1-0.2c0.1-0.1,0.3-0.1,0.5-0.1
		c0.3,0,0.5,0.1,0.7,0.3l0.9,0.9c0.2,0.2,0.3,0.4,0.3,0.7C1037.8,190.6,1037.8,190.7,1037.7,190.7L1037.7,190.7L1037.7,190.7z
		 M1033.4,173.6c0,0.3-0.1,0.5-0.3,0.7l-0.9,0.9c-0.2,0.2-0.4,0.3-0.7,0.3c-0.1,0-0.1,0-0.2,0l0.3-0.3c0.2-0.2,0.2-0.5,0-0.8
		c-0.2-0.2-0.5-0.2-0.8,0l-0.3,0.3c0-0.1,0-0.1,0-0.2c0-0.3,0.1-0.5,0.3-0.7l0.9-0.9c0.2-0.2,0.4-0.3,0.7-0.3c0.1,0,0.2,0,0.3,0.1
		c0,0.1,0,0.3,0.2,0.4c0.1,0.1,0.2,0.2,0.4,0.2c0,0,0,0,0,0C1033.3,173.4,1033.4,173.5,1033.4,173.6L1033.4,173.6z M1012.8,173.3
		c0.1,0,0.3-0.1,0.4-0.2c0.1-0.1,0.2-0.3,0.2-0.4c0.1,0,0.2-0.1,0.3-0.1c0.3,0,0.5,0.1,0.7,0.3l0.9,0.9c0.2,0.2,0.3,0.4,0.3,0.7
		c0,0.1,0,0.1,0,0.2l-0.3-0.3c-0.2-0.2-0.5-0.2-0.8,0c-0.2,0.2-0.2,0.5,0,0.8l0.3,0.3c-0.1,0-0.1,0-0.2,0c-0.3,0-0.5-0.1-0.7-0.3
		l-0.9-0.9c-0.2-0.2-0.3-0.4-0.3-0.7C1012.8,173.5,1012.8,173.4,1012.8,173.3C1012.8,173.3,1012.8,173.3,1012.8,173.3L1012.8,173.3z
		 M1008.4,190.6c0-0.3,0.1-0.5,0.3-0.7l0.9-0.9c0.2-0.2,0.4-0.3,0.7-0.3c0.2,0,0.3,0,0.5,0.1c0,0.1,0.1,0.2,0.1,0.2
		c0.1,0.1,0.1,0.1,0.2,0.1c0.1,0.1,0.1,0.3,0.1,0.5c0,0.3-0.1,0.5-0.3,0.7l-0.9,0.9c-0.2,0.2-0.4,0.3-0.7,0.3c-0.1,0-0.1,0-0.2,0
		l0,0c0.2-0.2,0.2-0.5,0-0.8c-0.2-0.2-0.5-0.2-0.8,0l0,0C1008.4,190.7,1008.4,190.6,1008.4,190.6L1008.4,190.6z M1031.9,193.1v-6.8
		c0-0.5-0.2-1-0.6-1.3c-0.3-0.2-0.6-0.4-1-0.4h-0.8v-1.9c0-3.3-2.7-6-6-6c-3.3,0-6,2.7-6,6v1.9h-1.4c-0.5,0-1.1,0.3-1.4,0.7
		c-0.2,0.3-0.3,0.6-0.3,0.9v6.8h-6c-0.2,0-0.5-0.1-0.7-0.2l0.6-0.6c0.3,0.2,0.6,0.3,1,0.3c0.5,0,1-0.2,1.4-0.6l0.9-0.9
		c0.7-0.7,0.8-1.7,0.3-2.4l1.2-1.2c0.2-0.2,0.2-0.5,0-0.8c-0.2-0.2-0.5-0.2-0.8,0l-1.2,1.2c-0.8-0.4-1.8-0.3-2.4,0.3l-0.9,0.9
		c-0.7,0.7-0.8,1.7-0.3,2.4l-0.5,0.5c0-0.1,0-0.2,0-0.3v-23.3c0-0.2,0-0.4,0.1-0.5l0.4,0.4c-0.2,0.3-0.3,0.6-0.3,1
		c0,0.5,0.2,1,0.6,1.4l0.9,0.9c0.4,0.4,0.9,0.6,1.4,0.6c0.3,0,0.7-0.1,1-0.3l0.7,0.7c-0.4,0.8-0.3,1.8,0.3,2.4l0.9,0.9
		c0.4,0.4,0.9,0.6,1.4,0.6c0.3,0,0.7-0.1,1-0.3l0.5,0.5c0.1,0.1,0.2,0.2,0.4,0.2s0.3-0.1,0.4-0.2c0.2-0.2,0.2-0.5,0-0.8l-0.5-0.5
		c0.4-0.8,0.3-1.8-0.3-2.4l-0.9-0.9c-0.7-0.7-1.7-0.8-2.4-0.3l-0.7-0.7c0.4-0.8,0.3-1.8-0.3-2.4l-0.9-0.9c-0.7-0.7-1.7-0.8-2.4-0.3
		l-0.4-0.4c0.1-0.1,0.3-0.1,0.5-0.1h29.3c0.2,0,0.3,0,0.4,0.1l-0.4,0.4c-0.3-0.2-0.6-0.3-1-0.3c-0.5,0-1,0.2-1.4,0.6l-0.9,0.9
		c-0.7,0.7-0.8,1.7-0.3,2.4l-0.7,0.7c-0.8-0.4-1.8-0.3-2.4,0.3l-0.9,0.9c-0.7,0.7-0.8,1.7-0.3,2.4l-0.5,0.5c-0.2,0.2-0.2,0.5,0,0.8
		c0.1,0.1,0.2,0.2,0.4,0.2c0.1,0,0.3-0.1,0.4-0.2l0.5-0.5c0.3,0.2,0.7,0.3,1,0.3c0.5,0,1-0.2,1.4-0.6l0.9-0.9
		c0.7-0.7,0.8-1.7,0.3-2.4l0.7-0.7c0.3,0.2,0.7,0.3,1,0.3c0.5,0,1-0.2,1.4-0.6l0.9-0.9c0.7-0.7,0.8-1.7,0.3-2.4l0.4-0.4
		c0.1,0.2,0.1,0.4,0.1,0.6v23.3c0,0.1,0,0.2-0.1,0.4l-0.5-0.5c0.2-0.3,0.3-0.6,0.3-1c0-0.5-0.2-1-0.6-1.4l-0.9-0.9
		c-0.7-0.7-1.7-0.8-2.4-0.3l-1.2-1.2c-0.2-0.2-0.5-0.2-0.8,0c-0.2,0.2-0.2,0.5,0,0.8l1.2,1.2c-0.4,0.8-0.3,1.8,0.3,2.4l0.9,0.9
		c0.4,0.4,0.9,0.6,1.4,0.6c0.3,0,0.7-0.1,1-0.3l0.6,0.6c-0.2,0.1-0.4,0.2-0.6,0.2H1031.9L1031.9,193.1z M1028.4,184.6h-9.9v-1.9
		c0-2.7,2.2-4.9,4.9-4.9c2.7,0,4.9,2.2,4.9,4.9V184.6L1028.4,184.6z M1030.8,199.1c0,0.3-0.2,0.5-0.5,0.5H1016
		c-0.3,0-0.5-0.2-0.5-0.5v-12.9c0-0.1,0-0.2,0.1-0.3c0.1-0.2,0.3-0.2,0.5-0.2h1.9c0,0,0,0,0.1,0h11c0,0,0,0,0.1,0h1.2
		c0.2,0,0.3,0.1,0.3,0.1c0.1,0.1,0.2,0.3,0.2,0.4V199.1L1030.8,199.1z M1008.4,169.1c0.1,0.1,0.2,0.2,0.4,0.2c0.1,0,0.3-0.1,0.4-0.2
		c0.2-0.2,0.2-0.5,0-0.8l0,0c0.1,0,0.1,0,0.2,0c0.3,0,0.5,0.1,0.7,0.3l0.9,0.9c0.2,0.2,0.3,0.4,0.3,0.7c0,0.2,0,0.3-0.1,0.5
		c-0.1,0-0.2,0.1-0.2,0.1c-0.1,0.1-0.1,0.1-0.1,0.2c-0.1,0.1-0.3,0.1-0.5,0.1c-0.3,0-0.5-0.1-0.7-0.3l-0.9-0.9
		c-0.2-0.2-0.3-0.4-0.3-0.7C1008.4,169.2,1008.4,169.1,1008.4,169.1L1008.4,169.1L1008.4,169.1z M1037.8,169.2
		c0,0.3-0.1,0.5-0.3,0.7l-0.9,0.9c-0.2,0.2-0.4,0.3-0.7,0.3c-0.2,0-0.3,0-0.5-0.1c0-0.1-0.1-0.2-0.1-0.2c-0.1-0.1-0.1-0.1-0.2-0.1
		c-0.1-0.1-0.1-0.3-0.1-0.5c0-0.3,0.1-0.5,0.3-0.7l0.9-0.9c0.2-0.2,0.4-0.3,0.7-0.3c0.1,0,0.1,0,0.2,0l0,0c-0.2,0.2-0.2,0.5,0,0.8
		c0.1,0.1,0.2,0.2,0.4,0.2s0.3-0.1,0.4-0.2l0,0C1037.8,169.1,1037.8,169.2,1037.8,169.2L1037.8,169.2z M1037.7,166h-29.3
		c-1.3,0-2.4,1.1-2.4,2.4v23.3c0,1.3,1.1,2.4,2.4,2.4h6v5c0,0.9,0.7,1.6,1.6,1.6h14.2c0.9,0,1.6-0.7,1.6-1.6v-5h5.9
		c1.3,0,2.4-1.1,2.4-2.4v-23.3C1040.2,167.1,1039.1,166,1037.7,166L1037.7,166z"/>
	<path class="st16" d="M1024.2,191.6c-0.2,0.1-0.2,0.3-0.2,0.5c0,0,0,0,0,0v3.5c0,0.2-0.1,0.3-0.3,0.3h-0.5c-0.2,0-0.3-0.1-0.3-0.3
		v-3.5c0,0,0,0,0,0c0-0.2-0.1-0.4-0.2-0.5c-0.4-0.2-0.6-0.6-0.6-1.1c0-0.7,0.6-1.3,1.3-1.3s1.3,0.6,1.3,1.3
		C1024.8,191,1024.6,191.4,1024.2,191.6L1024.2,191.6z M1023.5,188.2c-1.3,0-2.4,1.1-2.4,2.4c0,0.7,0.3,1.3,0.8,1.8v3.3
		c0,0.7,0.6,1.4,1.4,1.4h0.5c0.7,0,1.4-0.6,1.4-1.4v-3.3c0.5-0.4,0.8-1.1,0.8-1.8C1025.9,189.2,1024.8,188.2,1023.5,188.2
		L1023.5,188.2z"/>
</g>
<g>
	<g>
		<path class="st15" d="M1198,112.2c0.6,0,1.2,0.4,1.5,1l0.4,0.9c0,0,0,0,0,0.1c2.7-1.4,5.8-2.2,9.1-2.2c3.5,0,6.7,0.9,9.6,2.5
			l0.7-0.4c0.2-0.1,0.4-0.2,0.7-0.2c0.4,0,0.8,0.2,1.1,0.5l0.4,0.5c0.1,0.1,0.2,0.2,0.3,0.2c0.1,0,0.3-0.1,0.3-0.2l0.4-0.5
			c0.1-0.1,0.2-0.2,0.3-0.3c-3.8-3-8.5-4.8-13.7-4.8c-4,0-7.8,1.1-11.1,3C1197.9,112.2,1197.9,112.2,1198,112.2z"/>
		<path class="st15" d="M1229,122.2v0.4c0,0.6-0.5,1.2-1.1,1.3l-0.7,0.1c-0.1,0-0.1,0.1-0.2,0.1c0.9,2.2,1.4,4.6,1.4,7.2
			c0,10.7-8.7,19.4-19.4,19.4s-19.4-8.7-19.4-19.4c0-1,0.1-2,0.2-3l-0.1-0.1c-0.5-0.5-0.6-1.4-0.1-2.1l0.6-0.7
			c0.1-0.2,0.2-0.5,0.1-0.7c-0.1-0.2-0.3-0.5-0.5-0.6l-0.9-0.4c-0.2-0.1-0.4-0.2-0.5-0.4c-0.9,2.4-1.5,5.1-1.5,7.9
			c0,12.1,9.9,22,22,22c12.1,0,22-9.9,22-22C1230.9,128,1230.2,124.9,1229,122.2z"/>
	</g>
	<g>
		<g>
			<path class="st16" d="M1223.5,137.9l-0.9-0.7c-0.4-0.3-0.7-0.9-0.7-1.4c0-0.5,0.3-1.1,0.7-1.4l0.9-0.7c0.4-0.3,0.5-0.9,0.3-1.3
				l-2.4-4.2c-0.2-0.4-0.8-0.6-1.3-0.4l-1,0.4c-0.5,0.2-1.2,0.1-1.6-0.1c-0.4-0.2-0.8-0.8-0.9-1.3l-0.1-1.1c-0.1-0.5-0.5-0.9-1-0.9
				h-4.8c-0.5,0-0.9,0.4-1,0.9l-0.1,1.1c-0.1,0.5-0.5,1.1-0.9,1.3c-0.4,0.2-1.1,0.3-1.6,0.1l-1-0.4c-0.5-0.2-1,0-1.3,0.4l-2.4,4.2
				c-0.2,0.4-0.1,1,0.3,1.3l0.9,0.7c0.4,0.3,0.7,0.9,0.7,1.4c0,0.5-0.3,1.1-0.7,1.4l-0.9,0.7c-0.4,0.3-0.5,0.9-0.3,1.3l2.4,4.2
				c0.2,0.4,0.8,0.6,1.3,0.4l1-0.4c0.5-0.2,1.2-0.1,1.6,0.1c0.4,0.2,0.8,0.8,0.9,1.3l0.1,1.1c0.1,0.5,0.5,0.9,1,0.9h4.8
				c0.5,0,0.9-0.4,1-0.9l0.1-1.1c0.1-0.5,0.5-1.1,0.9-1.3c0.4-0.2,1.1-0.3,1.6-0.1l1,0.4c0.5,0.2,1,0,1.3-0.4l2.4-4.2
				C1224,138.8,1223.9,138.2,1223.5,137.9z M1213,141c-2.9,0-5.2-2.3-5.2-5.2c0-2.9,2.3-5.2,5.2-5.2c2.9,0,5.2,2.3,5.2,5.2
				C1218.2,138.7,1215.9,141,1213,141z"/>
			<path class="st16" d="M1213,133.6c-1.3,0-2.3,1-2.3,2.3c0,1.3,1,2.3,2.3,2.3c1.3,0,2.3-1,2.3-2.3
				C1215.4,134.6,1214.3,133.6,1213,133.6z"/>
		</g>
		<g>
			<path class="st16" d="M1227.7,119l-0.7-0.1c-0.3,0-0.7-0.3-0.8-0.5c-0.1-0.3-0.2-0.7-0.1-1l0.3-0.6c0.1-0.3,0-0.6-0.3-0.8
				l-2.5-1.5c-0.3-0.1-0.6-0.1-0.8,0.2l-0.4,0.5c-0.2,0.2-0.6,0.4-0.9,0.4c-0.3,0-0.7-0.2-0.9-0.4l-0.4-0.5
				c-0.2-0.2-0.5-0.3-0.8-0.2l-2.5,1.5c-0.3,0.1-0.4,0.5-0.3,0.8l0.3,0.6c0.1,0.3,0.1,0.7-0.1,1c-0.1,0.3-0.5,0.5-0.8,0.5l-0.7,0.1
				c-0.3,0-0.5,0.3-0.5,0.6v2.9c0,0.3,0.2,0.6,0.5,0.6l0.7,0.1c0.3,0,0.7,0.3,0.8,0.5c0.1,0.3,0.2,0.7,0.1,1l-0.3,0.6
				c-0.1,0.3,0,0.6,0.3,0.8l2.5,1.5c0.3,0.1,0.6,0.1,0.8-0.2l0.4-0.5c0.2-0.2,0.6-0.4,0.9-0.4c0.3,0,0.7,0.2,0.9,0.4l0.4,0.5
				c0.2,0.2,0.5,0.3,0.8,0.2l2.5-1.5c0.3-0.1,0.4-0.5,0.3-0.8l-0.3-0.6c-0.1-0.3-0.1-0.7,0.1-1c0.1-0.3,0.5-0.5,0.8-0.5l0.7-0.1
				c0.3,0,0.5-0.3,0.5-0.6v-2.9C1228.3,119.3,1228,119,1227.7,119z M1223.2,123.8c-1.5,0.9-3.4,0.4-4.3-1.2
				c-0.9-1.5-0.4-3.4,1.2-4.3c1.5-0.9,3.4-0.4,4.3,1.2C1225.2,121,1224.7,123,1223.2,123.8z"/>
			<path class="st16" d="M1220.9,119.9c-0.7,0.4-0.9,1.3-0.5,1.9c0.4,0.7,1.3,0.9,1.9,0.5c0.7-0.4,0.9-1.3,0.5-1.9
				C1222.4,119.7,1221.5,119.5,1220.9,119.9z"/>
		</g>
		<g>
			<path class="st16" d="M1202.3,114.4l-0.7,0.6c-0.3,0.3-0.9,0.4-1.3,0.3c-0.4-0.1-0.9-0.5-1-0.9l-0.4-0.9c-0.2-0.4-0.6-0.6-1-0.5
				l-4,1.1c-0.4,0.1-0.7,0.5-0.6,0.9l0.1,0.9c0.1,0.4-0.1,1-0.4,1.3c-0.3,0.3-0.9,0.5-1.3,0.4l-0.9-0.1c-0.4-0.1-0.8,0.2-0.9,0.6
				l-1.1,4c-0.1,0.4,0.1,0.9,0.5,1l0.9,0.4c0.4,0.2,0.8,0.6,0.9,1c0.1,0.4,0,1-0.3,1.3l-0.6,0.7c-0.3,0.3-0.2,0.8,0.1,1.1l2.9,2.9
				c0.3,0.3,0.8,0.3,1.1,0.1l0.7-0.6c0.3-0.3,0.9-0.4,1.3-0.3c0.4,0.1,0.9,0.5,1,0.9l0.4,0.9c0.2,0.4,0.6,0.6,1,0.5l4-1.1
				c0.4-0.1,0.7-0.5,0.6-0.9l-0.1-0.9c-0.1-0.4,0.1-1,0.4-1.3c0.3-0.3,0.9-0.5,1.3-0.4l0.9,0.1c0.4,0.1,0.8-0.2,0.9-0.6l1.1-4
				c0.1-0.4-0.1-0.9-0.5-1l-0.9-0.4c-0.4-0.2-0.8-0.6-0.9-1c-0.1-0.4,0-1,0.3-1.3l0.6-0.7c0.3-0.3,0.2-0.8-0.1-1.1l-2.9-2.9
				C1203.1,114.1,1202.6,114.1,1202.3,114.4z M1202.5,123.6c-0.6,2.4-3.1,3.8-5.4,3.1c-2.4-0.6-3.8-3.1-3.1-5.4
				c0.6-2.4,3.1-3.8,5.4-3.1C1201.7,118.9,1203.1,121.3,1202.5,123.6z"/>
			<path class="st16" d="M1196.3,122c-0.3,1.1,0.3,2.1,1.4,2.4c1.1,0.3,2.1-0.3,2.4-1.4c0.3-1.1-0.3-2.1-1.4-2.4
				C1197.7,120.3,1196.6,120.9,1196.3,122z"/>
		</g>
	</g>
</g>
<path class="st15" d="M1349.1,234.2c-2.6,0-5,1-6.9,2.8c-1.8,1.8-2.8,4.3-2.8,6.9c0,0.6,0.1,1.2,0.2,1.8c-3.5,0.4-6.2,3.4-6.2,7
	c0,3.9,3.1,7,7,7h7.6c1.7,1.6,3.9,2.5,6.1,2.5c2.3,0,4.5-0.9,6.2-2.5h7.5c3.9,0,7-3.1,7-7c0-3.8-3-6.9-6.8-7c0-0.3,0.1-0.5,0.1-0.8
	c0-1.9-0.7-3.6-2-4.9c-1.3-1.3-3.1-2-4.9-2c-1.3,0-2.6,0.4-3.7,1.1C1355.6,236,1352.5,234.2,1349.1,234.2L1349.1,234.2z
	 M1354.1,253.8c0.7,0,1.3,0.3,1.8,0.7c0.5,0.5,0.7,1.1,0.7,1.8c0,1.4-1.1,2.5-2.5,2.5c-1.4,0-2.5-1.1-2.5-2.5c0-0.7,0.3-1.3,0.7-1.8
	C1352.8,254.1,1353.4,253.8,1354.1,253.8L1354.1,253.8z M1354.1,253.8"/>
<path class="st16" d="M1346,270.3l14.2-5.2l3.9,10.8l-14.2,5.2L1346,270.3z M1346,270.3"/>
<path class="st14" d="M1353.8,269.7c-0.9,0.3-1.4,1.4-1,2.3c0.2,0.6,0.7,1,1.3,1.1l1,3.9l2.6-0.9l-1.8-3.6c0.3-0.5,0.4-1.1,0.2-1.7
	C1355.8,269.8,1354.8,269.4,1353.8,269.7L1353.8,269.7z M1353.8,269.7"/>
<path class="st17" d="M1354.8,256.2c-2.1-0.7-3.9-0.2-5.2,0.7c-1.3,1-2,2.3-2.4,3.5l-0.9,2.8l2.2,0.7l0.9-2.8
	c0.3-0.9,0.9-1.9,1.6-2.4c0.7-0.6,1.6-0.8,3-0.4c1.2,0.4,1.8,1,2.2,1.8c0.3,0.8,0.4,1.9-0.2,3.5l-0.9,2.7l2.2,0.8l0.9-2.7
	c0.7-1.9,0.7-3.7,0.1-5.2C1357.8,257.8,1356.5,256.7,1354.8,256.2L1354.8,256.2L1354.8,256.2z M1354.8,256.2"/>
<path class="st15" d="M1349.9,252.9l-4.9,6.8h3c0.8,0.7,1.7,1.3,2.6,1.7l2.6-2.7c-1-0.3-1.7-1.3-1.7-2.4c0-0.5,0.2-1,0.4-1.4
	L1349.9,252.9z M1349.9,252.9"/>
<path class="st14" d="M1348.9,268.9l0.7,0.9l-0.7,0.8l1.2,0.8l0.2-0.3l1,0.9l-0.5,0.3l0.8,2.1l-0.5-2l0.5-0.4l-0.4-0.5l0.2-0.6
	l0.4,0.1l0.6-0.7l-0.6,0.5l-0.4-0.2l-0.3,0.6l-0.7-0.7l-0.4,0.4l-0.7-0.5l0.7-0.8l-0.7-1.2L1348.9,268.9z M1348.9,268.9"/>
<path class="st18" d="M1349.3,270.9l-0.7,0.9l-0.8-0.3l-0.2,1.2l1.4-0.2l0.1,1.2l0.1-1.3l-1.3,0.2l0.1-0.7l0.6,0.3l0.8-1.1
	L1349.3,270.9z M1349.3,270.9"/>
</svg>
