<svg id="Layer_1" data-name="Layer 1" xmlns="http://www.w3.org/2000/svg" viewBox="0 0 1440 510"><defs><style>.cls-1{fill:#f8faf7;}.cls-11,.cls-2,.cls-6,.cls-7{isolation:isolate;}.cls-3{fill:#939598;}.cls-4,.cls-6,.cls-7{fill:#d1d3d4;}.cls-5{fill:#fff;}.cls-6,.cls-7{font-size:31.35px;font-family:Arial-BoldMT, Arial;}.cls-11,.cls-6,.cls-7{font-weight:700;}.cls-6{letter-spacing:0.1em;}.cls-7{letter-spacing:0.04em;}.cls-8{fill:none;stroke:#d1d3d4;stroke-width:2px;stroke-dasharray:8;}.cls-8,.cls-9{stroke-miterlimit:10;}.cls-9{stroke:#fff;stroke-width:0.75px;}.cls-10,.cls-11,.cls-17{fill:#c2c0ff;}.cls-11{font-size:17.85px;font-family:OpenSans-Bold, Open Sans;}.cls-12{fill:#ffb888;}.cls-13{fill:#181f36;}.cls-14{fill:#fcab75;}.cls-15{fill:#ededed;}.cls-16{fill:#ff953f;}.cls-17,.cls-18{fill-rule:evenodd;}.cls-18,.cls-19{fill:#8886da;}</style></defs><rect class="cls-1" width="1440" height="510"/><g class="cls-2"><path class="cls-3" d="M953,144h1.9a3.16,3.16,0,0,1,1.9.4,1.21,1.21,0,0,1,.6,1.2,1.22,1.22,0,0,1-.3.9,1,1,0,0,1-.7.4h0c.4.1.7.2.8.5a2.39,2.39,0,0,1,.3.9,1.61,1.61,0,0,1-.6,1.3,2.54,2.54,0,0,1-1.6.5H953Zm1.2,2.4h.7a1.88,1.88,0,0,0,.8-.2c.2-.1.2-.3.2-.5a.55.55,0,0,0-.3-.5,1.55,1.55,0,0,0-.8-.2h-.7l.1,1.4Zm0,1V149h.8a1.55,1.55,0,0,0,.8-.2.6.6,0,0,0,.3-.6c0-.5-.4-.8-1.1-.8Z"/><path class="cls-3" d="M961.8,150l-.2-.6h-.1a1,1,0,0,1-.6.5,1.88,1.88,0,0,1-.8.2,1.59,1.59,0,0,1-1.2-.4,1.7,1.7,0,0,1-.4-1.3v-3h1.3v2.7a1.17,1.17,0,0,0,.2.7c.1.2.3.2.6.2a.81.81,0,0,0,.8-.4c.2-.2.2-.6.2-1.2v-2.2h1.3v4.6h-1.1v.2Z"/><path class="cls-3" d="M967.3,148.7a1.43,1.43,0,0,1-.5,1.1,2.7,2.7,0,0,1-1.5.4,2.77,2.77,0,0,1-.9-.1,1.85,1.85,0,0,1-.7-.2v-1a6.89,6.89,0,0,0,.8.3,2.2,2.2,0,0,0,.8.1c.5,0,.7-.1.7-.4,0-.1,0-.2-.1-.2s-.2-.1-.3-.2a1.63,1.63,0,0,0-.6-.3,2.93,2.93,0,0,1-.8-.4c-.2-.1-.3-.3-.4-.4a1.27,1.27,0,0,1-.1-.6,1.39,1.39,0,0,1,.5-1,2.5,2.5,0,0,1,1.3-.3,2.93,2.93,0,0,1,1.6.4l-.4.9a1.42,1.42,0,0,0-.6-.2,1.27,1.27,0,0,0-.6-.1q-.6,0-.6.3c0,.1.1.2.2.3a5.56,5.56,0,0,0,.8.4,2.93,2.93,0,0,1,.8.4c.2.1.3.3.4.4C967.3,148.2,967.3,148.4,967.3,148.7Z"/><path class="cls-3" d="M968.2,144.2c0-.4.2-.6.7-.6s.7.2.7.6c0,.2-.1.3-.2.5s-.3.2-.5.2C968.4,144.8,968.2,144.6,968.2,144.2Zm1.3,5.8h-1.3v-4.6h1.3Z"/><path class="cls-3" d="M975.1,150h-1.3v-2.7a1.17,1.17,0,0,0-.2-.7c-.1-.2-.3-.2-.6-.2a.81.81,0,0,0-.8.4c-.2.2-.2.6-.2,1.2v2.2h-1.3v-4.6h1l.2.6h.1a1,1,0,0,1,.6-.5,1.88,1.88,0,0,1,.8-.2,1.59,1.59,0,0,1,1.2.4,1.7,1.7,0,0,1,.4,1.3l.1,2.8Z"/><path class="cls-3" d="M978.5,150.1a2.09,2.09,0,0,1-2.3-2.3,2.44,2.44,0,0,1,.6-1.8,2.11,2.11,0,0,1,1.6-.6,1.75,1.75,0,0,1,1.5.6,2.46,2.46,0,0,1,.5,1.5v.6h-3a1,1,0,0,0,.3.8,1.14,1.14,0,0,0,.8.3,2.2,2.2,0,0,0,.8-.1,2.61,2.61,0,0,0,.8-.3v1a1.85,1.85,0,0,1-.7.2C979.2,150,978.8,150.1,978.5,150.1Zm-.2-3.9a.6.6,0,0,0-.6.3,4.88,4.88,0,0,0-.3.7h1.8a1.45,1.45,0,0,0-.2-.7A.91.91,0,0,0,978.3,146.2Z"/><path class="cls-3" d="M984.6,148.7a1.43,1.43,0,0,1-.5,1.1,2.7,2.7,0,0,1-1.5.4,2.77,2.77,0,0,1-.9-.1,1.85,1.85,0,0,1-.7-.2v-1a6.89,6.89,0,0,0,.8.3,2.2,2.2,0,0,0,.8.1c.5,0,.7-.1.7-.4,0-.1,0-.2-.1-.2s-.2-.1-.3-.2a1.63,1.63,0,0,0-.6-.3,2.93,2.93,0,0,1-.8-.4c-.2-.1-.3-.3-.4-.4a1.27,1.27,0,0,1-.1-.6,1.39,1.39,0,0,1,.5-1,2.5,2.5,0,0,1,1.3-.3,2.93,2.93,0,0,1,1.6.4l-.4.9a1.42,1.42,0,0,0-.6-.2,1.27,1.27,0,0,0-.6-.1q-.6,0-.6.3c0,.1.1.2.2.3a5.56,5.56,0,0,0,.8.4,2.93,2.93,0,0,1,.8.4c.2.1.3.3.4.4C984.6,148.2,984.6,148.4,984.6,148.7Z"/><path class="cls-3" d="M988.8,148.7a1.43,1.43,0,0,1-.5,1.1,2.7,2.7,0,0,1-1.5.4,2.77,2.77,0,0,1-.9-.1,1.85,1.85,0,0,1-.7-.2v-1a6.89,6.89,0,0,0,.8.3,2.2,2.2,0,0,0,.8.1c.5,0,.7-.1.7-.4,0-.1,0-.2-.1-.2s-.2-.1-.3-.2a1.63,1.63,0,0,0-.6-.3,2.93,2.93,0,0,1-.8-.4c-.2-.1-.3-.3-.4-.4a1.27,1.27,0,0,1-.1-.6,1.39,1.39,0,0,1,.5-1,2.5,2.5,0,0,1,1.3-.3,2.93,2.93,0,0,1,1.6.4l-.4.9a1.42,1.42,0,0,0-.6-.2,1.27,1.27,0,0,0-.6-.1q-.6,0-.6.3c0,.1.1.2.2.3a5.56,5.56,0,0,0,.8.4,2.93,2.93,0,0,1,.8.4c.2.1.3.3.4.4C988.8,148.2,988.8,148.4,988.8,148.7Z"/><path class="cls-3" d="M995.6,148.3a1.61,1.61,0,0,1-.6,1.3,2.54,2.54,0,0,1-1.6.5,3.29,3.29,0,0,1-1.7-.4v-1.2c.4.2.8.3,1,.4a2,2,0,0,0,.8.1.85.85,0,0,0,.6-.2.76.76,0,0,0,.2-.5.37.37,0,0,0-.1-.3l-.3-.3a5.56,5.56,0,0,0-.8-.4,2.77,2.77,0,0,1-.8-.5,1.27,1.27,0,0,1-.4-.6,1.85,1.85,0,0,1-.2-.7,1.9,1.9,0,0,1,.5-1.3,2.25,2.25,0,0,1,1.5-.5,2.77,2.77,0,0,1,.9.1l.9.3-.4,1a6.89,6.89,0,0,1-.8-.3,1.27,1.27,0,0,0-.6-.1,1.42,1.42,0,0,0-.6.2.76.76,0,0,0-.2.4.37.37,0,0,0,.1.3c.1.1.1.2.2.2a5.44,5.44,0,0,1,.8.4,4.13,4.13,0,0,1,1.2.8A3,3,0,0,1,995.6,148.3Z"/><path class="cls-3" d="M998.6,149.1a2.49,2.49,0,0,0,.8-.1v.9a3.73,3.73,0,0,1-1.2.2,1.25,1.25,0,0,1-1.1-.4,1.8,1.8,0,0,1-.3-1.1v-2.2h-.6v-.5l.7-.4.4-1h.8v1h1.3v.9H998v2.2c0,.2,0,.3.2.4A.6.6,0,0,0,998.6,149.1Z"/><path class="cls-3" d="M1002.8,145.3h.4l-.1,1.2h-.4a1.06,1.06,0,0,0-1.2,1.2V150h-1.3v-4.6h1l.2.8h.1a.9.9,0,0,1,.6-.6C1002.4,145.5,1002.6,145.3,1002.8,145.3Z"/><path class="cls-3" d="M1007,150l-.2-.6h0a1.34,1.34,0,0,1-.7.6,2,2,0,0,1-.9.2,1.16,1.16,0,0,1-1-.4,1.82,1.82,0,0,1-.4-1.1,1.43,1.43,0,0,1,.5-1.1,2.24,2.24,0,0,1,1.5-.4h.8V147c0-.5-.2-.7-.7-.7a3.45,3.45,0,0,0-1.3.3l-.4-.8a3.42,3.42,0,0,1,1.8-.4,2,2,0,0,1,1.4.4,1.66,1.66,0,0,1,.5,1.2v3.1h-.9V150Zm-.3-2.1h-.5a1.55,1.55,0,0,0-.8.2.6.6,0,0,0-.3.6c0,.4.2.5.6.5a1,1,0,0,0,1-1v-.3Z"/><path class="cls-3" d="M1011.1,149.1a2.49,2.49,0,0,0,.8-.1v.9a3.73,3.73,0,0,1-1.2.2,1.25,1.25,0,0,1-1.1-.4,1.8,1.8,0,0,1-.3-1.1v-2.2h-.6v-.5l.7-.4.4-1h.8v1h1.3v.9h-1.3v2.2a.52.52,0,0,0,.2.4A.37.37,0,0,0,1011.1,149.1Z"/><path class="cls-3" d="M1015,150.1a2.09,2.09,0,0,1-2.3-2.3,2.44,2.44,0,0,1,.6-1.8,2.11,2.11,0,0,1,1.6-.6,1.75,1.75,0,0,1,1.5.6,2.46,2.46,0,0,1,.5,1.5v.6h-3a1,1,0,0,0,.3.8,1.14,1.14,0,0,0,.8.3,2.2,2.2,0,0,0,.8-.1,2.61,2.61,0,0,0,.8-.3v1a1.85,1.85,0,0,1-.7.2C1015.7,150,1015.3,150.1,1015,150.1Zm-.2-3.9a.6.6,0,0,0-.6.3,4.88,4.88,0,0,0-.3.7h1.8a1.45,1.45,0,0,0-.2-.7A1.08,1.08,0,0,0,1014.8,146.2Z"/><path class="cls-3" d="M1021.9,145.4v.6l-.7.2a1.45,1.45,0,0,1,.2.7,1.66,1.66,0,0,1-.5,1.2,2,2,0,0,1-1.4.4h-.4c-.1.1-.2.2-.2.3s.2.3.7.3h.8a2.13,2.13,0,0,1,1.2.3,1.05,1.05,0,0,1,.4,1,1.46,1.46,0,0,1-.7,1.3,4.32,4.32,0,0,1-3.4.1,1.05,1.05,0,0,1-.5-.9.91.91,0,0,1,.3-.7,1.51,1.51,0,0,1,.8-.4c-.1-.1-.2-.1-.3-.3a.6.6,0,0,1-.1-.4.52.52,0,0,1,.2-.4,1.38,1.38,0,0,1,.4-.3,2.65,2.65,0,0,1-.6-.5,1.88,1.88,0,0,1-.2-.8,1.66,1.66,0,0,1,.5-1.2,2,2,0,0,1,1.4-.4h.5c.2,0,.3,0,.3.1h1.3v-.2Zm-3.6,5.3a.52.52,0,0,0,.2.4,1.48,1.48,0,0,0,.7.1,3.09,3.09,0,0,0,1.1-.2.51.51,0,0,0,.4-.5.52.52,0,0,0-.2-.4,1.48,1.48,0,0,0-.7-.1h-.7a1.42,1.42,0,0,0-.6.2A.76.76,0,0,0,1018.3,150.7Zm.5-3.8a1.42,1.42,0,0,0,.2.6.73.73,0,0,0,1,0,.85.85,0,0,0,.2-.6c0-.6-.2-.8-.7-.8S1018.8,146.4,1018.8,146.9Z"/><path class="cls-3" d="M1022,145.4h1.4l.9,2.6c.1.2.1.5.2.8h0a2.35,2.35,0,0,1,.2-.8l.9-2.6h1.3l-2,5.2a2.26,2.26,0,0,1-.8,1.1,1.75,1.75,0,0,1-1.2.4,1.27,1.27,0,0,1-.6-.1v-1c.2,0,.3.1.5.1a1.42,1.42,0,0,0,.6-.2.92.92,0,0,0,.4-.6l.1-.2Z"/></g><g class="cls-2"><path class="cls-3" d="M944.7,371a1.61,1.61,0,0,1-.6,1.3,2.54,2.54,0,0,1-1.6.5,3.29,3.29,0,0,1-1.7-.4v-1.2c.4.2.8.3,1,.4a2.2,2.2,0,0,0,.8.1.85.85,0,0,0,.6-.2c.2-.1.2-.3.2-.5a.37.37,0,0,0-.1-.3l-.3-.3a5.56,5.56,0,0,0-.8-.4,2.77,2.77,0,0,1-.8-.5,1.27,1.27,0,0,1-.4-.6,1.85,1.85,0,0,1-.2-.7,1.9,1.9,0,0,1,.5-1.3,2.25,2.25,0,0,1,1.5-.5,2.77,2.77,0,0,1,.9.1l.9.3-.4,1a6.89,6.89,0,0,1-.8-.3,1.27,1.27,0,0,0-.6-.1,1.42,1.42,0,0,0-.6.2.76.76,0,0,0-.2.4.37.37,0,0,0,.1.3c.1.1.1.2.2.2a5.56,5.56,0,0,0,.8.4,4.13,4.13,0,0,1,1.2.8A2.69,2.69,0,0,1,944.7,371Z"/><path class="cls-3" d="M947.8,372.8a2.09,2.09,0,0,1-2.3-2.3,2.44,2.44,0,0,1,.6-1.8,2.11,2.11,0,0,1,1.6-.6,1.75,1.75,0,0,1,1.5.6,2,2,0,0,1,.5,1.5v.6h-3a1,1,0,0,0,.3.8,1.14,1.14,0,0,0,.8.3,2.2,2.2,0,0,0,.8-.1,4.12,4.12,0,0,0,.8-.3v1a1.85,1.85,0,0,1-.7.2C948.5,372.7,948.1,372.8,947.8,372.8Zm-.2-3.9a.6.6,0,0,0-.6.3c-.2.2-.2.4-.3.7h1.8a1.45,1.45,0,0,0-.2-.7A1.08,1.08,0,0,0,947.6,368.9Z"/><path class="cls-3" d="M953.2,368h.4l-.1,1.2h-.4a1.06,1.06,0,0,0-1.2,1.2v2.3h-1.3v-4.6h1l.2.8h.1a.9.9,0,0,1,.6-.6C952.8,368.2,952.9,368,953.2,368Z"/><path class="cls-3" d="M955.6,372.7l-1.8-4.6h1.3l.9,2.6a2.92,2.92,0,0,1,.2.9h0a2.92,2.92,0,0,1,.2-.9l.9-2.6h1.3l-1.8,4.6Z"/><path class="cls-3" d="M959.2,366.9c0-.4.2-.6.7-.6s.7.2.7.6c0,.2-.1.3-.2.5s-.3.2-.5.2C959.5,367.5,959.2,367.3,959.2,366.9Zm1.3,5.8h-1.3v-4.6h1.3Z"/><path class="cls-3" d="M963.7,372.8c-1.4,0-2.2-.8-2.2-2.4a2.44,2.44,0,0,1,.6-1.8,2.2,2.2,0,0,1,1.7-.6,3.19,3.19,0,0,1,1.4.3l-.4,1c-.2-.1-.4-.1-.6-.2a.9.9,0,0,0-.5-.1c-.7,0-1,.5-1,1.4s.3,1.4,1,1.4a1.7,1.7,0,0,0,.7-.1l.6-.3v1.1l-.6.3C964.3,372.7,964.1,372.8,963.7,372.8Z"/><path class="cls-3" d="M968.3,372.8a2.09,2.09,0,0,1-2.3-2.3,2.44,2.44,0,0,1,.6-1.8,2.11,2.11,0,0,1,1.6-.6,1.75,1.75,0,0,1,1.5.6,2.46,2.46,0,0,1,.5,1.5v.6h-3a1,1,0,0,0,.3.8,1.14,1.14,0,0,0,.8.3,2.2,2.2,0,0,0,.8-.1,2.61,2.61,0,0,0,.8-.3v1a1.85,1.85,0,0,1-.7.2C969,372.7,968.6,372.8,968.3,372.8Zm-.2-3.9a.6.6,0,0,0-.6.3,4.88,4.88,0,0,0-.3.7H969a1.45,1.45,0,0,0-.2-.7A.91.91,0,0,0,968.1,368.9Z"/><path class="cls-3" d="M976.3,372.7l-.2-.6h0a1.34,1.34,0,0,1-.7.6,2,2,0,0,1-.9.2,1.16,1.16,0,0,1-1-.4,1.37,1.37,0,0,1-.4-1.1,1.43,1.43,0,0,1,.5-1.1,3,3,0,0,1,1.5-.4h.8v-.2c0-.5-.2-.7-.7-.7a3.45,3.45,0,0,0-1.3.3l-.4-.8a3.42,3.42,0,0,1,1.8-.4,2,2,0,0,1,1.4.4,1.66,1.66,0,0,1,.5,1.2v3.1h-.9v-.1Zm-.4-2.1h-.5a1.55,1.55,0,0,0-.8.2.6.6,0,0,0-.3.6c0,.4.2.5.6.5a1,1,0,0,0,1-1v-.3Z"/><path class="cls-3" d="M982.7,372.7h-1.3V370a1.17,1.17,0,0,0-.2-.7c-.1-.2-.3-.2-.6-.2a.81.81,0,0,0-.8.4c-.2.2-.2.6-.2,1.2v2.2h-1.3v-4.6h1l.2.6h.1a1,1,0,0,1,.6-.5,1.88,1.88,0,0,1,.8-.2,1.59,1.59,0,0,1,1.2.4,1.7,1.7,0,0,1,.4,1.3l.1,2.8Z"/><path class="cls-3" d="M985.5,372.8a1.61,1.61,0,0,1-1.3-.6,2.86,2.86,0,0,1-.5-1.7,3.2,3.2,0,0,1,.5-1.8,1.29,1.29,0,0,1,1.3-.6,1.36,1.36,0,0,1,1.3.7h0a3.08,3.08,0,0,1-.1-.9v-1.5H988v6.4h-1l-.2-.6h-.1A1.41,1.41,0,0,1,985.5,372.8Zm.4-1a.78.78,0,0,0,.7-.3,2.15,2.15,0,0,0,.2-1v-.1a3.09,3.09,0,0,0-.2-1.1.91.91,0,0,0-.7-.3.75.75,0,0,0-.7.4,1.64,1.64,0,0,0-.2,1,2.15,2.15,0,0,0,.2,1A.75.75,0,0,0,985.9,371.8Z"/></g><g class="cls-2"><path class="cls-3" d="M925.8,379.1a1.61,1.61,0,0,1-.6,1.3,2.54,2.54,0,0,1-1.6.5,3.29,3.29,0,0,1-1.7-.4v-1.2c.4.2.8.3,1,.4a2.2,2.2,0,0,0,.8.1.85.85,0,0,0,.6-.2c.2-.1.2-.3.2-.5a.37.37,0,0,0-.1-.3l-.3-.3a5.56,5.56,0,0,0-.8-.4,2.77,2.77,0,0,1-.8-.5,1.27,1.27,0,0,1-.4-.6,1.85,1.85,0,0,1-.2-.7,1.9,1.9,0,0,1,.5-1.3,2.25,2.25,0,0,1,1.5-.5,2.77,2.77,0,0,1,.9.1l.9.3-.4,1a6.89,6.89,0,0,1-.8-.3,1.27,1.27,0,0,0-.6-.1,1.42,1.42,0,0,0-.6.2.76.76,0,0,0-.2.4.37.37,0,0,0,.1.3c.1.1.1.2.2.2a5.56,5.56,0,0,0,.8.4,4.13,4.13,0,0,1,1.2.8A2.69,2.69,0,0,1,925.8,379.1Z"/><path class="cls-3" d="M928.9,380.9a2.09,2.09,0,0,1-2.3-2.3,2.44,2.44,0,0,1,.6-1.8,2.11,2.11,0,0,1,1.6-.6,1.75,1.75,0,0,1,1.5.6,2,2,0,0,1,.5,1.5v.6h-3a1,1,0,0,0,.3.8,1.14,1.14,0,0,0,.8.3,2.2,2.2,0,0,0,.8-.1,4.12,4.12,0,0,0,.8-.3v1a1.85,1.85,0,0,1-.7.2C929.6,380.8,929.2,380.9,928.9,380.9Zm-.2-3.9a.6.6,0,0,0-.6.3c-.2.2-.2.4-.3.7h1.8a1.45,1.45,0,0,0-.2-.7A.91.91,0,0,0,928.7,377Z"/><path class="cls-3" d="M934.4,376.1h.4l-.1,1.2h-.4a1.06,1.06,0,0,0-1.2,1.2v2.3h-1.3v-4.6h1l.2.8h.1a.9.9,0,0,1,.6-.6C934,376.3,934.1,376.1,934.4,376.1Z"/><path class="cls-3" d="M936.7,380.8l-1.8-4.6h1.3l.9,2.6a2.92,2.92,0,0,1,.2.9h0a2.92,2.92,0,0,1,.2-.9l.9-2.6h1.3l-1.8,4.6Z"/><path class="cls-3" d="M940.4,375c0-.4.2-.6.7-.6s.7.2.7.6c0,.2-.1.3-.2.5s-.3.2-.5.2C940.6,375.6,940.4,375.4,940.4,375Zm1.3,5.8h-1.3v-4.6h1.3Z"/><path class="cls-3" d="M944.9,380.9c-1.4,0-2.2-.8-2.2-2.4a2.44,2.44,0,0,1,.6-1.8,2.2,2.2,0,0,1,1.7-.6,3.19,3.19,0,0,1,1.4.3l-.4,1c-.2-.1-.4-.1-.6-.2a.9.9,0,0,0-.5-.1c-.7,0-1,.5-1,1.4s.3,1.4,1,1.4a1.7,1.7,0,0,0,.7-.1l.6-.3v1.1l-.6.3Z"/><path class="cls-3" d="M949.4,380.9a2.09,2.09,0,0,1-2.3-2.3,2.44,2.44,0,0,1,.6-1.8,2.11,2.11,0,0,1,1.6-.6,1.75,1.75,0,0,1,1.5.6,2.46,2.46,0,0,1,.5,1.5v.6h-3a1,1,0,0,0,.3.8,1.14,1.14,0,0,0,.8.3,2.2,2.2,0,0,0,.8-.1,2.61,2.61,0,0,0,.8-.3v1a1.85,1.85,0,0,1-.7.2C950.1,380.8,949.8,380.9,949.4,380.9Zm-.2-3.9a.6.6,0,0,0-.6.3,4.88,4.88,0,0,0-.3.7h1.8a1.45,1.45,0,0,0-.2-.7A.91.91,0,0,0,949.2,377Z"/><path class="cls-3" d="M957.2,380.8l-1.5-4.7h0a17.67,17.67,0,0,1,.1,1.9v2.8h-1.1v-6h1.7l1.4,4.6h0l1.5-4.6H961v6h-1.2v-3.3a10.33,10.33,0,0,1,.1-1.4h0l-1.6,4.7Z"/><path class="cls-3" d="M965.4,380.8l-.2-.6h0a1.34,1.34,0,0,1-.7.6,2,2,0,0,1-.9.2,1.16,1.16,0,0,1-1-.4,1.37,1.37,0,0,1-.4-1.1,1.43,1.43,0,0,1,.5-1.1,3,3,0,0,1,1.5-.4h.8v-.2c0-.5-.2-.7-.7-.7a3.45,3.45,0,0,0-1.3.3l-.4-.8a3.42,3.42,0,0,1,1.8-.4,2,2,0,0,1,1.4.4,1.66,1.66,0,0,1,.5,1.2v3.1h-.9v-.1Zm-.4-2.1h-.5a1.55,1.55,0,0,0-.8.2.6.6,0,0,0-.3.6c0,.4.2.5.6.5a1,1,0,0,0,1-1v-.3Z"/><path class="cls-3" d="M971.8,380.8h-1.3v-2.7a1.17,1.17,0,0,0-.2-.7c-.1-.2-.3-.2-.6-.2a.81.81,0,0,0-.8.4c-.2.2-.2.6-.2,1.2V381h-1.3v-4.6h1l.2.6h.1a1,1,0,0,1,.6-.5,1.88,1.88,0,0,1,.8-.2,1.59,1.59,0,0,1,1.2.4,1.7,1.7,0,0,1,.4,1.3l.1,2.8Z"/><path class="cls-3" d="M976,380.8l-.2-.6h0a1.34,1.34,0,0,1-.7.6,2,2,0,0,1-.9.2,1.16,1.16,0,0,1-1-.4,1.37,1.37,0,0,1-.4-1.1,1.43,1.43,0,0,1,.5-1.1,3,3,0,0,1,1.5-.4h.8v-.2c0-.5-.2-.7-.7-.7a3.45,3.45,0,0,0-1.3.3l-.4-.8a3.42,3.42,0,0,1,1.8-.4,2,2,0,0,1,1.4.4,1.66,1.66,0,0,1,.5,1.2v3.1H976v-.1Zm-.3-2.1h-.5a1.55,1.55,0,0,0-.8.2.6.6,0,0,0-.3.6c0,.4.2.5.6.5a1,1,0,0,0,1-1v-.3Z"/><path class="cls-3" d="M982.2,376.2v.6l-.7.2a1.45,1.45,0,0,1,.2.7,1.66,1.66,0,0,1-.5,1.2,2,2,0,0,1-1.4.4h-.4c-.1.1-.2.2-.2.3s.2.3.7.3h.8a2.13,2.13,0,0,1,1.2.3,1.05,1.05,0,0,1,.4,1,1.46,1.46,0,0,1-.7,1.3,4.32,4.32,0,0,1-3.4.1,1.05,1.05,0,0,1-.5-.9.91.91,0,0,1,.3-.7,1.51,1.51,0,0,1,.8-.4c-.1-.1-.2-.1-.3-.3a.6.6,0,0,1-.1-.4.52.52,0,0,1,.2-.4,1.38,1.38,0,0,1,.4-.3,2.65,2.65,0,0,1-.6-.5,1.88,1.88,0,0,1-.2-.8,1.66,1.66,0,0,1,.5-1.2,2,2,0,0,1,1.4-.4h.5c.2,0,.3,0,.3.1h1.3v-.2Zm-3.5,5.3a.52.52,0,0,0,.2.4,1.48,1.48,0,0,0,.7.1,3.09,3.09,0,0,0,1.1-.2.51.51,0,0,0,.4-.5.52.52,0,0,0-.2-.4,1.48,1.48,0,0,0-.7-.1h-.7a1.42,1.42,0,0,0-.6.2C978.7,381.1,978.7,381.3,978.7,381.5Zm.4-3.8a1.42,1.42,0,0,0,.2.6.73.73,0,0,0,1,0,.85.85,0,0,0,.2-.6c0-.6-.2-.8-.7-.8A.71.71,0,0,0,979.1,377.7Z"/><path class="cls-3" d="M985.1,380.9a2.09,2.09,0,0,1-2.3-2.3,2.44,2.44,0,0,1,.6-1.8,2.11,2.11,0,0,1,1.6-.6,1.75,1.75,0,0,1,1.5.6,2.46,2.46,0,0,1,.5,1.5v.6h-3a1,1,0,0,0,.3.8,1.14,1.14,0,0,0,.8.3,2.2,2.2,0,0,0,.8-.1,2.61,2.61,0,0,0,.8-.3v1a1.85,1.85,0,0,1-.7.2C985.8,380.8,985.4,380.9,985.1,380.9Zm-.2-3.9a.6.6,0,0,0-.6.3,4.88,4.88,0,0,0-.3.7h1.8a1.45,1.45,0,0,0-.2-.7A.91.91,0,0,0,984.9,377Z"/><path class="cls-3" d="M992.1,380.8h-1.3v-2.7a1.17,1.17,0,0,0-.2-.7c-.1-.2-.3-.2-.5-.2a.67.67,0,0,0-.7.4,3.26,3.26,0,0,0-.2,1.2V381H988v-4.6h1l.2.6h.1a1.21,1.21,0,0,1,.5-.5,1.88,1.88,0,0,1,.8-.2c.7,0,1.2.2,1.4.7h.1a1.21,1.21,0,0,1,.5-.5,1.88,1.88,0,0,1,.8-.2,1.59,1.59,0,0,1,1.2.4,1.7,1.7,0,0,1,.4,1.3v3h-1.3v-2.7a1.17,1.17,0,0,0-.2-.7c-.1-.2-.3-.2-.5-.2a.91.91,0,0,0-.7.3,1.5,1.5,0,0,0-.2,1v2.1Z"/><path class="cls-3" d="M998.3,380.9a2.09,2.09,0,0,1-2.3-2.3,2.44,2.44,0,0,1,.6-1.8,2.11,2.11,0,0,1,1.6-.6,1.75,1.75,0,0,1,1.5.6,2,2,0,0,1,.5,1.5v.6h-3a1,1,0,0,0,.3.8,1.14,1.14,0,0,0,.8.3,2.2,2.2,0,0,0,.8-.1,4.12,4.12,0,0,0,.8-.3v1a1.85,1.85,0,0,1-.7.2C999,380.8,998.7,380.9,998.3,380.9Zm-.1-3.9a.6.6,0,0,0-.6.3c-.2.2-.2.4-.3.7h1.8a1.45,1.45,0,0,0-.2-.7A1.33,1.33,0,0,0,998.2,377Z"/><path class="cls-3" d="M1005.5,380.8h-1.3v-2.7a1.17,1.17,0,0,0-.2-.7c-.1-.2-.3-.2-.6-.2a.81.81,0,0,0-.8.4c-.2.2-.2.6-.2,1.2V381h-1.3v-4.6h1l.2.6h.1a1,1,0,0,1,.6-.5,1.88,1.88,0,0,1,.8-.2,1.59,1.59,0,0,1,1.2.4,1.7,1.7,0,0,1,.4,1.3l.1,2.8Z"/><path class="cls-3" d="M1008.7,379.9a2.49,2.49,0,0,0,.8-.1v.9a3.73,3.73,0,0,1-1.2.2,1.25,1.25,0,0,1-1.1-.4,1.8,1.8,0,0,1-.3-1.1v-2.2h-.6v-.5l.7-.4.4-1h.8v1h1.3v.9h-1.3v2.2a.52.52,0,0,0,.2.4A1,1,0,0,0,1008.7,379.9Z"/></g><g class="cls-2"><path class="cls-3" d="M1257.1,180.5a1.61,1.61,0,0,1-.6,1.3,2.54,2.54,0,0,1-1.6.5,3.29,3.29,0,0,1-1.7-.4v-1.2c.4.2.8.3,1,.4a2.2,2.2,0,0,0,.8.1.85.85,0,0,0,.6-.2c.2-.1.2-.3.2-.5a.37.37,0,0,0-.1-.3l-.3-.3a5.56,5.56,0,0,0-.8-.4,2.77,2.77,0,0,1-.8-.5,1.27,1.27,0,0,1-.4-.6,1.85,1.85,0,0,1-.2-.7,1.9,1.9,0,0,1,.5-1.3,2.25,2.25,0,0,1,1.5-.5,2.77,2.77,0,0,1,.9.1l.9.3-.4,1a6.89,6.89,0,0,1-.8-.3,1.27,1.27,0,0,0-.6-.1,1.42,1.42,0,0,0-.6.2.76.76,0,0,0-.2.4.37.37,0,0,0,.1.3c.1.1.1.2.2.2a5.56,5.56,0,0,0,.8.4,4.13,4.13,0,0,1,1.2.8A2.69,2.69,0,0,1,1257.1,180.5Z"/><path class="cls-3" d="M1260.2,182.2a2.09,2.09,0,0,1-2.3-2.3,2.44,2.44,0,0,1,.6-1.8,2.11,2.11,0,0,1,1.6-.6,1.75,1.75,0,0,1,1.5.6,2,2,0,0,1,.5,1.5v.6h-3a1,1,0,0,0,.3.8,1.14,1.14,0,0,0,.8.3,2.2,2.2,0,0,0,.8-.1,4.12,4.12,0,0,0,.8-.3v1a1.85,1.85,0,0,1-.7.2C1260.9,182.1,1260.5,182.2,1260.2,182.2Zm-.2-3.8a.6.6,0,0,0-.6.3c-.2.2-.2.4-.3.7h1.8a1.45,1.45,0,0,0-.2-.7C1260.5,178.4,1260.3,178.4,1260,178.4Z"/><path class="cls-3" d="M1265.6,177.5h.4l-.1,1.2h-.4a1.06,1.06,0,0,0-1.2,1.2v2.3H1263v-4.6h1l.2.8h.1a.9.9,0,0,1,.6-.6C1265.2,177.7,1265.4,177.5,1265.6,177.5Z"/><path class="cls-3" d="M1268,182.1l-1.8-4.6h1.3l.9,2.6a2.92,2.92,0,0,1,.2.9h0a2.92,2.92,0,0,1,.2-.9l.9-2.6h1.3l-1.8,4.6Z"/><path class="cls-3" d="M1271.7,176.4c0-.4.2-.6.7-.6s.7.2.7.6c0,.2-.1.3-.2.5s-.3.2-.5.2C1271.9,177,1271.7,176.8,1271.7,176.4Zm1.3,5.7h-1.3v-4.6h1.3Z"/><path class="cls-3" d="M1276.2,182.2c-1.4,0-2.2-.8-2.2-2.4a2.44,2.44,0,0,1,.6-1.8,2.2,2.2,0,0,1,1.7-.6,3.19,3.19,0,0,1,1.4.3l-.4,1c-.2-.1-.4-.1-.6-.2a.9.9,0,0,0-.5-.1c-.7,0-1,.5-1,1.4s.3,1.4,1,1.4a1.7,1.7,0,0,0,.7-.1l.6-.3v1.1l-.6.3Z"/><path class="cls-3" d="M1280.7,182.2a2.09,2.09,0,0,1-2.3-2.3,2.44,2.44,0,0,1,.6-1.8,2.11,2.11,0,0,1,1.6-.6,1.75,1.75,0,0,1,1.5.6,2.46,2.46,0,0,1,.5,1.5v.6h-3a1,1,0,0,0,.3.8,1.14,1.14,0,0,0,.8.3,2.2,2.2,0,0,0,.8-.1,2.61,2.61,0,0,0,.8-.3v1a1.85,1.85,0,0,1-.7.2C1281.4,182.1,1281.1,182.2,1280.7,182.2Zm-.2-3.8a.6.6,0,0,0-.6.3,4.88,4.88,0,0,0-.3.7h1.8a1.45,1.45,0,0,0-.2-.7C1281,178.4,1280.8,178.4,1280.5,178.4Z"/><path class="cls-3" d="M1288.5,182.1l-1.5-4.7h0a17.67,17.67,0,0,1,.1,1.9v2.8H1286v-6h1.7l1.4,4.6h0l1.5-4.6h1.7v6h-1.2v-3.4a10.33,10.33,0,0,1,.1-1.4h0l-1.6,4.7-1.1.1Z"/><path class="cls-3" d="M1296.7,182.1l-.2-.6h0a1.34,1.34,0,0,1-.7.6,2,2,0,0,1-.9.2,1.16,1.16,0,0,1-1-.4,1.37,1.37,0,0,1-.4-1.1,1.43,1.43,0,0,1,.5-1.1,3,3,0,0,1,1.5-.4h.8v-.2c0-.5-.2-.7-.7-.7a3.45,3.45,0,0,0-1.3.3l-.4-.8a3.42,3.42,0,0,1,1.8-.4,2,2,0,0,1,1.4.4,1.66,1.66,0,0,1,.5,1.2v3.1h-.9v-.1Zm-.4-2.1h-.5a1.55,1.55,0,0,0-.8.2.6.6,0,0,0-.3.6c0,.4.2.5.6.5a1,1,0,0,0,1-1V180Z"/><path class="cls-3" d="M1303.1,182.1h-1.3v-2.7a1.17,1.17,0,0,0-.2-.7c-.1-.2-.3-.2-.6-.2a.81.81,0,0,0-.8.4c-.2.2-.2.6-.2,1.2v2.2h-1.3v-4.6h1l.2.6h.1a1,1,0,0,1,.6-.5,1.88,1.88,0,0,1,.8-.2,1.59,1.59,0,0,1,1.2.4,1.7,1.7,0,0,1,.4,1.3v2.8Z"/><path class="cls-3" d="M1307.3,182.1l-.2-.6h0a1.34,1.34,0,0,1-.7.6,2,2,0,0,1-.9.2,1.16,1.16,0,0,1-1-.4,1.37,1.37,0,0,1-.4-1.1,1.43,1.43,0,0,1,.5-1.1,3,3,0,0,1,1.5-.4h.8v-.2c0-.5-.2-.7-.7-.7a3.45,3.45,0,0,0-1.3.3l-.4-.8a3.42,3.42,0,0,1,1.8-.4,2,2,0,0,1,1.4.4,1.66,1.66,0,0,1,.5,1.2v3.1h-.9v-.1Zm-.3-2.1h-.5a1.55,1.55,0,0,0-.8.2.6.6,0,0,0-.3.6c0,.4.2.5.6.5a1,1,0,0,0,1-1V180Z"/><path class="cls-3" d="M1313.5,177.5v.6l-.7.2a1.45,1.45,0,0,1,.2.7,1.66,1.66,0,0,1-.5,1.2,2,2,0,0,1-1.4.4h-.4c-.1.1-.2.2-.2.3s.2.3.7.3h.8a2.13,2.13,0,0,1,1.2.3,1.05,1.05,0,0,1,.4,1,1.46,1.46,0,0,1-.7,1.3,4.32,4.32,0,0,1-3.4.1,1.05,1.05,0,0,1-.5-.9.91.91,0,0,1,.3-.7,1.51,1.51,0,0,1,.8-.4c-.1-.1-.2-.1-.3-.3a.6.6,0,0,1-.1-.4.52.52,0,0,1,.2-.4,1.38,1.38,0,0,1,.4-.3,2.65,2.65,0,0,1-.6-.5,1.88,1.88,0,0,1-.2-.8,1.66,1.66,0,0,1,.5-1.2,2,2,0,0,1,1.4-.4h.5c.2,0,.3,0,.3.1h1.3Zm-3.5,5.3a.52.52,0,0,0,.2.4,1.48,1.48,0,0,0,.7.1,3.09,3.09,0,0,0,1.1-.2.51.51,0,0,0,.4-.5.52.52,0,0,0-.2-.4,1.48,1.48,0,0,0-.7-.1h-.7a1.42,1.42,0,0,0-.6.2A.55.55,0,0,0,1310,182.8Zm.4-3.7a1.42,1.42,0,0,0,.2.6.72.72,0,0,0,1,0,.85.85,0,0,0,.2-.6c0-.6-.2-.8-.7-.8S1310.4,178.5,1310.4,179.1Z"/><path class="cls-3" d="M1316.4,182.2a2.09,2.09,0,0,1-2.3-2.3,2.44,2.44,0,0,1,.6-1.8,2.11,2.11,0,0,1,1.6-.6,1.75,1.75,0,0,1,1.5.6,2.46,2.46,0,0,1,.5,1.5v.6h-3a1,1,0,0,0,.3.8,1.14,1.14,0,0,0,.8.3,2.2,2.2,0,0,0,.8-.1,2.61,2.61,0,0,0,.8-.3v1a1.85,1.85,0,0,1-.7.2C1317.1,182.1,1316.7,182.2,1316.4,182.2Zm-.2-3.8a.6.6,0,0,0-.6.3,4.88,4.88,0,0,0-.3.7h1.8a1.45,1.45,0,0,0-.2-.7A.74.74,0,0,0,1316.2,178.4Z"/><path class="cls-3" d="M1323.4,182.1h-1.3v-2.7a1.17,1.17,0,0,0-.2-.7c-.1-.2-.3-.2-.5-.2a.67.67,0,0,0-.7.4,3.26,3.26,0,0,0-.2,1.2v2.2h-1.3v-4.6h1l.2.6h.1a1.21,1.21,0,0,1,.5-.5,1.88,1.88,0,0,1,.8-.2c.7,0,1.2.2,1.4.7h.1a1.21,1.21,0,0,1,.5-.5,1.88,1.88,0,0,1,.8-.2,1.59,1.59,0,0,1,1.2.4,1.7,1.7,0,0,1,.4,1.3v3h-1.3v-2.7a1.17,1.17,0,0,0-.2-.7c-.1-.2-.3-.2-.5-.2a.91.91,0,0,0-.7.3,1.5,1.5,0,0,0-.2,1l.1,2.1Z"/><path class="cls-3" d="M1329.6,182.2a2.09,2.09,0,0,1-2.3-2.3,2.44,2.44,0,0,1,.6-1.8,2.11,2.11,0,0,1,1.6-.6,1.75,1.75,0,0,1,1.5.6,2,2,0,0,1,.5,1.5v.6h-3a1,1,0,0,0,.3.8,1.14,1.14,0,0,0,.8.3,2.2,2.2,0,0,0,.8-.1,4.12,4.12,0,0,0,.8-.3v1a1.85,1.85,0,0,1-.7.2C1330.3,182.1,1330,182.2,1329.6,182.2Zm-.1-3.8a.6.6,0,0,0-.6.3c-.2.2-.2.4-.3.7h1.8a1.45,1.45,0,0,0-.2-.7A.83.83,0,0,0,1329.5,178.4Z"/><path class="cls-3" d="M1336.8,182.1h-1.3v-2.7a1.17,1.17,0,0,0-.2-.7c-.1-.2-.3-.2-.6-.2a.81.81,0,0,0-.8.4c-.2.2-.2.6-.2,1.2v2.2h-1.3v-4.6h1l.2.6h.1a1,1,0,0,1,.6-.5,1.88,1.88,0,0,1,.8-.2,1.59,1.59,0,0,1,1.2.4,1.7,1.7,0,0,1,.4,1.3v2.8Z"/><path class="cls-3" d="M1340,181.2a2.49,2.49,0,0,0,.8-.1v.9a3.73,3.73,0,0,1-1.2.2,1.25,1.25,0,0,1-1.1-.4,1.8,1.8,0,0,1-.3-1.1v-2.2h-.6V178l.7-.4.4-1h.8v1h1.3v.9h-1.3v2.2a.52.52,0,0,0,.2.4C1339.7,181.2,1339.9,181.2,1340,181.2Z"/></g><g class="cls-2"><path class="cls-3" d="M1248.9,445.1v-6h1.3v6Z"/><path class="cls-3" d="M1255.7,445.1h-1.3v-2.7a1.17,1.17,0,0,0-.2-.7c-.1-.2-.3-.2-.5-.2a.67.67,0,0,0-.7.4,3.26,3.26,0,0,0-.2,1.2v2.2h-1.3v-4.6h1l.2.6h.1a1.21,1.21,0,0,1,.5-.5,1.88,1.88,0,0,1,.8-.2c.7,0,1.2.2,1.4.7h.1a1.21,1.21,0,0,1,.5-.5,1.88,1.88,0,0,1,.8-.2,1.59,1.59,0,0,1,1.2.4,1.7,1.7,0,0,1,.4,1.3v3h-1.3v-2.7a1.17,1.17,0,0,0-.2-.7c-.1-.2-.3-.2-.5-.2a.91.91,0,0,0-.7.3,1.5,1.5,0,0,0-.2,1l.1,2.1Z"/><path class="cls-3" d="M1264,445.1h-1.3v-2.7a1.17,1.17,0,0,0-.2-.7c-.1-.2-.3-.2-.5-.2a.67.67,0,0,0-.7.4,3.26,3.26,0,0,0-.2,1.2v2.2h-1.3v-4.6h1l.2.6h.1a1.21,1.21,0,0,1,.5-.5,1.88,1.88,0,0,1,.8-.2c.7,0,1.2.2,1.4.7h.1a1.21,1.21,0,0,1,.5-.5,1.88,1.88,0,0,1,.8-.2,1.59,1.59,0,0,1,1.2.4,1.7,1.7,0,0,1,.4,1.3v3h-1.3v-2.7a1.17,1.17,0,0,0-.2-.7c-.1-.2-.3-.2-.5-.2a.91.91,0,0,0-.7.3,1.5,1.5,0,0,0-.2,1l.1,2.1Z"/><path class="cls-3" d="M1270.2,445.2a2.09,2.09,0,0,1-2.3-2.3,2.44,2.44,0,0,1,.6-1.8,2.11,2.11,0,0,1,1.6-.6,1.75,1.75,0,0,1,1.5.6,2.46,2.46,0,0,1,.5,1.5v.6h-3a1,1,0,0,0,.3.8,1.14,1.14,0,0,0,.8.3,2.2,2.2,0,0,0,.8-.1,2.61,2.61,0,0,0,.8-.3v1a1.85,1.85,0,0,1-.7.2C1270.9,445.1,1270.6,445.2,1270.2,445.2Zm-.2-3.9a.6.6,0,0,0-.6.3,4.88,4.88,0,0,0-.3.7h1.8a1.45,1.45,0,0,0-.2-.7A.91.91,0,0,0,1270,441.3Z"/><path class="cls-3" d="M1275.7,440.4h.4l-.1,1.2h-.4a1.06,1.06,0,0,0-1.2,1.2v2.3h-1.3v-4.6h1l.2.8h.1a.9.9,0,0,1,.6-.6C1275.3,440.6,1275.4,440.4,1275.7,440.4Z"/><path class="cls-3" d="M1280.2,443.7a1.43,1.43,0,0,1-.5,1.1,2.7,2.7,0,0,1-1.5.4,2.77,2.77,0,0,1-.9-.1,1.85,1.85,0,0,1-.7-.2v-1a6.89,6.89,0,0,0,.8.3,2.2,2.2,0,0,0,.8.1c.5,0,.7-.1.7-.4,0-.1,0-.2-.1-.2s-.2-.1-.3-.2a1.63,1.63,0,0,0-.6-.3,2.93,2.93,0,0,1-.8-.4c-.2-.1-.3-.3-.4-.4a1.27,1.27,0,0,1-.1-.6,1.39,1.39,0,0,1,.5-1,2.5,2.5,0,0,1,1.3-.3,2.93,2.93,0,0,1,1.6.4l-.4.9a1.42,1.42,0,0,0-.6-.2,1.27,1.27,0,0,0-.6-.1q-.6,0-.6.3c0,.1.1.2.2.3a5.56,5.56,0,0,0,.8.4,2.93,2.93,0,0,1,.8.4c.2.1.3.3.4.4S1280.2,443.5,1280.2,443.7Z"/><path class="cls-3" d="M1281.1,439.3c0-.4.2-.6.7-.6s.7.2.7.6c0,.2-.1.3-.2.5s-.3.2-.5.2C1281.3,439.9,1281.1,439.7,1281.1,439.3Zm1.3,5.8h-1.3v-4.6h1.3Z"/><path class="cls-3" d="M1284.8,445.1l-1.8-4.6h1.3l.9,2.6a2.92,2.92,0,0,1,.2.9h0a2.92,2.92,0,0,1,.2-.9l.9-2.6h1.3l-1.8,4.6Z"/><path class="cls-3" d="M1290.6,445.2a2.09,2.09,0,0,1-2.3-2.3,2.44,2.44,0,0,1,.6-1.8,2.11,2.11,0,0,1,1.6-.6,1.75,1.75,0,0,1,1.5.6,2,2,0,0,1,.5,1.5v.6h-3a1,1,0,0,0,.3.8,1.14,1.14,0,0,0,.8.3,2.2,2.2,0,0,0,.8-.1,4.12,4.12,0,0,0,.8-.3v1a1.85,1.85,0,0,1-.7.2C1291.3,445.1,1291,445.2,1290.6,445.2Zm-.2-3.9a.6.6,0,0,0-.6.3c-.2.2-.2.4-.3.7h1.8a1.45,1.45,0,0,0-.2-.7A.91.91,0,0,0,1290.4,441.3Z"/><path class="cls-3" d="M1297,445.1h-1.3v-6.4h1.3Z"/><path class="cls-3" d="M1300.4,445.2a2.09,2.09,0,0,1-2.3-2.3,2.44,2.44,0,0,1,.6-1.8,2.11,2.11,0,0,1,1.6-.6,1.75,1.75,0,0,1,1.5.6,2.46,2.46,0,0,1,.5,1.5v.6h-3a1,1,0,0,0,.3.8,1.14,1.14,0,0,0,.8.3,2.2,2.2,0,0,0,.8-.1,2.61,2.61,0,0,0,.8-.3v1a1.85,1.85,0,0,1-.7.2C1301.1,445.1,1300.7,445.2,1300.4,445.2Zm-.2-3.9a.6.6,0,0,0-.6.3,4.88,4.88,0,0,0-.3.7h1.8a1.45,1.45,0,0,0-.2-.7A1.08,1.08,0,0,0,1300.2,441.3Z"/><path class="cls-3" d="M1306.2,445.1l-.2-.6h0a1.34,1.34,0,0,1-.7.6,2,2,0,0,1-.9.2,1.16,1.16,0,0,1-1-.4,1.82,1.82,0,0,1-.4-1.1,1.43,1.43,0,0,1,.5-1.1,2.24,2.24,0,0,1,1.5-.4h.8V442c0-.5-.2-.7-.7-.7a3.45,3.45,0,0,0-1.3.3l-.4-.8a3.42,3.42,0,0,1,1.8-.4,2,2,0,0,1,1.4.4,1.66,1.66,0,0,1,.5,1.2v3.1Zm-.4-2.1h-.5a1.55,1.55,0,0,0-.8.2.6.6,0,0,0-.3.6c0,.4.2.5.6.5a1,1,0,0,0,1-1V443Z"/><path class="cls-3" d="M1310.9,440.4h.4l-.1,1.2h-.4a1.06,1.06,0,0,0-1.2,1.2v2.3h-1.3v-4.6h1l.2.8h.1a.9.9,0,0,1,.6-.6C1310.5,440.6,1310.6,440.4,1310.9,440.4Z"/><path class="cls-3" d="M1316.4,445.1h-1.3v-2.7a1.17,1.17,0,0,0-.2-.7c-.1-.2-.3-.2-.6-.2a.81.81,0,0,0-.8.4c-.2.2-.2.6-.2,1.2v2.2H1312v-4.6h1l.2.6h.1a1,1,0,0,1,.6-.5,1.88,1.88,0,0,1,.8-.2,1.59,1.59,0,0,1,1.2.4,1.7,1.7,0,0,1,.4,1.3v2.8Z"/><path class="cls-3" d="M1317.7,439.3c0-.4.2-.6.7-.6s.7.2.7.6c0,.2-.1.3-.2.5s-.3.2-.5.2C1317.9,439.9,1317.7,439.7,1317.7,439.3Zm1.3,5.8h-1.3v-4.6h1.3Z"/><path class="cls-3" d="M1324.6,445.1h-1.3v-2.7a1.17,1.17,0,0,0-.2-.7c-.1-.2-.3-.2-.6-.2a.81.81,0,0,0-.8.4c-.2.2-.2.6-.2,1.2v2.2h-1.3v-4.6h1l.2.6h.1a1,1,0,0,1,.6-.5,1.88,1.88,0,0,1,.8-.2,1.59,1.59,0,0,1,1.2.4,1.7,1.7,0,0,1,.4,1.3v2.8Z"/><path class="cls-3" d="M1329.9,440.5v.6l-.7.2a1.45,1.45,0,0,1,.2.7,1.66,1.66,0,0,1-.5,1.2,2,2,0,0,1-1.4.4h-.4c-.1.1-.2.2-.2.3s.2.3.7.3h.8a2.13,2.13,0,0,1,1.2.3,1.05,1.05,0,0,1,.4,1,1.46,1.46,0,0,1-.7,1.3,4.32,4.32,0,0,1-3.4.1,1.05,1.05,0,0,1-.5-.9.91.91,0,0,1,.3-.7,1.51,1.51,0,0,1,.8-.4c-.1-.1-.2-.1-.3-.3a.6.6,0,0,1-.1-.4.52.52,0,0,1,.2-.4,1.38,1.38,0,0,1,.4-.3,2.65,2.65,0,0,1-.6-.5,1.88,1.88,0,0,1-.2-.8,1.66,1.66,0,0,1,.5-1.2,2,2,0,0,1,1.4-.4h.5c.2,0,.3,0,.3.1h1.3Zm-3.6,5.3a.52.52,0,0,0,.2.4,1.48,1.48,0,0,0,.7.1,3.09,3.09,0,0,0,1.1-.2.51.51,0,0,0,.4-.5.52.52,0,0,0-.2-.4,1.48,1.48,0,0,0-.7-.1h-.7a1.42,1.42,0,0,0-.6.2C1326.3,445.4,1326.3,445.6,1326.3,445.8Zm.5-3.8a1.42,1.42,0,0,0,.2.6c.1.2.3.2.5.2a.76.76,0,0,0,.5-.2.85.85,0,0,0,.2-.6c0-.6-.2-.8-.7-.8S1326.8,441.5,1326.8,442Z"/></g><path class="cls-4" d="M1211.6,330H1073.9a14.51,14.51,0,0,1-14.5-14.5v-79a14.66,14.66,0,0,1,14.5-14.6h137.7a14.68,14.68,0,0,1,14.6,14.6v79A14.66,14.66,0,0,1,1211.6,330Zm-137.7-99a5.29,5.29,0,0,0-5.3,5.4v79a5.36,5.36,0,0,0,5.3,5.4h137.7a5.38,5.38,0,0,0,5.4-5.4v-79a5.38,5.38,0,0,0-5.4-5.4Z"/><path class="cls-4" d="M1224.5,348.7H1059a6.61,6.61,0,0,1-6.4-5.1l-1.1-4.8a2.92,2.92,0,0,1,2.1-3.4c.2,0,.4-.1.6-.1h176.1a2.8,2.8,0,0,1,2.8,2.8,1.27,1.27,0,0,1-.1.6l-.8,3.6A7.79,7.79,0,0,1,1224.5,348.7Z"/><path class="cls-5" d="M1129.3,333.7h27.6a2.22,2.22,0,0,1,2.2,2.2v2.7a2.22,2.22,0,0,1-2.2,2.2h-27.6a2.22,2.22,0,0,1-2.2-2.2v-2.7A2.22,2.22,0,0,1,1129.3,333.7Z"/><text class="cls-6" transform="translate(1142.86 266.42)">ITI</text><text class="cls-7" transform="translate(1192.59 266.42)">L</text><path class="cls-8" d="M1056.5,101.4h53.9a11.44,11.44,0,0,1,11.5,11.5v54"/><path class="cls-8" d="M1217.4,423.7h-23.9a11.5,11.5,0,0,1-11.5-11.5h0v-54"/><path class="cls-9" d="M1307,152.3a1,1,0,0,0,0,1.6h0a1.22,1.22,0,0,0,1.6,0h0a1,1,0,0,0,0-1.6h0a1,1,0,0,0-1.6,0Z"/><path class="cls-10" d="M1294,283.6a11.86,11.86,0,0,0,11.8-11.3.47.47,0,0,0-.5-.5l-10.8-.4V260.6a.47.47,0,0,0-.5-.5,11.75,11.75,0,0,0,0,23.5Z"/><path class="cls-10" d="M1297.1,257.3a.47.47,0,0,0-.5.5V269a.47.47,0,0,0,.5.5l11.3.4h0a.37.37,0,0,0,.3-.1c.1-.1.2-.2.2-.3V269A11.87,11.87,0,0,0,1297.1,257.3Z"/><text class="cls-11" transform="translate(973.44 233.36)">&lt;/&gt;</text><path class="cls-12" d="M1121.9,238.4s11.8,31,19.7,38.1a86.67,86.67,0,0,0,17.5,11.8l-6.3,13.8s-26.9-7.3-30.8-20.2C1119.6,274.5,1121.9,238.4,1121.9,238.4Z"/><path class="cls-13" d="M1106.8,181.7s-3.2-10.4-18.8-3.8-2.6,28-2.6,28-22.2,7.3-13.5,37.7,28.5-8.2,28.5-8.2l9.8-41.6Z"/><polygon class="cls-14" points="1095.6 205.9 1095.4 228.1 1107.1 229.2 1109.5 218.1 1097.8 205.9 1095.6 205.9"/><path class="cls-12" d="M1106.2,218.8c2.8,1.9,7.1,3.7,9.8,1.4,8.7-11.6,6.8-28.4,6.8-28.4l-8.3-5.1-16.7,4.7-2.4,10.4a9.52,9.52,0,0,0,2.1,7.6l3.4,5a11,11,0,0,0,2.1,2.2A15.07,15.07,0,0,0,1106.2,218.8Z"/><path class="cls-13" d="M1094.5,199.7h30.1s7-7.2-.3-15.9c-4.2-5.1-17.2-5.2-21.8-3.6-10.7,3.8-6.3,13.8-6.3,13.8Z"/><polygon class="cls-13" points="1210.1 280.6 1150.8 280.6 1131.3 320.7 1190.7 320.7 1210.1 280.6"/><path class="cls-15" d="M1172.8,297.8a2.4,2.4,0,1,0,2.4-2.4h0A2.5,2.5,0,0,0,1172.8,297.8Z"/><path class="cls-16" d="M1107.9,225.2a6.84,6.84,0,0,1-9.6,1.8,7.36,7.36,0,0,1-2.7-3.6c-5.6.7-13,3.1-21.6,11.3-11.7,11-1.9,74.3.1,86.2h51.1l1.3-59.7C1126.7,249.1,1125.3,234.1,1107.9,225.2Z"/><rect class="cls-13" x="1114.5" y="317.2" width="76.1" height="3.5"/><path class="cls-16" d="M1125.8,269.6l9.7-3.4s-12.2-28.6-15.3-31C1120.2,235.3,1128,249.4,1125.8,269.6Z"/><path class="cls-17" d="M1308.3,420.4h-6.4a.43.43,0,0,1-.4-.4h0v-1.6a.43.43,0,0,0-.4-.4h-9a.43.43,0,0,0-.4.4h0v1.5a.43.43,0,0,1-.4.4h-4.8a.43.43,0,0,0-.4.4h0v1.8a.43.43,0,0,0,.4.4h21.9a.43.43,0,0,0,.4-.4h0v-1.8A2.19,2.19,0,0,0,1308.3,420.4Z"/><path class="cls-17" d="M1319.1,378.2h-45.8a2.9,2.9,0,0,0-2.9,2.9h0v7.5c0,1-.1,1.1.6,1.1h1.1c.6,0,.4-.1.4-1.2V381a.68.68,0,0,1,.7-.7H1319a.68.68,0,0,1,.7.7v28.2h-32.6s-1.2,0-1.2,1.5v3.5c0,1.5,1.2,1.5,1.2,1.5H1319a2.9,2.9,0,0,0,2.9-2.9h0V381a2.8,2.8,0,0,0-2.8-2.8Z"/><path class="cls-18" d="M1281.5,392.4H1265a1.9,1.9,0,0,0-1.9,1.9v27.2a1.9,1.9,0,0,0,1.9,1.9h16.6a1.9,1.9,0,0,0,1.9-1.9V394.3a2,2,0,0,0-2-1.9Zm.3,26.7a.66.66,0,0,1-.4.5h-16.2a.46.46,0,0,1-.4-.5V396.5a.66.66,0,0,1,.4-.5h16.2a.46.46,0,0,1,.4.5Z"/><path class="cls-17" d="M1271.2,394.3h4.1c.2,0,.3.2.3.4a.45.45,0,0,1-.3.4h-4.1a.43.43,0,0,1-.4-.4c.1-.3.2-.4.4-.4Z"/><path class="cls-17" d="M1273.2,422a1,1,0,0,1-.7-1.2,1.21,1.21,0,0,1,.7-.7,1,1,0,1,1,.5,1.9Z"/><path class="cls-17" d="M1296.2,413.3a1.3,1.3,0,1,1,1.3-1.3,1.32,1.32,0,0,1-1.3,1.3Z"/><g id="g2984"><g id="g11676"><path id="path11613" class="cls-19" d="M1314.4,132.9a3.86,3.86,0,0,0-3.6-.4,2.2,2.2,0,0,1-.8.1l-8.5-7.8-6.6-6.7a2.44,2.44,0,0,1,0-1.2,4.42,4.42,0,0,0-1.4-4.6,5.5,5.5,0,0,1-.9-.7,6.25,6.25,0,0,0-5.5-.1l-.2.3,2.7,1.8c.3.2,1.4,1.4.2,3.3s-2.6,1.3-2.9,1-2.8-1.7-2.8-1.7l-.2.3a5.86,5.86,0,0,0,2.6,5,3.83,3.83,0,0,0,3.6.4,2.2,2.2,0,0,1,.8-.1l8.5,7.8,6.6,6.7a2.44,2.44,0,0,1,0,1.2,4.42,4.42,0,0,0,1.4,4.6c.3.2.9.6.9.7a6.25,6.25,0,0,0,5.5.1l.2-.4s-2.4-1.6-2.8-1.8-1.4-1.4-.2-3.3,2.6-1.3,3-1,2.7,1.7,2.7,1.7l.2-.4a5.67,5.67,0,0,0-2.5-4.8Z"/><path id="path11615" class="cls-10" d="M1300.6,110.8h0a6.6,6.6,0,0,0-1.4.1l-.8.2a1.3,1.3,0,0,0-.9,1.1V114a.86.86,0,0,1-.6.7l-.9.3a3.79,3.79,0,0,1,0,1.5,5.7,5.7,0,0,0-.1,1.3c.5.6,1.1,1.1,1.6,1.7a7.85,7.85,0,0,1,2.2-.5c.3,0,.6-.1.9-.1a8.84,8.84,0,0,1,9,8.7,7.1,7.1,0,0,1-.5,2.9l1,.9c.2.4.7.2,1,.1a4.64,4.64,0,0,1,2.6.1l.1-.2h0a.86.86,0,0,1,.7-.6h1.8a1.27,1.27,0,0,0,1.1-.9,8.33,8.33,0,0,0,.3-2.2h0v-.2h0a6.6,6.6,0,0,0-.1-1.4c0-.3-.1-.5-.1-.8a1.3,1.3,0,0,0-1.1-.9h-1.8a.86.86,0,0,1-.7-.6,14.76,14.76,0,0,0-1.2-2.9.35.35,0,0,1,.1.2.74.74,0,0,1,.1-.9l.1-.1,1-1,.1-.1a1.4,1.4,0,0,0,.2-1.4,11,11,0,0,0-1.4-1.8h0l-.1-.1a9,9,0,0,0-1-.9,1.61,1.61,0,0,0-.7-.4,1.21,1.21,0,0,0-1.4.1l-.2.2-1,1-.1.1a1,1,0,0,1-.9.1l.2.1a10.11,10.11,0,0,0-3-1.3.86.86,0,0,1-.6-.7v-1.8a1.27,1.27,0,0,0-.9-1.1,8.33,8.33,0,0,0-2.2-.3Zm-10.2,12.1h-.2a5.5,5.5,0,0,1-2.2.2c-.1.3-.2.5-.3.8a.86.86,0,0,1-.7.6h-1.8a1.27,1.27,0,0,0-1.1.9,8.33,8.33,0,0,0-.3,2.2h0v.2a6.6,6.6,0,0,0,.1,1.4,2.35,2.35,0,0,0,.2.8,1.3,1.3,0,0,0,1.1.9h1.8a.86.86,0,0,1,.7.6h0a14.76,14.76,0,0,0,1.2,2.9.1.1,0,0,0-.1-.1.74.74,0,0,1-.1.9l-.1.1-1,1-.1.1a1.4,1.4,0,0,0-.2,1.4,11,11,0,0,0,1.4,1.8h0l.1.1a9,9,0,0,0,1,.9,1.61,1.61,0,0,0,.7.4,1.21,1.21,0,0,0,1.4-.1l.2-.2,1-1,.1-.1a1,1,0,0,1,.9-.1,9.61,9.61,0,0,0,2.8,1.1.86.86,0,0,1,.6.7v1.8a1.27,1.27,0,0,0,.9,1.1,8.33,8.33,0,0,0,2.2.3h.2a6.6,6.6,0,0,0,1.4-.1c.3,0,.5-.1.8-.1a1.3,1.3,0,0,0,.9-1.1v-1.8a.86.86,0,0,1,.6-.7h-.2a3.09,3.09,0,0,1,.8-.2,5.33,5.33,0,0,1-.2-2.5c0-.4.3-1-.1-1.3-.2-.3-.5-.5-.7-.8a8.45,8.45,0,0,1-1.7.5l-.7.1a8.85,8.85,0,0,1-9.8-7.7,8.18,8.18,0,0,1,.5-4.1l-1.6-1.4c-.1-.2-.3-.3-.4-.4Z"/></g></g><path class="cls-10" d="M1310.9,152.2v.2c0,1.8-1.8,2.5-3.3,2.8-4.9.9-9.9.7-14.9.8-.5,0-1.1.1-1.2.5a.88.88,0,0,0,.5,1,2.54,2.54,0,0,0,1.2.2h9.5c3.9,0,12.1-.2,10.6-6.2a.61.61,0,0,1,.3-.7c2-1.2,10-6.2,12.2-7.3a11.42,11.42,0,0,1,2.6-.9,1.69,1.69,0,0,1,1.9,1.4,1.66,1.66,0,0,1-.6,1.6c-3.3,2.7-14.2,11.6-18.6,15-5.2,4.1-10,6.1-15.4,5.2l-7.8-2.3s-9.8-2.1-12.5-2.1a.65.65,0,0,1-.6-.6V149.6a.88.88,0,0,1,.8-.9l8.1-.9.6-.1a17.85,17.85,0,0,1,4-.1,18.68,18.68,0,0,1,6.6,1.5,11.76,11.76,0,0,0,3,1c1,0,9,0,10.1-.2h0a2.48,2.48,0,0,1,2.9,1.9Z"/><path class="cls-10" d="M1268.7,144.1h4.1a.47.47,0,0,1,.5.5V165a.47.47,0,0,1-.5.5h-4.1a.47.47,0,0,1-.5-.5V144.6C1268.3,144.3,1268.5,144.1,1268.7,144.1Z"/><g id="g6184"><path id="path6186" class="cls-10" d="M956.6,332.8c-.7.3-8.6,3.3-10.8,4.8a12.84,12.84,0,0,0-4.9,5.9,21.16,21.16,0,0,0-2,8.5.89.89,0,0,0,.5.8c7.2,3.2,20.5,3.6,26.2,3.6,2.8,0,7.3-.1,12-.5.1-1.7.2-3.4.3-4.9a5,5,0,0,1-2.6-6.5,4.88,4.88,0,0,1,2.4-2.5h.1a.22.22,0,0,1,.2.2v4a.47.47,0,0,0,.5.5h2.8a.47.47,0,0,0,.5-.5v-4a.22.22,0,0,1,.2-.2h0a5,5,0,0,1,2.4,6.6,4.52,4.52,0,0,1-2.5,2.4l.3,4.4a40.72,40.72,0,0,0,9.7-2.5.89.89,0,0,0,.5-.8,20.41,20.41,0,0,0-2-8.5,12.84,12.84,0,0,0-4.9-5.9c-2.2-1.5-10.1-4.5-10.8-4.8a68.73,68.73,0,0,1-5,14.9c-1,2-2,4-3.2,5.9a1.79,1.79,0,0,1-.5.7.37.37,0,0,1-.3.1h0a.37.37,0,0,1-.3-.1,1.79,1.79,0,0,1-.5-.7,57,57,0,0,1-3.2-5.9,72.55,72.55,0,0,1-5-14.9Z"/><path id="path6188" class="cls-19" d="M963.5,338.4a.46.46,0,0,0-.4.5h0l.7,3.3c0,.2.2.3.4.3h3c.2,0,.4-.1.4-.3l.7-3.3c0-.2-.1-.5-.4-.5h-4.4Z"/><path id="path6190" class="cls-19" d="M964.2,343.4c-.2,0-.3.2-.4.3l-.8,3.5c.8,1.7,1.7,3.3,2.6,4.9a46.74,46.74,0,0,0,2.7-4.9l-.8-3.5c0-.2-.2-.3-.4-.3Z"/><path id="path6192" class="cls-10" d="M965.6,304.6c-7.4,0-11.1,4.5-11.3,11.4v1.2l-.2.1a1.56,1.56,0,0,0-.6.8,7.61,7.61,0,0,0-.3,2.1,9.82,9.82,0,0,0,3.1,6.8c.1.4.2.7.3,1a9,9,0,0,0,5.3,1.1,2.37,2.37,0,1,1,1.5,3,3.25,3.25,0,0,1-1.3-1,13.61,13.61,0,0,1-4-.4,9.08,9.08,0,0,0,7.5,4c4.6,0,8.1-3.4,9.3-7.9A9.82,9.82,0,0,0,978,320a4.88,4.88,0,0,0-.3-2.1,1.56,1.56,0,0,0-.6-.8l-.2-.1v-1.2C976.7,309,973.1,304.6,965.6,304.6Z"/><path id="path6194" class="cls-19" d="M965.6,300.2c-7.9,0-14.5,5.3-15.2,12.2a2.56,2.56,0,0,0-2.7,2.4v7.5a2.6,2.6,0,0,0,2.8,2.4h.6a.9.9,0,0,0,.5-.1,1,1,0,0,0,.7-.9V313.3c.2-6.2,6.1-11.4,13.5-11.4s13.3,5.1,13.5,11.4v10.4a1,1,0,0,0,.7.9.75.75,0,0,0,.5.1h.5a2.66,2.66,0,0,0,2.8-2.4v-7.5a2.56,2.56,0,0,0-2.7-2.4C980.1,305.5,973.5,300.2,965.6,300.2Z"/></g><path class="cls-10" d="M1015.4,81.5H991.3a1.79,1.79,0,0,0-1.8-1.8h-3.7a1.79,1.79,0,0,0-1.8,1.8H959.9a1.88,1.88,0,0,0-1.9,1.8h0v1.8a1.88,1.88,0,0,0,1.9,1.8v29.6a3.76,3.76,0,0,0,3.7,3.7h17.6l-4.5,10.4a1.88,1.88,0,0,0,1,2.4,1.83,1.83,0,0,0,2.4-.9l1.9-4.4h3.8v3.7a1.85,1.85,0,1,0,3.7,0h0v-3.7h3.8l1.9,4.4a1.92,1.92,0,0,0,2.5.9,1.83,1.83,0,0,0,.9-2.4l-4.5-10.4h17.6a3.76,3.76,0,0,0,3.7-3.7h0V87a1.79,1.79,0,0,0,1.8-1.8h0V83.4a1.82,1.82,0,0,0-1.8-1.9Z"/><polygon class="cls-5" points="985.8 125.9 982.8 125.9 985.2 120.3 985.8 120.3 985.8 125.9"/><polygon class="cls-5" points="989.5 125.9 989.5 120.3 990 120.3 992.4 125.9 989.5 125.9"/><path class="cls-5" d="M1011.7,115.9a.68.68,0,0,1-.7.7H964.3a.68.68,0,0,1-.7-.7h0V87h48.1v28.9Z"/><path class="cls-10" d="M993.2,103.9l2-1.9a.48.48,0,0,1,.7,0l.9.9a.48.48,0,0,1,0,.7l-1.9,1.9,1.9,1.9a.48.48,0,0,1,0,.7l-.9.9a.48.48,0,0,1-.7,0l-2-1.9-1.9,1.9a.37.37,0,0,1-.3.1c-.1,0-.3-.1-.4-.1l-.9-.9a.48.48,0,0,1,0-.7l1.9-1.9-1.9-1.9c-.1-.1-.1-.2-.2-.4s.1-.3.2-.3l.9-.9a.48.48,0,0,1,.7,0h0Z"/><path class="cls-10" d="M969.3,92.5a.48.48,0,0,1,0-.7l.9-.9a.48.48,0,0,1,.7,0l1.9,1.9,1.9-1.9a.48.48,0,0,1,.7,0l.9.9a.48.48,0,0,1,0,.7l-1.9,1.9,1.9,1.9a.48.48,0,0,1,0,.7h0l-.9.9a.48.48,0,0,1-.7,0h0L972.8,96l-1.9,1.9a.48.48,0,0,1-.7,0l-.9-.9a.48.48,0,0,1,0-.7l1.9-1.9Z"/><path class="cls-19" d="M974.7,108.3a4.6,4.6,0,1,0,6.5-4.2c.2-3.8,3.8-8.3,8.2-8.3v1.7a.86.86,0,0,0,.3.6c.1,0,.2.1.3.1a.37.37,0,0,0,.3-.1l4.4-3a.57.57,0,0,0,0-1L990.3,91a.64.64,0,0,0-.6,0,.55.55,0,0,0-.3.5v1.7c-5.9,0-10.6,5.6-11,10.7A4.42,4.42,0,0,0,974.7,108.3Z"/><circle class="cls-5" cx="979.3" cy="108.3" r="1.8"/><circle class="cls-19" cx="1001.5" cy="95.4" r="4.6"/><circle class="cls-5" cx="1001.5" cy="95.4" r="1.8"/><path class="cls-12" d="M1111.2,310.3a25.12,25.12,0,0,1,11.7-3c3.2,0,6.4,2.2,9,4.6,2.1,1.9.8,4.7-2,4.7H1107Z"/><path class="cls-12" d="M1088.9,229.3c-14.4-9.6-29.4,28.1-29.4,47.9s48.7,40,48.7,40l2.9-6.9s-26.4-26.4-31.2-36C1084.6,258.6,1098.7,235.8,1088.9,229.3Z"/><path class="cls-16" d="M1060.9,263.2l22.4,5.6,7.9-22.3s2.2-9.6.7-14c0,0-4.5-8-12.3-4,0,0-5.7,2.7-12.4,16.8C1067.2,245.3,1062.5,255.3,1060.9,263.2Z"/></svg>