<?xml version="1.0" encoding="utf-8"?>
<!-- Generator: Adobe Illustrator 25.0.0, SVG Export Plug-In . SVG Version: 6.00 Build 0)  -->
<svg version="1.1" id="Layer_1" xmlns="http://www.w3.org/2000/svg" xmlns:xlink="http://www.w3.org/1999/xlink" x="0px" y="0px"
	 viewBox="0 0 1440 510" style="enable-background:new 0 0 1440 510;" xml:space="preserve">
<style type="text/css">
	.st0{fill:#F8FAF7;}
	.st1{fill:none;stroke:#D1D3D4;stroke-width:2;stroke-miterlimit:10;}
	.st2{fill:none;stroke:#D1D3D4;stroke-width:2;stroke-miterlimit:10;stroke-dasharray:8.2795,8.2795;}
	.st3{fill:none;stroke:#D1D3D4;stroke-width:2;stroke-miterlimit:10;stroke-dasharray:7.9447,7.9447;}
	.st4{fill:none;stroke:#D1D3D4;stroke-width:2;stroke-miterlimit:10;stroke-dasharray:7.7125,7.7125;}
	.st5{fill:none;stroke:#D1D3D4;stroke-width:2;stroke-miterlimit:10;stroke-dasharray:7.5677,7.5677;}
	.st6{fill:none;stroke:#D1D3D4;stroke-width:2;stroke-miterlimit:10;stroke-dasharray:7.6056,7.6056;}
	.st7{fill:none;stroke:#D1D3D4;stroke-width:2;stroke-miterlimit:10;stroke-dasharray:7.4968,7.4968;}
	.st8{fill:none;stroke:#D1D3D4;stroke-width:2;stroke-miterlimit:10;stroke-dasharray:7.4828,7.4828;}
	.st9{fill:none;stroke:#D1D3D4;stroke-width:2;stroke-miterlimit:10;stroke-dasharray:8.0222,8.0222;}
	.st10{fill:#D1D3D4;}
	.st11{fill:#FFFFFF;}
	.st12{fill:none;stroke:#FFFFFF;stroke-width:0.4593;stroke-miterlimit:10;}
	.st13{fill:#FFB888;}
	.st14{fill:#FF953F;}
	.st15{fill:#F39F85;}
	.st16{fill:#181F36;}
	.st17{fill:#F7B58E;}
	.st18{fill:none;stroke:#FFFFFF;stroke-width:0.9187;stroke-miterlimit:10;}
	.st19{fill:#C2C0FF;}
	.st20{fill:#8886DA;}
	.st21{fill:#E2D9D3;}
	.st22{fill:none;stroke:#F8FAF7;stroke-miterlimit:10;}
	.st23{fill:none;stroke:#D1D3D4;stroke-width:1.3749;stroke-miterlimit:10;}
	.st24{fill:none;stroke:#D1D3D4;stroke-width:1.3749;stroke-miterlimit:10;stroke-dasharray:5.391,5.391;}
	.st25{fill:none;stroke:#D1D3D4;stroke-width:1.3749;stroke-miterlimit:10;stroke-dasharray:5.4615,5.4615;}
	.st26{fill:none;stroke:#D1D3D4;stroke-width:1.3749;stroke-miterlimit:10;stroke-dasharray:5.6631,5.6631;}
	.st27{fill:none;stroke:#D1D3D4;stroke-width:1.3749;stroke-miterlimit:10;stroke-dasharray:5.2024,5.2024;}
	.st28{fill:none;stroke:#D1D3D4;stroke-width:1.3749;stroke-miterlimit:10;stroke-dasharray:5.5838,5.5838;}
	.st29{fill:none;stroke:#D1D3D4;stroke-width:1.3749;stroke-miterlimit:10;stroke-dasharray:5.1537,5.1537;}
	.st30{fill:none;stroke:#D1D3D4;stroke-width:1.3749;stroke-miterlimit:10;stroke-dasharray:5.5287,5.5287;}
	.st31{fill:none;stroke:#D1D3D4;stroke-width:1.3749;stroke-miterlimit:10;stroke-dasharray:5.5148,5.5148;}
	.st32{fill:none;stroke:#FFFFFF;stroke-width:0.3158;stroke-miterlimit:10;}
	.st33{fill:none;stroke:#FFFFFF;stroke-width:0.6315;stroke-miterlimit:10;}
	.st34{fill:none;stroke:#F8FAF7;stroke-width:0.6874;stroke-miterlimit:10;}
	.st35{opacity:0.68;}
	.st36{fill:none;stroke:#D1D3D4;stroke-width:2;stroke-miterlimit:10;stroke-dasharray:8;}
	.st37{fill:none;stroke:#000000;stroke-miterlimit:10;}
	.st38{fill:none;}
	.st39{fill:#212B53;}
	.st40{fill:url(#SVGID_1_);}
	.st41{fill:#EEEEEE;}
	.st42{clip-path:url(#SVGID_3_);}
	.st43{fill:url(#SVGID_4_);}
	.st44{clip-path:url(#SVGID_6_);}
	.st45{fill:none;stroke:#D1D3D4;stroke-width:1.463;stroke-miterlimit:10;stroke-dasharray:5.8522;}
	.st46{fill:none;stroke:#000000;stroke-width:0.7315;stroke-miterlimit:10;}
	.st47{fill:url(#SVGID_7_);}
	.st48{clip-path:url(#SVGID_9_);}
	.st49{fill:none;stroke:#D1D3D4;stroke-width:1.3502;stroke-miterlimit:10;stroke-dasharray:5.4007;}
	.st50{fill:#EDEDED;}
	.st51{clip-path:url(#SVGID_11_);}
	.st52{fill:#FFD147;}
	.st53{fill:url(#SVGID_12_);}
	.st54{fill:none;stroke:#D1D3D4;stroke-width:1.3334;stroke-miterlimit:10;stroke-dasharray:5.3337;}
	.st55{clip-path:url(#SVGID_14_);}
	.st56{fill:url(#SVGID_15_);}
	.st57{clip-path:url(#SVGID_17_);}
	.st58{clip-path:url(#SVGID_19_);}
	.st59{fill:url(#SVGID_20_);}
	.st60{clip-path:url(#SVGID_22_);}
	.st61{fill:none;stroke:#D1D3D4;stroke-width:2;stroke-miterlimit:10;stroke-dasharray:6;}
	.st62{fill:#1D273F;}
	.st63{fill:none;stroke:#FFFFFF;stroke-width:1.0533;stroke-miterlimit:10;}
	.st64{fill:#939598;}
	.st65{fill:none;stroke:#8886DA;stroke-width:1.7095;stroke-miterlimit:10;}
	.st66{fill:none;stroke:#D1D3D4;stroke-width:1.1725;stroke-miterlimit:10;stroke-dasharray:3.5175;}
	.st67{fill:none;stroke:#D1D3D4;stroke-width:1.1725;stroke-miterlimit:10;stroke-dasharray:4.6899;}
	.st68{fill:none;stroke:#FFFFFF;stroke-width:0.6175;stroke-miterlimit:10;}
	.st69{fill:none;stroke:#8886DA;stroke-width:1.0022;stroke-miterlimit:10;}
	.st70{fill-rule:evenodd;clip-rule:evenodd;fill:#FFFF00;}
</style>
<rect x="0" class="st0" width="1440" height="510"/>
<g>
	<line class="st61" x1="1170.7" y1="329.6" x2="1170.7" y2="363.7"/>
	<line class="st36" x1="1170.7" y1="187.5" x2="1170.7" y2="142"/>
	<g>
		<circle class="st10" cx="1170.7" cy="258.7" r="62.9"/>
		<circle class="st36" cx="1170.7" cy="258.7" r="69.4"/>
		<g>
			<path class="st39" d="M1144.2,209.9c0,0,6.8,11.8-4,21.6s-44.6,27.2-10.6,52.3l70-3.1l14.7-10.2c0,0,7.3-20.3-6.7-26
				s-11.9-11-10.4-16.5c1.5-5.5-2.6-45.7-34.8-44.5C1130.2,184.7,1144.2,209.9,1144.2,209.9z"/>
			<path class="st39" d="M1149.2,219.5c0,0-14.3-23.8-8.4-30.5c5.9-6.8,38.4-8.9,39.9,3.5c1.5,12.4-3.1,37.1-3.1,37.1L1149.2,219.5z
				"/>
			<path class="st14" d="M1206.7,289.2l-6-3.8l18.8-8.4l-7.8-17.7c-3.6-7.5-12.9-13.7-21.7-13.7h-38.6c-8.9,0-18.1,6.1-21.7,13.7
				l-7.8,17.7l18.8,8.4l-6,3.8l-3.3,28.7l39.4-0.6l39.4,0.6L1206.7,289.2z"/>
			<path class="st17" d="M1219.4,277.1l3.9,12.8c2.8,9.3-0.2,19.3-7.8,26l-17.6,13.7l-5.6-15.4l9.7-9.1c3.2-3,4.1-7.4,2.4-11.3
				l-3.7-8.4L1219.4,277.1z"/>
			<path class="st17" d="M1122.1,277.1l-3.9,12.8c-2.8,9.3,0.2,19.3,7.8,26l17.6,13.7l5.6-15.4l-9.7-9.1c-3.2-3-4.1-7.4-2.4-11.3
				l3.7-8.4L1122.1,277.1z"/>
			<g>
				<rect x="1135.4" y="285.8" class="st16" width="70.7" height="42.3"/>
				<rect x="1135.4" y="326.4" class="st62" width="70.7" height="3.5"/>
				<path class="st11" d="M1167.9,303.1c0,1.6,1.3,2.8,2.8,2.8c1.6,0,2.8-1.3,2.8-2.8c0-1.6-1.3-2.8-2.8-2.8
					C1169.2,300.3,1167.9,301.5,1167.9,303.1z"/>
			</g>
			<path class="st15" d="M1177.5,245.7c-1.2-3.6-3.4-14.4-3.4-14.4l-13.9,2.7v11.8c0,0,4.6,3.3,8.5,3.3
				C1173,249.1,1177.7,246.1,1177.5,245.7z"/>
			<g>
				<path class="st17" d="M1177.5,212.1l-2.6-15.4l-26.7,3.2l1.6,17.8c0,0,2.1,22,16.3,19.4C1181.5,234.2,1178.2,211.9,1177.5,212.1
					z"/>
			</g>
			<path class="st17" d="M1175,214c-0.7,1.9-0.3,3.8,1,4.2c1.2,0.5,2.8-0.6,3.5-2.5c0.7-1.9,0.3-3.8-1-4.2
				C1177.3,211,1175.7,212.2,1175,214z"/>
			<path class="st15" d="M1160.2,245.7c0,0-0.3,10.2,8.4,12.7s8.9-12.8,8.9-12.8L1160.2,245.7z"/>
		</g>
		<line class="st63" x1="1140.8" y1="285.5" x2="1148.2" y2="270.2"/>
		<line class="st63" x1="1200.7" y1="285.5" x2="1194.8" y2="270.2"/>
		<path class="st39" d="M1147.7,206.5c0.4,0.1,23.3-4.2,27.2-9.9c3.9-5.6-28.9-2.3-29.1,0C1145.6,199,1147.7,206.5,1147.7,206.5z"/>
		<path class="st39" d="M1174.9,196.7c0,0-3.9,9.1,2.5,14.7c0,0,4.1-12.8,2.4-13.9S1174.9,196.7,1174.9,196.7z"/>
	</g>
	<g>
		<g>
			<g>
				<g>
					<g>
						<path class="st19" d="M1196.3,112c-1,1.2-2.5,2-4.2,2h-39.2c-2.9,0-5.3-2.4-5.3-5.3v-51c0-2.9,2.4-5.3,5.3-5.3h4.9v5.7h29.5
							v-5.7h4.9c2.9,0,5.3,2.4,5.3,5.3V106C1197.5,106,1197.8,110.2,1196.3,112z"/>
						<path class="st20" d="M1185,50v5.8h-24.9V50h9c0.4-1.6,1.8-2.7,3.5-2.7s3.1,1.2,3.5,2.7H1185z"/>
					</g>
					<g>
						<polygon class="st20" points="1185.1,106 1158.6,106 1158.6,69.6 1160.6,69.6 1160.6,104 1183.1,104 1183.1,92.6 1185.1,92.6 
													"/>
					</g>
					<rect x="1154" y="66.9" class="st0" width="11" height="5.3"/>
					<rect x="1154" y="80.5" class="st0" width="11" height="5.3"/>
					<rect x="1154" y="94.1" class="st0" width="11" height="5.3"/>
					<rect x="1178.6" y="85.9" class="st0" width="11" height="13.6"/>
					<path class="st20" d="M1177.4,67.6V81h13.5V67.6H1177.4z M1189.1,70.7l-6.2,8.1c-0.1,0.1-0.3,0.2-0.5,0.3c0,0-0.1,0-0.1,0
						c-0.1,0-0.3-0.1-0.4-0.2l-2.7-2.2c-0.3-0.2-0.3-0.7-0.1-0.9c0.2-0.3,0.7-0.3,0.9-0.1l2.1,1.7l5.8-7.5c0.2-0.3,0.6-0.3,0.9-0.1
						C1189.3,70,1189.4,70.4,1189.1,70.7z"/>
				</g>
				<g>
					<path class="st64" d="M1153,125c0,0.6-0.2,1.1-0.6,1.4s-1,0.5-1.8,0.5h-0.6v2.3h-1v-6h1.7c0.8,0,1.3,0.2,1.7,0.5
						S1153,124.4,1153,125z M1150,126.1h0.5c0.5,0,0.9-0.1,1.1-0.3c0.2-0.2,0.4-0.5,0.4-0.8c0-0.3-0.1-0.6-0.3-0.8
						c-0.2-0.2-0.5-0.3-1-0.3h-0.7V126.1z"/>
					<path class="st64" d="M1156.4,124.5c0.2,0,0.4,0,0.5,0l-0.1,0.9c-0.1,0-0.3,0-0.4,0c-0.4,0-0.7,0.1-0.9,0.4
						c-0.2,0.3-0.4,0.6-0.4,1v2.4h-1v-4.6h0.8l0.1,0.8h0c0.2-0.3,0.3-0.5,0.6-0.6S1156.1,124.5,1156.4,124.5z"/>
					<path class="st64" d="M1161.8,126.9c0,0.7-0.2,1.3-0.6,1.7c-0.4,0.4-0.9,0.6-1.6,0.6c-0.4,0-0.8-0.1-1.1-0.3s-0.6-0.5-0.8-0.8
						c-0.2-0.4-0.3-0.8-0.3-1.3c0-0.7,0.2-1.3,0.6-1.7c0.4-0.4,0.9-0.6,1.6-0.6c0.7,0,1.2,0.2,1.6,0.6
						C1161.6,125.6,1161.8,126.2,1161.8,126.9z M1158.4,126.9c0,1.1,0.4,1.6,1.2,1.6c0.8,0,1.2-0.5,1.2-1.6c0-1-0.4-1.6-1.2-1.6
						c-0.4,0-0.7,0.1-0.9,0.4C1158.5,126,1158.4,126.4,1158.4,126.9z"/>
					<path class="st64" d="M1162.4,131.2c-0.3,0-0.5,0-0.7-0.1v-0.8c0.2,0,0.4,0.1,0.6,0.1c0.4,0,0.6-0.2,0.6-0.7v-5.1h1v5.2
						c0,0.5-0.1,0.8-0.4,1.1C1163.2,131.1,1162.9,131.2,1162.4,131.2z M1162.8,123.4c0-0.2,0-0.3,0.1-0.4c0.1-0.1,0.2-0.1,0.4-0.1
						c0.2,0,0.3,0,0.4,0.1c0.1,0.1,0.1,0.2,0.1,0.4c0,0.2,0,0.3-0.1,0.4s-0.2,0.1-0.4,0.1c-0.2,0-0.3,0-0.4-0.1
						S1162.8,123.6,1162.8,123.4z"/>
					<path class="st64" d="M1167.2,129.3c-0.7,0-1.3-0.2-1.7-0.6c-0.4-0.4-0.6-1-0.6-1.7c0-0.7,0.2-1.3,0.6-1.8
						c0.4-0.4,0.9-0.6,1.5-0.6c0.6,0,1.1,0.2,1.4,0.5s0.5,0.9,0.5,1.5v0.5h-3c0,0.4,0.1,0.8,0.4,1c0.2,0.2,0.5,0.4,1,0.4
						c0.3,0,0.5,0,0.8-0.1c0.2-0.1,0.5-0.1,0.7-0.3v0.8c-0.2,0.1-0.5,0.2-0.7,0.2C1167.8,129.2,1167.5,129.3,1167.2,129.3z
						 M1167,125.3c-0.3,0-0.6,0.1-0.7,0.3c-0.2,0.2-0.3,0.5-0.3,0.9h2.1c0-0.4-0.1-0.7-0.3-0.9S1167.3,125.3,1167,125.3z"/>
					<path class="st64" d="M1171.9,129.3c-0.7,0-1.2-0.2-1.6-0.6c-0.4-0.4-0.5-1-0.5-1.7c0-0.8,0.2-1.4,0.6-1.8
						c0.4-0.4,0.9-0.6,1.6-0.6c0.5,0,0.9,0.1,1.3,0.3l-0.3,0.8c-0.4-0.2-0.7-0.2-1-0.2c-0.8,0-1.2,0.5-1.2,1.6
						c0,0.5,0.1,0.9,0.3,1.2c0.2,0.3,0.5,0.4,0.9,0.4c0.4,0,0.8-0.1,1.2-0.3v0.8c-0.2,0.1-0.4,0.2-0.6,0.2
						S1172.2,129.3,1171.9,129.3z"/>
					<path class="st64" d="M1176,128.5c0.2,0,0.5,0,0.7-0.1v0.7c-0.1,0-0.2,0.1-0.4,0.1c-0.2,0-0.3,0-0.5,0c-0.9,0-1.4-0.5-1.4-1.4
						v-2.5h-0.6v-0.4l0.7-0.4l0.3-1h0.6v1h1.3v0.7h-1.3v2.4c0,0.2,0.1,0.4,0.2,0.5C1175.6,128.4,1175.8,128.5,1176,128.5z"/>
					<path class="st64" d="M1182.1,129.3c-0.6,0-1-0.2-1.3-0.6h-0.1c0,0.4,0.1,0.6,0.1,0.7v1.9h-1v-6.6h0.8c0,0.1,0.1,0.3,0.1,0.6h0
						c0.3-0.5,0.8-0.7,1.4-0.7c0.6,0,1,0.2,1.3,0.6c0.3,0.4,0.5,1,0.5,1.7s-0.2,1.3-0.5,1.7C1183.1,129,1182.6,129.3,1182.1,129.3z
						 M1181.8,125.3c-0.4,0-0.7,0.1-0.8,0.3c-0.2,0.2-0.3,0.6-0.3,1.1v0.1c0,0.6,0.1,1,0.3,1.2c0.2,0.2,0.5,0.4,0.9,0.4
						c0.3,0,0.6-0.1,0.8-0.4c0.2-0.3,0.3-0.7,0.3-1.2c0-0.5-0.1-0.9-0.3-1.2C1182.5,125.5,1182.2,125.3,1181.8,125.3z"/>
					<path class="st64" d="M1186,129.2h-1v-6.4h1V129.2z"/>
					<path class="st64" d="M1190.2,129.2l-0.2-0.6h0c-0.2,0.3-0.4,0.5-0.7,0.6c-0.2,0.1-0.5,0.2-0.9,0.2c-0.4,0-0.8-0.1-1-0.4
						c-0.3-0.2-0.4-0.6-0.4-1c0-0.5,0.2-0.8,0.5-1.1c0.3-0.2,0.9-0.4,1.6-0.4l0.8,0v-0.2c0-0.3-0.1-0.5-0.2-0.7
						c-0.1-0.1-0.3-0.2-0.6-0.2c-0.2,0-0.5,0-0.7,0.1c-0.2,0.1-0.4,0.1-0.6,0.2l-0.3-0.7c0.2-0.1,0.5-0.2,0.8-0.3s0.6-0.1,0.8-0.1
						c0.6,0,1,0.1,1.3,0.4c0.3,0.3,0.4,0.6,0.4,1.2v3.1H1190.2z M1188.8,128.5c0.4,0,0.6-0.1,0.8-0.3s0.3-0.5,0.3-0.8V127l-0.6,0
						c-0.5,0-0.8,0.1-1,0.2c-0.2,0.1-0.3,0.3-0.3,0.6c0,0.2,0.1,0.4,0.2,0.5C1188.4,128.5,1188.5,128.5,1188.8,128.5z"/>
					<path class="st64" d="M1196.3,129.2h-1v-2.8c0-0.4-0.1-0.6-0.2-0.8c-0.1-0.2-0.4-0.3-0.7-0.3c-0.4,0-0.7,0.1-0.9,0.4
						c-0.2,0.2-0.3,0.6-0.3,1.2v2.3h-1v-4.6h0.8l0.1,0.6h0c0.1-0.2,0.3-0.4,0.6-0.5c0.3-0.1,0.5-0.2,0.8-0.2c1.1,0,1.6,0.6,1.6,1.7
						V129.2z"/>
				</g>
			</g>
			<g>
				<g>
					<path class="st19" d="M1192.2,377.3h-4.9v5.7h-29.5v-5.7h-4.9c-2.9,0-5.3,2.4-5.3,5.3v51c0,2.9,2.4,5.3,5.3,5.3h39.2
						c2.9,0,5.3-2.4,5.3-5.3v-51C1197.5,379.7,1195.1,377.3,1192.2,377.3z"/>
					<path class="st0" d="M1190.5,398.9h-23.8c-0.6,0-1.1-0.5-1.1-1.1c0-0.6,0.5-1.1,1.1-1.1h23.8c0.6,0,1.1,0.5,1.1,1.1
						C1191.7,398.4,1191.2,398.9,1190.5,398.9z"/>
					<path class="st0" d="M1190.5,392.9h-23.8c-0.6,0-1.1-0.5-1.1-1.1c0-0.6,0.5-1.1,1.1-1.1h23.8c0.6,0,1.1,0.5,1.1,1.1
						C1191.7,392.3,1191.2,392.9,1190.5,392.9z"/>
					<path class="st0" d="M1190,405h-35.1c-0.9,0-1.7-0.5-1.7-1.1c0-0.6,0.8-1.1,1.7-1.1h35.1c0.9,0,1.7,0.5,1.7,1.1
						C1191.7,404.5,1190.9,405,1190,405z"/>
					<path class="st0" d="M1190,411.1h-35.1c-0.9,0-1.7-0.5-1.7-1.1c0-0.6,0.8-1.1,1.7-1.1h35.1c0.9,0,1.7,0.5,1.7,1.1
						C1191.7,410.6,1190.9,411.1,1190,411.1z"/>
					<path class="st0" d="M1190,417.2h-35.1c-0.9,0-1.7-0.5-1.7-1.1c0-0.6,0.8-1.1,1.7-1.1h35.1c0.9,0,1.7,0.5,1.7,1.1
						C1191.7,416.6,1190.9,417.2,1190,417.2z"/>
					<path class="st0" d="M1190,423.2h-35.1c-0.9,0-1.7-0.5-1.7-1.1c0-0.6,0.8-1.1,1.7-1.1h35.1c0.9,0,1.7,0.5,1.7,1.1
						C1191.7,422.7,1190.9,423.2,1190,423.2z"/>
					<path class="st0" d="M1190,429.3h-35.1c-0.9,0-1.7-0.5-1.7-1.1c0-0.6,0.8-1.1,1.7-1.1h35.1c0.9,0,1.7,0.5,1.7,1.1
						C1191.7,428.8,1190.9,429.3,1190,429.3z"/>
					<path class="st20" d="M1185,374.9v5.8h-24.9v-5.8h9c0.4-1.6,1.8-2.7,3.5-2.7s3.1,1.2,3.5,2.7H1185z"/>
					<path class="st20" d="M1162,390.9c-0.4-0.5-1.2-0.5-1.6,0l-0.7,0.7l-3,2.8l-1.5-1.4c-0.5-0.4-1.2-0.4-1.6,0
						c-0.4,0.5-0.4,1.2,0,1.6l3.1,2.9l4.4-4.1l0.9-0.9C1162.4,392.1,1162.4,391.4,1162,390.9z"/>
				</g>
				<g>
					<path class="st64" d="M1153.4,453.6h-3.4v-6h3.4v0.8h-2.4v1.6h2.3v0.8h-2.3v1.9h2.4V453.6z"/>
					<path class="st64" d="M1158.6,453.6h-1v-2.8c0-0.4-0.1-0.6-0.2-0.8c-0.1-0.2-0.4-0.3-0.7-0.3c-0.4,0-0.7,0.1-0.9,0.4
						s-0.3,0.6-0.3,1.2v2.3h-1V449h0.8l0.1,0.6h0c0.1-0.2,0.3-0.4,0.6-0.5c0.3-0.1,0.5-0.2,0.8-0.2c1.1,0,1.6,0.6,1.6,1.7V453.6z"/>
					<path class="st64" d="M1161.5,453.7c-0.6,0-1-0.2-1.3-0.6c-0.3-0.4-0.5-1-0.5-1.7c0-0.7,0.2-1.3,0.5-1.7s0.8-0.6,1.3-0.6
						c0.6,0,1.1,0.2,1.4,0.7h0c0-0.3-0.1-0.6-0.1-0.8v-1.7h1v6.4h-0.8l-0.2-0.6h0C1162.6,453.5,1162.1,453.7,1161.5,453.7z
						 M1161.8,452.9c0.4,0,0.7-0.1,0.9-0.3c0.2-0.2,0.3-0.6,0.3-1.1v-0.1c0-0.6-0.1-1-0.3-1.2c-0.2-0.2-0.5-0.4-0.9-0.4
						c-0.3,0-0.6,0.1-0.8,0.4c-0.2,0.3-0.3,0.7-0.3,1.2c0,0.5,0.1,0.9,0.3,1.2S1161.4,452.9,1161.8,452.9z"/>
					<path class="st64" d="M1169.7,453.7c-0.6,0-1-0.2-1.3-0.6h-0.1c0,0.4,0.1,0.6,0.1,0.7v1.9h-1V449h0.8c0,0.1,0.1,0.3,0.1,0.6h0
						c0.3-0.5,0.8-0.7,1.4-0.7c0.6,0,1,0.2,1.3,0.6c0.3,0.4,0.5,1,0.5,1.7c0,0.7-0.2,1.3-0.5,1.7
						C1170.7,453.5,1170.3,453.7,1169.7,453.7z M1169.5,449.8c-0.4,0-0.7,0.1-0.8,0.3c-0.2,0.2-0.3,0.6-0.3,1.1v0.1
						c0,0.6,0.1,1,0.3,1.2s0.5,0.4,0.9,0.4c0.3,0,0.6-0.1,0.8-0.4c0.2-0.3,0.3-0.7,0.3-1.2c0-0.5-0.1-0.9-0.3-1.2
						C1170.1,449.9,1169.8,449.8,1169.5,449.8z"/>
					<path class="st64" d="M1175,449c0.2,0,0.4,0,0.5,0l-0.1,0.9c-0.1,0-0.3,0-0.4,0c-0.4,0-0.7,0.1-0.9,0.4c-0.2,0.3-0.4,0.6-0.4,1
						v2.4h-1V449h0.8l0.1,0.8h0c0.2-0.3,0.3-0.5,0.6-0.6C1174.4,449,1174.7,449,1175,449z"/>
					<path class="st64" d="M1180.3,451.3c0,0.7-0.2,1.3-0.6,1.7c-0.4,0.4-0.9,0.6-1.6,0.6c-0.4,0-0.8-0.1-1.1-0.3
						c-0.3-0.2-0.6-0.5-0.8-0.8c-0.2-0.4-0.3-0.8-0.3-1.3c0-0.7,0.2-1.3,0.6-1.7s0.9-0.6,1.6-0.6c0.7,0,1.2,0.2,1.6,0.6
						C1180.2,450,1180.3,450.6,1180.3,451.3z M1177,451.3c0,1.1,0.4,1.6,1.2,1.6c0.8,0,1.2-0.5,1.2-1.6c0-1-0.4-1.6-1.2-1.6
						c-0.4,0-0.7,0.1-0.9,0.4S1177,450.8,1177,451.3z"/>
					<path class="st64" d="M1181,455.6c-0.3,0-0.5,0-0.7-0.1v-0.8c0.2,0,0.4,0.1,0.6,0.1c0.4,0,0.6-0.2,0.6-0.7V449h1v5.2
						c0,0.5-0.1,0.8-0.4,1.1C1181.8,455.5,1181.5,455.6,1181,455.6z M1181.4,447.8c0-0.2,0-0.3,0.1-0.4c0.1-0.1,0.2-0.1,0.4-0.1
						c0.2,0,0.3,0,0.4,0.1c0.1,0.1,0.1,0.2,0.1,0.4c0,0.2,0,0.3-0.1,0.4s-0.2,0.1-0.4,0.1c-0.2,0-0.3,0-0.4-0.1
						S1181.4,448,1181.4,447.8z"/>
					<path class="st64" d="M1185.8,453.7c-0.7,0-1.3-0.2-1.7-0.6c-0.4-0.4-0.6-1-0.6-1.7c0-0.7,0.2-1.3,0.6-1.8
						c0.4-0.4,0.9-0.6,1.5-0.6c0.6,0,1.1,0.2,1.4,0.5s0.5,0.9,0.5,1.5v0.5h-3c0,0.4,0.1,0.8,0.4,1s0.5,0.4,1,0.4
						c0.3,0,0.5,0,0.8-0.1s0.5-0.1,0.7-0.3v0.8c-0.2,0.1-0.5,0.2-0.7,0.2C1186.4,453.7,1186.1,453.7,1185.8,453.7z M1185.6,449.7
						c-0.3,0-0.6,0.1-0.7,0.3c-0.2,0.2-0.3,0.5-0.3,0.9h2.1c0-0.4-0.1-0.7-0.3-0.9S1185.9,449.7,1185.6,449.7z"/>
					<path class="st64" d="M1190.5,453.7c-0.7,0-1.2-0.2-1.6-0.6s-0.5-1-0.5-1.7c0-0.8,0.2-1.4,0.6-1.8s0.9-0.6,1.6-0.6
						c0.5,0,0.9,0.1,1.3,0.3l-0.3,0.8c-0.4-0.2-0.7-0.2-1-0.2c-0.8,0-1.2,0.5-1.2,1.6c0,0.5,0.1,0.9,0.3,1.2
						c0.2,0.3,0.5,0.4,0.9,0.4c0.4,0,0.8-0.1,1.2-0.3v0.8c-0.2,0.1-0.4,0.2-0.6,0.2S1190.8,453.7,1190.5,453.7z"/>
					<path class="st64" d="M1194.5,452.9c0.2,0,0.5,0,0.7-0.1v0.7c-0.1,0-0.2,0.1-0.4,0.1c-0.2,0-0.3,0-0.5,0
						c-0.9,0-1.4-0.5-1.4-1.4v-2.5h-0.6v-0.4l0.7-0.4l0.3-1h0.6v1h1.3v0.7h-1.3v2.4c0,0.2,0.1,0.4,0.2,0.5
						C1194.2,452.8,1194.4,452.9,1194.5,452.9z"/>
					<path class="st64" d="M1162.4,459.1c0.2,0,0.4,0,0.5,0l-0.1,0.9c-0.1,0-0.3,0-0.4,0c-0.4,0-0.7,0.1-0.9,0.4
						c-0.2,0.3-0.4,0.6-0.4,1v2.4h-1v-4.6h0.8l0.1,0.8h0c0.2-0.3,0.3-0.5,0.6-0.6S1162.1,459.1,1162.4,459.1z"/>
					<path class="st64" d="M1165.7,463.8c-0.7,0-1.3-0.2-1.7-0.6s-0.6-1-0.6-1.7c0-0.7,0.2-1.3,0.6-1.8c0.4-0.4,0.9-0.6,1.5-0.6
						c0.6,0,1.1,0.2,1.4,0.5s0.5,0.9,0.5,1.5v0.5h-3c0,0.4,0.1,0.8,0.4,1c0.2,0.2,0.5,0.4,1,0.4c0.3,0,0.5,0,0.8-0.1
						c0.2-0.1,0.5-0.1,0.7-0.3v0.8c-0.2,0.1-0.5,0.2-0.7,0.2C1166.3,463.8,1166,463.8,1165.7,463.8z M1165.6,459.8
						c-0.3,0-0.6,0.1-0.7,0.3c-0.2,0.2-0.3,0.5-0.3,0.9h2.1c0-0.4-0.1-0.7-0.3-0.9S1165.9,459.8,1165.6,459.8z"/>
					<path class="st64" d="M1170.9,463.8c-0.6,0-1-0.2-1.3-0.6h-0.1c0,0.4,0.1,0.6,0.1,0.7v1.9h-1v-6.6h0.8c0,0.1,0.1,0.3,0.1,0.6h0
						c0.3-0.5,0.8-0.7,1.4-0.7c0.6,0,1,0.2,1.3,0.6c0.3,0.4,0.5,1,0.5,1.7c0,0.7-0.2,1.3-0.5,1.7S1171.5,463.8,1170.9,463.8z
						 M1170.7,459.9c-0.4,0-0.7,0.1-0.8,0.3c-0.2,0.2-0.3,0.6-0.3,1.1v0.1c0,0.6,0.1,1,0.3,1.2c0.2,0.2,0.5,0.4,0.9,0.4
						c0.3,0,0.6-0.1,0.8-0.4c0.2-0.3,0.3-0.7,0.3-1.2c0-0.5-0.1-0.9-0.3-1.2S1171,459.9,1170.7,459.9z"/>
					<path class="st64" d="M1177.9,461.4c0,0.7-0.2,1.3-0.6,1.7s-0.9,0.6-1.6,0.6c-0.4,0-0.8-0.1-1.1-0.3c-0.3-0.2-0.6-0.5-0.8-0.8
						s-0.3-0.8-0.3-1.3c0-0.7,0.2-1.3,0.6-1.7c0.4-0.4,0.9-0.6,1.6-0.6c0.7,0,1.2,0.2,1.6,0.6
						C1177.7,460.1,1177.9,460.7,1177.9,461.4z M1174.6,461.4c0,1.1,0.4,1.6,1.2,1.6c0.8,0,1.2-0.5,1.2-1.6c0-1-0.4-1.6-1.2-1.6
						c-0.4,0-0.7,0.1-0.9,0.4C1174.7,460.5,1174.6,460.9,1174.6,461.4z"/>
					<path class="st64" d="M1181.3,459.1c0.2,0,0.4,0,0.5,0l-0.1,0.9c-0.1,0-0.3,0-0.4,0c-0.4,0-0.7,0.1-0.9,0.4
						c-0.2,0.3-0.4,0.6-0.4,1v2.4h-1v-4.6h0.8l0.1,0.8h0c0.2-0.3,0.3-0.5,0.6-0.6S1181,459.1,1181.3,459.1z"/>
					<path class="st64" d="M1184.3,463c0.2,0,0.5,0,0.7-0.1v0.7c-0.1,0-0.2,0.1-0.4,0.1c-0.2,0-0.3,0-0.5,0c-0.9,0-1.4-0.5-1.4-1.5
						v-2.5h-0.6v-0.4l0.7-0.4l0.3-1h0.6v1h1.3v0.7h-1.3v2.4c0,0.2,0.1,0.4,0.2,0.5C1184,463,1184.2,463,1184.3,463z"/>
				</g>
			</g>
		</g>
		<g>
			<g>
				<g>
					<rect x="1329.3" y="239.3" class="st65" width="36.8" height="33.5"/>
					<rect x="1321" y="228.6" class="st0" width="20" height="16.7"/>
					<rect x="1352.4" y="228.6" class="st0" width="20" height="16.7"/>
					<rect x="1352.4" y="260.4" class="st0" width="20" height="16.7"/>
					<rect x="1321" y="260.4" class="st0" width="20" height="16.7"/>
					<g>
						<g>
							<g>
								<g>
									<path class="st19" d="M1340.2,237.7v5.2h-4.5l0-4.4c0-0.5-0.4-0.9-0.9-0.9c0,0,0,0,0,0c-0.5,0-0.8,0.4-0.8,0.9l0,4.4
										l-9.4,0v-4.3c0-0.5-0.4-0.9-0.9-0.9s-0.9,0.4-0.9,0.9v4.3h-4.5v-5.1c0-1.7,1.1-3.2,2.8-3.8l4-1.3l4.2,2.7l4.7-2.7l3.6,1.2
										C1339.1,234.5,1340.2,236,1340.2,237.7z"/>
									<path class="st19" d="M1334.8,226c0,3-2.4,5.5-5.5,5.5c-3,0-5.5-2.4-5.5-5.5c0-3,2.4-5.5,5.5-5.5
										C1332.3,220.6,1334.8,223,1334.8,226z"/>
								</g>
								<g>
									<path class="st19" d="M1377,237.7v5.2h-4.5l0-4.4c0-0.5-0.4-0.9-0.9-0.9c0,0,0,0,0,0c-0.5,0-0.8,0.4-0.8,0.9l0,4.4l-9.4,0
										v-4.3c0-0.5-0.4-0.9-0.9-0.9s-0.9,0.4-0.9,0.9v4.3h-4.5v-5.1c0-1.7,1.1-3.2,2.8-3.8l4-1.3l4.2,2.7l4.7-2.7l3.6,1.2
										C1375.9,234.5,1377,236,1377,237.7z"/>
									<path class="st19" d="M1371.5,226c0,3-2.4,5.5-5.5,5.5c-3,0-5.5-2.4-5.5-5.5c0-3,2.4-5.5,5.5-5.5
										C1369.1,220.6,1371.5,223,1371.5,226z"/>
								</g>
							</g>
							<g>
								<g>
									<path class="st19" d="M1340.2,271.2v5.2h-4.5l0-4.4c0-0.5-0.4-0.9-0.9-0.9c0,0,0,0,0,0c-0.5,0-0.8,0.4-0.8,0.9l0,4.4
										l-9.4,0V272c0-0.5-0.4-0.9-0.9-0.9s-0.9,0.4-0.9,0.9v4.3h-4.5v-5.1c0-1.7,1.1-3.2,2.8-3.8l4-1.3l4.2,2.7l4.7-2.7l3.6,1.2
										C1339.1,268,1340.2,269.5,1340.2,271.2z"/>
									<path class="st19" d="M1334.8,259.5c0,3-2.4,5.5-5.5,5.5c-3,0-5.5-2.4-5.5-5.5c0-3,2.4-5.5,5.5-5.5
										C1332.3,254,1334.8,256.5,1334.8,259.5z"/>
								</g>
								<g>
									<path class="st19" d="M1377,271.2v5.2h-4.5l0-4.4c0-0.5-0.4-0.9-0.9-0.9c0,0,0,0,0,0c-0.5,0-0.8,0.4-0.8,0.9l0,4.4l-9.4,0
										V272c0-0.5-0.4-0.9-0.9-0.9s-0.9,0.4-0.9,0.9v4.3h-4.5v-5.1c0-1.7,1.1-3.2,2.8-3.8l4-1.3l4.2,2.7l4.7-2.7l3.6,1.2
										C1375.9,268,1377,269.5,1377,271.2z"/>
									<path class="st19" d="M1371.5,259.5c0,3-2.4,5.5-5.5,5.5c-3,0-5.5-2.4-5.5-5.5c0-3,2.4-5.5,5.5-5.5
										C1369.1,254,1371.5,256.5,1371.5,259.5z"/>
								</g>
							</g>
						</g>
						<g>
							<path class="st19" d="M1353.1,254.2c0,2.9-2.4,5.3-5.3,5.3c-2.9,0-5.3-2.4-5.3-5.3c0-2.9,2.4-5.3,5.3-5.3
								c0.9,0,1.8,0.2,2.6,0.7l-2.7,2.7l-0.3-0.3c-0.4-0.4-0.9-0.6-1.5-0.6s-1.1,0.2-1.5,0.6c-0.4,0.4-0.6,0.9-0.6,1.5
								c0,0.6,0.2,1.1,0.6,1.5l1.8,1.8c0.4,0.4,0.9,0.6,1.5,0.6c0.5,0,1.1-0.2,1.5-0.6l3.8-3.8
								C1353,253.2,1353.1,253.7,1353.1,254.2z"/>
							<path class="st20" d="M1347.6,256.1c-0.3,0-0.5-0.1-0.7-0.3l-1.8-1.8c-0.4-0.4-0.4-1.1,0-1.5c0.4-0.4,1.1-0.4,1.5,0l1,1
								l4.5-4.5c0.4-0.4,1.1-0.4,1.5,0c0.4,0.4,0.4,1.1,0,1.5l-5.2,5.2C1348.2,256,1347.9,256.1,1347.6,256.1z"/>
						</g>
					</g>
				</g>
				<g>
					<path class="st64" d="M1329.2,290.4h-1v-5.2h-1.8v-0.8h4.5v0.8h-1.8V290.4z"/>
					<path class="st64" d="M1333.8,290.5c-0.7,0-1.3-0.2-1.7-0.6c-0.4-0.4-0.6-1-0.6-1.7c0-0.7,0.2-1.3,0.6-1.8s0.9-0.6,1.5-0.6
						c0.6,0,1.1,0.2,1.4,0.5c0.3,0.4,0.5,0.9,0.5,1.5v0.5h-3c0,0.4,0.1,0.8,0.4,1s0.5,0.4,1,0.4c0.3,0,0.5,0,0.8-0.1
						s0.5-0.1,0.7-0.3v0.8c-0.2,0.1-0.5,0.2-0.7,0.2C1334.4,290.5,1334.1,290.5,1333.8,290.5z M1333.6,286.5c-0.3,0-0.6,0.1-0.7,0.3
						c-0.2,0.2-0.3,0.5-0.3,0.9h2.1c0-0.4-0.1-0.7-0.3-0.9S1333.9,286.5,1333.6,286.5z"/>
					<path class="st64" d="M1339.5,290.4l-0.2-0.6h0c-0.2,0.3-0.4,0.5-0.7,0.6c-0.2,0.1-0.5,0.2-0.9,0.2c-0.4,0-0.8-0.1-1-0.4
						c-0.3-0.2-0.4-0.6-0.4-1c0-0.5,0.2-0.8,0.5-1.1c0.3-0.2,0.9-0.4,1.6-0.4l0.8,0v-0.2c0-0.3-0.1-0.5-0.2-0.7
						c-0.1-0.1-0.3-0.2-0.6-0.2c-0.2,0-0.5,0-0.7,0.1c-0.2,0.1-0.4,0.1-0.6,0.2l-0.3-0.7c0.2-0.1,0.5-0.2,0.8-0.3
						c0.3-0.1,0.6-0.1,0.8-0.1c0.6,0,1,0.1,1.3,0.4s0.4,0.6,0.4,1.2v3.1H1339.5z M1338.1,289.8c0.4,0,0.6-0.1,0.8-0.3
						s0.3-0.5,0.3-0.8v-0.4l-0.6,0c-0.5,0-0.8,0.1-1,0.2c-0.2,0.1-0.3,0.3-0.3,0.6c0,0.2,0.1,0.4,0.2,0.5S1337.9,289.8,1338.1,289.8
						z"/>
					<path class="st64" d="M1345.4,290.4h-1v-2.8c0-0.3-0.1-0.6-0.2-0.8c-0.1-0.2-0.3-0.3-0.6-0.3c-0.4,0-0.6,0.1-0.8,0.4
						s-0.3,0.6-0.3,1.2v2.3h-1v-4.6h0.8l0.1,0.6h0c0.1-0.2,0.3-0.4,0.6-0.5s0.5-0.2,0.8-0.2c0.7,0,1.2,0.2,1.4,0.7h0.1
						c0.1-0.2,0.3-0.4,0.6-0.5c0.2-0.1,0.5-0.2,0.8-0.2c0.5,0,0.9,0.1,1.2,0.4s0.4,0.7,0.4,1.3v3h-1v-2.8c0-0.3-0.1-0.6-0.2-0.8
						c-0.1-0.2-0.3-0.3-0.6-0.3c-0.4,0-0.7,0.1-0.8,0.4c-0.2,0.2-0.3,0.6-0.3,1.1V290.4z"/>
					<path class="st64" d="M1354.1,290.5c-0.6,0-1-0.2-1.3-0.6h-0.1c0,0.4,0.1,0.6,0.1,0.7v1.9h-1v-6.6h0.8c0,0.1,0.1,0.3,0.1,0.6h0
						c0.3-0.5,0.8-0.7,1.4-0.7c0.6,0,1,0.2,1.3,0.6c0.3,0.4,0.5,1,0.5,1.7s-0.2,1.3-0.5,1.7C1355.2,290.3,1354.7,290.5,1354.1,290.5
						z M1353.9,286.6c-0.4,0-0.7,0.1-0.8,0.3c-0.2,0.2-0.3,0.6-0.3,1.1v0.1c0,0.6,0.1,1,0.3,1.2c0.2,0.2,0.5,0.4,0.9,0.4
						c0.3,0,0.6-0.1,0.8-0.4s0.3-0.7,0.3-1.2c0-0.5-0.1-0.9-0.3-1.2C1354.5,286.7,1354.3,286.6,1353.9,286.6z"/>
					<path class="st64" d="M1358.1,290.4h-1V284h1V290.4z"/>
					<path class="st64" d="M1362.3,290.4l-0.2-0.6h0c-0.2,0.3-0.4,0.5-0.7,0.6c-0.2,0.1-0.5,0.2-0.9,0.2c-0.4,0-0.8-0.1-1-0.4
						c-0.3-0.2-0.4-0.6-0.4-1c0-0.5,0.2-0.8,0.5-1.1c0.3-0.2,0.9-0.4,1.6-0.4l0.8,0v-0.2c0-0.3-0.1-0.5-0.2-0.7
						c-0.1-0.1-0.3-0.2-0.6-0.2c-0.2,0-0.5,0-0.7,0.1c-0.2,0.1-0.4,0.1-0.6,0.2l-0.3-0.7c0.2-0.1,0.5-0.2,0.8-0.3
						c0.3-0.1,0.6-0.1,0.8-0.1c0.6,0,1,0.1,1.3,0.4s0.4,0.6,0.4,1.2v3.1H1362.3z M1360.8,289.8c0.4,0,0.6-0.1,0.8-0.3
						s0.3-0.5,0.3-0.8v-0.4l-0.6,0c-0.5,0-0.8,0.1-1,0.2c-0.2,0.1-0.3,0.3-0.3,0.6c0,0.2,0.1,0.4,0.2,0.5S1360.6,289.8,1360.8,289.8
						z"/>
					<path class="st64" d="M1368.3,290.4h-1v-2.8c0-0.4-0.1-0.6-0.2-0.8c-0.1-0.2-0.4-0.3-0.7-0.3c-0.4,0-0.7,0.1-0.9,0.4
						c-0.2,0.2-0.3,0.6-0.3,1.2v2.3h-1v-4.6h0.8l0.1,0.6h0c0.1-0.2,0.3-0.4,0.6-0.5s0.5-0.2,0.8-0.2c1.1,0,1.6,0.6,1.6,1.7V290.4z"
						/>
				</g>
			</g>
			<g>
				<g>
					<path class="st64" d="M972.6,295.8l-0.6-2.1c-0.1-0.2-0.2-0.7-0.4-1.6h0c-0.2,0.7-0.3,1.3-0.4,1.6l-0.6,2.1h-1.1l-1.3-4.6h1
						l0.6,2.2c0.1,0.6,0.2,1,0.3,1.4h0c0-0.2,0.1-0.4,0.1-0.7c0.1-0.3,0.1-0.5,0.1-0.6l0.7-2.4h1.1l0.7,2.4c0,0.1,0.1,0.3,0.2,0.6
						c0.1,0.3,0.1,0.5,0.1,0.6h0c0-0.3,0.1-0.8,0.3-1.4l0.6-2.2h1l-1.3,4.6H972.6z"/>
					<path class="st64" d="M979.8,293.5c0,0.7-0.2,1.3-0.6,1.7c-0.4,0.4-0.9,0.6-1.6,0.6c-0.4,0-0.8-0.1-1.1-0.3
						c-0.3-0.2-0.6-0.5-0.8-0.8c-0.2-0.4-0.3-0.8-0.3-1.3c0-0.7,0.2-1.3,0.6-1.7c0.4-0.4,0.9-0.6,1.6-0.6c0.7,0,1.2,0.2,1.6,0.6
						C979.6,292.2,979.8,292.8,979.8,293.5z M976.5,293.5c0,1.1,0.4,1.6,1.2,1.6c0.8,0,1.2-0.5,1.2-1.6c0-1-0.4-1.6-1.2-1.6
						c-0.4,0-0.7,0.1-0.9,0.4C976.5,292.6,976.5,293,976.5,293.5z"/>
					<path class="st64" d="M983.2,291.2c0.2,0,0.4,0,0.5,0l-0.1,0.9c-0.1,0-0.3,0-0.4,0c-0.4,0-0.7,0.1-0.9,0.4s-0.4,0.6-0.4,1v2.4
						h-1v-4.6h0.8l0.1,0.8h0c0.2-0.3,0.3-0.5,0.6-0.6C982.7,291.2,982.9,291.2,983.2,291.2z"/>
					<path class="st64" d="M985.5,293.4l0.5-0.7l1.4-1.5h1.1l-1.8,2l1.9,2.6h-1.1l-1.5-2l-0.5,0.4v1.6h-1v-6.4h1v3.1L985.5,293.4
						L985.5,293.4z"/>
					<path class="st64" d="M993.8,295.9c-0.6,0-1-0.2-1.3-0.6h-0.1c0,0.4,0.1,0.6,0.1,0.7v1.9h-1v-6.6h0.8c0,0.1,0.1,0.3,0.1,0.6h0
						c0.3-0.5,0.8-0.7,1.4-0.7c0.6,0,1,0.2,1.3,0.6c0.3,0.4,0.5,1,0.5,1.7s-0.2,1.3-0.5,1.7C994.9,295.7,994.4,295.9,993.8,295.9z
						 M993.6,292c-0.4,0-0.7,0.1-0.8,0.3c-0.2,0.2-0.3,0.6-0.3,1.1v0.1c0,0.6,0.1,1,0.3,1.2c0.2,0.2,0.5,0.4,0.9,0.4
						c0.3,0,0.6-0.1,0.8-0.4c0.2-0.3,0.3-0.7,0.3-1.2c0-0.5-0.1-0.9-0.3-1.2C994.2,292.1,994,292,993.6,292z"/>
					<path class="st64" d="M999.6,295.8l-0.2-0.6h0c-0.2,0.3-0.4,0.5-0.7,0.6c-0.2,0.1-0.5,0.2-0.9,0.2c-0.4,0-0.8-0.1-1-0.4
						s-0.4-0.6-0.4-1c0-0.5,0.2-0.8,0.5-1.1c0.3-0.2,0.9-0.4,1.6-0.4l0.8,0v-0.2c0-0.3-0.1-0.5-0.2-0.7c-0.1-0.1-0.3-0.2-0.6-0.2
						c-0.2,0-0.5,0-0.7,0.1c-0.2,0.1-0.4,0.2-0.6,0.2l-0.3-0.7c0.2-0.1,0.5-0.2,0.8-0.3c0.3-0.1,0.6-0.1,0.8-0.1
						c0.6,0,1,0.1,1.3,0.4c0.3,0.3,0.4,0.6,0.4,1.2v3.1H999.6z M998.2,295.1c0.4,0,0.6-0.1,0.8-0.3c0.2-0.2,0.3-0.5,0.3-0.8v-0.4
						l-0.6,0c-0.5,0-0.8,0.1-1,0.2c-0.2,0.1-0.3,0.3-0.3,0.6c0,0.2,0.1,0.4,0.2,0.5S998,295.1,998.2,295.1z"/>
					<path class="st64" d="M1003.5,295.9c-0.7,0-1.2-0.2-1.6-0.6c-0.4-0.4-0.5-1-0.5-1.7c0-0.8,0.2-1.4,0.6-1.8
						c0.4-0.4,0.9-0.6,1.6-0.6c0.5,0,0.9,0.1,1.3,0.3l-0.3,0.8c-0.4-0.2-0.7-0.2-1-0.2c-0.8,0-1.2,0.5-1.2,1.6
						c0,0.5,0.1,0.9,0.3,1.2c0.2,0.3,0.5,0.4,0.9,0.4c0.4,0,0.8-0.1,1.2-0.3v0.8c-0.2,0.1-0.4,0.2-0.6,0.2
						C1004,295.9,1003.8,295.9,1003.5,295.9z"/>
					<path class="st64" d="M1006.8,293.4l0.5-0.7l1.4-1.5h1.1l-1.8,2l1.9,2.6h-1.1l-1.5-2l-0.5,0.4v1.6h-1v-6.4h1v3.1L1006.8,293.4
						L1006.8,293.4z"/>
					<path class="st64" d="M1013.5,295.8l-0.2-0.6h0c-0.2,0.3-0.4,0.5-0.7,0.6c-0.2,0.1-0.5,0.2-0.9,0.2c-0.4,0-0.8-0.1-1-0.4
						s-0.4-0.6-0.4-1c0-0.5,0.2-0.8,0.5-1.1c0.3-0.2,0.9-0.4,1.6-0.4l0.8,0v-0.2c0-0.3-0.1-0.5-0.2-0.7c-0.1-0.1-0.3-0.2-0.6-0.2
						c-0.2,0-0.5,0-0.7,0.1c-0.2,0.1-0.4,0.2-0.6,0.2l-0.3-0.7c0.2-0.1,0.5-0.2,0.8-0.3c0.3-0.1,0.6-0.1,0.8-0.1
						c0.6,0,1,0.1,1.3,0.4c0.3,0.3,0.4,0.6,0.4,1.2v3.1H1013.5z M1012.1,295.1c0.4,0,0.6-0.1,0.8-0.3c0.2-0.2,0.3-0.5,0.3-0.8v-0.4
						l-0.6,0c-0.5,0-0.8,0.1-1,0.2c-0.2,0.1-0.3,0.3-0.3,0.6c0,0.2,0.1,0.4,0.2,0.5S1011.9,295.1,1012.1,295.1z"/>
					<path class="st64" d="M1019.4,291.3v0.5l-0.8,0.1c0.1,0.1,0.1,0.2,0.2,0.4c0,0.1,0.1,0.3,0.1,0.4c0,0.5-0.2,0.8-0.5,1.1
						c-0.3,0.3-0.8,0.4-1.3,0.4c-0.1,0-0.3,0-0.4,0c-0.2,0.1-0.3,0.3-0.3,0.5c0,0.1,0,0.2,0.1,0.2c0.1,0.1,0.3,0.1,0.5,0.1h0.8
						c0.5,0,0.9,0.1,1.1,0.3c0.3,0.2,0.4,0.5,0.4,0.9c0,0.5-0.2,0.9-0.6,1.2c-0.4,0.3-1,0.4-1.8,0.4c-0.6,0-1.1-0.1-1.4-0.3
						s-0.5-0.5-0.5-0.9c0-0.3,0.1-0.5,0.3-0.7c0.2-0.2,0.4-0.3,0.7-0.4c-0.1-0.1-0.2-0.1-0.3-0.3c-0.1-0.1-0.1-0.2-0.1-0.4
						c0-0.2,0-0.3,0.1-0.4c0.1-0.1,0.2-0.2,0.4-0.3c-0.2-0.1-0.4-0.3-0.6-0.5c-0.1-0.2-0.2-0.5-0.2-0.8c0-0.5,0.2-0.9,0.5-1.1
						c0.3-0.3,0.8-0.4,1.3-0.4c0.1,0,0.3,0,0.4,0c0.1,0,0.2,0,0.3,0.1H1019.4z M1015.8,296.5c0,0.2,0.1,0.4,0.3,0.5
						c0.2,0.1,0.5,0.2,0.8,0.2c0.5,0,0.9-0.1,1.2-0.2c0.3-0.2,0.4-0.4,0.4-0.6c0-0.2-0.1-0.3-0.2-0.4c-0.1-0.1-0.4-0.1-0.8-0.1h-0.7
						c-0.3,0-0.5,0.1-0.7,0.2C1015.9,296.1,1015.8,296.3,1015.8,296.5z M1016.3,292.7c0,0.3,0.1,0.5,0.2,0.7
						c0.1,0.2,0.4,0.2,0.6,0.2c0.6,0,0.8-0.3,0.8-0.9c0-0.3-0.1-0.5-0.2-0.7c-0.1-0.2-0.3-0.2-0.6-0.2c-0.3,0-0.5,0.1-0.6,0.2
						S1016.3,292.4,1016.3,292.7z"/>
					<path class="st64" d="M1022.3,295.9c-0.7,0-1.3-0.2-1.7-0.6c-0.4-0.4-0.6-1-0.6-1.7c0-0.7,0.2-1.3,0.6-1.8
						c0.4-0.4,0.9-0.6,1.5-0.6c0.6,0,1.1,0.2,1.4,0.5c0.3,0.4,0.5,0.9,0.5,1.5v0.5h-3c0,0.4,0.1,0.8,0.4,1c0.2,0.2,0.5,0.4,1,0.4
						c0.3,0,0.5,0,0.8-0.1s0.5-0.1,0.7-0.3v0.8c-0.2,0.1-0.5,0.2-0.7,0.2C1022.8,295.9,1022.6,295.9,1022.3,295.9z M1022.1,291.9
						c-0.3,0-0.6,0.1-0.7,0.3c-0.2,0.2-0.3,0.5-0.3,0.9h2.1c0-0.4-0.1-0.7-0.3-0.9S1022.4,291.9,1022.1,291.9z"/>
				</g>
				<g>
					<g>
						<rect x="975.6" y="227.3" class="st20" width="5.8" height="7.5"/>
						<path class="st19" d="M969.7,222.3v16.8h53.2v-16.8H969.7z M983.4,236.8h-9.8v-11.5h9.8V236.8z M1015.8,234.8h-28
							c-0.6,0-1-0.4-1-1c0-0.5,0.4-1,1-1h28c0.5,0,1,0.5,1,1C1016.8,234.3,1016.4,234.8,1015.8,234.8z M1015.8,228.6h-28
							c-0.6,0-1-0.4-1-1c0-0.5,0.4-1,1-1h28c0.5,0,1,0.5,1,1C1016.8,228.2,1016.4,228.6,1015.8,228.6z"/>
					</g>
					<g>
						<rect x="975.6" y="270.8" class="st20" width="5.8" height="7.5"/>
						<path class="st19" d="M969.7,265.8v16.8h53.2v-16.8H969.7z M983.4,280.3h-9.8v-11.5h9.8V280.3z M1015.8,278.3h-28
							c-0.6,0-1-0.4-1-1c0-0.5,0.4-1,1-1h28c0.5,0,1,0.5,1,1C1016.8,277.9,1016.4,278.3,1015.8,278.3z M1015.8,272.2h-28
							c-0.6,0-1-0.4-1-1c0-0.5,0.4-1,1-1h28c0.5,0,1,0.5,1,1C1016.8,271.7,1016.4,272.2,1015.8,272.2z"/>
					</g>
					<g>
						<rect x="975.6" y="248.8" class="st20" width="5.8" height="7.5"/>
						<path class="st19" d="M969.7,243.8v16.8h53.2v-16.8H969.7z M983.4,258.3h-9.8v-11.5h9.8V258.3z M1015.8,256.3h-28
							c-0.6,0-1-0.4-1-1c0-0.5,0.4-1,1-1h28c0.5,0,1,0.5,1,1C1016.8,255.8,1016.4,256.3,1015.8,256.3z M1015.8,250.1h-28
							c-0.6,0-1-0.4-1-1c0-0.5,0.4-1,1-1h28c0.5,0,1,0.5,1,1C1016.8,249.7,1016.4,250.1,1015.8,250.1z"/>
					</g>
					<circle class="st0" cx="1013.9" cy="232.8" r="17.6"/>
					<path class="st19" d="M1025.6,235.6l1.8,0c0.4-0.4,0.7-0.7,1.1-1.1l0-3.5c-0.5-0.4-0.7-0.7-1.2-1.1l-1.7,0.1
						c-0.4-0.3-0.7-0.5-1.1-0.8c-0.1-0.3-0.2-0.5-0.3-0.8c0.1-0.5,0.4-0.8,0.4-1.3l1.5-1.3v-1.6l-3.6-3.6h-1.6l-1.3,1.5
						c-0.5,0.1-0.8,0.2-1.3,0.3c-0.3-0.1-0.6-0.2-0.9-0.3c-0.3-0.4-0.5-0.7-0.8-1.1l0-1.8c-0.4-0.5-0.7-0.7-1.1-1.1l-3.5,0
						c-0.4,0.5-0.7,0.7-1.1,1.2l0.1,1.7c-0.3,0.4-0.5,0.7-0.8,1.1c-0.3,0.1-0.6,0.2-0.9,0.3c-0.5-0.1-0.8-0.3-1.3-0.4l-1.4-1.6h-1.6
						l-3.6,3.6v1.6l1.6,1.3c0.1,0.5,0.3,0.8,0.4,1.3c-0.1,0.3-0.2,0.6-0.3,0.9c-0.4,0.3-0.7,0.5-1.1,0.8l-1.7,0
						c-0.5,0.4-0.7,0.7-1.1,1.1l0,3.4c0.5,0.4,0.7,0.7,1.2,1.1l1.7-0.1c0.4,0.3,0.7,0.5,1.1,0.8c0.1,0.3,0.2,0.5,0.3,0.8
						c-0.1,0.5-0.3,0.8-0.4,1.3l-1.6,1.4v1.6l3.6,3.6h1.6l1.4-1.6c0.5-0.1,0.8-0.2,1.3-0.3c0.3,0.1,0.6,0.2,0.9,0.3
						c0.3,0.4,0.5,0.7,0.8,1.1l0,1.7c0.4,0.5,0.7,0.7,1.1,1.1l3.4,0c0.4-0.5,0.7-0.7,1.1-1.2l-0.1-1.6c0.3-0.4,0.5-0.7,0.8-1.1
						c0.3-0.1,0.5-0.2,0.8-0.3c0.5,0.1,0.8,0.4,1.3,0.5l1.4,1.6h1.6l3.6-3.6v-1.6l-1.6-1.4c-0.1-0.5-0.2-0.8-0.3-1.3
						c0.1-0.3,0.2-0.6,0.3-0.9C1024.9,236.1,1025.2,235.9,1025.6,235.6z M1017,236c-1.7,1.7-4.6,1.7-6.3,0c-1.7-1.7-1.7-4.6,0-6.3
						c1.7-1.7,4.6-1.7,6.3,0C1018.7,231.4,1018.7,234.3,1017,236z"/>
				</g>
			</g>
		</g>
	</g>
	<g>
		<line class="st36" x1="1102.6" y1="252.2" x2="1041" y2="252.2"/>
		<circle class="st10" cx="1041" cy="252.2" r="4.5"/>
	</g>
	<circle class="st10" cx="1170.7" cy="144.2" r="4.5"/>
	<circle class="st10" cx="1295.8" cy="252.2" r="4.5"/>
	<circle class="st10" cx="1170.7" cy="365.5" r="4.5"/>
	<line class="st36" x1="1240" y1="252.5" x2="1302.9" y2="252.5"/>
</g>
</svg>
