<svg id="Layer_1" data-name="Layer 1" xmlns="http://www.w3.org/2000/svg" viewBox="0 0 1440 510">
  <defs>
    <style>
      .cls-1 {
        fill: #f8faf7;
      }

      .cls-2 {
        fill: #d1d3d4;
      }

      .cls-3 {
        fill: #939598;
      }

      .cls-4 {
        fill: #c2c0ff;
      }

      .cls-5 {
        fill: #8886da;
      }

      .cls-6 {
        fill: none;
        stroke: #d1d3d4;
        stroke-miterlimit: 10;
        stroke-width: 2px;
        stroke-dasharray: 8;
      }

      .cls-7 {
        fill: #e2d9d3;
      }

      .cls-8 {
        fill: #181f36;
      }

      .cls-9 {
        fill: #ff953f;
      }

      .cls-10 {
        fill: #f39f85;
      }

      .cls-11 {
        fill: #f7b58e;
      }

      .cls-12 {
        fill: #ededed;
      }
    </style>
  </defs>
  <rect class="cls-1" width="1440" height="510"/>
  <circle class="cls-2" cx="1316.5" cy="149.2" r="74.6"/>
  <g>
    <g>
      <path class="cls-3" d="M1053.8,262v-6h1v5.2h2.5v.8Z"/>
      <path class="cls-3" d="M1060.2,262.1a2.1,2.1,0,0,1-1.6-.6,2.4,2.4,0,0,1-.6-1.7,3,3,0,0,1,.5-1.8,2.1,2.1,0,0,1,1.6-.6,2.2,2.2,0,0,1,1.4.5,2.5,2.5,0,0,1,.5,1.5v.6h-3a1.1,1.1,0,0,0,1.3,1.3h.7l.8-.3v.8l-.7.2Zm-.1-4a1.1,1.1,0,0,0-.8.3,1.2,1.2,0,0,0-.3.9h2.1a1.2,1.2,0,0,0-.3-.9A.9.9,0,0,0,1060.1,258.1Z"/>
      <path class="cls-3" d="M1066,262l-.2-.6h-.1a1.3,1.3,0,0,1-.6.5l-.9.2a1.4,1.4,0,0,1-1.4-1.4,1.4,1.4,0,0,1,.5-1.1,3.5,3.5,0,0,1,1.6-.3h.8V259a1.4,1.4,0,0,0-.2-.7l-.6-.2h-.7l-.6.3-.3-.7a1.1,1.1,0,0,1,.8-.3h.8a1.7,1.7,0,0,1,1.3.4,1.3,1.3,0,0,1,.5,1.1V262Zm-1.5-.6a1.1,1.1,0,0,0,1.2-1.2v-.4h-.6a2.2,2.2,0,0,0-1,.2.6.6,0,0,0-.3.6.8.8,0,0,0,.2.5Z"/>
      <path class="cls-3" d="M1070.3,257.4h.5v.9h-.4a1.1,1.1,0,0,0-1.3,1.3V262h-1v-4.5h.8v.8h0l.6-.7Z"/>
      <path class="cls-3" d="M1075.6,262h-.9v-2.8a1.9,1.9,0,0,0-.2-.8.8.8,0,0,0-.7-.2,1.2,1.2,0,0,0-.9.3,2.1,2.1,0,0,0-.3,1.2V262h-1v-4.5h.8v.6h.1c.1-.3.3-.4.6-.6h.8a1.4,1.4,0,0,1,1.6,1.6Z"/>
      <path class="cls-3" d="M1081.5,258.2h-1.1V262h-1v-3.8h-.8v-.5l.8-.3v-.3a1.3,1.3,0,0,1,1.5-1.5h1l-.2.8-.7-.2-.5.2a1.5,1.5,0,0,0-.1.7v.3h1.1Z"/>
      <path class="cls-3" d="M1084.6,257.4h.4v.9h-.4a1.2,1.2,0,0,0-.9.3,1.3,1.3,0,0,0-.4,1V262h-1v-4.5h.8v.8h.1a1.3,1.3,0,0,1,.6-.7Z"/>
      <path class="cls-3" d="M1089.9,259.7a2.6,2.6,0,0,1-.6,1.8,1.9,1.9,0,0,1-1.5.6,2.4,2.4,0,0,1-1.2-.3,1.8,1.8,0,0,1-.7-.8,2.8,2.8,0,0,1-.3-1.3,2.4,2.4,0,0,1,.6-1.7,2.1,2.1,0,0,1,1.6-.6,1.9,1.9,0,0,1,1.5.6A2.4,2.4,0,0,1,1089.9,259.7Zm-3.3,0c0,1.1.4,1.6,1.2,1.6s1.1-.5,1.1-1.6-.4-1.5-1.1-1.5a1,1,0,0,0-.9.4A1.6,1.6,0,0,0,1086.6,259.7Z"/>
      <path class="cls-3" d="M1094.9,262h-1v-2.8a1.9,1.9,0,0,0-.2-.8c-.1-.2-.3-.2-.6-.2s-.7.1-.8.3a2.1,2.1,0,0,0-.3,1.2V262h-1v-4.5h.8v.6h.1c.1-.3.3-.4.5-.6h.8c.7,0,1.2.2,1.4.7h.1a1.2,1.2,0,0,1,.5-.5,1.5,1.5,0,0,1,.9-.2,1.6,1.6,0,0,1,1.2.4,2.1,2.1,0,0,1,.3,1.2v3h-.9v-2.8a1.9,1.9,0,0,0-.2-.8.7.7,0,0,0-.6-.2,1.2,1.2,0,0,0-.9.3,2.7,2.7,0,0,0-.2,1.1Z"/>
      <path class="cls-3" d="M1057.5,272.1h-3.4v-6h3.4v.8h-2.4v1.7h2.3v.8h-2.3v1.9h2.4Z"/>
      <path class="cls-3" d="M1059.8,269.8l-1.6-2.2h1.1l1.1,1.6,1-1.6h1.1l-1.5,2.2,1.6,2.3h-1.1l-1.1-1.7-1.2,1.7h-1Z"/>
      <path class="cls-3" d="M1065.7,272.2a1.5,1.5,0,0,1-1.3-.6h-.1a3.5,3.5,0,0,0,.1.7v1.9h-1v-6.6h.8a1.8,1.8,0,0,0,.1.6h.1a1.4,1.4,0,0,1,1.3-.7,1.5,1.5,0,0,1,1.3.6,2.3,2.3,0,0,1,.5,1.7,2.4,2.4,0,0,1-.5,1.8A1.5,1.5,0,0,1,1065.7,272.2Zm-.2-3.9a1.2,1.2,0,0,0-.9.3c-.2.2-.2.6-.2,1.1h0a2.4,2.4,0,0,0,.2,1.3,1.2,1.2,0,0,0,.9.3.9.9,0,0,0,.8-.4,3.7,3.7,0,0,0,.2-1.2,2.7,2.7,0,0,0-.2-1.1A.9.9,0,0,0,1065.5,268.3Z"/>
      <path class="cls-3" d="M1070.6,272.2a2.1,2.1,0,0,1-1.6-.6,2.4,2.4,0,0,1-.6-1.7,3.2,3.2,0,0,1,.5-1.8,2.1,2.1,0,0,1,1.6-.6,2.2,2.2,0,0,1,1.4.5,2.5,2.5,0,0,1,.5,1.6v.5h-3a1.5,1.5,0,0,0,.3,1,1.7,1.7,0,0,0,1,.3h.7l.8-.3v.8l-.7.2Zm-.1-4a1,1,0,0,0-.8.3,1.2,1.2,0,0,0-.3.9h2.1c-.1-.4-.1-.7-.3-.9A.9.9,0,0,0,1070.5,268.2Z"/>
      <path class="cls-3" d="M1075.8,267.5h.5v.9h-.4a1.3,1.3,0,0,0-1,.4,1.3,1.3,0,0,0-.3,1v2.3h-1v-4.5h.8v.8h0l.6-.7Z"/>
      <path class="cls-3" d="M1077.1,266.4c0-.2,0-.3.1-.4l.4-.2.4.2a.5.5,0,0,1,.2.4.8.8,0,0,1-.2.4h-.8A.6.6,0,0,1,1077.1,266.4Zm1,5.7h-1v-4.5h1Z"/>
      <path class="cls-3" d="M1081.5,272.2a2.1,2.1,0,0,1-2.3-2.3,2.6,2.6,0,0,1,.6-1.8,1.9,1.9,0,0,1,1.5-.6,2,2,0,0,1,1.4.5,2.1,2.1,0,0,1,.6,1.6v.5h-3.1a1.2,1.2,0,0,0,.4,1,1.2,1.2,0,0,0,.9.3h.8l.7-.3v.8l-.7.2Zm-.2-4a.8.8,0,0,0-.7.3,1.9,1.9,0,0,0-.4.9h2.1a1.2,1.2,0,0,0-.3-.9A.8.8,0,0,0,1081.3,268.2Z"/>
      <path class="cls-3" d="M1088.4,272.1h-1v-2.8a1.9,1.9,0,0,0-.2-.8l-.7-.2a1.2,1.2,0,0,0-.9.3,2.3,2.3,0,0,0-.3,1.3v2.2h-.9v-4.5h.7v.6h.1a1,1,0,0,1,.6-.5l.8-.2a1.5,1.5,0,0,1,1.7,1.7Z"/>
      <path class="cls-3" d="M1091.5,272.2a1.9,1.9,0,0,1-1.5-.6,2.4,2.4,0,0,1-.6-1.7,2.4,2.4,0,0,1,.6-1.8,2.1,2.1,0,0,1,1.6-.6,2.8,2.8,0,0,1,1.3.3l-.3.7-1-.2c-.8,0-1.2.5-1.2,1.6a1.6,1.6,0,0,0,.3,1.1,1,1,0,0,0,.9.4,2.7,2.7,0,0,0,1.2-.3v.8l-.5.2Z"/>
      <path class="cls-3" d="M1095.9,272.2a2.1,2.1,0,0,1-2.3-2.3,2.6,2.6,0,0,1,.6-1.8,1.8,1.8,0,0,1,1.5-.6,2,2,0,0,1,1.4.5,2.1,2.1,0,0,1,.5,1.6v.5h-3a1.2,1.2,0,0,0,.4,1,1.2,1.2,0,0,0,.9.3h.8l.7-.3v.8l-.7.2Zm-.2-4a.8.8,0,0,0-.7.3,1.9,1.9,0,0,0-.4.9h2.1a1.2,1.2,0,0,0-.3-.9A.9.9,0,0,0,1095.7,268.2Z"/>
    </g>
    <path class="cls-4" d="M1099.5,196.8a21.3,21.3,0,0,0-6-10.8l-1-1c-8.8-7.7-23.2-8.6-33.5-.8-4.9,3.7-8.2,8.5-9,14.8a36.7,36.7,0,0,1-1.3,6.6c-1.2,3.6-3.8,9.9-5.2,13.5-.7,1.8,4.9,2.9,6,2.9,0,2.3-.1,3.6,0,5.8a9.5,9.5,0,0,0,9.7,9.7h2.7c.3,0,.9.3.9.5s.5,4.3.9,6.1h23.1V229.9c0-4,4.8-10,4.8-10C1097.6,213.6,1101.4,205.2,1099.5,196.8Zm-21.1-8.4a1.2,1.2,0,0,1,1.6-.7,15.2,15.2,0,0,1,8.7,8.2,1.2,1.2,0,0,1-.7,1.6h-.5a1.1,1.1,0,0,1-1.1-.7,12.8,12.8,0,0,0-7.2-6.9A1.3,1.3,0,0,1,1078.4,188.4Zm-18.2,7.5a16.2,16.2,0,0,1,7.4-7.7,1.4,1.4,0,0,1,1.7.6,1.3,1.3,0,0,1-.6,1.7,12.5,12.5,0,0,0-6.2,6.4,1.3,1.3,0,0,1-1.1.8h-.5A1.3,1.3,0,0,1,1060.2,195.9Zm-1.1,9.5a1.5,1.5,0,0,1-.9.4,1.2,1.2,0,0,1-.8-.4,1.3,1.3,0,0,1,0-1.8l1.6-1.6-1.6-1.7a1.2,1.2,0,1,1,1.7-1.7l1.7,1.6,1.6-1.6a1.3,1.3,0,0,1,1.8,0,1.4,1.4,0,0,1,0,1.7l-1.7,1.7,1.7,1.6a1.5,1.5,0,0,1,0,1.8,1.8,1.8,0,0,1-.9.4,1.5,1.5,0,0,1-.9-.4l-1.6-1.7Zm10.2,10.1a1.5,1.5,0,0,1-1.2.7h-.5a15.6,15.6,0,0,1-7.4-7.8,1.3,1.3,0,0,1,.6-1.7,1.3,1.3,0,0,1,1.7.7,12.7,12.7,0,0,0,6.2,6.5A1.3,1.3,0,0,1,1069.3,215.5Zm8.1,3h-6.1v-6h6.1Zm0-27.1h-6.1v-6h6.1Zm11.3,16.9a15.4,15.4,0,0,1-8.7,8.3h-.4a1.3,1.3,0,0,1-1.2-.8,1.4,1.4,0,0,1,.7-1.6,12.9,12.9,0,0,0,7.3-7,1.3,1.3,0,0,1,1.7-.6A1.2,1.2,0,0,1,1088.7,208.3Zm2.5-4.7a1.5,1.5,0,0,1,0,1.8,1.8,1.8,0,0,1-.9.4,1.5,1.5,0,0,1-.9-.4l-1.6-1.6-1.7,1.6a1.5,1.5,0,0,1-.9.4,1.8,1.8,0,0,1-.9-.4,1.5,1.5,0,0,1,0-1.8l1.7-1.6-1.7-1.7a1.4,1.4,0,0,1,0-1.7,1.3,1.3,0,0,1,1.8,0l1.7,1.6,1.6-1.6a1.3,1.3,0,0,1,1.8,0,1.4,1.4,0,0,1,0,1.7l-1.7,1.7Z"/>
  </g>
  <g>
    <g>
      <path class="cls-3" d="M1139.4,449.5h-.9v-6.1h3.4v.9h-2.5v1.8h2.3v.9h-2.3Z"/>
      <path class="cls-3" d="M1146.9,447.2a2.4,2.4,0,0,1-.6,1.7,2.1,2.1,0,0,1-1.6.6,2,2,0,0,1-1.1-.3,1.5,1.5,0,0,1-.8-.8,4.3,4.3,0,0,1-.2-1.2,3.2,3.2,0,0,1,.5-1.8,2.1,2.1,0,0,1,1.6-.6,1.9,1.9,0,0,1,1.6.7A2.2,2.2,0,0,1,1146.9,447.2Zm-3.3,0c0,1,.4,1.5,1.1,1.5s1.2-.5,1.2-1.5-.4-1.6-1.2-1.6a1,1,0,0,0-.9.4A3.7,3.7,0,0,0,1143.6,447.2Z"/>
      <path class="cls-3" d="M1149.8,449.5a1.8,1.8,0,0,1-1.5-.6,2.2,2.2,0,0,1-.6-1.7,2.4,2.4,0,0,1,.6-1.8,2.1,2.1,0,0,1,1.6-.6,2.8,2.8,0,0,1,1.3.3l-.3.8-1-.3c-.8,0-1.2.5-1.2,1.6a1.6,1.6,0,0,0,.3,1.1,1,1,0,0,0,.9.4,2.7,2.7,0,0,0,1.2-.3v.9l-.6.2Z"/>
      <path class="cls-3" d="M1155.4,449.5l-.2-.6h0c-.1.2-.3.3-.6.5h-.8a1.7,1.7,0,0,1-1.3-.4,1.9,1.9,0,0,1-.4-1.2v-3h1v2.8a1.5,1.5,0,0,0,.2.8.9.9,0,0,0,.7.3,1.3,1.3,0,0,0,.9-.4,2.1,2.1,0,0,0,.3-1.2v-2.3h.9v4.6Z"/>
      <path class="cls-3" d="M1160.6,448.2a1.4,1.4,0,0,1-.5,1,2.6,2.6,0,0,1-1.4.3l-1.5-.2v-.9a3.4,3.4,0,0,0,1.5.4c.6,0,.9-.2.9-.5s0-.3-.1-.3-.1-.2-.3-.3-.4-.1-.6-.3l-1.1-.6a1,1,0,0,1-.3-.8,1.4,1.4,0,0,1,.5-.9,2.3,2.3,0,0,1,1.3-.3,4,4,0,0,1,1.5.3l-.3.8-1.2-.3c-.6,0-.8.1-.8.4a.8.8,0,0,0,.2.4l.9.4.8.4c.1.1.3.2.4.4A3.5,3.5,0,0,1,1160.6,448.2Z"/>
      <path class="cls-3" d="M1167.9,447.2a2.4,2.4,0,0,1-.6,1.7,2.1,2.1,0,0,1-1.6.6,2,2,0,0,1-1.1-.3c-.4-.1-.6-.4-.8-.8a2.4,2.4,0,0,1-.3-1.2,2.6,2.6,0,0,1,.6-1.8,2.1,2.1,0,0,1,1.6-.6,1.9,1.9,0,0,1,1.6.7A2.2,2.2,0,0,1,1167.9,447.2Zm-3.4,0q0,1.5,1.2,1.5t1.2-1.5c0-1.1-.4-1.6-1.2-1.6a1,1,0,0,0-.9.4A2.1,2.1,0,0,0,1164.5,447.2Z"/>
      <path class="cls-3" d="M1173,449.5h-1v-2.8a1.3,1.3,0,0,0-.2-.8.8.8,0,0,0-.7-.3,1,1,0,0,0-.9.4,1.7,1.7,0,0,0-.3,1.2v2.3h-.9v-4.6h.7l.2.6h0c.2-.2.3-.4.6-.5l.8-.2a1.5,1.5,0,0,1,1.7,1.7Z"/>
      <path class="cls-3" d="M1142.3,455.4a1.7,1.7,0,0,1-.6,1.4,2.3,2.3,0,0,1-1.7.5h-.7v2.3h-1v-6h1.8a2.9,2.9,0,0,1,1.7.4A2,2,0,0,1,1142.3,455.4Zm-3,1.1h.6a1.8,1.8,0,0,0,1.1-.3c.2-.1.3-.4.3-.8a1.1,1.1,0,0,0-.3-.8,2.2,2.2,0,0,0-1-.2h-.7Z"/>
      <path class="cls-3" d="M1145.7,454.9h.5v.9h-.4a1.3,1.3,0,0,0-.9.4,1.3,1.3,0,0,0-.4,1v2.4h-1V455h.8v.8h.1a1.2,1.2,0,0,1,.6-.6A1.1,1.1,0,0,1,1145.7,454.9Z"/>
      <path class="cls-3" d="M1151.1,457.3a2.4,2.4,0,0,1-.6,1.7,1.8,1.8,0,0,1-1.6.7,2,2,0,0,1-1.1-.3,1.6,1.6,0,0,1-.7-.9,2.1,2.1,0,0,1-.3-1.2,2.4,2.4,0,0,1,.6-1.7,1.8,1.8,0,0,1,1.6-.7,2.1,2.1,0,0,1,1.5.7A2.4,2.4,0,0,1,1151.1,457.3Zm-3.3,0c0,1,.4,1.6,1.2,1.6s1.1-.6,1.1-1.6-.4-1.6-1.1-1.6a1.1,1.1,0,0,0-.9.4A2.1,2.1,0,0,0,1147.8,457.3Z"/>
      <path class="cls-3" d="M1153.8,459.7a1.5,1.5,0,0,1-1.4-.7,2.7,2.7,0,0,1-.4-1.7,2.9,2.9,0,0,1,.4-1.7,1.6,1.6,0,0,1,1.4-.7,1.6,1.6,0,0,1,1.3.7h.1a2.5,2.5,0,0,1-.1-.8v-1.6h1v6.4h-.8V459h-.1A1.6,1.6,0,0,1,1153.8,459.7Zm.2-.8a1,1,0,0,0,.9-.4,1.3,1.3,0,0,0,.3-1v-.2a1.7,1.7,0,0,0-.3-1.2,1.3,1.3,0,0,0-.9-.4,1.2,1.2,0,0,0-.8.4,2.5,2.5,0,0,0,0,2.4A1.2,1.2,0,0,0,1154,458.9Z"/>
      <path class="cls-3" d="M1160.7,459.6V459h-.1a1,1,0,0,1-.6.5l-.8.2a1.7,1.7,0,0,1-1.3-.5,1.7,1.7,0,0,1-.4-1.2v-3h1v2.8a1.5,1.5,0,0,0,.2.8.9.9,0,0,0,.7.3,1,1,0,0,0,.9-.4,1.7,1.7,0,0,0,.3-1.2V455h1v4.6Z"/>
      <path class="cls-3" d="M1164.7,459.7a2.1,2.1,0,0,1-1.6-.6,2.4,2.4,0,0,1-.5-1.8,2.3,2.3,0,0,1,.5-1.7,1.9,1.9,0,0,1,1.6-.7,2.5,2.5,0,0,1,1.3.3l-.2.8-1.1-.3c-.7,0-1.1.6-1.1,1.6a2.1,2.1,0,0,0,.3,1.2.9.9,0,0,0,.8.4,2.5,2.5,0,0,0,1.2-.4v.9l-.5.2Z"/>
      <path class="cls-3" d="M1168.7,458.9h.7v.7h-.9c-.9,0-1.4-.5-1.4-1.5v-2.4h-.6v-.5l.6-.3.4-1h.6v1h1.3v.8h-1.3v2.4a.7.7,0,0,0,.1.5Z"/>
      <path class="cls-3" d="M1173.4,458.3a1.2,1.2,0,0,1-.5,1,2.6,2.6,0,0,1-1.4.4,3.3,3.3,0,0,1-1.5-.3v-.9a3.4,3.4,0,0,0,1.5.4c.6,0,.9-.2.9-.5a.4.4,0,0,0-.1-.3c0-.1-.1-.2-.3-.2l-.6-.3-1.1-.6a1.1,1.1,0,0,1-.3-.8,1.1,1.1,0,0,1,.5-.9,1.8,1.8,0,0,1,1.3-.4,2.8,2.8,0,0,1,1.5.4l-.3.7-1.2-.3c-.6,0-.8.1-.8.4a.5.5,0,0,0,.2.4l.9.4.8.4.4.4C1173.3,457.9,1173.4,458.1,1173.4,458.3Z"/>
    </g>
    <path class="cls-4" d="M1178,411.7a22.7,22.7,0,0,1-17.7,17.8v5.1a27.8,27.8,0,0,0,22.8-22.9Zm-44.5,0h-5.1a27.9,27.9,0,0,0,22.9,22.9v-5.1A22.8,22.8,0,0,1,1133.5,411.7Zm26.8-31.8V385a22.7,22.7,0,0,1,17.7,17.7h5.1A27.8,27.8,0,0,0,1160.3,379.9Zm-31.9,22.8h5.1a22.8,22.8,0,0,1,17.8-17.7v-5.1A27.9,27.9,0,0,0,1128.4,402.7Z"/>
    <g>
      <polygon class="cls-4" points="1167.9 402 1167.9 420.4 1142.8 420.4 1142.8 402 1152.2 402 1152.2 405.2 1158.2 405.2 1158.2 402 1167.9 402"/>
      <polygon class="cls-4" points="1144.3 393.1 1153.7 393.1 1152.3 399.9 1142.8 399.9 1144.3 393.1"/>
      <polygon class="cls-4" points="1167.9 399.9 1158.2 399.9 1156.9 393.1 1166.4 393.1 1167.9 399.9"/>
      <polygon class="cls-5" points="1158.2 399.9 1158.2 402 1152.2 402 1152.2 400.2 1152.3 399.9 1158.2 399.9"/>
    </g>
    <path class="cls-5" d="M1183.6,408.7h-5.4a1.5,1.5,0,0,1-1.5-1.5,1.5,1.5,0,0,1,1.5-1.5h5.4a1.5,1.5,0,0,1,1.5,1.5A1.5,1.5,0,0,1,1183.6,408.7Z"/>
    <path class="cls-5" d="M1157.3,379.6v5.3a1.4,1.4,0,0,1-1.5,1.5,1.5,1.5,0,0,1-1.5-1.5v-5.3a1.5,1.5,0,0,1,1.5-1.5A1.5,1.5,0,0,1,1157.3,379.6Z"/>
    <path class="cls-5" d="M1128.2,405.8h5.3a1.5,1.5,0,0,1,1.5,1.5,1.4,1.4,0,0,1-1.5,1.5h-5.3a1.4,1.4,0,0,1-1.5-1.5A1.5,1.5,0,0,1,1128.2,405.8Z"/>
    <path class="cls-5" d="M1154.4,435v-5.4a1.5,1.5,0,1,1,3,0V435a1.5,1.5,0,0,1-3,0Z"/>
  </g>
  <g>
    <path class="cls-6" d="M1266.1,308.9c36.6,23.4,57.2,57.4,57.2,74.6,0,20.3,1.1,103.2-134.6,41"/>
    <path class="cls-6" d="M1106.3,249.4c48.3,26.5,50.3,24.1,82.3,32.4"/>
    <path class="cls-6" d="M1047.9,109.5c-26,24.7-46.3,49.4-13.2,85.9"/>
    <path class="cls-6" d="M1214.1,126.3s-42.7-31.7-89.8-37.4"/>
  </g>
  <g>
    <g>
      <path class="cls-3" d="M1047,135.5a1.6,1.6,0,0,0-1.3.6,2.5,2.5,0,0,0-.5,1.6,2.6,2.6,0,0,0,.5,1.7,1.5,1.5,0,0,0,1.3.6h.8l.7-.2v.8a4.1,4.1,0,0,1-1.6.3,2.6,2.6,0,0,1-2-.8,3.2,3.2,0,0,1-.7-2.3,3.8,3.8,0,0,1,.3-1.6,2.2,2.2,0,0,1,1-1.1,2.6,2.6,0,0,1,1.5-.4,3.1,3.1,0,0,1,1.7.4l-.3.8-.7-.2Z"/>
      <path class="cls-3" d="M1053.7,138.4a2.4,2.4,0,0,1-.5,1.8,2.1,2.1,0,0,1-1.6.6,2,2,0,0,1-1.1-.3,2,2,0,0,1-.8-.8,2.8,2.8,0,0,1-.3-1.3,2.4,2.4,0,0,1,.6-1.7,2.4,2.4,0,0,1,3.2,0A2.3,2.3,0,0,1,1053.7,138.4Zm-3.3,0c0,1.1.4,1.6,1.2,1.6s1.2-.5,1.2-1.6-.4-1.5-1.2-1.5a1,1,0,0,0-.9.4A1.6,1.6,0,0,0,1050.4,138.4Z"/>
      <path class="cls-3" d="M1058.9,140.7h-1v-2.8a1.9,1.9,0,0,0-.2-.8l-.7-.2a1.2,1.2,0,0,0-.9.3,2.1,2.1,0,0,0-.3,1.2v2.3h-.9v-4.5h.7l.2.6h0c.1-.3.3-.4.6-.5a1.1,1.1,0,0,1,.8-.2c1.1,0,1.7.5,1.7,1.6Z"/>
      <path class="cls-3" d="M1061.9,140h.7v.7l-.4.2h-.5a1.3,1.3,0,0,1-1.4-1.4v-2.5h-.6v-.4l.7-.4.3-1h.6v1.1h1.3v.7h-1.3v2.4c0,.3,0,.4.2.6Z"/>
      <path class="cls-3" d="M1063.5,135c0-.2,0-.4.1-.4l.4-.2.4.2c.1,0,.2.2.2.4s-.1.3-.2.3l-.4.2-.4-.2C1063.5,135.3,1063.5,135.1,1063.5,135Zm1,5.7h-1v-4.5h1Z"/>
      <path class="cls-3" d="M1069.9,140.7h-1v-2.8a1.9,1.9,0,0,0-.2-.8l-.7-.2a1.2,1.2,0,0,0-.9.3,2.2,2.2,0,0,0-.2,1.2v2.3h-1v-4.5h.7l.2.6h0a1.8,1.8,0,0,1,1.5-.7,1.4,1.4,0,0,1,1.6,1.6Z"/>
      <path class="cls-3" d="M1074.5,140.7l-.2-.6h0l-.6.5-.9.2a1.6,1.6,0,0,1-1.2-.4,1.7,1.7,0,0,1-.4-1.3v-2.9h1V139a1.1,1.1,0,0,0,.2.8l.7.2a1.2,1.2,0,0,0,.9-.3,3.9,3.9,0,0,0,.2-1.3v-2.2h1v4.5Z"/>
      <path class="cls-3" d="M1078.6,140.8a2.1,2.1,0,0,1-2.3-2.3,2.4,2.4,0,0,1,.6-1.8,1.9,1.9,0,0,1,1.5-.6,2,2,0,0,1,1.4.5,2,2,0,0,1,.6,1.5v.6h-3.1a1.8,1.8,0,0,0,.4,1,1.2,1.2,0,0,0,.9.3h.8l.7-.3v.8l-.7.2Zm-.2-4a.9.9,0,0,0-.7.3,1.9,1.9,0,0,0-.4.9h2.1a1.2,1.2,0,0,0-.3-.9A.8.8,0,0,0,1078.4,136.8Z"/>
      <path class="cls-3" d="M1083,140.8a1.5,1.5,0,0,1-1.3-.6,2.4,2.4,0,0,1-.5-1.8,2.3,2.3,0,0,1,.5-1.7,1.5,1.5,0,0,1,1.3-.6,1.7,1.7,0,0,1,1.4.6h0v-2.4h.9v6.4h-.7l-.2-.6h0A1.6,1.6,0,0,1,1083,140.8Zm.2-.8a1.2,1.2,0,0,0,.9-.3,1.6,1.6,0,0,0,.3-1.1h0a2.3,2.3,0,0,0-.3-1.3,1.2,1.2,0,0,0-.9-.3.7.7,0,0,0-.7.4,2.1,2.1,0,0,0-.3,1.2,2.7,2.7,0,0,0,.2,1.1A.9.9,0,0,0,1083.2,140Z"/>
      <path class="cls-3" d="M1089,134.7h1.8a3,3,0,0,1,1.8.4c.4.2.5.6.5,1.1a1.3,1.3,0,0,1-.2.9,1.2,1.2,0,0,1-.8.4h0a1.3,1.3,0,0,1,.9.4,1.7,1.7,0,0,1,.3,1,1.9,1.9,0,0,1-.5,1.3,2.5,2.5,0,0,1-1.6.4H1089Zm1,2.5h.9l.9-.2a.8.8,0,0,0,.3-.7.6.6,0,0,0-.3-.6l-1-.2h-.8Zm0,.8v1.9h1l1-.2a1.1,1.1,0,0,0,.3-.8.9.9,0,0,0-.3-.7l-1-.2Z"/>
      <path class="cls-3" d="M1097.7,140.7l-.2-.6h0a1,1,0,0,1-.6.5l-.8.2a1.7,1.7,0,0,1-1.3-.4,2.2,2.2,0,0,1-.4-1.3v-2.9h1V139a1.9,1.9,0,0,0,.2.8l.7.2a1.2,1.2,0,0,0,.9-.3,2.3,2.3,0,0,0,.3-1.3v-2.2h.9v4.5Z"/>
      <path class="cls-3" d="M1102.9,139.4a1.1,1.1,0,0,1-.5,1,2,2,0,0,1-1.4.4,3.3,3.3,0,0,1-1.5-.3v-.8a5.6,5.6,0,0,0,1.5.4q.9,0,.9-.6a.4.4,0,0,0-.1-.3l-.3-.2-.6-.3-1.1-.6a1.1,1.1,0,0,1-.3-.8,1.1,1.1,0,0,1,.5-.9,2.3,2.3,0,0,1,1.3-.3,4,4,0,0,1,1.5.3l-.3.7-1.2-.3c-.6,0-.8.2-.8.5l.2.3a1.9,1.9,0,0,0,.9.4l.8.4.4.5A4.3,4.3,0,0,1,1102.9,139.4Z"/>
      <path class="cls-3" d="M1103.9,135c0-.2,0-.4.1-.4l.4-.2.4.2c.1,0,.2.2.2.4s-.1.3-.2.3l-.4.2-.4-.2C1103.9,135.3,1103.9,135.1,1103.9,135Zm1,5.7h-1v-4.5h1Z"/>
      <path class="cls-3" d="M1110.3,140.7h-1v-2.8a1.9,1.9,0,0,0-.2-.8l-.7-.2a1.2,1.2,0,0,0-.9.3,2.1,2.1,0,0,0-.3,1.2v2.3h-.9v-4.5h.7l.2.6h0a1.3,1.3,0,0,1,.6-.5,1.2,1.2,0,0,1,.8-.2c1.1,0,1.7.5,1.7,1.6Z"/>
      <path class="cls-3" d="M1113.6,140.8a2.1,2.1,0,0,1-1.6-.6,2.4,2.4,0,0,1-.6-1.7,2.4,2.4,0,0,1,.5-1.8,2,2,0,0,1,1.5-.6,1.8,1.8,0,0,1,2,2v.6h-3a1.7,1.7,0,0,0,.3,1,1.5,1.5,0,0,0,1,.3h.7l.8-.3v.8l-.7.2Zm-.2-4a.9.9,0,0,0-.7.3,1.2,1.2,0,0,0-.3.9h2a2,2,0,0,0-.2-.9A1,1,0,0,0,1113.4,136.8Z"/>
      <path class="cls-3" d="M1119.6,139.4a1.1,1.1,0,0,1-.5,1,2.1,2.1,0,0,1-1.4.4,3.3,3.3,0,0,1-1.5-.3v-.8a4.8,4.8,0,0,0,1.5.4q.9,0,.9-.6a.4.4,0,0,0-.1-.3l-.3-.2-.6-.3a2.7,2.7,0,0,1-1.1-.6,1.1,1.1,0,0,1-.3-.8,1.1,1.1,0,0,1,.5-.9,2.3,2.3,0,0,1,1.3-.3,4,4,0,0,1,1.5.3l-.3.7-1.3-.3c-.5,0-.7.2-.7.5s0,.2.2.3a1.9,1.9,0,0,0,.8.4l.9.4c.1.2.3.3.3.5A.8.8,0,0,1,1119.6,139.4Z"/>
      <path class="cls-3" d="M1123.7,139.4a1.1,1.1,0,0,1-.5,1,2,2,0,0,1-1.4.4,3.3,3.3,0,0,1-1.5-.3v-.8a5.6,5.6,0,0,0,1.5.4q.9,0,.9-.6a.4.4,0,0,0-.1-.3l-.3-.2-.6-.3a2.7,2.7,0,0,1-1.1-.6,1.1,1.1,0,0,1-.3-.8,1.1,1.1,0,0,1,.5-.9,2.3,2.3,0,0,1,1.3-.3,4,4,0,0,1,1.5.3l-.3.7-1.3-.3c-.5,0-.7.2-.7.5s0,.2.2.3l.8.4.9.4c.1.2.3.3.3.5A.8.8,0,0,1,1123.7,139.4Z"/>
      <path class="cls-3" d="M1059.7,152.5h-.7v-.8h.6c.6,0,.9-.4.9-1v-5.9h.9v5.8a2,2,0,0,1-.4,1.4A1.4,1.4,0,0,1,1059.7,152.5Z"/>
      <path class="cls-3" d="M1066.1,150.8v-.6h-.1a.8.8,0,0,1-.5.5,1.5,1.5,0,0,1-.9.2,1.5,1.5,0,0,1-1.2-.4,1.6,1.6,0,0,1-.4-1.2v-3h.9v2.8a1.1,1.1,0,0,0,.3.8c.1.2.3.2.6.2a1.2,1.2,0,0,0,.9-.3,2.1,2.1,0,0,0,.3-1.2v-2.3h1v4.5Z"/>
      <path class="cls-3" d="M1071.3,149.5a1.2,1.2,0,0,1-.5,1.1,3.4,3.4,0,0,1-2.8,0v-.8a2.8,2.8,0,0,0,1.5.4q.9,0,.9-.6v-.2l-.4-.3-.6-.3-1.1-.6a1.5,1.5,0,0,1-.2-.8,1,1,0,0,1,.4-.9,2.8,2.8,0,0,1,1.3-.3,3.3,3.3,0,0,1,1.5.3l-.3.8-1.2-.3c-.5,0-.8.1-.8.4l.2.4.9.4a1.5,1.5,0,0,1,.8.4.8.8,0,0,1,.4.4A.7.7,0,0,1,1071.3,149.5Z"/>
      <path class="cls-3" d="M1074.1,150.1h.7v.8h-1c-.9,0-1.3-.5-1.3-1.4V147h-.7v-.4l.7-.4.3-.9h.6v1h1.3v.7h-1.3v2.5a.8.8,0,0,0,.2.5Z"/>
      <path class="cls-3" d="M1075.6,145.1a.5.5,0,0,1,.2-.4l.4-.2.4.2c.1.1.1.2.1.4a.6.6,0,0,1-.1.4h-.8Zm1,5.7h-.9v-4.5h.9Z"/>
      <path class="cls-3" d="M1080.3,147h-1.1v3.8h-1V147h-.7v-.4l.7-.3V146a1.7,1.7,0,0,1,.4-1.2,1.5,1.5,0,0,1,1.2-.4,2,2,0,0,1,1,.2l-.3.7h-.7c-.2,0-.3,0-.4.2a.8.8,0,0,0-.2.6v.3h1.1Zm.7-1.9a.5.5,0,0,1,.2-.4l.4-.2.4.2c.1.1.1.2.1.4a.6.6,0,0,1-.1.4h-.8A.8.8,0,0,1,1081,145.1Zm1.1,5.7h-1v-4.5h1Z"/>
      <path class="cls-3" d="M1085.3,150.9a2.1,2.1,0,0,1-1.6-.6,2.9,2.9,0,0,1-.5-1.7,3,3,0,0,1,.5-1.8,2.4,2.4,0,0,1,1.7-.6,3.1,3.1,0,0,1,1.3.3l-.3.7-1-.2c-.8,0-1.2.5-1.2,1.6a1.6,1.6,0,0,0,.3,1.1.8.8,0,0,0,.8.4,2.8,2.8,0,0,0,1.3-.3v.8l-.6.3Z"/>
      <path class="cls-3" d="M1090.5,150.8l-.2-.6h-.1l-.6.6h-.9a1.5,1.5,0,0,1-1-.3,1.4,1.4,0,0,1-.4-1.1,1.2,1.2,0,0,1,.5-1,2.5,2.5,0,0,1,1.6-.4h.8v-.3a.8.8,0,0,0-.2-.6.6.6,0,0,0-.6-.3h-.7l-.6.3-.3-.7.8-.3h.8a1.7,1.7,0,0,1,1.3.4,1.4,1.4,0,0,1,.5,1.2v3Zm-1.5-.6a1.2,1.2,0,0,0,.9-.3,1.1,1.1,0,0,0,.3-.8v-.4h-.6l-1,.2a.9.9,0,0,0-.3.6.8.8,0,0,0,.2.5Z"/>
      <path class="cls-3" d="M1094.2,150.1h.7v.8h-.9a1.3,1.3,0,0,1-1.4-1.4V147h-.6v-.4l.7-.4.3-.9h.6v1h1.3v.7h-1.3v2.5c0,.2,0,.4.2.5Z"/>
      <path class="cls-3" d="M1095.8,145.1c0-.2,0-.3.1-.4a.5.5,0,0,1,.4-.2l.4.2a.5.5,0,0,1,.2.4l-.2.4h-.8A.6.6,0,0,1,1095.8,145.1Zm1,5.7h-1v-4.5h1Z"/>
      <path class="cls-3" d="M1102.2,148.6a2.9,2.9,0,0,1-.5,1.7,2.3,2.3,0,0,1-1.6.6,2.4,2.4,0,0,1-1.2-.3,1.9,1.9,0,0,1-.7-.8,2.7,2.7,0,0,1-.3-1.2,2.4,2.4,0,0,1,.6-1.8,2.1,2.1,0,0,1,1.6-.6,1.9,1.9,0,0,1,1.5.6A2.6,2.6,0,0,1,1102.2,148.6Zm-3.3,0q0,1.5,1.2,1.5c.7,0,1.1-.5,1.1-1.5s-.4-1.6-1.1-1.6a1,1,0,0,0-.9.4A2.1,2.1,0,0,0,1098.9,148.6Z"/>
      <path class="cls-3" d="M1107.3,150.8h-.9V148a1.2,1.2,0,0,0-.2-.7.9.9,0,0,0-.7-.3,1,1,0,0,0-.9.4,1.7,1.7,0,0,0-.3,1.2v2.2h-1v-4.5h.8v.6h.1a1,1,0,0,1,.6-.5l.8-.2c1.1,0,1.6.6,1.6,1.7Z"/>
    </g>
    <g>
      <path class="cls-4" d="M1106.7,64.8v-.6a5.4,5.4,0,0,0-5.3-5.4h-4.9v5.8H1067V58.8h-4.9a5.4,5.4,0,0,0-5.3,5.4v51a5.3,5.3,0,0,0,5.3,5.3h39.3a5.4,5.4,0,0,0,4.1-2h-12.1a3,3,0,0,1-3-3,2.9,2.9,0,0,1,3-3h13.3V87.7a13.3,13.3,0,0,1-6.8-11.5,12.7,12.7,0,0,1,3.9-9.2A10.1,10.1,0,0,1,1106.7,64.8ZM1076,72.2h15.7a1.1,1.1,0,1,1,0,2.2H1076a1.1,1.1,0,1,1,0-2.2Zm0,4.4h20.7a1.1,1.1,0,1,1,0,2.2H1076a1.1,1.1,0,1,1,0-2.2Zm0,10h15.7a1.1,1.1,0,0,1,1.2,1.1,1.2,1.2,0,0,1-1.2,1.2H1076a1.2,1.2,0,0,1-1.2-1.2A1.1,1.1,0,0,1,1076,86.6Zm-8.7-16a4.8,4.8,0,0,1,2.7.9h.1l-3,2.9-1.5-1.4a1.1,1.1,0,0,0-1.6,1.6l3.1,2.9,4.4-4.1v.2a3.7,3.7,0,0,1,.3,1.5,4.7,4.7,0,0,1-9.3,0A4.7,4.7,0,0,1,1067.3,70.6Zm0,14.5a4.2,4.2,0,0,1,2.7.9h.1l-3,2.8-1.5-1.4a1.2,1.2,0,0,0-1.6,1.7l3.1,2.9,4.4-4.2v.2a4.1,4.1,0,0,1,.3,1.6,4.7,4.7,0,1,1-4.6-4.6Zm0,23.6a4.6,4.6,0,0,1-4.7-4.6,4.7,4.7,0,0,1,4.7-4.6,4.8,4.8,0,0,1,2.7.9v.2l-3,2.8-1.5-1.4a1.1,1.1,0,0,0-1.6,1.6l3.1,2.9,4.4-4.1v.2a4,4,0,0,1,.3,1.5A4.6,4.6,0,0,1,1067.3,108.7Zm32.4-1H1076a1.1,1.1,0,0,1-1.2-1.1,1.2,1.2,0,0,1,1.2-1.2h23.7a1.3,1.3,0,0,1,1.2,1.2A1.2,1.2,0,0,1,1099.7,107.7Zm-24.9-5.5a1.1,1.1,0,0,1,1.2-1.1h15.7a1.1,1.1,0,1,1,0,2.2H1076A1.1,1.1,0,0,1,1074.8,102.2Zm26.1-10.1a1.2,1.2,0,0,1-1.2,1.2H1076a1.2,1.2,0,0,1-1.2-1.2A1.1,1.1,0,0,1,1076,91h23.7A1.2,1.2,0,0,1,1100.9,92.1Z"/>
      <path class="cls-5" d="M1094.2,56.5v5.8h-24.9V56.5h8.9a3.7,3.7,0,0,1,7.1,0Z"/>
      <g>
        <g>
          <path class="cls-7" d="M1071.5,73.5l-4.4,4.1-3.1-2.9a1.1,1.1,0,0,1,1.6-1.6l1.5,1.4,3-2.9Z"/>
          <path class="cls-5" d="M1072.4,72.6l-.9.9-4.4,4.1-3.1-2.9a1.1,1.1,0,0,1,1.6-1.6l1.5,1.4,3-2.9.7-.6a1.1,1.1,0,0,1,1.6,1.6Z"/>
        </g>
        <g>
          <path class="cls-7" d="M1071.5,87.9l-4.4,4.2-3.1-2.9a1.2,1.2,0,0,1,1.6-1.7l1.5,1.4,3-2.8Z"/>
          <path class="cls-5" d="M1072.4,87.1l-.9.8-4.4,4.2-3.1-2.9a1.2,1.2,0,0,1,1.6-1.7l1.5,1.4,3-2.8.7-.7a1.2,1.2,0,0,1,1.6,1.7Z"/>
        </g>
        <g>
          <path class="cls-7" d="M1071.5,102.4l-4.4,4.1-3.1-2.9a1.1,1.1,0,0,1,1.6-1.6l1.5,1.4,3-2.8Z"/>
          <path class="cls-5" d="M1072.4,101.5l-.9.9-4.4,4.1-3.1-2.9a1.1,1.1,0,0,1,1.6-1.6l1.5,1.4,3-2.8.7-.7a1.1,1.1,0,0,1,1.6,1.6Z"/>
        </g>
      </g>
    </g>
  </g>
  <g>
    <path class="cls-3" d="M1200.8,341.1a3.4,3.4,0,0,1-.8,2.3,3.6,3.6,0,0,1-2.4.8h-1.7v-6.1h1.9a2.8,2.8,0,0,1,3,3Zm-1,0a1.9,1.9,0,0,0-2.1-2.1h-.8v4.3h.7A2,2,0,0,0,1199.8,341.1Z"/>
    <path class="cls-3" d="M1204,344.2a2.4,2.4,0,0,1-1.7-4,1.6,1.6,0,0,1,1.5-.7,1.7,1.7,0,0,1,1.4.6,1.7,1.7,0,0,1,.5,1.5v.5h-3a1.2,1.2,0,0,0,.4,1,1,1,0,0,0,.9.4h.8c.2-.1.5-.1.7-.3v.8l-.7.3Zm-.2-3.9c-.3,0-.6,0-.7.2a1.9,1.9,0,0,0-.4.9h2.1a1.2,1.2,0,0,0-.3-.9A.8.8,0,0,0,1203.8,340.3Z"/>
    <path class="cls-3" d="M1209.1,340.3H1208v3.9h-1v-3.9h-.7v-.4l.7-.3v-.3a1.9,1.9,0,0,1,.4-1.2,1.6,1.6,0,0,1,1.2-.4l1,.2-.3.7h-.7l-.4.2a.8.8,0,0,0-.2.6v.3h1.1Zm.7-1.9a.5.5,0,0,1,.2-.4h.8c.1.1.1.2.1.4s0,.3-.1.4h-.8A.5.5,0,0,1,1209.8,338.4Zm1.1,5.8h-1v-4.6h1Z"/>
    <path class="cls-3" d="M1216.3,344.2h-1v-2.8a1.3,1.3,0,0,0-.2-.8.9.9,0,0,0-.7-.3,1,1,0,0,0-.9.4,1.7,1.7,0,0,0-.3,1.2v2.3h-.9v-4.6h.7l.2.6h0a1,1,0,0,1,.6-.5l.8-.2a1.5,1.5,0,0,1,1.7,1.7Z"/>
    <path class="cls-3" d="M1219.6,344.2a2.4,2.4,0,0,1-1.7-4,1.8,1.8,0,0,1,1.5-.7,2,2,0,0,1,1.5.6,2.1,2.1,0,0,1,.5,1.5v.5h-3.1a2.3,2.3,0,0,0,.4,1,1.1,1.1,0,0,0,1,.4h.7c.2-.1.5-.1.7-.3v.8l-.7.3Zm-.2-3.9a.8.8,0,0,0-.7.2,1.2,1.2,0,0,0-.3.9h2a2,2,0,0,0-.2-.9A1.1,1.1,0,0,0,1219.4,340.3Z"/>
    <path class="cls-3" d="M1225.8,341.8v2.4h-1v-6.1h1.7a2.9,2.9,0,0,1,1.7.5,1.5,1.5,0,0,1,.6,1.3,1.7,1.7,0,0,1-1.2,1.6l1.7,2.7h-1.1l-1.5-2.4Zm0-.9h.6c.5,0,.8,0,1-.2a1,1,0,0,0,.3-.8.8.8,0,0,0-.3-.7c-.2-.2-.5-.2-1-.2h-.6Z"/>
    <path class="cls-3" d="M1234.1,341.9a2.4,2.4,0,0,1-.6,1.7,2.1,2.1,0,0,1-1.6.6l-1.1-.2a1.6,1.6,0,0,1-.7-.9,2.4,2.4,0,0,1-.3-1.2,2.6,2.6,0,0,1,.6-1.8,2,2,0,0,1,1.6-.6,1.8,1.8,0,0,1,1.5.7A2.4,2.4,0,0,1,1234.1,341.9Zm-3.3,0c0,1,.4,1.5,1.1,1.5s1.2-.5,1.2-1.5-.4-1.6-1.2-1.6-.7.1-.8.4A2.1,2.1,0,0,0,1230.8,341.9Z"/>
    <path class="cls-3" d="M1236.2,344.2h-1v-6.5h1Z"/>
    <path class="cls-3" d="M1239.6,344.2a2.2,2.2,0,0,1-1.7-.6,2.4,2.4,0,0,1-.6-1.7,2.9,2.9,0,0,1,.5-1.7,1.9,1.9,0,0,1,1.6-.7,1.7,1.7,0,0,1,1.4.6,2.1,2.1,0,0,1,.5,1.5v.5h-3a1.5,1.5,0,0,0,.3,1,1.3,1.3,0,0,0,1,.4h.8l.7-.3v.8l-.7.3Zm-.2-3.9a1.1,1.1,0,0,0-.8.2,1.9,1.9,0,0,0-.3.9h2.1a1.2,1.2,0,0,0-.3-.9A.8.8,0,0,0,1239.4,340.3Z"/>
    <path class="cls-3" d="M1245.5,342.9a1.4,1.4,0,0,1-.5,1,2.6,2.6,0,0,1-1.4.3l-1.5-.2v-.9a3.4,3.4,0,0,0,1.5.4c.6,0,.9-.2.9-.5s0-.3-.1-.3l-.3-.3-.6-.2-1.1-.7a1,1,0,0,1-.3-.8,1.4,1.4,0,0,1,.5-.9,2.3,2.3,0,0,1,1.3-.3,4,4,0,0,1,1.5.3l-.3.8-1.2-.3c-.6,0-.8.1-.8.4a.8.8,0,0,0,.2.4l.9.4.8.4a.8.8,0,0,1,.4.4C1245.4,342.5,1245.5,342.6,1245.5,342.9Z"/>
    <path class="cls-3" d="M1251.6,344.2l-.2-.7h-.1a1.7,1.7,0,0,1-.6.6h-.9a1.5,1.5,0,0,1-1-.3,1.5,1.5,0,0,1,.1-2.1,2.5,2.5,0,0,1,1.6-.4h.8v-.3a.8.8,0,0,0-.2-.6c-.1-.2-.3-.2-.6-.2h-.7l-.6.2-.3-.7.8-.3h.8a1.7,1.7,0,0,1,1.3.4,1.5,1.5,0,0,1,.5,1.2v3.1Zm-1.5-.7a1.2,1.2,0,0,0,.9-.3,1.1,1.1,0,0,0,.3-.8V342h-.6l-1,.2a.9.9,0,0,0-.3.7.5.5,0,0,0,.2.4Z"/>
    <path class="cls-3" d="M1257.6,344.2h-1v-2.8c0-.4,0-.7-.2-.8a.6.6,0,0,0-.6-.3,1,1,0,0,0-.9.4,1.7,1.7,0,0,0-.3,1.2v2.3h-1v-4.6h.8v.6h.1l.5-.5.9-.2c1.1,0,1.6.6,1.6,1.7Z"/>
    <path class="cls-3" d="M1260.5,344.2a1.5,1.5,0,0,1-1.3-.6,2.9,2.9,0,0,1-.5-1.7,3.2,3.2,0,0,1,.5-1.8,1.5,1.5,0,0,1,1.3-.6,1.5,1.5,0,0,1,1.4.7h0v-2.5h.9v6.5h-.7l-.2-.6h0A1.7,1.7,0,0,1,1260.5,344.2Zm.3-.7a.9.9,0,0,0,.8-.4,1.6,1.6,0,0,0,.3-1.1h0a1.7,1.7,0,0,0-.3-1.2,1,1,0,0,0-1.6,0,2.5,2.5,0,0,0,0,2.4A.9.9,0,0,0,1260.8,343.5Z"/>
    <path class="cls-3" d="M1199.3,351.9v2.4h-.9v-6h1.7a2.9,2.9,0,0,1,1.7.4,1.4,1.4,0,0,1,.5,1.3,1.6,1.6,0,0,1-1.1,1.6l1.7,2.7h-1.2l-1.4-2.4Zm0-.8h.7a1.3,1.3,0,0,0,1-.3,1,1,0,0,0,.3-.8.9.9,0,0,0-.3-.7l-1-.2h-.7Z"/>
    <path class="cls-3" d="M1205.6,354.4a1.9,1.9,0,0,1-1.6-.7,2.2,2.2,0,0,1-.6-1.7,2.9,2.9,0,0,1,.5-1.7,2.2,2.2,0,0,1,1.6-.7,1.8,1.8,0,0,1,1.4.6,2.5,2.5,0,0,1,.5,1.5v.5h-3a1.3,1.3,0,0,0,.3,1,1.2,1.2,0,0,0,1,.4h.7l.8-.2v.8l-.7.2Zm-.1-4a1,1,0,0,0-1.1,1.1h2c0-.4,0-.6-.2-.8A.9.9,0,0,0,1205.5,350.4Z"/>
    <path class="cls-3" d="M1211.6,353a1.2,1.2,0,0,1-.5,1,2.9,2.9,0,0,1-1.4.4,3.3,3.3,0,0,1-1.5-.3v-.9a3.4,3.4,0,0,0,1.5.4c.6,0,.9-.2.9-.5a.4.4,0,0,0-.1-.3l-.3-.2-.6-.3a2.7,2.7,0,0,1-1.1-.6,1.1,1.1,0,0,1-.3-.8,1.1,1.1,0,0,1,.5-.9,1.7,1.7,0,0,1,1.3-.4,2.8,2.8,0,0,1,1.5.4l-.3.7-1.3-.3c-.5,0-.7.1-.7.4s0,.3.2.4l.8.4.9.4.3.4A1.4,1.4,0,0,1,1211.6,353Z"/>
    <path class="cls-3" d="M1214.9,354.4a1.4,1.4,0,0,1-1.3-.7h-.1a3.2,3.2,0,0,1,.1.7v1.9h-1v-6.6h.8a3.5,3.5,0,0,1,.1.6h.1a1.6,1.6,0,0,1,1.3-.7,1.6,1.6,0,0,1,1.4.7,2.7,2.7,0,0,1,.4,1.7,2.9,2.9,0,0,1-.4,1.7A1.6,1.6,0,0,1,1214.9,354.4Zm-.2-4a1,1,0,0,0-.9.4,2.5,2.5,0,0,0-.2,1v.2a3.7,3.7,0,0,0,.2,1.2,1.3,1.3,0,0,0,.9.4,1.2,1.2,0,0,0,.8-.4,3.7,3.7,0,0,0,0-2.4A1.2,1.2,0,0,0,1214.7,350.4Z"/>
    <path class="cls-3" d="M1221.9,352a2.4,2.4,0,0,1-.6,1.7,1.9,1.9,0,0,1-1.6.7,2,2,0,0,1-1.1-.3,1.6,1.6,0,0,1-.7-.9,2.1,2.1,0,0,1-.3-1.2,2.4,2.4,0,0,1,.6-1.7,1.8,1.8,0,0,1,1.6-.7,2.1,2.1,0,0,1,1.5.7A2.4,2.4,0,0,1,1221.9,352Zm-3.3,0c0,1,.4,1.6,1.2,1.6s1.1-.6,1.1-1.6-.4-1.6-1.2-1.6a.9.9,0,0,0-.8.4A2.1,2.1,0,0,0,1218.6,352Z"/>
    <path class="cls-3" d="M1227,354.3h-1v-2.8c0-.4,0-.6-.2-.8a.6.6,0,0,0-.6-.3,1.3,1.3,0,0,0-.9.4,1.7,1.7,0,0,0-.3,1.2v2.3h-1v-4.6h.8v.6h.1a1.2,1.2,0,0,1,.5-.5l.9-.2c1.1,0,1.6.6,1.6,1.7Z"/>
    <path class="cls-3" d="M1231.4,353a1,1,0,0,1-.5,1,2.2,2.2,0,0,1-1.3.4,3.1,3.1,0,0,1-1.5-.3v-.9a2.8,2.8,0,0,0,1.5.4c.6,0,.9-.2.9-.5s-.1-.2-.1-.3l-.3-.2-.7-.3a2.1,2.1,0,0,1-1-.6,1.1,1.1,0,0,1-.3-.8.9.9,0,0,1,.5-.9,1.6,1.6,0,0,1,1.2-.4,2.9,2.9,0,0,1,1.6.4l-.4.7-1.2-.3c-.5,0-.8.1-.8.4a.5.5,0,0,0,.2.4l.9.4a1.9,1.9,0,0,1,.8.4l.4.4A1.3,1.3,0,0,1,1231.4,353Z"/>
    <path class="cls-3" d="M1232.4,348.5a.5.5,0,0,1,.2-.4h.8c.1.1.1.2.1.4s0,.3-.1.4h-.8A.5.5,0,0,1,1232.4,348.5Zm1,5.8h-.9v-4.6h.9Z"/>
    <path class="cls-3" d="M1237.2,349.6a1.5,1.5,0,0,1,1.3.7,2.6,2.6,0,0,1,.5,1.7,2.9,2.9,0,0,1-.5,1.7,1.5,1.5,0,0,1-1.4.7,1.5,1.5,0,0,1-1.3-.7h-.1v.6h-.8v-6.4h1v2.4h0A1.7,1.7,0,0,1,1237.2,349.6Zm-.3.8c-.4,0-.7.1-.8.4a1.6,1.6,0,0,0-.3,1.1h0a2.1,2.1,0,0,0,.3,1.2.9.9,0,0,0,.8.4,1,1,0,0,0,.8-.4,2.1,2.1,0,0,0,.3-1.2C1238,351,1237.6,350.4,1236.9,350.4Z"/>
    <path class="cls-3" d="M1240,348.5a.5.5,0,0,1,.2-.4h.8c.1.1.1.2.1.4s0,.3-.1.4h-.8A.5.5,0,0,1,1240,348.5Zm1,5.8h-.9v-4.6h.9Z"/>
    <path class="cls-3" d="M1243.4,354.3h-1v-6.4h1Z"/>
    <path class="cls-3" d="M1244.7,348.5a.5.5,0,0,1,.2-.4h.8c.1.1.1.2.1.4s0,.3-.1.4h-.8A.5.5,0,0,1,1244.7,348.5Zm1.1,5.8h-1v-4.6h1Z"/>
    <path class="cls-3" d="M1248.8,353.6h.7v.7h-.9c-.9,0-1.4-.5-1.4-1.5v-2.4h-.6V350l.7-.3.3-1h.6v1h1.3v.8h-1.3v2.4a.8.8,0,0,0,.2.5A.5.5,0,0,0,1248.8,353.6Z"/>
    <path class="cls-3" d="M1250.4,348.5c0-.2,0-.3.1-.4h.8a.5.5,0,0,1,0,.8h-.8C1250.4,348.8,1250.4,348.7,1250.4,348.5Zm1,5.8h-.9v-4.6h.9Z"/>
    <path class="cls-3" d="M1254.8,354.4a2.1,2.1,0,0,1-1.7-.7,2.2,2.2,0,0,1-.6-1.7,2.4,2.4,0,0,1,.6-1.7,2.1,2.1,0,0,1,1.5-.7,1.7,1.7,0,0,1,1.4.6,2,2,0,0,1,.6,1.5v.5h-3.1a1.3,1.3,0,0,0,.4,1,1,1,0,0,0,.9.4h.8l.7-.2v.8l-.7.2Zm-.2-4a.9.9,0,0,0-.7.3,1.5,1.5,0,0,0-.4.8h2.1a1,1,0,0,0-.3-.8A.8.8,0,0,0,1254.6,350.4Z"/>
    <path class="cls-3" d="M1260.7,353a1,1,0,0,1-.5,1,2.3,2.3,0,0,1-1.4.4,2.9,2.9,0,0,1-1.4-.3v-.9a2.8,2.8,0,0,0,1.5.4c.6,0,.9-.2.9-.5s-.1-.2-.1-.3a.5.5,0,0,0-.4-.2l-.6-.3a2.1,2.1,0,0,1-1-.6,1.1,1.1,0,0,1-.3-.8,1,1,0,0,1,.4-.9,2,2,0,0,1,1.3-.4,2.9,2.9,0,0,1,1.6.4l-.4.7-1.2-.3c-.5,0-.8.1-.8.4a.5.5,0,0,0,.2.4l.9.4.8.4c.2.1.3.3.4.4A1.3,1.3,0,0,1,1260.7,353Z"/>
  </g>
  <g>
    <path class="cls-4" d="M1246,276v26.4h1.3V279.1A4.4,4.4,0,0,0,1246,276Zm-5.9,28.4V274.5h-30.8a4.7,4.7,0,0,0-4.6,4.6V323a4.6,4.6,0,0,0,4.6,4.5h32.4a6.7,6.7,0,0,1-2.2-5.1,6.9,6.9,0,0,1,6.9-6.9h.9v-2.2Zm-29.8-19.9h21.1a1.1,1.1,0,0,1,1.1,1.1,1,1,0,0,1-1.1,1h-21.1a.9.9,0,0,1-1-1A1,1,0,0,1,1210.3,284.5Zm0,6.3h21.1a1.1,1.1,0,0,1,0,2.2h-21.1a1.1,1.1,0,0,1,0-2.2Zm0,6.4h21.2a1.1,1.1,0,0,1,0,2.2h-21.2a1.1,1.1,0,0,1,0-2.2Zm0,6.4H1232a1.1,1.1,0,0,1,0,2.2h-21.7a1.1,1.1,0,0,1,0-2.2Zm21.7,15h-21.7a1.1,1.1,0,0,1,0-2.2H1232a1.1,1.1,0,0,1,0,2.2Zm7-6.4h-28.7a1.1,1.1,0,0,1,0-2.2H1239a1.1,1.1,0,0,1,0,2.2Z"/>
    <polygon class="cls-4" points="1244 271.9 1244 302.4 1242.1 302.4 1242.1 271.9 1244 271.9"/>
    <polygon class="cls-4" points="1247.3 271.9 1247.3 302.4 1245.9 302.4 1246 271.9 1247.3 271.9"/>
    <rect class="cls-4" x="1249.2" y="271.9" width="1.8" height="30.54"/>
    <rect class="cls-5" x="1242.3" y="268.3" width="8.6" height="2.34"/>
    <polygon class="cls-5" points="1250.8 304 1247.3 308.3 1246.4 309.3 1242.5 304.4 1242.5 304.3 1246 304.2 1247.3 304.1 1250.8 304"/>
    <polygon class="cls-5" points="1251 303.8 1250.8 304 1247.3 308.3 1246.4 309.3 1242.5 304.4 1242.5 304.3 1242.1 303.8 1251 303.8"/>
  </g>
  <g>
    <path class="cls-8" d="M1318.3,73.8s26.6,14.3,36.4,26,8.2,27.3,7.8,29.6,2,24.3,15.3,38.4,14.3,47.9-30.8,28.9h0l-35-75.6-1.6-48.2Z"/>
    <path class="cls-8" d="M1282.9,62.1s-2.5-13.2,6-13.8,29.8-12.2,32.9,11.9-13,16.4-13,16.4-12.6-14.7-16.4-15.2-9.5.7-9.5.7"/>
    <rect class="cls-9" x="1312.7" y="74.5" width="10.4" height="2.97" rx="1.5" transform="translate(2574.8 -327.4) rotate(158.9)"/>
    <g>
      <polygon class="cls-10" points="1305.9 84.8 1308.7 97.9 1322.4 94.1 1313.4 75.3 1305.9 84.8"/>
      <path class="cls-11" d="M1302.5,88.5a8.7,8.7,0,0,1-4.1.3c-6.7-5.2-7.2-24.7-7.2-24.7l6.3-5.4,11.1,2.8,4.3,11.8a10.1,10.1,0,0,1-1.5,9.6h0A20.8,20.8,0,0,1,1302.5,88.5Z"/>
      <path class="cls-8" d="M1309.3,68.8c-1.2-1.9-2.4-6.6-4.3-5.6s-6.5,2.5-8.2,3.1c-4.1,1.3-11.9,2-13.9-4.2-1-3.1,1.2-6.8,2.8-8.2a9.2,9.2,0,0,1,5.9-2c5.1.2,12.2,1.7,14.4.5,3.7-2.1,8.5-1,9.5,2.4s1,9.8.3,13.8a19.9,19.9,0,0,1-2.4,6.7h0Z"/>
      <path class="cls-11" d="M1313.6,67.9a3.3,3.3,0,0,0-3.7,1.5c-.9,1.4-.7,3,.5,3.5a3.2,3.2,0,0,0,3.7-1.6C1315,69.9,1314.8,68.4,1313.6,67.9Z"/>
    </g>
    <path class="cls-9" d="M1316.5,91.2c25.6-1.5,27.7,21.3,29.9,46.1,2.5,28.4.6,59.4.6,59.4h-59.6s0-26.4.6-52.8S1289.4,92.7,1316.5,91.2Z"/>
    <path class="cls-10" d="M1290.5,182.8s-5.8-4.1-8-3.1-.4,5-.4,5Z"/>
    <path class="cls-10" d="M1281.4,170.3c-10.5-3.7-4.1-39.6-4.1-39.6h6.2S1291.8,174,1281.4,170.3Z"/>
    <path class="cls-9" d="M1275.7,130.7l7.3,4.4s30.7-49.8,15.5-36.7S1275.7,130.7,1275.7,130.7Z"/>
    <path class="cls-9" d="M1355.3,137.2s-9.8-45.4-32.9-44.4,10.1,47.7,10.1,47.7Z"/>
    <path class="cls-11" d="M1281.5,171.1c-14.5-11.7,14-72.8,14-72.8l6.9.6S1301.8,180,1281.5,171.1Z"/>
    <path class="cls-11" d="M1295.5,98.3l-.9-11.7s5.8-8.9,11.3-6.5c1,2.4-.7,7.3-.7,7.3l-2.8,11.5Z"/>
    <path class="cls-10" d="M1296.2,97.8h-.2l-.8-11c.7-1.1,5.7-7.9,10.3-6.2.6,1.9-.4,5.5-.9,6.8h0l1.2-.2c.4-1.2,1.6-5.1.6-7.3v-.2h-.2c-5.8-2.6-11.7,6.3-12,6.7v.2l.9,12.3h.7Z"/>
    <g>
      <path class="cls-8" d="M1224.1,158.5h51.3a1.2,1.2,0,0,1,1.1.7l16.6,34.1a1.3,1.3,0,0,1-1.2,1.9h-51.3a1.3,1.3,0,0,1-1.2-.8l-16.5-34A1.3,1.3,0,0,1,1224.1,158.5Z"/>
      <path class="cls-12" d="M1255.7,171.9a2.2,2.2,0,0,1-4.4,0,2.2,2.2,0,1,1,4.4,0Z"/>
    </g>
    <path class="cls-11" d="M1332.5,140.5l2.8,18.9-45.7,22.7,5,5s51.2-9.2,58.5-16,2.2-33.9,2.2-33.9Z"/>
    <path class="cls-11" d="M1297.4,186.1l-10.8,6.9c-4.3,2-8.1-1.1-11.2-5.5a4,4,0,0,1,3.3-6.4c3.9.1,8.6.9,10.9,1Z"/>
    <path class="cls-10" d="M1321,91.1s-4.7,15.3-9.4,14.1-4-12.4-4-12.4,8.4-7.9,13.4-1.7"/>
  </g>
  <path class="cls-4" d="M1247.3,315.6v11.9h-5.6l-9.2-2.4S1243.1,311.4,1247.3,315.6Z"/>
  <path class="cls-4" d="M1106.7,64.2v48.3s.3,4.2-1.2,6h-17.1l.6-6.5,13.3-.9,2-3.4s.2-17.9-1.2-18.8-4.9-9.9-4.8-13.7S1103.9,62.1,1106.7,64.2Z"/>
  <g>
    <polygon class="cls-5" points="1092.1 118 1096.7 114.6 1096.7 125.1 1092.1 125.1 1092.1 118"/>
    <polygon class="cls-5" points="1098.2 113.4 1102.2 117 1102.2 125.1 1097.6 125.1 1097.6 113.9 1098.2 113.4"/>
    <polygon class="cls-5" points="1103.6 118.2 1107.7 114.3 1107.7 125.1 1103.1 125.1 1103.1 117.8 1103.6 118.2"/>
    <path class="cls-5" d="M1113.2,111.9v13.2h-4.6V113.5l3.6-3.4v.5A1.4,1.4,0,0,0,1113.2,111.9Z"/>
    <path class="cls-5" d="M1108.9,105.8h0a.9.9,0,0,0,.9.9h1.6l-7.9,7.4-5.2-4.6-8.9,6.8a.8.8,0,0,0-.2,1.2h0a.9.9,0,0,0,1.3.2l7.7-5.9,5.4,4.8,9-8.6v1.6a.9.9,0,0,0,.9.9h0a.9.9,0,0,0,.9-.9v-3.8a.9.9,0,0,0-.9-.9h-3.7A.9.9,0,0,0,1108.9,105.8Z"/>
  </g>
</svg>
