<?xml version="1.0" encoding="utf-8"?>
<!-- Generator: Adobe Illustrator 26.1.0, SVG Export Plug-In . SVG Version: 6.00 Build 0)  -->
<svg version="1.1" id="Layer_1" xmlns="http://www.w3.org/2000/svg" xmlns:xlink="http://www.w3.org/1999/xlink" x="0px" y="0px"
	 viewBox="0 0 1441 511" style="enable-background:new 0 0 1441 511;" xml:space="preserve">
<style type="text/css">
	.st0{fill:#F8FAF7;}
	.st1{opacity:0.68;}
	.st2{fill:#D1D3D4;}
	.st3{fill:none;stroke:#D1D3D4;stroke-width:2;stroke-miterlimit:10;stroke-dasharray:8;}
	.st4{fill:#212B53;}
	.st5{fill:#F7B58E;}
	.st6{fill:#F39F85;}
	.st7{fill:#FF953F;}
	.st8{fill:#AAAAAA;}
	.st9{fill:#828282;}
	.st10{fill:#FFFFFF;}
	.st11{fill:#C2C0FF;}
	.st12{fill:#8886DA;}
	.st13{fill:#FFC8BB;}
	.st14{fill:#EAAFA2;}
	.st15{opacity:0.13;}
	.st16{fill:#16168C;}
	.st17{fill:#DADADA;}
	.st18{fill:#030D74;}
	.st19{fill:#A8A8A8;}
	.st20{fill:#EDEDED;}
	.st21{fill:none;stroke:#FFFFFF;stroke-width:0.5;stroke-miterlimit:10;}
	.st22{fill:none;stroke:#D1D3D4;stroke-miterlimit:10;stroke-dasharray:8;}
	.st23{fill:#181F36;}
	.st24{fill:#FCA97C;}
	.st25{fill:#0D121E;}
	.st26{clip-path:url(#SVGID_00000026879837137753583700000018002352781698188708_);fill:#FF953F;}
	.st27{fill:#FFB888;}
	.st28{fill:#B8D1CE;}
	.st29{fill:#707070;}
	.st30{fill:#F8A17A;}
	.st31{fill:none;stroke:#C2C0FF;stroke-width:3;stroke-linecap:round;stroke-linejoin:round;stroke-miterlimit:10;}
	.st32{fill:none;stroke:#C2C0FF;stroke-width:2;stroke-linecap:round;stroke-linejoin:round;stroke-miterlimit:10;}
	.st33{fill:none;stroke:#8886DA;stroke-width:3;stroke-linecap:round;stroke-linejoin:round;stroke-miterlimit:10;}
	.st34{fill:#FABC9B;}
	.st35{fill:#F2A07E;}
	.st36{fill:#F3F3F3;}
	.st37{fill:#9B9B9B;}
	.st38{fill:#D6D6D5;}
	.st39{fill:#463D41;}
	.st40{fill:#9D9A99;}
	.st41{fill:none;stroke:#C2C0FF;stroke-miterlimit:10;}
	.st42{fill-rule:evenodd;clip-rule:evenodd;fill:#C2C0FF;}
	.st43{fill-rule:evenodd;clip-rule:evenodd;fill:#8886DA;}
	.st44{fill:#323254;}
	.st45{fill:#2A2A2B;}
	.st46{fill:#FCBD85;}
	.st47{fill:#3F3533;}
	.st48{fill:#EDE6D2;}
	.st49{fill:#E6E7E8;}
	.st50{opacity:5.000000e-02;}
	.st51{fill:#36365B;}
	.st52{fill:#323233;}
	.st53{fill:#DBDDD9;}
	.st54{fill:#DDDDD7;}
	.st55{fill:#D3D3CD;}
	.st56{fill:#F4B07D;}
	.st57{fill:#F79884;}
	.st58{fill:#1F2144;}
	.st59{fill:#464A8A;}
	.st60{fill:#F5E4D5;}
	.st61{fill:#797A8A;}
	.st62{opacity:0.23;}
	.st63{fill:#848484;}
	.st64{fill:#F7C68F;}
	.st65{opacity:0.1;fill:#1D1D1B;}
	.st66{fill:#EAEAEA;}
	.st67{fill:#BFBFBF;}
	.st68{fill:#CCCECE;}
	.st69{fill:#F1F2F2;}
	.st70{fill:#E2E2E2;}
	.st71{fill:#A7A9AC;}
	.st72{fill:#305163;}
	.st73{opacity:0.15;fill:#231F20;}
	.st74{fill:#EDBD8C;}
	.st75{opacity:7.000000e-02;}
	.st76{opacity:7.000000e-02;fill:#E2E2E2;}
	.st77{fill:#9F9FA0;}
	.st78{fill:#CFDDEE;}
	.st79{fill:#605F61;}
	.st80{fill:#333333;}
	.st81{fill:#3A3A3A;}
	.st82{fill:#F5A887;}
	.st83{fill:#855B3D;}
	.st84{fill:#D9B496;}
	.st85{fill:#F4F4F4;}
	.st86{fill:#1D1D1B;}
	.st87{fill:#E8E8E8;}
	.st88{fill:#DCDCDC;}
	.st89{fill:#8F8E8E;}
	.st90{fill:#CE9F83;}
	.st91{fill:#E99570;}
	.st92{fill:#002247;}
	.st93{fill:#3D3333;}
	.st94{fill:#352C2D;}
	.st95{fill:#3C3332;}
	.st96{fill:#3E3737;}
	.st97{fill:#433A3A;}
	.st98{fill:#231F20;}
	.st99{fill:#1E436E;}
	.st100{fill:#3C3535;}
	.st101{fill:#3E3535;}
	.st102{fill:#3C3838;}
	.st103{fill:#346296;}
	.st104{fill:#F48C3D;}
	.st105{fill:#FC974C;}
	.st106{fill:#E07C38;}
	.st107{opacity:0.26;}
	.st108{fill:#6E121A;}
	.st109{fill:#E88542;}
	.st110{opacity:0.14;}
	.st111{fill:#534F47;}
	.st112{fill:#3C3832;}
	.st113{opacity:0.41;}
	.st114{fill:#36211C;}
	.st115{fill:#F39D77;}
	.st116{fill:#F7B192;}
	.st117{fill:#F5A17D;}
	.st118{fill:#BBBBBF;}
	.st119{fill:#F0F0F0;}
	.st120{opacity:0.12;}
	.st121{fill:#A88570;}
	.st122{fill:#B28C76;}
	.st123{fill:#D8AE88;}
	.st124{fill:#E3C0A1;}
	.st125{fill:#29292A;}
	.st126{fill:#3B3B3D;}
	.st127{fill:#ECECEC;}
	.st128{fill:#F5F5F5;}
	.st129{fill:#4D7AAB;}
	.st130{fill:#C6C6C6;}
	.st131{fill:#9D9D9C;}
	.st132{fill:#C7A695;}
	.st133{fill:#B2B2B2;}
	.st134{fill:#5D5DA5;}
	.st135{fill:#D96D43;}
	.st136{fill:#F48E62;}
	.st137{fill:#1D2247;}
	.st138{fill:#AD8D7D;}
	.st139{fill:#191919;}
	.st140{fill:#353535;}
	.st141{fill:#222342;}
	.st142{fill:#1A1A1A;}
	.st143{fill:#F09A65;}
	.st144{fill:#422E27;}
	.st145{fill:#E6905B;}
	.st146{opacity:0.19;}
	.st147{fill:#0C0C0C;}
	.st148{fill:#3F4650;}
	.st149{fill:#0A2E57;}
	.st150{fill:#F1B9A8;}
	.st151{fill:#00386A;}
	.st152{fill:#E27E33;}
	.st153{fill:#D99383;}
	.st154{fill:#252A4F;}
	.st155{fill:#FEBCA5;}
	.st156{fill:#0B132D;}
	.st157{opacity:0.18;}
	.st158{fill:#020202;}
	.st159{fill:#E48779;}
	.st160{fill:#EAA93E;}
	.st161{opacity:0.15;}
	.st162{fill:#FFB398;}
	.st163{fill:#FFA289;}
	.st164{fill:#00030C;}
	.st165{fill:#3E3E3E;}
	.st166{fill:#FCC097;}
	.st167{fill:#EAAC81;}
	.st168{fill:#E8AA80;}
	.st169{fill-rule:evenodd;clip-rule:evenodd;fill:#FF953F;}
	.st170{opacity:0.13;fill-rule:evenodd;clip-rule:evenodd;}
	.st171{fill-rule:evenodd;clip-rule:evenodd;fill:#333333;}
	.st172{fill-rule:evenodd;clip-rule:evenodd;}
	.st173{fill-rule:evenodd;clip-rule:evenodd;fill:#FFFFFF;}
	.st174{fill:#939598;}
	.st175{font-family:'OpenSans-Bold';}
	.st176{font-size:8.4353px;}
	.st177{fill:#A5A5A5;}
	.st178{fill:#5B5B5B;}
	.st179{fill:#AFAEAE;}
	.st180{fill:none;stroke:#BE1622;stroke-miterlimit:10;}
	.st181{fill:#282444;}
	.st182{fill:#BA7D52;}
	.st183{fill:#D89364;}
	.st184{fill:#474747;}
	.st185{fill:#F2F0FF;}
	.st186{fill:none;}
	.st187{fill:#2D2C2C;}
	.st188{fill:#FF95A9;}
	.st189{fill:#D17530;}
	.st190{fill-rule:evenodd;clip-rule:evenodd;fill:#303030;}
	.st191{fill:#303030;}
	.st192{fill-rule:evenodd;clip-rule:evenodd;fill:#FFBAC7;}
	.st193{fill-rule:evenodd;clip-rule:evenodd;fill:#161616;}
	.st194{fill-rule:evenodd;clip-rule:evenodd;fill:#282444;}
	.st195{fill-rule:evenodd;clip-rule:evenodd;fill:#0A0F47;}
	.st196{fill-rule:evenodd;clip-rule:evenodd;fill:#4F4F4F;}
	.st197{fill-rule:evenodd;clip-rule:evenodd;fill:#474747;}
</style>
<rect x="0" y="0" class="st0" width="1440" height="510"/>
<g>
	<line class="st21" x1="1088.1" y1="359.4" x2="1126.4" y2="361"/>
	<g>
		<path class="st3" d="M989.2,192.8c59.8-35.9,148-47.2,211.4,22.9c22.9,25.3,34.5,64.5,35.7,94.4"/>
		<circle class="st11" cx="1236.1" cy="304.1" r="4.4"/>
		<circle class="st11" cx="1203.9" cy="218.9" r="4.4"/>
		<circle class="st11" cx="1096.6" cy="164.6" r="4.4"/>
		<circle class="st11" cx="987.5" cy="194.1" r="4.4"/>
	</g>
	<g>
		<g>
			<g>
				<g>
					<text transform="matrix(1 0 0 1 1237.8577 218.9178)"><tspan x="0" y="0" class="st174 st175 st176">Planning  </tspan><tspan x="-3.8" y="8.1" class="st174 st175 st176">Proficiency</tspan></text>
				</g>
			</g>
		</g>
		<path class="st11" d="M1280.5,165.8h-45.8v-4.9c0-0.3-0.1-0.5-0.3-0.7c-0.2-0.2-0.5-0.3-0.7-0.3h-0.1c-3.5,0.1-5.2,1.5-6.1,3.5
			c-0.9,1.9-0.8,4.5-0.8,6.9c-0.4,8.9,0,19,0,28c-0.1,1,0,2.1,0.2,3.1c0.2,0.9,0.6,1.8,1.1,2.5c0.7,0.9,1.5,1.6,2.5,2.1
			c0.9,0.5,2,0.8,3,0.9h43.5c0.2,0,0.3-0.2,0.3-0.4l0-0.2V205c0-0.2-0.1-0.3-0.3-0.3h-43.4c-0.8-0.1-1.6-0.4-2.4-0.8
			c-0.6-0.3-1.1-0.8-1.5-1.3c-0.4-0.6-0.6-1.2-0.8-1.8c-0.1-0.8-0.2-1.6-0.2-2.3c0.2-0.6,0.5-1.1,0.9-1.6c0.3-0.4,0.7-0.8,1.1-1
			c0.4-0.3,0.9-0.5,1.4-0.6c0.6-0.2,1.1-0.3,1.7-0.4h0c0.2,0,0.5-0.2,0.6-0.4c0.2-0.2,0.2-0.4,0.2-0.6h0v-25.9h45
			c0.1,0,0.2-0.1,0.3-0.2l0.7-1.4c0,0,0.1-0.1,0.1-0.2C1280.8,165.9,1280.6,165.8,1280.5,165.8z M1232.6,192.9
			c-0.5,0.1-1,0.2-1.5,0.4c-0.6,0.2-1.1,0.4-1.6,0.8c-0.2,0.2-0.5,0.3-0.7,0.5l-0.1,0.1v-23.5c0-0.3,0-0.6,0-0.9
			c0-3.7-0.1-7.6,3.9-8.2V192.9z M1288.1,173.3l-3.8-7.4l-0.4-0.7l-0.4,0.8l-3.6,7.4l-0.3,0.6h0V206h8.7v-32.1h0.1L1288.1,173.3z
			 M1281,173.1l2.3-4.6h1.4l2.4,4.6H1281z M1259.8,199.5L1259.8,199.5L1259.8,199.5C1259.8,199.5,1259.8,199.5,1259.8,199.5z"/>
		<path class="st12" d="M1262.3,184.2c-0.1-0.1-0.2-0.2-0.4-0.2h-0.9c-0.1-0.2-0.1-0.4-0.2-0.6s-0.2-0.4-0.2-0.5l0.7-0.7
			c0.1-0.1,0.2-0.2,0.2-0.4c0-0.2-0.1-0.3-0.2-0.4l-0.8-0.8c-0.1-0.1-0.2-0.2-0.4-0.2c-0.2,0-0.3,0.1-0.4,0.2l-0.6,0.6
			c-0.2-0.1-0.4-0.2-0.5-0.3c-0.2-0.1-0.4-0.1-0.6-0.2v-1c0-0.3-0.2-0.6-0.6-0.6c0,0,0,0,0,0h-1.2c-0.1,0-0.3,0.1-0.4,0.2
			c-0.1,0.1-0.2,0.2-0.2,0.4v0.9c-0.2,0-0.4,0.1-0.6,0.2c-0.2,0.1-0.4,0.2-0.5,0.2l-0.7-0.7c-0.1-0.1-0.2-0.2-0.4-0.2
			c-0.1,0-0.3,0.1-0.4,0.2l-0.8,0.8c-0.1,0.1-0.2,0.3-0.2,0.4c0,0.2,0.1,0.3,0.2,0.4l0.6,0.6c-0.1,0.2-0.2,0.3-0.3,0.5
			c-0.1,0.2-0.2,0.4-0.2,0.6h-1c-0.2,0-0.3,0.1-0.4,0.2c-0.1,0.1-0.2,0.2-0.2,0.4v1.2c0,0.3,0.2,0.6,0.6,0.6h0.9
			c0,0.2,0.1,0.4,0.2,0.6c0.1,0.2,0.2,0.4,0.2,0.6l-0.7,0.7c-0.1,0.1-0.2,0.2-0.2,0.4c0,0.1,0.1,0.3,0.2,0.4l0.8,0.8
			c0.2,0.2,0.6,0.2,0.8,0l0.6-0.6c0.2,0.1,0.3,0.2,0.5,0.3c0.2,0.1,0.4,0.2,0.6,0.2v0.9c0,0.3,0.2,0.6,0.6,0.6h1.2
			c0.3,0,0.6-0.3,0.6-0.6v-0.9c0.2,0,0.4-0.1,0.6-0.2c0.2-0.1,0.3-0.1,0.5-0.2l0.7,0.7c0.2,0.2,0.6,0.2,0.8,0c0,0,0,0,0,0l0.8-0.8
			c0.1-0.1,0.2-0.2,0.2-0.4c0-0.2-0.1-0.3-0.2-0.4l-0.6-0.6c0.1-0.2,0.2-0.3,0.3-0.5c0.1-0.2,0.2-0.4,0.2-0.6h0.9
			c0.3,0,0.6-0.2,0.6-0.6v-1.2C1262.5,184.5,1262.4,184.3,1262.3,184.2z M1259.5,186.3c-0.2,0.4-0.4,0.7-0.7,1
			c-0.3,0.3-0.6,0.5-1,0.7c-0.8,0.3-1.7,0.3-2.5,0c-0.4-0.2-0.7-0.4-1-0.7c-0.3-0.3-0.5-0.6-0.7-1c-0.3-0.8-0.3-1.7,0-2.5
			c0.2-0.4,0.4-0.7,0.7-1c0.3-0.3,0.6-0.5,1-0.7c0.4-0.2,0.8-0.2,1.2-0.2c0.4,0,0.8,0.1,1.2,0.2c0.4,0.2,0.7,0.4,1,0.7
			c0.3,0.3,0.5,0.6,0.7,1C1259.8,184.6,1259.8,185.5,1259.5,186.3z"/>
		<path class="st12" d="M1271.9,184.5L1271.9,184.5C1271.9,184.5,1271.9,184.5,1271.9,184.5c0,0.6-0.4,1.1-1,1.1h0l-2.2,0.1
			c-0.3,0-0.5-0.1-0.7-0.3c-0.2-0.2-0.3-0.4-0.3-0.7c0-0.6,0.4-1.1,1-1.1c0.8,0,1.5-0.1,2.3-0.1v0h0
			C1271.4,183.5,1271.9,183.9,1271.9,184.5z"/>
		<path class="st12" d="M1268.7,174.8c0,0.3,0,0.5-0.2,0.8l-1.4,1.8c-0.2,0.2-0.4,0.4-0.7,0.4c-0.6,0.1-1.1-0.2-1.2-0.8
			c-0.1-0.3,0-0.6,0.2-0.9l1.4-1.8c0.3-0.4,1-0.6,1.4-0.2c0,0,0,0,0,0C1268.5,174.2,1268.7,174.5,1268.7,174.8z"/>
		<path class="st12" d="M1259.2,170.9C1259.2,170.9,1259.2,170.9,1259.2,170.9l-0.2,2.2c0,0,0,0.1,0,0.1c-0.1,0.5-0.5,0.9-1.1,0.9
			h-0.1c-0.5-0.1-0.9-0.6-0.9-1.1v-0.1l0.2-2.2l0,0c0-0.3,0.2-0.5,0.4-0.7c0.2-0.2,0.5-0.3,0.7-0.2h0.1c0.2,0,0.5,0.2,0.7,0.4
			C1259.1,170.3,1259.2,170.6,1259.2,170.9z"/>
		<path class="st12" d="M1248.9,174.9c0,0.6-0.5,1-1.1,1c-0.3,0-0.5-0.1-0.7-0.3l-1.5-1.6c-0.4-0.4-0.4-1.1,0-1.5
			c0.2-0.2,0.5-0.3,0.7-0.3c0.3,0,0.5,0.1,0.7,0.3l1.6,1.6C1248.8,174.3,1248.9,174.6,1248.9,174.9z"/>
		<path class="st12" d="M1245.6,184.1L1245.6,184.1c0,0.3-0.1,0.6-0.3,0.8c-0.2,0.2-0.5,0.3-0.7,0.3h0l-2.2-0.1l0,0
			c-0.6,0-1-0.5-1-1c0-0.3,0.1-0.5,0.3-0.7c0.2-0.2,0.5-0.3,0.7-0.3l2.3,0C1245.1,183.1,1245.6,183.6,1245.6,184.1z"/>
		<path class="st12" d="M1259.8,199.5c-0.4,0.6-1,1.1-1.7,1.5c-1.1,0.6-2.5,0.6-3.7,0c-0.4-0.2-0.8-0.5-1.1-0.9L1259.8,199.5z"/>
		<path class="st12" d="M1260.6,196v0.6c0,0.3,0,0.5,0,0.8l-0.2,0.6l-7.8,0.7l-0.1-0.3l-0.2-1.2v-0.4L1260.6,196L1260.6,196z"/>
		<path class="st12" d="M1265.6,183.5c-0.1-0.5-0.2-1.1-0.4-1.6c-0.3-0.9-0.8-1.7-1.3-2.4c-0.6-0.7-1.3-1.4-2.1-1.9
			c-0.6-0.4-1.2-0.7-1.9-1l-0.1,0c-0.7-0.3-1.4-0.4-2.1-0.5c-0.7-0.1-1.5-0.1-2.2-0.1c-0.7,0.1-1.4,0.2-2.1,0.4h-0.1
			c-0.9,0.3-1.8,0.8-2.5,1.4c-0.7,0.6-1.4,1.3-1.9,2.1l-0.1,0.1c-0.4,0.7-0.8,1.4-1,2.2c-0.2,0.7-0.4,1.5-0.4,2.2
			c0,0.7,0,1.4,0.1,2.1v0c0.1,0.7,0.3,1.4,0.6,2.1c0.3,0.6,0.6,1.3,1,1.8c0.3,0.5,0.7,1,1,1.4c0.3,0.4,0.6,0.9,0.8,1.3
			c0.3,0.6,0.5,1.1,0.6,1.7c0.1,0.4,0.5,0.6,0.9,0.6l7.5-0.7c0.3,0.1,0.6-0.1,0.8-0.3c0.4-0.6,0.9-1.2,1.4-1.9
			c1-1.2,1.9-2.4,2.6-3.8c0.3-0.6,0.5-1.2,0.7-1.8c0.2-0.6,0.2-1.2,0.3-1.9C1265.7,184.6,1265.7,184.1,1265.6,183.5z M1263.9,186.7
			c-0.1,0.5-0.3,1.1-0.5,1.5c-0.7,1.2-1.5,2.4-2.4,3.4c-0.4,0.5-0.9,1.1-1.3,1.6l-6.7,0.6c-0.2-0.5-0.3-0.9-0.5-1.4
			c-0.3-0.6-0.6-1.1-1-1.6c-0.3-0.4-0.7-0.9-1-1.3l0,0c-0.3-0.5-0.6-1-0.8-1.6c-0.2-0.6-0.4-1.2-0.5-1.8c-0.1-0.6-0.1-1.2-0.1-1.8
			c0-0.6,0.2-1.2,0.4-1.8c0.2-0.7,0.5-1.3,0.9-1.9v0c0.4-0.6,1-1.2,1.6-1.7c0.6-0.5,1.3-0.8,2-1.1h0.1c0.6-0.2,1.1-0.3,1.7-0.4
			c0.6-0.1,1.2,0,1.9,0.1c0.6,0.1,1.2,0.2,1.8,0.5h0.1c0.5,0.2,1.1,0.5,1.6,0.8c0.7,0.4,1.2,1,1.7,1.6c0.5,0.6,0.8,1.2,1.1,2
			c0.1,0.4,0.2,0.8,0.3,1.3c0.1,0.5,0.1,0.9,0.1,1.4C1264.1,185.7,1264,186.2,1263.9,186.7z"/>
	</g>
	<g>
		<g>
			<g>
				<g>
					<text transform="matrix(1 0 0 1 1275.864 339.3389)" class="st174 st175 st176">Monitoring</text>
				</g>
			</g>
		</g>
	</g>
	<g>
		<g>
			<g>
				<text transform="matrix(1 0 0 1 923.6342 252.2108)"><tspan x="0" y="0" class="st174 st175 st176">Project </tspan><tspan x="-13" y="8.1" class="st174 st175 st176">Management</tspan></text>
			</g>
		</g>
		<g>
			<path class="st42" d="M931,219.7h-3.7c-0.2,0-0.3,0.1-0.3,0.4v3.2c0,0.2,0.1,0.3,0.3,0.3h3.7c0.2,0,0.3-0.1,0.3-0.3v-3.2
				C931.3,219.9,931.2,219.7,931,219.7z"/>
			<path class="st43" d="M959.5,225.9h-1.4c-0.1-0.6-0.4-1.2-0.7-1.8l1.1-1.1c0.3-0.4,0.3-0.9,0-1.2l-1.3-1.3
				c-0.3-0.4-0.9-0.4-1.2,0l-1,1c-0.5-0.3-1.1-0.6-1.7-0.8v-1.5c0-0.5-0.4-0.9-0.9-0.9h-1.9c-0.5,0-0.9,0.4-0.9,0.9v1.4
				c-0.6,0.1-1.2,0.4-1.8,0.7l-1.1-1.1c-0.3-0.3-0.9-0.3-1.2,0l-1.3,1.3c-0.3,0.3-0.3,0.9,0,1.2l0.9,0.9c-0.3,0.5-0.6,1.1-0.8,1.7
				H943c-0.5,0-0.9,0.4-0.9,0.9v1.9c0,0.5,0.4,0.9,0.9,0.9h1.4c0.1,0.6,0.4,1.2,0.7,1.8l-1.1,1.1c-0.3,0.4-0.3,0.9,0,1.2l1.3,1.3
				c0.3,0.3,0.9,0.3,1.2,0l1-1c0.5,0.3,1.1,0.6,1.7,0.8v1.5c0,0.5,0.4,0.9,0.9,0.9h1.9c0.5,0,0.9-0.4,0.9-0.9v-1.4
				c0.6-0.1,1.2-0.4,1.8-0.7l1.1,1.1c0.3,0.4,0.9,0.4,1.2,0l1.3-1.3c0.3-0.4,0.3-0.9,0-1.2l-1-1c0.3-0.5,0.6-1.1,0.8-1.7h1.5
				c0.5,0,0.9-0.4,0.9-0.9v-1.9C960.4,226.3,960,225.9,959.5,225.9z M951.3,231.2c-2,0-3.7-1.6-3.7-3.7c0-2,1.7-3.7,3.7-3.7
				s3.7,1.6,3.7,3.7C954.9,229.5,953.3,231.2,951.3,231.2z"/>
			<path class="st42" d="M940.2,221.5c0,0.6-0.4,1-0.9,1h-4.3c-0.5,0-0.9-0.5-0.9-1c0-0.6,0.4-1,0.9-1h4.3
				C939.9,220.5,940.2,220.9,940.2,221.5z"/>
			<path class="st42" d="M947.4,212c0,0.6-0.4,1-0.9,1h-12c-0.5,0-0.9-0.5-0.9-1c0-0.6,0.4-1,0.9-1h12
				C947,211,947.4,211.4,947.4,212z"/>
			<path class="st42" d="M930.7,211.9l-2.4,2c-0.2,0.2-0.6,0.1-0.8-0.1c0,0,0,0-0.1-0.1l-1.1-1.2c-0.2-0.2-0.2-0.6,0.1-0.9
				c0.3-0.2,0.7-0.3,1,0l0.6,0.6l1.9-1.6c0.2-0.2,0.6-0.1,0.9,0.2C931.1,211.3,931,211.7,930.7,211.9z"/>
			<path class="st42" d="M948,203.2c0,0.6-0.4,1-0.9,1h-12c-0.5,0-0.9-0.5-0.9-1c0-0.6,0.4-1,0.9-1h12
				C947.6,202.1,948,202.6,948,203.2z"/>
			<path class="st42" d="M931.3,201.7v3.2c0,0.2-0.1,0.4-0.3,0.4h-3.7c-0.2,0-0.3-0.1-0.3-0.4v-3.2c0-0.2,0.1-0.3,0.3-0.3h3.7
				C931.2,201.4,931.3,201.5,931.3,201.7z"/>
			<path class="st42" d="M955.7,196.5v16.7c0,0.6-0.5,1-1,1c-0.6,0-1-0.5-1-1v-16.7c0-0.1,0-0.2-0.1-0.2c-0.1-0.1-0.1-0.1-0.2-0.1
				h-30.1c-0.1,0-0.2,0-0.2,0.1c-0.1,0-0.1,0.1-0.1,0.2v36.1c0,0.1,0,0.2,0.1,0.2c0.1,0.1,0.1,0.1,0.2,0.1h13.2v0c0.6,0,1,0.5,1,1
				c0,0.6-0.5,1-1,1h-13.2c-0.7,0-1.3-0.3-1.7-0.7c-0.4-0.4-0.7-1-0.7-1.7v-36.1c0-0.7,0.3-1.3,0.7-1.7c0.5-0.5,1-0.7,1.7-0.7h30
				c0.7,0,1.3,0.3,1.7,0.7C955.4,195.2,955.7,195.8,955.7,196.5z"/>
		</g>
	</g>
	<g>
		<g>
			<g>
				<text transform="matrix(1 0 0 1 1079.6838 126.7719)"><tspan x="0" y="0" class="st174 st175 st176">Project </tspan><tspan x="-10.3" y="8.1" class="st174 st175 st176">Preparation</tspan></text>
			</g>
		</g>
		<g>
			<path class="st42" d="M1087,94.3h-3.7c-0.2,0-0.3,0.1-0.3,0.4v3.2c0,0.2,0.1,0.3,0.3,0.3h3.7c0.2,0,0.3-0.1,0.3-0.3v-3.2
				C1087.4,94.4,1087.2,94.3,1087,94.3z"/>
			<path class="st42" d="M1096.3,96.1c0,0.6-0.4,1-0.9,1h-4.3c-0.5,0-0.9-0.5-0.9-1c0-0.6,0.4-1,0.9-1h4.3
				C1095.9,95,1096.3,95.5,1096.3,96.1z"/>
			<path class="st42" d="M1103.4,86.6c0,0.6-0.4,1-0.9,1h-12c-0.5,0-0.9-0.5-0.9-1c0-0.6,0.4-1,0.9-1h12
				C1103,85.5,1103.4,86,1103.4,86.6z"/>
			<path class="st42" d="M1086.8,86.5l-2.4,2c-0.2,0.2-0.6,0.1-0.8-0.1c0,0,0,0-0.1-0.1l-1.1-1.2c-0.2-0.2-0.2-0.6,0.1-0.9
				c0.3-0.2,0.7-0.3,1,0l0.6,0.6l1.9-1.6c0.2-0.2,0.6-0.1,0.9,0.2C1087.1,85.8,1087.1,86.3,1086.8,86.5z"/>
			<path class="st42" d="M1104,77.7c0,0.6-0.4,1-0.9,1h-12c-0.5,0-0.9-0.5-0.9-1c0-0.6,0.4-1,0.9-1h12
				C1103.6,76.7,1104,77.2,1104,77.7z"/>
			<path class="st42" d="M1087.4,76.3v3.2c0,0.2-0.1,0.4-0.3,0.4h-3.7c-0.2,0-0.3-0.1-0.3-0.4v-3.2c0-0.2,0.1-0.3,0.3-0.3h3.7
				C1087.2,76,1087.4,76.1,1087.4,76.3z"/>
			<path class="st42" d="M1111.7,71.1v16.7c0,0.6-0.5,1-1,1c-0.6,0-1-0.5-1-1V71.1c0-0.1,0-0.2-0.1-0.2c-0.1-0.1-0.1-0.1-0.2-0.1
				h-30.1c-0.1,0-0.2,0-0.2,0.1c-0.1,0-0.1,0.1-0.1,0.2v36.1c0,0.1,0,0.2,0.1,0.2c0.1,0.1,0.1,0.1,0.2,0.1h13.2v0c0.6,0,1,0.5,1,1
				c0,0.6-0.5,1-1,1h-13.2c-0.7,0-1.3-0.3-1.7-0.7c-0.4-0.4-0.7-1-0.7-1.7V71.1c0-0.7,0.3-1.3,0.7-1.7c0.5-0.5,1-0.7,1.7-0.7h30
				c0.7,0,1.3,0.3,1.7,0.7C1111.5,69.8,1111.7,70.4,1111.7,71.1z"/>
			<g>
				<path class="st43" d="M1113,93.2l3.3,3.3c0.4,0.4,0.4,1.2,0,1.6l-1.9,1.9l-5-5l1.9-1.9C1111.9,92.8,1112.6,92.8,1113,93.2
					L1113,93.2z M1109,100.7L1109,100.7L1109,100.7c0.1,0.1,0.2,0.3,0.2,0.5c0,0.2-0.1,0.4-0.2,0.5v0l0,0l-4.5,4.5l0,0h0
					c0,0-0.1,0.1-0.1,0.1h0c0,0-0.1,0.1-0.1,0.1c-0.2,0.1-0.5,0-0.7-0.2h0l0,0v0c0,0-0.1-0.1-0.1-0.1v0c0,0-0.1-0.1-0.1-0.1
					c-0.1-0.2,0-0.5,0.2-0.7v0l4.5-4.5l0,0h0c0.1-0.1,0.3-0.2,0.5-0.2C1108.7,100.5,1108.9,100.5,1109,100.7L1109,100.7L1109,100.7
					L1109,100.7z M1105.3,109.2c-1.3,0.4-2.7,0.8-4,1.2c-3.2,1-3.1,1.6-2.3-1.4l1.4-4.8l0,0l0,0l8.2-8.2l5,5L1105.3,109.2
					L1105.3,109.2L1105.3,109.2z M1101.2,105.1l3.3,3.3c-0.9,0.3-1.8,0.5-2.6,0.8c-2.1,0.6-2.1,1.1-1.5-0.9L1101.2,105.1
					L1101.2,105.1z"/>
			</g>
		</g>
	</g>
	<g>
		<path class="st42" d="M1322.3,307.7c-1.5-1.6-3.1-3.1-4.7-4.5c-6.2-5.1-12.7-7.5-19.1-7.3c-6.4,0.1-12.6,2.8-18,7.7
			c-1.4,1.3-2.7,2.7-3.9,4.1c-0.5,0.5-0.5,1.4-0.1,1.9c2,2.5,4.3,4.7,6.9,6.6c4.9,3.5,10.7,5.4,16.8,5.4c6,0,11.8-2.1,16.4-5.8
			c2.2-1.8,4.2-3.9,5.8-6.2C1322.8,309,1322.8,308.2,1322.3,307.7z M1314.7,313.4c-4.1,3.3-9.2,5.2-14.5,5.2c-5.4,0-10.6-1.7-15-4.9
			c-2-1.4-3.9-3.2-5.5-5.1c0.9-1,1.9-2,2.9-2.9v0c4.9-4.5,10.4-6.8,16.1-7c5.7-0.1,11.5,2,17.1,6.6c1.3,1.1,2.5,2.2,3.6,3.4
			C1317.9,310.5,1316.4,312.1,1314.7,313.4z"/>
		<path class="st43" d="M1299.4,300.8c-2.1,0-4.1,0.9-5.6,2.4c-1.5,1.5-2.3,3.5-2.3,5.6c0,4.4,3.6,8,8,8c4.4,0,8-3.6,7.9-8
			C1307.4,304.3,1303.8,300.7,1299.4,300.8z M1297.4,308.8c-1.7,0-3.1-1.4-3.1-3.1c0,0,0,0,0,0c0-1.7,1.4-3.1,3.1-3.1h0
			c1.7,0,3.1,1.4,3.1,3.1C1300.5,307.4,1299.1,308.8,1297.4,308.8z"/>
	</g>
</g>
<g>
	<path class="st2" d="M1168.9,231.8h-161.7c-2.1,0-3.8,1.7-3.8,3.8V269c0,2.1,1.7,3.8,3.8,3.8h161.7c2.1,0,3.8-1.7,3.8-3.8v-33.4
		C1172.8,233.6,1171,231.8,1168.9,231.8z M1157.2,264.5h-141v-23.1h141V264.5z"/>
	<path class="st2" d="M1168.9,278.9h-161.7c-2.1,0-3.8,1.7-3.8,3.8v109.9c0,2.1,1.7,3.9,3.8,3.9h161.7c2.1,0,3.8-1.7,3.8-3.9V282.8
		C1172.8,280.6,1171,278.9,1168.9,278.9z M1037.8,384.9c0,2.1-1.7,3.8-3.8,3.8h-16.2c-2.1,0-3.8-1.7-3.8-3.8v-7.1
		c0-2.1,1.7-3.9,3.8-3.9h16.2c2.1,0,3.8,1.7,3.8,3.9V384.9z M1037.8,363.8c0,2.1-1.7,3.8-3.8,3.8h-16.2c-2.1,0-3.8-1.7-3.8-3.8v-7.1
		c0-2.1,1.7-3.8,3.8-3.8h16.2c2.1,0,3.8,1.7,3.8,3.8V363.8z M1037.8,342.6c0,2.1-1.7,3.8-3.8,3.8h-16.2c-2.1,0-3.8-1.7-3.8-3.8v-7.1
		c0-2.1,1.7-3.9,3.8-3.9h16.2c2.1,0,3.8,1.7,3.8,3.9V342.6z M1037.8,321.4c0,2.1-1.7,3.8-3.8,3.8h-16.2c-2.1,0-3.8-1.7-3.8-3.8v-7.1
		c0-2.1,1.7-3.9,3.8-3.9h16.2c2.1,0,3.8,1.7,3.8,3.9V321.4z M1068,384.9c0,2.1-1.7,3.8-3.8,3.8h-16.2c-2.1,0-3.8-1.7-3.8-3.8v-7.1
		c0-2.1,1.7-3.9,3.8-3.9h16.2c2.1,0,3.8,1.7,3.8,3.9V384.9z M1068,363.8c0,2.1-1.7,3.8-3.8,3.8h-16.2c-2.1,0-3.8-1.7-3.8-3.8v-7.1
		c0-2.1,1.7-3.8,3.8-3.8h16.2c2.1,0,3.8,1.7,3.8,3.8V363.8z M1068,342.6c0,2.1-1.7,3.8-3.8,3.8h-16.2c-2.1,0-3.8-1.7-3.8-3.8v-7.1
		c0-2.1,1.7-3.9,3.8-3.9h16.2c2.1,0,3.8,1.7,3.8,3.9V342.6z M1068,321.4c0,2.1-1.7,3.8-3.8,3.8h-16.2c-2.1,0-3.8-1.7-3.8-3.8v-7.1
		c0-2.1,1.7-3.9,3.8-3.9h16.2c2.1,0,3.8,1.7,3.8,3.9V321.4z M1098.1,384.9c0,2.1-1.7,3.8-3.9,3.8h-16.2c-2.1,0-3.8-1.7-3.8-3.8v-7.1
		c0-2.1,1.7-3.9,3.8-3.9h16.2c2.1,0,3.9,1.7,3.9,3.9V384.9z M1098.1,363.8c0,2.1-1.7,3.8-3.9,3.8h-16.2c-2.1,0-3.8-1.7-3.8-3.8v-7.1
		c0-2.1,1.7-3.8,3.8-3.8h16.2c2.1,0,3.9,1.7,3.9,3.8V363.8z M1098.1,342.6c0,2.1-1.7,3.8-3.9,3.8h-16.2c-2.1,0-3.8-1.7-3.8-3.8v-7.1
		c0-2.1,1.7-3.9,3.8-3.9h16.2c2.1,0,3.9,1.7,3.9,3.9V342.6z M1098.1,321.4c0,2.1-1.7,3.8-3.9,3.8h-16.2c-2.1,0-3.8-1.7-3.8-3.8v-7.1
		c0-2.1,1.7-3.9,3.8-3.9h16.2c2.1,0,3.9,1.7,3.9,3.9V321.4z M1128.3,384.9c0,2.1-1.7,3.8-3.9,3.8h-16.2c-2.1,0-3.8-1.7-3.8-3.8
		v-28.2c0-2.1,1.7-3.8,3.8-3.8h16.2c2.1,0,3.9,1.7,3.9,3.8V384.9z M1128.3,342.6c0,2.1-1.7,3.8-3.9,3.8h-16.2
		c-2.1,0-3.8-1.7-3.8-3.8v-7.1c0-2.1,1.7-3.9,3.8-3.9h16.2c2.1,0,3.9,1.7,3.9,3.9V342.6z M1128.3,321.4c0,2.1-1.7,3.8-3.9,3.8h-16.2
		c-2.1,0-3.8-1.7-3.8-3.8v-7.1c0-2.1,1.7-3.9,3.8-3.9h16.2c2.1,0,3.9,1.7,3.9,3.9V321.4z M1158.4,384.9c0,2.1-1.7,3.8-3.8,3.8h-16.2
		c-2.1,0-3.8-1.7-3.8-3.8v-7.1c0-2.1,1.7-3.9,3.8-3.9h16.2c2.1,0,3.8,1.7,3.8,3.9V384.9z M1158.4,363.8c0,2.1-1.7,3.8-3.8,3.8h-16.2
		c-2.1,0-3.8-1.7-3.8-3.8v-7.1c0-2.1,1.7-3.8,3.8-3.8h16.2c2.1,0,3.8,1.7,3.8,3.8V363.8z M1158.4,342.6c0,2.1-1.7,3.8-3.8,3.8h-16.2
		c-2.1,0-3.8-1.7-3.8-3.8v-7.1c0-2.1,1.7-3.9,3.8-3.9h16.2c2.1,0,3.8,1.7,3.8,3.9V342.6z M1158.4,321.4c0,2.1-1.7,3.8-3.8,3.8h-16.2
		c-2.1,0-3.8-1.7-3.8-3.8v-7.1c0-2.1,1.7-3.9,3.8-3.9h16.2c2.1,0,3.8,1.7,3.8,3.9V321.4z M1158.4,301.1c0,2.1-1.7,3.8-3.8,3.8h-16.2
		c-2.1,0-3.8-1.7-3.8-3.8v-7.1c0-2.1,1.7-3.9,3.8-3.9h16.2c2.1,0,3.8,1.7,3.8,3.9V301.1z"/>
</g>
<g>
	<polygon class="st177" points="1113.8,403.6 1089.7,406.7 1065.6,403.1 1064.2,403.8 1063.2,406 1089.7,412.3 1116.2,406 
		1115.2,404.1 	"/>
	<polygon class="st178" points="1115.2,404.1 1089.7,407.4 1064.2,403.8 1063.2,406 1089.7,412.3 1116.2,406 	"/>
	<path class="st177" d="M1117.8,416.8l-25.1-10.3c-1.9-0.8-4-0.8-5.9,0l-25.3,10.3l-0.5,5l1.5,0.4l25.7-9.3c1-0.4,2.1-0.4,3.1,0
		l25.7,9.3l1.5-0.4L1117.8,416.8z"/>
	<path class="st178" d="M1116.4,417.5l-23.9-9.8c-1.8-0.8-3.8-0.8-5.6,0l-24.1,9.8l-0.5,4.8l25.9-9.3c0.9-0.3,2-0.3,2.9,0l25.9,9.3
		L1116.4,417.5z"/>
	<path class="st178" d="M1091.2,408.4h-2.9c-0.8,0-1.4-0.6-1.4-1.4v-38.8h5.7V407C1092.6,407.7,1091.9,408.4,1091.2,408.4z"/>
	<path class="st179" d="M1147.8,322.3c-0.8-3.8-2.5-5.3-3.4-5.9c-3.5-2.5-8.2-0.9-9.4-0.5c-5.9,1.9-9.1,7.2-9.9,8.6
		c-2.7,4.6-2.5,7.5-6.4,13.1c-1.3,1.9-2.2,1.6-2.3,1.5c-1-0.5,1.5-6.8,2-7.7c4.7-8.8,9.8-14.3,15.6-25.9c1.1-2.1,2.1-5.1,1.5-8.7
		c-0.6-3.3-2.4-5.5-3.4-6.4c-5.8-5-17.9-8-30.7-9.1c-8.2-0.7-13.7-0.8-23.6,0c-12.9,1.1-24.9,4-30.7,9.1c-1,0.8-2.8,3.1-3.4,6.4
		c-0.6,3.6,0.5,6.6,1.5,8.7c5.8,11.5,10.9,17.1,15.6,25.9c0.5,0.9,3,7.2,2,7.7c-0.1,0.1-1,0.4-2.3-1.5c-3.9-5.6-3.7-8.5-6.4-13.1
		c-0.8-1.4-4-6.6-9.9-8.6c-1.2-0.4-5.9-1.9-9.4,0.5c-0.8,0.6-2.6,2-3.4,5.9c-1.3,6.4,5.1,21.3,10.6,29.4c3.6,5.3,5.5,8.1,9.1,10.7
		c6,4.5,12.2,6.2,17.6,6.6c7.4,0.5,34.2,0.5,41.7,0c5.4-0.3,11.6-2,17.6-6.6c3.6-2.7,5.4-5.4,9.1-10.7
		C1142.7,343.6,1149.1,328.7,1147.8,322.3z"/>
	<path class="st29" d="M1034.5,322.1c-0.8,5.2,7.1,23.2,16.9,29c4.2,2.5,7.5,4.1,13.9,4.7c19.8,1.6,32,2.6,51.9-0.3
		c6.8-1,10.3-2,13.7-4.7c8.5-6.6,11.6-15.6,12.6-18.4c1-2.9,3.9-12.7-0.3-15.7c-5.2-3.6-12.7,2.3-14,3.5c-3.5,3.5-5.4,7.9-6.1,9.7
		c-1,2.6-2.5,7.8-6.5,10c-6.3,3.4-39.7,9.7-54.2-0.3c-2.7-1.9-4.6-7.2-4.6-7.2c-0.7-1.6-2.3-6.4-4.6-9.7c0,0-3.3-5.2-9.6-6.7
		C1037.6,314.6,1035.1,317.9,1034.5,322.1z"/>
	<path class="st166" d="M1077.7,272.4c-2.9-4.7-9.8,1.3-16.5,25.1c-2.3,8-3.7,13.2-4.2,16.2c-0.6,4,3.8,9.4,8.6,1
		C1065.9,314.2,1085.9,285.5,1077.7,272.4z"/>
	<g>
		<g>
			<path class="st181" d="M1094.3,222c-4.6-4.3-13.2,2-7.9,8.3C1091.8,236.6,1101.8,228.9,1094.3,222z"/>
		</g>
		<g>
			<path class="st181" d="M1073.3,246.1c-1.4-9.2,1.6-12.4,3.8-13.2c1.5-0.5,1.2-0.1,2-0.3c1.2-0.4,1.5-2.2,5.6-2.6
				c15.7-1.6,18.6,13.3,15.5,19.5c-3.6,7.1-9.7,8.2-15.1,8C1080.2,257.2,1075,257,1073.3,246.1z"/>
		</g>
	</g>
	<path class="st7" d="M1191.8,285l-6.3-33.1c-0.1-0.4-0.5-0.8-0.9-0.8h-30.2c-0.4,0-0.8,0.3-0.9,0.8l-6.3,33.1
		c-0.1,0.6,0.3,1.1,0.9,1.1h42.8C1191.5,286.1,1191.9,285.5,1191.8,285z"/>
	<rect x="1167.5" y="286.2" class="st182" width="4.1" height="1.8"/>
	<path class="st80" d="M1171.3,296.1c-0.4-3.6,1.9-7,2.6-7.9c0.1-0.1,0-0.2-0.1-0.2h-4h-0.4h-4c-0.1,0-0.2,0.1-0.1,0.2
		c0.7,0.9,3,4.3,2.6,7.9c-0.8,7.3-6.9,13.9-6.9,19.8c0,2.8,1.5,7.1,1.9,8.6c0.1,0.2,0.3,0.4,0.6,0.4h6.2h6.2c0.3,0,0.5-0.2,0.6-0.4
		c0.5-1.5,1.9-5.8,1.9-8.6C1178.2,310,1172,303.5,1171.3,296.1z"/>
	<g>
		<path class="st29" d="M1170.5,312c-0.5-0.9-1.4-1.5-2.5-1.7c-0.7-0.1-1.4-0.1-1.9,0.1c0-0.7,0-1.3,0-2c0-0.1-0.1-0.2-0.2-0.2
			h-13.6c-0.1,0-0.2,0.1-0.2,0.2c-0.1,7,1.4,14,2.6,16.4c0.1,0.1,0.2,0.2,0.3,0.2h8.2c0.1,0,0.3-0.1,0.3-0.2
			c0.4-0.7,0.7-1.8,1.1-3.2c1.7-0.6,4.6-2.4,5.9-5.5C1171,315,1171.2,313.3,1170.5,312z M1169.3,315.6c-0.9,2.2-2.9,3.7-4.3,4.4
			c0.5-2.3,0.9-5.2,1.1-8.2c0.4-0.2,0.9-0.3,1.7-0.2c0.7,0.1,1.2,0.5,1.5,1.1C1169.8,313.6,1169.7,314.8,1169.3,315.6z"/>
	</g>
	<path class="st7" d="M1114.1,274.8c-3.4-5.6-4.4-5.7-7.1-5.9c-10.3-1-10-4.4-15.7-4.1c-2.6,0.1-2.7-0.1-7.5,3
		c-4.7,3-8.6,0.9-11,3.7c-3.2,3.8,1.9,8.5-3.8,18c-4.2,7,4.7,8.1,7.6,32.8c0.4,3.4-1.5,5.2-0.8,6.6c3.3,6.5,32.6,4.3,35.1-0.2
		c1-1.9-0.4-1.8-2-4.8c-1.4-2.7-5.6-10.1-3-17.9C1110.9,291.3,1117.7,280.7,1114.1,274.8z"/>
	<path class="st166" d="M1092.5,250.8c2.4-1.1,2.6,6.3,3.5,15.9c0.4,3.8-4.2,7.7-6.8,8c-4.7,0.5-5.6-10.9-2.8-17.2
		C1088.2,253.5,1090.1,251.8,1092.5,250.8z"/>
	<path class="st166" d="M1094,253.5c-1.6,3.2-3.1,8.6-7.5,10.1c-0.6,0.2-1.4,0.2-1.5,0.3c-2.3,0.1-3.9-1.8-4.8-2.8
		c-3.7-4.1-4.6-10.1-5-13.7c-0.4-4.2-0.3-6.2,0.6-8.9c1.7-5.3,10.2-7.3,15.7-4.7c2.1,1,4.7,1.8,5.2,5.7c0.6,5.3-2.5,6.2-1.7,7.1
		c0.3,0.2,3.4-2.6,3.1,2.2c-0.2,3-2.1,5.3-3,5.1C1094.2,253.7,1094.2,253.1,1094,253.5z"/>
	<path class="st183" d="M1086.5,263.7c2.3-0.8,3.8-2.7,4.9-4.7c-1.3,3-2.9,6.9-6.6,8.3c0-1.1,0-2.3,0.2-3.4c0,0,0,0,0,0
		C1085.2,264,1085.9,263.9,1086.5,263.7z"/>
	<path class="st181" d="M1097.8,241.2c-0.3-4.4-3.5-9.1-7.7-9.3c-10-0.5-12.5,1.3-13.7,2.4c-0.7,0.6-2.5,2.5-2.9,6
		c-0.3,2.7,0.7,8.2,1.2,7.1c0.5-1,0.7-2.7,0.9-4.9c0.1,1.3,0.2,2.3,0.3,3c0.1,0.5,0.4,0.8,1.1,0.8c0,0,1.7,0.3,5.4,0.1
		c3.8-0.2,6.7-0.9,6.7-0.9c0.7,0,0.9-0.7,0.7-1.3c-0.2-0.6-0.4-1.4-0.5-2.5c1.6,2.9,4.4,5.9,6.1,4.8
		C1096.3,245.9,1097.9,243.3,1097.8,241.2z"/>
	<g>
		<path class="st184" d="M976.2,420.9h1.5c0.3,0,0.6-0.2,0.7-0.6l24.6-88.8c0.2-0.8-0.4-1.6-1.2-1.6h-3.1c-0.6,0-1.1,0.4-1.2,0.9
			l-22,89C975.4,420.5,975.7,420.9,976.2,420.9z"/>
		<path class="st184" d="M1197.1,420.9h-1.5c-0.3,0-0.6-0.2-0.7-0.6l-20.9-88.8c-0.2-0.8,0.4-1.6,1.2-1.6h3.1c0.6,0,1.1,0.4,1.2,0.9
			l18.3,89C1198,420.5,1197.6,420.9,1197.1,420.9z"/>
	</g>
	<g>
		<path class="st178" d="M1001.3,410.5h1.4c0.3,0,0.6-0.2,0.6-0.5l22-79.3c0.2-0.7-0.3-1.4-1.1-1.4h-2.8c-0.5,0-0.9,0.3-1.1,0.8
			l-19.7,79.5C1000.5,410.1,1000.9,410.5,1001.3,410.5z"/>
		<path class="st178" d="M1172,410.5h-1.4c-0.3,0-0.6-0.2-0.6-0.5l-18.7-79.3c-0.2-0.7,0.3-1.4,1.1-1.4h2.8c0.5,0,0.9,0.3,1.1,0.8
			l16.4,79.5C1172.8,410.1,1172.5,410.5,1172,410.5z"/>
	</g>
	<path class="st183" d="M1012.8,415c11.4-4.5,14.9-13.7,15.7-16.2c4.9-15.7,1.6-30,3.1-46.5c0.2-2.1-0.4-5.8,3-9.4
		c3.9-4.1,48.3-20,66.6-18.2c2.3,0.2,4,4.6,4.6,7.2c3.3,14.4-8.2,19.7-17.1,21.9c-9.5,2.3-21.2,1-31.8,0.7
		c-15.1-0.4-6.5,2.1-7.9,12.8c-2,14.7-11.1,25.9-12.3,36.4c-0.4,3.3,2.5,5.4-0.4,8.8c-1.5,1.7-2.2,1-3.6,2.1
		c-3,2.3-7.8,5.7-11.5,6.8c-5.1,1.5-12.5-2.6-12.8-5.1C1007.9,413.5,1012.4,415.1,1012.8,415z"/>
	<path d="M1088.6,353.6c8.9-2.1,20.4-7.5,17.1-21.9c-0.6-2.6-2.4-7-4.6-7.2c-18.2-1.8-62.7,14.1-66.6,18.2c-3.4,3.6-2.8,7.3-3,9.4
		c-1.1,12.7,0.6,23.9-0.8,35.6c2.5,1.4,6,2.7,9.8,3.5c3.1-7.1,7.2-14.9,8.4-24.1c1.4-10.7-7.2-13.2,7.9-12.8
		C1067.5,354.5,1079.2,355.8,1088.6,353.6z"/>
	<path class="st166" d="M1111.7,271.1c-4.5-4.7-10,2.1-4.2,23.9c2.9,10.7,5.3,14.2,6.1,16.9c0.2,0.6-0.4,0.7-0.8,0.7
		c-15.5-1.2-20.9,7.2-28.1,7.3c-4,0.1-8.1-3.1-10-3c-6.3,0.4-10.3,4.8-10.2,5.9c0.3,1.7,1.7,1.9,4.6,1.8c20.3-0.4,44.2,2.3,51.9-4.7
		c1.3-1.2,2.2-1.5,2.1-5.1C1122.7,306.1,1120.8,280.6,1111.7,271.1z"/>
	<path class="st181" d="M1098,324.8h-68.9c-0.3,0-0.5-0.2-0.5-0.5v-1.2c0-0.3,0.2-0.5,0.5-0.5h67.3c0.3,0,2,1.5,2,1.5
		C1098.6,324.4,1098.4,324.8,1098,324.8C1098,324.8,1098,324.8,1098,324.8z"/>
	<path class="st10" d="M1069.3,324.8h-40.3c-1.7,0-3.1-1.1-3.6-2.7l-8.9-31.7c-0.5-1.7,0.8-3.3,2.5-3.3h38.4c1.7,0,3.1,1.1,3.6,2.7
		l9.4,33.5C1070.7,324,1070.1,324.8,1069.3,324.8z"/>
	<path class="st80" d="M1068,324.8h-39c-1.6,0-3-1.1-3.5-2.6l-9.1-32.4c-0.2-0.8,0.4-1.5,1.2-1.5h39c1.6,0,3,1.1,3.5,2.6l9.1,32.4
		C1069.4,324,1068.8,324.8,1068,324.8z"/>
	<path class="st181" d="M1036.6,404.5c-6.2,7.1-11.9,12.6-18.7,12.1c-2-0.1-3.8-0.8-5.4-1.6c-1-0.1-4.7-1.2-4.4,1.3
		c0.3,2.5,7.6,6.7,12.8,5.3c3.7-1,8.6-4.4,11.6-6.7c1.4-1.1,2.1-0.4,3.6-2.1C1038.9,409.5,1036.6,407.5,1036.6,404.5z"/>
	<path class="st166" d="M1017.6,416.7c11.5-4.4,15-13.5,15.9-16c5.1-15.7,4.5-29.9,6.1-46.5c0.2-2.1-0.3-5.8,3.1-9.3
		c3.9-4,48.6-19.5,66.8-17.5c2.3,0.2,4,4.6,4.6,7.2c3.2,14.4-8.4,19.6-17.3,21.7c-9.5,2.2-21.2,0.8-31.8,0.4
		c-15.1-0.5-7.7,2.1-9.2,12.7c-2.1,14.7-12.8,25.7-14.1,36.3c-0.4,3.3,2.5,5.4-0.5,8.8c-1.5,1.7-2.2,1-3.6,2.1
		c-3,2.3-7.9,5.7-11.6,6.7c-5.1,1.4-12.5-2.8-12.8-5.3C1012.7,415.2,1017.2,416.9,1017.6,416.7z"/>
	<path class="st181" d="M1041.5,406.3c-6.2,7.1-11.9,12.6-18.7,12.1c-2-0.1-3.8-0.8-5.4-1.6c-1-0.1-4.7-1.2-4.4,1.3
		c0.3,2.5,7.6,6.7,12.8,5.3c3.7-1,8.6-4.4,11.6-6.7c1.4-1.1,2.1-0.4,3.6-2.1C1043.8,411.3,1041.4,409.2,1041.5,406.3z"/>
	<path class="st80" d="M1109.4,327.3c-18.2-1.9-62.8,13.5-66.8,17.5c-3.4,3.5-2.9,7.2-3.1,9.3c-1.2,12.2-1.2,23.3-3.2,34.5
		c3.7,1.7,7.4,2.7,10.4,3.2c3.5-6.7,7.6-14,8.9-22.6c1.5-10.7-5.9-13.3,9.2-12.7c10.6,0.4,22.3,1.8,31.8-0.4
		c8.9-2,20.5-7.3,17.3-21.7C1113.4,331.9,1111.7,327.5,1109.4,327.3z"/>
	<rect x="970.7" y="324.8" class="st184" width="232" height="6"/>
</g>
</svg>
