<?xml version="1.0" encoding="utf-8"?>
<!-- Generator: Adobe Illustrator 24.0.1, SVG Export Plug-In . SVG Version: 6.00 Build 0)  -->
<svg version="1.1" id="Layer_1" xmlns="http://www.w3.org/2000/svg" xmlns:xlink="http://www.w3.org/1999/xlink" x="0px" y="0px"
	 viewBox="0 0 480 480" style="enable-background:new 0 0 480 480;" xml:space="preserve">
<style type="text/css">
	.st0{fill:url(#SVGID_1_);}
	.st1{fill:url(#SVGID_2_);}
	.st2{fill:url(#SVGID_3_);}
	.st3{fill:url(#SVGID_4_);}
	.st4{fill:#243874;}
	.st5{fill:url(#SVGID_5_);}
	.st6{fill:#2A3580;}
	.st7{fill:#5E3E3B;}
	.st8{fill:url(#SVGID_6_);}
	.st9{fill:url(#SVGID_7_);}
	.st10{fill:url(#SVGID_8_);}
	.st11{fill:url(#SVGID_9_);}
	.st12{fill:url(#SVGID_10_);}
</style>
<g>
	<g>
		<g>
			<linearGradient id="SVGID_1_" gradientUnits="userSpaceOnUse" x1="113.8587" y1="392.6127" x2="222.8658" y2="141.1531">
				<stop  offset="0" style="stop-color:#9D4599"/>
				<stop  offset="1" style="stop-color:#F27230"/>
			</linearGradient>
			<path class="st0" d="M92.9,376.4c-5.6,12-0.3,26.2,11.6,31.7c3.3,1.5,6.7,2.2,10,2.2c9,0,17.7-5.1,21.7-13.9l61.3-132.2l-62,20
				L92.9,376.4z"/>
			<linearGradient id="SVGID_2_" gradientUnits="userSpaceOnUse" x1="117.4199" y1="394.1565" x2="226.427" y2="142.6969">
				<stop  offset="0" style="stop-color:#9D4599"/>
				<stop  offset="1" style="stop-color:#F27230"/>
			</linearGradient>
			<path class="st1" d="M245.2,104.6c-12-5.6-26.2-0.4-31.7,11.6L163,225.1l62-20l31.9-68.8C262.4,124.4,257.3,110.2,245.2,104.6z"
				/>
		</g>
		<linearGradient id="SVGID_3_" gradientUnits="userSpaceOnUse" x1="458.319" y1="140.017" x2="171.7063" y2="281.3237">
			<stop  offset="0" style="stop-color:#9D4599"/>
			<stop  offset="1" style="stop-color:#36C5F3"/>
		</linearGradient>
		<path class="st2" d="M374.7,203.2c-10.1,0-19.5-6.5-22.8-16.6c-4-12.6,2.9-26.1,15.5-30.1l23.4-7.5c12.6-4,26.1,2.9,30.1,15.5
			c4,12.6-2.9,26.1-15.5,30.1L382,202C379.5,202.8,377.1,203.2,374.7,203.2z"/>
		<linearGradient id="SVGID_4_" gradientUnits="userSpaceOnUse" x1="205.4992" y1="373.3897" x2="329.1761" y2="373.3897">
			<stop  offset="0" style="stop-color:#51B748"/>
			<stop  offset="1" style="stop-color:#36C5F3"/>
		</linearGradient>
		<path class="st3" d="M329.2,462c-0.4-0.3-0.7-0.6-1-1L211.3,324.2c-8.6-10-7.4-25.2,2.6-33.7c10-8.6,25.1-7.4,33.7,2.6l64.4,75.3
			l10.6,80.1C323.4,453.8,325.7,458.4,329.2,462z"/>
		<path class="st4" d="M370.2,445.7c0,1-0.1,1.8-0.2,2.8c0,0.5-0.1,1-0.2,1.5c-0.2,1-0.4,1.9-0.7,2.9c-0.2,0.6-0.4,1.2-0.7,1.8
			c-0.3,1-0.8,1.9-1.4,2.8c-0.7,1.1-1.4,2.2-2.3,3.2c-0.8,1-1.8,2-2.8,2.9c-1.7,1.4-3.5,2.6-5.4,3.6c-0.7,0.3-1.5,0.6-2.3,0.9
			c-0.7,0.2-1.4,0.5-2.2,0.6c-0.9,0.2-1.8,0.4-2.6,0.5c-1,0.2-2.1,0.2-3,0.2c-1,0-2.1-0.1-3.1-0.2c-0.5,0-0.9-0.1-1.4-0.2
			c-2.2-0.4-4.3-1.1-6.3-2.2c-1.8-0.9-3.4-2-4.9-3.3c-0.6-0.4-1-0.9-1.5-1.4c-3.5-3.6-5.8-8.2-6.5-13.5L312,368.5l52.5,61.4
			c2.9,3.3,4.6,7.3,5.4,11.3C370.2,442.7,370.2,444.2,370.2,445.7z"/>
		<linearGradient id="SVGID_5_" gradientUnits="userSpaceOnUse" x1="328.919" y1="463.6293" x2="335.9657" y2="466.0741">
			<stop  offset="0" style="stop-color:#51B748"/>
			<stop  offset="1" style="stop-color:#36C5F3"/>
		</linearGradient>
		<path class="st5" d="M335.6,466.7c-1.8-0.8-3.3-1.9-4.9-3.3C332.1,464.7,333.8,465.8,335.6,466.7z"/>
		<polygon class="st6" points="225,205.1 197.5,264.3 135.6,284.3 163,225.1 		"/>
		<path class="st7" d="M338.3,201.9c0,0.1,0,0.1,0,0.2c-0.2,9.9-6.7,18.9-16.6,22.1l-27.6,8.9l-6.4-48.3l19.4-6.2
			c12.6-4,26.1,3,30.1,15.5c0.1,0.2,0.2,0.5,0.2,0.7v0.1L338.3,201.9z"/>
		<linearGradient id="SVGID_6_" gradientUnits="userSpaceOnUse" x1="339.802" y1="197.3921" x2="337.5006" y2="198.5268">
			<stop  offset="0" style="stop-color:#9D4599"/>
			<stop  offset="1" style="stop-color:#36C5F3"/>
		</linearGradient>
		<path class="st8" d="M338.3,201.9l-1-7.1C338.1,197.2,338.3,199.6,338.3,201.9z"/>
		<g>
			<linearGradient id="SVGID_7_" gradientUnits="userSpaceOnUse" x1="389.2512" y1="178.9263" x2="169.9983" y2="248.2945">
				<stop  offset="0" style="stop-color:#9D4599"/>
				<stop  offset="1" style="stop-color:#36C5F3"/>
			</linearGradient>
			<path class="st9" d="M59.1,283.7c3.3,10.1,12.7,16.6,22.8,16.6c2.4,0,4.9-0.3,7.3-1.1l46.3-14.9l27.4-59.2l-88.4,28.5
				C62.1,257.7,55.1,271.1,59.1,283.7z"/>
			<linearGradient id="SVGID_8_" gradientUnits="userSpaceOnUse" x1="389.0274" y1="178.2191" x2="169.7745" y2="247.5872">
				<stop  offset="0" style="stop-color:#9D4599"/>
				<stop  offset="1" style="stop-color:#36C5F3"/>
			</linearGradient>
			<polygon class="st10" points="287.7,184.8 225,205.1 197.5,264.3 294.1,233.1 			"/>
		</g>
	</g>
	<g>
		<linearGradient id="SVGID_9_" gradientUnits="userSpaceOnUse" x1="358.2216" y1="498.4517" x2="287.5312" y2="9.0566">
			<stop  offset="0" style="stop-color:#9D4599"/>
			<stop  offset="1" style="stop-color:#F27230"/>
		</linearGradient>
		<path class="st11" d="M337.3,194c0.1,0.2,0.2,0.5,0.2,0.7L315.8,31.4c-1.8-13.1-13.7-22.3-26.9-20.6
			c-13.1,1.8-22.2,13.8-20.6,26.9l19.5,147l19.4-6.2C319.8,174.5,333.3,181.5,337.3,194z"/>
		<linearGradient id="SVGID_10_" gradientUnits="userSpaceOnUse" x1="356.1153" y1="498.756" x2="285.4249" y2="9.3609">
			<stop  offset="0" style="stop-color:#9D4599"/>
			<stop  offset="1" style="stop-color:#F27230"/>
		</linearGradient>
		<path class="st12" d="M338.4,202.1c-0.2,9.9-6.7,18.9-16.6,22.1l-27.6,8.9l17.9,135.4l52.5,61.4c2.9,3.3,4.6,7.3,5.4,11.3
			L338.4,202.1z"/>
	</g>
</g>
</svg>
